<?xml version="1.0" encoding="UTF-8" standalone="no"?>
<svg width="215px" height="72px" viewBox="0 0 215 72" version="1.1" xmlns="http://www.w3.org/2000/svg" xmlns:xlink="http://www.w3.org/1999/xlink">
    <title>BNT Logo RGB 170314</title>
    <desc>Created with Sketch.</desc>
    <defs/>
    <g id="Page-1" stroke="none" stroke-width="1" fill="none" fill-rule="evenodd">
        <g id="BNT-Logo-RGB-170221" fill-rule="nonzero">
            <g id="Page-1">
                <g id="BNT0743_Logo_Bantleon_Institutional_Investing_sw">
                    <g id="Group-4" fill="#4A5E00">
                        <polygon id="Fill-1" points="0.041 71.939 214.016 71.939 214.016 43.654 0.041 43.654"/>
                        <path d="M14.749,0.842 C18.65,0.842 20.65,1.342 22.451,2.492 C24.25,3.692 25.25,5.541 25.25,8.192 C25.25,12.492 21.1,14.791 18.15,15.342 L18.15,15.442 C23.25,16.041 27.15,18.791 27.15,23.792 C27.15,27.342 25.4,29.692 22.65,31.342 C20.3,32.742 16.75,33.342 13.1,33.342 L0.65,33.342 L0.65,31.942 C4.55,31.641 4.951,31.242 4.951,25.842 L4.951,8.342 C4.951,2.942 4.55,2.541 0.951,2.242 L0.951,0.842 L14.749,0.842 Z M10.451,15.041 L12.451,15.041 C16.75,15.041 19.451,13.041 19.451,8.842 C19.451,4.242 16.201,2.742 13.15,2.742 C11.85,2.742 11.15,2.842 10.85,2.992 C10.451,3.192 10.451,4.041 10.451,5.242 L10.451,15.041 Z M10.451,16.842 L10.451,25.742 C10.451,30.442 11.05,31.442 14.249,31.342 C17.55,31.342 20.951,29.492 20.951,24.342 C20.951,19.242 17.25,16.842 12.15,16.842 L10.451,16.842 L10.451,16.842 Z" id="Fill-3"/>
                    </g>
                    <path d="M43.55,31.942 L44.499,31.842 C45.9,31.692 46.15,31.342 45.3,29.192 L44.1,26.192 L37.249,26.192 C37.05,26.742 36.499,28.342 36.05,29.792 C35.6,31.292 35.9,31.692 37.3,31.842 L38.451,31.942 L38.451,33.342 L29.4,33.342 L29.4,31.942 C31.499,31.692 32.4,31.592 33.8,28.292 L41.249,10.842 L43.1,10.442 L50.65,28.891 C51.8,31.641 52.8,31.742 54.9,31.942 L54.9,33.342 L43.55,33.342 L43.55,31.942 Z M37.8,24.292 L43.4,24.292 L40.65,17.192 L40.499,17.192 L37.8,24.292 L37.8,24.292 Z" id="Fill-5" fill="#4A5E00"/>
                    <path d="M80.249,33.592 L77.849,33.592 L63.15,16.992 L63.099,16.992 L63.099,23.692 C63.099,27.292 63.249,29.042 63.4,30.092 C63.55,31.292 64.65,31.842 67.15,31.942 L67.15,33.342 L57.249,33.342 L57.249,31.942 C59.349,31.891 60.4,31.292 60.599,30.092 C60.749,29.042 60.9,27.292 60.9,23.692 L60.9,17.391 C60.9,13.391 60.099,12.641 56.7,12.442 L56.7,11.041 L64.45,11.041 L77.95,25.891 L78.05,25.891 L78.05,20.692 C78.05,17.092 77.9,15.342 77.749,14.242 C77.55,13.041 76.45,12.541 73.949,12.442 L73.949,11.041 L83.9,11.041 L83.9,12.442 C81.8,12.492 80.749,13.041 80.55,14.242 C80.4,15.342 80.249,17.092 80.249,20.692 L80.249,33.592" id="Fill-6" fill="#4A5E00"/>
                    <path d="M100.05,27.842 C100.05,31.492 100.349,31.742 103.849,31.942 L103.849,33.342 L91.15,33.342 L91.15,31.942 C94.499,31.742 94.8,31.492 94.8,27.842 L94.8,12.791 L93.65,12.791 C90.7,12.791 89.7,13.242 89.15,13.842 C88.7,14.342 88.249,15.242 87.8,17.141 L86.4,17.141 C86.55,14.391 86.8,11.942 86.849,10.192 L87.65,10.192 C88.199,10.942 88.599,11.041 89.8,11.041 L105.349,11.041 C106.55,11.041 106.749,10.842 107.3,10.192 L108.099,10.192 C108.099,11.942 108.349,15.092 108.55,17.041 L107.099,17.141 C106.7,15.092 106.3,14.192 105.749,13.641 C105.099,12.992 103.9,12.791 101.999,12.791 L100.05,12.791 L100.05,27.842" id="Fill-7" fill="#4A5E00"/>
                    <path d="M111.949,33.342 L111.949,31.942 C115.349,31.742 115.599,31.492 115.599,27.792 L115.599,16.541 C115.599,12.842 115.298,12.641 112.199,12.442 L112.199,11.041 L124.499,11.041 L124.499,12.442 C121.148,12.641 120.849,12.842 120.849,16.541 L120.849,27.692 C120.849,29.641 121.099,30.692 121.798,31.092 C122.499,31.492 123.398,31.592 124.798,31.592 C126.749,31.592 127.999,31.342 128.699,30.542 C129.298,29.891 129.949,28.742 130.648,26.641 L132.148,26.792 C131.849,28.542 131.148,31.992 130.849,33.342 L111.949,33.342" id="Fill-8" fill="#4A5E00"/>
                    <path d="M138.298,16.541 C138.298,12.842 138.048,12.592 134.997,12.442 L134.997,11.041 L153.199,11.041 C153.249,11.992 153.398,14.342 153.599,16.891 L152.148,16.992 C151.798,15.141 151.398,14.192 150.849,13.641 C150.398,13.192 149.298,12.791 146.898,12.791 L144.999,12.791 C143.599,12.791 143.548,12.791 143.548,14.041 L143.548,20.742 L146.849,20.742 C149.749,20.742 149.849,20.542 150.249,17.992 L151.699,17.992 L151.699,25.442 L150.249,25.442 C149.849,22.891 149.749,22.742 146.849,22.742 L143.548,22.742 L143.548,27.692 C143.548,29.641 143.798,30.792 144.499,31.141 C145.199,31.492 146.249,31.592 147.999,31.592 C149.749,31.592 151.349,31.391 152.199,30.542 C152.798,29.891 153.398,28.742 153.898,27.141 L155.398,27.292 C155.148,28.592 154.398,32.391 154.099,33.342 L134.648,33.342 L134.648,31.942 C138.048,31.742 138.298,31.492 138.298,27.792 L138.298,16.541" id="Fill-9" fill="#4A5E00"/>
                    <path d="M183.599,21.842 C183.599,29.742 177.548,33.942 171.199,33.942 C162.898,33.942 158.699,28.042 158.699,22.692 C158.699,14.391 165.349,10.442 171.199,10.442 C178.798,10.442 183.599,15.541 183.599,21.842 Z M171.548,32.141 C174.747,32.141 177.699,29.592 177.699,22.942 C177.699,17.592 175.247,12.242 170.747,12.242 C167.449,12.242 164.599,15.692 164.599,21.542 C164.599,27.641 167.349,32.141 171.548,32.141 L171.548,32.141 Z" id="Fill-10" fill="#4A5E00"/>
                    <path d="M209.798,33.592 L207.398,33.592 L192.697,16.992 L192.648,16.992 L192.648,23.692 C192.648,27.292 192.798,29.042 192.947,30.092 C193.097,31.292 194.197,31.842 196.697,31.942 L196.697,33.342 L186.798,33.342 L186.798,31.942 C188.898,31.891 189.947,31.292 190.148,30.092 C190.298,29.042 190.447,27.292 190.447,23.692 L190.447,17.391 C190.447,13.391 189.648,12.641 186.247,12.442 L186.247,11.041 L193.997,11.041 L207.497,25.891 L207.597,25.891 L207.597,20.692 C207.597,17.092 207.449,15.342 207.298,14.242 C207.097,13.041 205.997,12.541 203.497,12.442 L203.497,11.041 L213.449,11.041 L213.449,12.442 C211.347,12.492 210.298,13.041 210.097,14.242 C209.949,15.342 209.798,17.092 209.798,20.692 L209.798,33.592" id="Fill-11" fill="#4A5E00"/>
                    <path d="M17.653,63.2 L20.121,63.2 L20.121,51.45 L17.653,51.45 L17.653,63.2 Z M30.225,63.2 L30.225,56.877 C30.225,56.336 30.174,55.964 30.056,55.642 C29.786,54.899 28.94,54.391 27.976,54.391 C27.469,54.391 26.878,54.527 26.421,54.763 C26.049,54.966 25.762,55.169 25.424,55.406 C25.424,55.051 25.305,54.679 25.102,54.324 L23.09,54.899 C23.293,55.473 23.395,56.183 23.395,56.927 L23.395,63.2 L25.66,63.2 L25.66,57.079 C26.184,56.606 26.776,56.302 27.233,56.302 C27.824,56.302 27.993,56.589 27.993,57.57 L27.993,63.2 L30.225,63.2 Z M39.625,60.461 C39.625,59.886 39.473,59.396 39.151,58.99 C38.847,58.601 38.492,58.28 37.427,58.009 L36.379,57.739 C35.584,57.536 35.297,57.299 35.297,56.86 C35.297,56.352 35.736,56.014 36.396,56.014 C37.038,56.014 37.664,56.2 38.526,56.64 L39.27,55.118 C38.475,54.729 37.562,54.307 36.176,54.307 C34.164,54.307 32.828,55.44 32.828,57.13 C32.828,57.688 33.014,58.314 33.319,58.686 C33.623,59.058 34.333,59.463 34.908,59.565 L35.922,59.751 C36.835,59.92 37.258,60.224 37.258,60.816 C37.258,61.374 36.751,61.796 36.108,61.796 C35.128,61.796 33.927,61.238 33.234,60.816 L32.423,62.473 C33.691,63.132 34.857,63.47 35.922,63.47 C38.137,63.47 39.625,62.253 39.625,60.461 Z M46.631,63.014 L46.343,61.661 C45.938,61.779 45.735,61.83 45.532,61.83 C44.754,61.83 44.551,61.543 44.551,60.444 L44.551,56.099 L46.005,56.099 L46.58,54.543 L44.551,54.543 C44.551,53.664 44.602,52.717 44.687,51.923 L42.387,52.498 C42.303,53.14 42.303,53.698 42.303,54.543 L41.44,54.543 L41.44,56.099 L42.303,56.099 L42.303,60.799 C42.303,61.594 42.32,61.763 42.455,62.135 C42.725,62.895 43.638,63.403 44.788,63.403 C45.38,63.403 45.972,63.284 46.631,63.014 Z M51.517,63.2 L51.517,54.341 L49.251,54.696 L49.251,63.2 L51.517,63.2 Z M51.787,52.16 C51.787,51.382 51.179,50.756 50.418,50.756 C49.64,50.756 48.998,51.382 48.998,52.16 C48.998,52.937 49.623,53.563 50.384,53.563 C51.162,53.563 51.787,52.937 51.787,52.16 Z M59.226,63.014 L58.939,61.661 C58.533,61.779 58.33,61.83 58.127,61.83 C57.349,61.83 57.146,61.543 57.146,60.444 L57.146,56.099 L58.6,56.099 L59.175,54.543 L57.146,54.543 C57.146,53.664 57.197,52.717 57.282,51.923 L54.982,52.498 C54.898,53.14 54.898,53.698 54.898,54.543 L54.036,54.543 L54.036,56.099 L54.898,56.099 L54.898,60.799 C54.898,61.594 54.915,61.763 55.05,62.135 C55.321,62.895 56.234,63.403 57.383,63.403 C57.975,63.403 58.567,63.284 59.226,63.014 Z M68.751,62.523 C68.413,62.118 68.227,61.526 68.227,60.951 L68.227,54.341 L66.063,54.797 L66.063,60.883 C65.894,61.306 65.218,61.712 64.66,61.712 C64.322,61.712 63.983,61.543 63.865,61.306 C63.747,61.069 63.679,60.664 63.679,59.886 L63.679,54.324 L61.447,54.746 L61.447,60.292 C61.447,61.171 61.498,61.627 61.633,62.016 C61.921,62.845 62.969,63.419 64.186,63.419 C65.099,63.419 65.911,63.132 66.469,62.591 C66.621,62.946 66.858,63.233 67.145,63.436 L68.751,62.523 Z M75.848,63.014 L75.561,61.661 C75.155,61.779 74.952,61.83 74.749,61.83 C73.972,61.83 73.769,61.543 73.769,60.444 L73.769,56.099 L75.223,56.099 L75.798,54.543 L73.769,54.543 C73.769,53.664 73.82,52.717 73.904,51.923 L71.605,52.498 C71.52,53.14 71.52,53.698 71.52,54.543 L70.658,54.543 L70.658,56.099 L71.52,56.099 L71.52,60.799 C71.52,61.594 71.537,61.763 71.672,62.135 C71.943,62.895 72.856,63.403 74.005,63.403 C74.597,63.403 75.189,63.284 75.848,63.014 Z M80.565,63.2 L80.565,54.341 L78.3,54.696 L78.3,63.2 L80.565,63.2 Z M80.836,52.16 C80.836,51.382 80.227,50.756 79.466,50.756 C78.689,50.756 78.046,51.382 78.046,52.16 C78.046,52.937 78.672,53.563 79.432,53.563 C80.21,53.563 80.836,52.937 80.836,52.16 Z M91.015,58.838 C91.015,57.435 90.711,56.488 90.018,55.676 C89.274,54.797 88.31,54.374 87.076,54.374 C84.743,54.374 83.187,56.183 83.187,58.905 C83.187,61.627 84.726,63.386 87.076,63.386 C88.411,63.386 89.274,62.929 89.933,62.185 C90.677,61.34 91.015,60.326 91.015,58.838 Z M88.547,58.821 C88.547,60.867 88.124,61.746 87.143,61.746 C86.704,61.746 86.197,61.509 85.994,61.036 C85.808,60.596 85.706,59.852 85.706,58.855 C85.706,57.992 85.791,57.384 85.943,56.927 C86.129,56.386 86.569,56.048 87.11,56.048 C87.515,56.048 87.87,56.217 88.09,56.505 C88.395,56.894 88.547,57.654 88.547,58.821 Z M100.501,63.2 L100.501,56.877 C100.501,56.336 100.451,55.964 100.332,55.642 C100.062,54.899 99.216,54.391 98.253,54.391 C97.745,54.391 97.154,54.527 96.697,54.763 C96.325,54.966 96.038,55.169 95.7,55.406 C95.7,55.051 95.581,54.679 95.379,54.324 L93.367,54.899 C93.57,55.473 93.671,56.183 93.671,56.927 L93.671,63.2 L95.937,63.2 L95.937,57.079 C96.461,56.606 97.052,56.302 97.509,56.302 C98.101,56.302 98.27,56.589 98.27,57.57 L98.27,63.2 L100.501,63.2 Z M110.79,62.253 C110.029,61.678 109.962,61.272 109.979,60.326 L110.029,57.418 C110.046,56.488 109.996,56.217 109.877,55.862 C109.539,54.899 108.542,54.357 107.088,54.357 C106.293,54.357 105.566,54.51 104.721,54.865 C104.112,55.118 103.774,55.287 103.318,55.575 L104.281,57.198 C105.211,56.572 106.056,56.217 106.783,56.217 C107.612,56.217 107.798,56.538 107.798,57.502 L107.798,57.857 C107.612,57.84 107.46,57.84 107.291,57.84 C104.535,57.84 103.132,58.787 103.132,60.816 C103.132,62.54 104.18,63.521 106.107,63.521 C106.817,63.521 107.426,63.352 107.849,63.047 C108.018,62.929 108.204,62.76 108.373,62.591 C108.592,63.03 109.066,63.419 109.59,63.639 L110.79,62.253 Z M107.764,59.413 L107.73,61.272 C107.392,61.644 106.969,61.864 106.547,61.864 C105.972,61.864 105.549,61.408 105.549,60.731 C105.549,59.7 106.09,59.413 107.663,59.413 L107.764,59.413 Z M116.751,63.166 L116.362,61.813 C116.244,61.847 116.193,61.847 116.109,61.847 C115.923,61.847 115.737,61.763 115.652,61.61 C115.517,61.374 115.5,61.171 115.5,59.683 L115.5,52.937 C115.5,51.72 115.466,51.162 115.382,50.689 L113.066,51.213 C113.15,51.991 113.184,52.684 113.184,53.817 L113.184,60.275 C113.184,61.509 113.218,61.779 113.387,62.219 C113.657,62.946 114.435,63.403 115.399,63.403 C115.889,63.403 116.362,63.318 116.751,63.166 Z M124.781,63.2 L127.25,63.2 L127.25,51.45 L124.781,51.45 L124.781,63.2 Z M137.353,63.2 L137.353,56.877 C137.353,56.336 137.302,55.964 137.184,55.642 C136.913,54.899 136.068,54.391 135.104,54.391 C134.597,54.391 134.005,54.527 133.549,54.763 C133.177,54.966 132.89,55.169 132.551,55.406 C132.551,55.051 132.433,54.679 132.23,54.324 L130.218,54.899 C130.421,55.473 130.523,56.183 130.523,56.927 L130.523,63.2 L132.788,63.2 L132.788,57.079 C133.312,56.606 133.904,56.302 134.36,56.302 C134.952,56.302 135.121,56.589 135.121,57.57 L135.121,63.2 L137.353,63.2 Z M147.057,54.543 L144.69,54.543 L143.524,58.178 C143.253,59.041 143.067,59.869 142.999,60.376 C142.881,59.818 142.628,58.871 142.442,58.297 L141.19,54.391 L138.874,54.679 L142.019,63.2 L143.896,63.2 L147.057,54.543 Z M155.495,59.582 L155.495,59.058 C155.495,57.249 155.14,56.082 154.345,55.27 C153.787,54.696 152.841,54.357 151.843,54.357 C150.694,54.357 149.831,54.729 149.121,55.524 C148.361,56.369 148.039,57.401 148.039,58.956 C148.039,61.678 149.645,63.436 152.131,63.436 C153.348,63.436 154.396,63.047 155.394,62.236 L154.514,60.883 C153.821,61.458 153.094,61.746 152.317,61.746 C151.15,61.746 150.491,60.985 150.491,59.649 L150.491,59.582 L155.495,59.582 Z M153.145,57.925 L150.525,57.925 L150.525,57.891 C150.525,56.691 151.015,56.014 151.877,56.014 C152.334,56.014 152.655,56.183 152.875,56.522 C153.077,56.843 153.145,57.181 153.145,57.823 L153.145,57.925 Z M164.557,60.461 C164.557,59.886 164.405,59.396 164.083,58.99 C163.779,58.601 163.424,58.28 162.359,58.009 L161.311,57.739 C160.516,57.536 160.229,57.299 160.229,56.86 C160.229,56.352 160.668,56.014 161.328,56.014 C161.97,56.014 162.596,56.2 163.458,56.64 L164.202,55.118 C163.407,54.729 162.494,54.307 161.108,54.307 C159.096,54.307 157.76,55.44 157.76,57.13 C157.76,57.688 157.946,58.314 158.251,58.686 C158.555,59.058 159.265,59.463 159.84,59.565 L160.854,59.751 C161.767,59.92 162.19,60.224 162.19,60.816 C162.19,61.374 161.683,61.796 161.04,61.796 C160.06,61.796 158.859,61.238 158.166,60.816 L157.355,62.473 C158.623,63.132 159.789,63.47 160.854,63.47 C163.069,63.47 164.557,62.253 164.557,60.461 Z M171.563,63.014 L171.275,61.661 C170.87,61.779 170.667,61.83 170.464,61.83 C169.686,61.83 169.483,61.543 169.483,60.444 L169.483,56.099 L170.937,56.099 L171.512,54.543 L169.483,54.543 C169.483,53.664 169.534,52.717 169.619,51.923 L167.319,52.498 C167.235,53.14 167.235,53.698 167.235,54.543 L166.372,54.543 L166.372,56.099 L167.235,56.099 L167.235,60.799 C167.235,61.594 167.252,61.763 167.387,62.135 C167.657,62.895 168.57,63.403 169.72,63.403 C170.312,63.403 170.903,63.284 171.563,63.014 Z M176.116,63.2 L176.116,54.341 L173.85,54.696 L173.85,63.2 L176.116,63.2 Z M176.386,52.16 C176.386,51.382 175.778,50.756 175.017,50.756 C174.239,50.756 173.597,51.382 173.597,52.16 C173.597,52.937 174.222,53.563 174.983,53.563 C175.761,53.563 176.386,52.937 176.386,52.16 Z M186.114,63.2 L186.114,56.877 C186.114,56.336 186.063,55.964 185.945,55.642 C185.675,54.899 184.829,54.391 183.866,54.391 C183.358,54.391 182.767,54.527 182.31,54.763 C181.938,54.966 181.651,55.169 181.313,55.406 C181.313,55.051 181.194,54.679 180.991,54.324 L178.98,54.899 C179.182,55.473 179.284,56.183 179.284,56.927 L179.284,63.2 L181.549,63.2 L181.549,57.079 C182.073,56.606 182.665,56.302 183.122,56.302 C183.713,56.302 183.882,56.589 183.882,57.57 L183.882,63.2 L186.114,63.2 Z M197.855,55.49 L196.909,54.053 C196.385,54.527 195.742,54.797 195.117,54.797 C194.829,54.797 194.525,54.729 194.051,54.611 C193.426,54.459 192.986,54.391 192.496,54.391 C190.281,54.391 188.844,55.541 188.844,57.316 C188.844,58.601 189.453,59.396 190.704,59.717 C189.284,60.089 189.115,60.613 189.115,61.171 C189.115,61.763 189.368,62.151 189.774,62.304 C190.18,62.473 190.839,62.557 191.854,62.574 L192.817,62.591 C193.713,62.608 194.406,62.845 194.406,63.622 C194.406,63.977 194.187,64.299 193.849,64.501 C193.494,64.721 193.003,64.789 192.428,64.789 C191.38,64.789 190.805,64.417 190.805,63.724 C190.805,63.487 190.822,63.369 190.907,63.166 L188.81,63.166 C188.726,63.335 188.608,63.572 188.608,64.045 C188.608,64.637 188.844,65.144 189.318,65.583 C190.095,66.31 191.363,66.513 192.597,66.513 C193.95,66.513 195.252,66.209 196.013,65.397 C196.486,64.89 196.706,64.332 196.706,63.605 C196.706,62.828 196.469,62.236 195.962,61.763 C195.353,61.205 194.66,61.002 193.341,60.985 L192.124,60.968 C191.887,60.968 191.752,60.883 191.752,60.765 C191.752,60.528 192.073,60.326 192.648,60.055 C192.817,60.072 192.885,60.072 192.986,60.072 C194.829,60.072 196.182,58.99 196.182,57.502 C196.182,56.927 196.013,56.488 195.674,56.082 C195.81,56.099 196.046,56.133 196.266,56.133 C196.892,56.133 197.365,55.947 197.855,55.49 Z M193.849,57.333 C193.849,58.128 193.358,58.567 192.462,58.567 C191.668,58.567 191.127,58.212 191.127,57.333 C191.127,56.522 191.617,56.048 192.479,56.048 C193.341,56.048 193.849,56.522 193.849,57.333 L193.849,57.333 Z" id="Fill-12" fill="#FFFFFF"/>
                </g>
            </g>
        </g>
    </g>
</svg>