<?xml version="1.0" encoding="UTF-8"?>
<svg width="142.78" height="20.218" fill="none" version="1.1" viewBox="0 0 142.78 20.218" xmlns="http://www.w3.org/2000/svg">
 <g id="Assets/Graphics/gfx_logo_dataland_orange" fill="#f56a01">
  <path id="Shape" d="m7.417 0h-7.417v14.55h3.3932v-11.654h4.0238c1.5615 0 2.8227 0.4731 3.7836 1.4193 0.9609 0.94621 1.4413 2.3366 1.4413 4.171v3.2442c0 1.8344-0.4804 3.2248-1.4413 4.171s-2.2221 1.4193-3.7836 1.4193h-7.417v2.8966h7.417c1.3413 0 2.5574-0.2124 3.6484-0.6372 1.0911-0.4249 2.0219-1.0573 2.7927-1.8973 0.7707-0.84 1.3663-1.8924 1.7867-3.1572s0.6306-2.7373 0.6306-4.4173c0-1.68-0.2102-3.1524-0.6306-4.4172-0.4204-1.2648-1.016-2.3172-1.7867-3.1572-0.7708-0.84-1.7016-1.4724-2.7927-1.8972-1.091-0.42483-2.3071-0.63724-3.6484-0.63724z" clip-rule="evenodd" fill-rule="evenodd"/>
  <path d="m30.484 14.743 1.8918 5.4745h3.5433l-7.1467-20.218h-4.264l-7.1468 20.218h3.4533l1.8317-5.4745zm-3.9935-11.731h0.1501l3.0029 8.9214h-6.1859z" clip-rule="evenodd" fill-rule="evenodd"/>
  <path id="Path" d="m44.451 2.8966v17.321h-3.3932v-17.321h-6.2459v-2.8966h15.885v2.8966z"/>
  <path d="m62.712 14.743 1.8918 5.4745h3.5434l-7.1468-20.218h-4.264l-7.1468 20.218h3.4533l1.8317-5.4745zm-3.9934-11.731h0.1501l3.0029 8.9214h-6.1859z" clip-rule="evenodd" fill-rule="evenodd"/>
  <path d="m70.854 20.218v-20.218h3.3932v17.321h8.5281v2.8966z"/>
  <path d="m97.463 14.743 1.8918 5.4745h3.543l-7.1464-20.218h-4.264l-7.1468 20.218h3.4533l1.8317-5.4745zm-3.9934-11.731h0.1501l3.0028 8.9214h-6.1858z" clip-rule="evenodd" fill-rule="evenodd"/>
  <path d="m111.25 9.0372-2.312-4.2869h-0.09v15.468h-3.244v-20.218h3.784l6.846 11.181 2.313 4.2869h0.09v-15.468h3.243v20.218h-3.784z"/>
  <path d="m133.93 0h-7.417v20.218h7.417c1.341 0 2.557-0.2124 3.648-0.6372 1.091-0.4249 2.022-1.0573 2.793-1.8973s1.366-1.8924 1.787-3.1572c0.42-1.2648 0.63-2.7373 0.63-4.4173 0-1.68-0.21-3.1524-0.63-4.4172-0.421-1.2648-1.016-2.3172-1.787-3.1572s-1.702-1.4724-2.793-1.8972c-1.091-0.42483-2.307-0.63724-3.648-0.63724zm3.783 15.902c-0.961 0.9462-2.222 1.4193-3.783 1.4193h-4.024v-14.425h4.024c1.561 0 2.822 0.4731 3.783 1.4193 0.961 0.94621 1.442 2.3366 1.442 4.171v3.2442c0 1.8344-0.481 3.2248-1.442 4.171z" clip-rule="evenodd" fill-rule="evenodd"/>
 </g>
</svg>
