<?xml version="1.0" standalone="no"?>
<!DOCTYPE svg PUBLIC "-//W3C//DTD SVG 20010904//EN"
 "http://www.w3.org/TR/2001/REC-SVG-20010904/DTD/svg10.dtd">
<svg version="1.0" xmlns="http://www.w3.org/2000/svg"
 width="196.000000pt" height="196.000000pt" viewBox="0 0 196.000000 196.000000"
 preserveAspectRatio="xMidYMid meet">
<metadata>
Created by potrace 1.14, written by Peter Selinger 2001-2017
</metadata>
<g transform="translate(0.000000,196.000000) scale(0.100000,-0.100000)"
fill="#000000" stroke="none">
<path d="M530 1480 l0 -120 248 0 c339 0 391 -14 442 -116 23 -46 25 -61 28
-221 4 -201 -8 -265 -62 -319 -45 -45 -90 -56 -263 -61 l-153 -5 0 241 0 241
-120 0 -120 0 0 -360 0 -360 253 0 c272 0 346 9 440 53 109 51 198 160 240
292 19 62 22 92 22 255 0 163 -3 193 -22 255 -42 132 -131 241 -240 292 -94
44 -168 53 -440 53 l-253 0 0 -120z"/>
</g>
</svg>
