<svg width="86" height="108" viewBox="0 0 86 108" fill="none" xmlns="http://www.w3.org/2000/svg">
<g id="Dataland_D_svg_Logo" clip-path="url(#clip0_910_3958)">
<path id="Vector" fill-rule="evenodd" clip-rule="evenodd" d="M83.0231 30.379C80.8142 23.6301 77.7067 18.0121 73.6914 13.5295C69.6762 9.04693 64.8114 5.6725 59.0925 3.40168C53.3737 1.13541 47.0512 0 40.1296 0H0.544922V21.5818H21.7748H24.4174H38.6541C45.5489 21.5818 54.344 22.8308 58.3011 26.7457C62.2538 30.6606 64.2346 36.9507 64.2346 45.6071V62.3021C64.2346 70.9585 62.2582 77.2486 58.3011 81.1635C54.3484 85.0784 45.5489 86.3273 38.6541 86.3273H21.7748V43.1637H0.544922V107.909H40.1296C47.0512 107.909 53.3737 106.774 59.0925 104.507C64.8114 102.241 69.6762 98.8668 73.6914 94.3796C77.7067 89.8971 80.8142 84.2791 83.0231 77.5302C85.2319 70.7813 85.46 62.9198 85.46 53.9546C85.46 44.9894 85.2319 37.1278 83.0231 30.379Z" fill="#E27437"/>
<path id="Vector_2" d="M21.7748 86.3455H0.544922V107.909H21.7748V86.3455Z" fill="#CD6435"/>
<path id="Vector_3" d="M21.7832 86.3682L42.8208 86.2002L42.8119 107.886C35.926 108.023 21.7877 107.932 21.7877 107.932V86.3682H21.7832Z" fill="#B75930"/>
<path id="Vector_4" d="M21.5825 0H0.544922V21.5637H21.5825V0Z" fill="#E28049"/>
<path id="Vector_5" d="M0.544922 43.1636H21.7748V64.7636H0.544922V43.1636Z" fill="#B75930"/>
</g>
<defs>
<clipPath id="clip0_910_3958">
<rect width="85" height="108" fill="white" transform="translate(0.5)"/>
</clipPath>
</defs>
</svg>
