<svg width="143" height="20" viewBox="0 0 143 20" fill="none" xmlns="http://www.w3.org/2000/svg">
<g id="Dataland_Logo">
<path id="Shape" d="M31.1153 19.0153L29.6883 14.493H23.0385L21.6115 19.0153H17.2163L23.7805 0H29.146L35.6246 19.0153H31.1153ZM26.4062 3.75947H26.2635L24.0659 10.9787H28.6323L26.4062 3.75947Z" fill="#FF5C00"/>
<path id="Path" d="M44.843 3.67774V19.0153H40.5049V3.67774H35.1108V0H50.237V3.67774H44.843Z" fill="#FF5C00"/>
<path id="Shape_2" d="M63.6226 19.0153L62.1956 14.493H55.5458L54.1188 19.0153H49.7236L56.2878 0H61.6533L68.1319 19.0153H63.6226ZM58.9135 3.75947H58.7708L56.5732 10.9787H61.1396L58.9135 3.75947Z" fill="#FF5C00"/>
<path id="Path_2" d="M70.8999 19.0153V0H75.238V15.3376H82.8296V19.0153H70.8999Z" fill="#FF5C00"/>
<path id="Shape_3" d="M98.7837 19.0153L97.3567 14.493H90.7069L89.2799 19.0153H84.8848L91.449 0H96.8145L103.293 19.0153H98.7837ZM94.0746 3.75947H93.9319L91.7344 10.9787H96.3007L94.0746 3.75947Z" fill="#FF5C00"/>
<path id="Path_3" d="M112.141 10.0253L110.228 6.2113H110.143V19.0153H106.062V0H110.799L116.25 8.99004L118.162 12.804H118.248V0H122.329V19.0153H117.592L112.141 10.0253Z" fill="#FF5C00"/>
<path id="Shape_4" d="M126.724 0H134.23C135.543 0 136.742 0.199778 137.826 0.599336C138.911 0.998893 139.833 1.59369 140.595 2.38372C141.356 3.17376 141.945 4.16357 142.364 5.35316C142.783 6.54275 142.992 7.92758 142.992 9.50765C142.992 11.0877 142.783 12.4725 142.364 13.6621C141.945 14.8517 141.356 15.8415 140.595 16.6316C139.833 17.4216 138.911 18.0164 137.826 18.416C136.742 18.8155 135.543 19.0153 134.23 19.0153H126.724V0ZM134.23 15.3376C135.524 15.3376 136.542 14.9925 137.284 14.3023C138.026 13.6122 138.397 12.5043 138.397 10.9787V8.03655C138.397 6.51097 138.026 5.4031 137.284 4.71296C136.542 4.02282 135.524 3.67774 134.23 3.67774H131.062V15.3376H134.23Z" fill="#FF5C00"/>
<path id="Fill-1" fill-rule="evenodd" clip-rule="evenodd" d="M16.0315 5.85066C15.6025 4.61868 14.9979 3.59355 14.2177 2.77529C13.4376 1.95711 12.4917 1.34112 11.38 0.927311C10.2684 0.513503 9.03969 0.306641 7.69393 0.306641H0V4.24532H4.12626H4.63981H7.40732C8.74732 4.24532 10.4574 4.47286 11.2259 5.18765C11.9944 5.90236 12.3788 7.04974 12.3788 8.62973V11.6769C12.3788 13.2569 11.9944 14.4042 11.2259 15.119C10.4574 15.8337 8.74732 16.0614 7.40732 16.0614H4.12626V8.184H0V20H7.69393C9.03969 20 10.2684 19.7931 11.38 19.3793C12.4917 18.9655 13.4376 18.3495 14.2177 17.5313C14.9979 16.7131 15.6025 15.6879 16.0315 14.4559C16.4606 13.224 16.505 11.7897 16.505 10.1533C16.505 8.5169 16.4606 7.08265 16.0315 5.85066Z" fill="#FF5C00"/>
</g>
</svg>
