<svg width="82" height="105" viewBox="0 0 82 105" fill="none" xmlns="http://www.w3.org/2000/svg">
<path fill-rule="evenodd" clip-rule="evenodd" d="M37.4131 104.316H0.499023V29.2414H17.3869V89.3702H37.4131C45.1845 89.3702 51.4614 86.9292 56.2438 82.0472C61.0262 77.1652 63.4174 69.9916 63.4174 60.5264V43.788C63.4174 34.3229 61.0262 27.1493 56.2438 22.2673C51.4614 17.3852 45.1845 14.9442 37.4131 14.9442H0.499023V-8.39233e-05H37.4131C44.0886 -8.39233e-05 50.1413 1.09588 55.5713 3.28781C61.0013 5.47974 65.6343 8.74273 69.4701 13.0768C73.306 17.4108 76.2701 22.8408 78.3624 29.3668C80.4547 35.8928 81.5008 43.4898 81.5008 52.1579C81.5008 60.826 80.4547 68.423 78.3624 74.949C76.2701 81.475 73.306 86.905 69.4701 91.2391C65.6343 95.5731 61.0013 98.8361 55.5713 101.028C50.1413 103.22 44.0886 104.316 37.4131 104.316Z" fill="#FF5C00"/>
</svg>
