<?xml version="1.0" encoding="UTF-8" standalone="no"?>
<!DOCTYPE svg PUBLIC "-//W3C//DTD SVG 1.0//EN" "http://www.w3.org/TR/2001/REC-SVG-20010904/DTD/svg10.dtd">
<!-- Created with Inkscape (http://www.inkscape.org/) -->
<svg
   xmlns:svg="http://www.w3.org/2000/svg"
   xmlns="http://www.w3.org/2000/svg"
   version="1.0"
   width="800"
   height="250"
   id="svg2">
  <defs
     id="defs4" />
  <path
     d="M 665.07691,25.662888 C 632.3038,25.663089 606.34554,34.855925 587.46938,53.201044 C 568.59318,71.546513 559.14884,95.840475 559.14889,126.27104 C 559.14889,158.6145 568.59318,183.61239 587.46938,201.21864 C 606.34549,218.82493 631.73512,227.66147 663.51225,227.66152 C 677.27316,227.66152 691.27677,225.95851 705.44535,222.65459 C 719.61363,219.35071 731.15202,215.96201 740.02451,212.48424 L 740.02451,116.88303 L 651.62077,116.88303 L 651.62077,153.33979 L 690.73747,153.33979 L 690.73747,191.36123 C 688.92671,191.53512 686.92308,191.74366 684.4788,191.83063 C 682.03431,191.9176 679.87422,191.98714 678.06366,191.98709 C 657.51248,191.98709 641.26217,186.49574 629.40248,175.71455 C 617.54255,164.93346 611.56522,148.18125 611.56527,125.4887 C 611.56522,114.88156 613.1358,105.63665 616.25927,97.637615 C 619.3826,89.638882 623.74795,82.98311 629.08955,77.766331 C 634.70253,72.375912 641.02619,68.483369 648.1785,65.874855 C 655.33051,63.266691 663.27011,61.963285 671.96145,61.963185 C 679.38504,61.963335 686.4302,62.936433 693.08447,64.936054 C 699.73854,66.935925 705.53868,69.351472 710.60875,72.133526 C 714.95417,74.481179 719.49281,77.235546 724.0649,80.582734 C 728.63663,83.930222 732.10359,86.580444 734.54817,88.406074 L 739.08571,88.406074 L 739.08571,42.874235 C 727.76888,37.570787 716.81991,33.287152 706.22768,30.200426 C 695.63516,27.114049 682.00647,25.663089 665.07691,25.662888 z M 59.602813,29.418092 L 59.602813,223.59339 L 107.48165,223.59339 L 107.48165,94.821212 L 163.02737,177.90508 L 215.75668,94.821212 L 215.75668,223.59339 L 266.13899,223.59339 L 266.13899,29.418092 L 207.6204,29.418092 L 163.02737,105.61742 L 118.1214,29.418092 L 59.602813,29.418092 z M 286.47967,29.418092 L 286.47967,223.59339 L 410.04373,223.59339 L 425.69041,186.51076 L 337.01845,186.51076 L 337.01845,137.53665 L 416.34711,137.53665 L 416.34711,100.45402 L 337.01845,100.45402 L 337.01845,66.500722 L 423.23165,66.500722 L 423.23165,29.418092 L 286.47967,29.418092 z M 492.40121,29.418092 L 467.0773,89.593869 L 493.8764,148.80226 L 441.50477,148.80226 L 425.6819,186.59748 L 511.10983,186.53033 L 528.38857,223.59339 L 580.64848,223.59339 L 492.40121,29.418092 z"
     id="text2409"
     style="font-size:54.43451309px;font-style:normal;font-variant:normal;font-weight:bold;font-stretch:normal;text-align:start;line-height:100%;writing-mode:lr-tb;text-anchor:start;fill:#00615d;fill-opacity:1;stroke:none;stroke-width:1px;stroke-linecap:butt;stroke-linejoin:miter;stroke-opacity:1;font-family:Tahoma;-inkscape-font-specification:Tahoma Bold" />
</svg>
