<svg width="280" height="48" viewBox="0 0 280 48" fill="none" xmlns="http://www.w3.org/2000/svg">
<path d="M140 47.1933H144.446V31.1331C144.446 29.0452 144.406 27.2385 144.366 24.99H144.446L151.817 47.1933H156.664L163.994 24.99H164.075C164.075 27.2385 164.035 29.0452 164.035 31.1331V47.1933H168.441V19.0879H161.711L154.3 41.9336H154.22L146.81 19.0879H140V47.1933Z" fill="black"/>
<path d="M182.745 47.8357C188.113 47.8357 192.039 44.7843 193 40.4078H188.433C187.632 42.7767 185.549 44.2623 182.785 44.2623C179.02 44.2623 176.696 41.4116 176.496 37.4768H193.24V35.1481C193.24 28.3225 188.714 24.4681 182.705 24.4681C176.336 24.4681 171.89 28.9248 171.89 36.1519C171.89 43.3388 176.256 47.8357 182.745 47.8357ZM176.536 34.1042C176.937 30.6914 178.94 28.0415 182.825 28.0415C186.591 28.0415 188.794 30.5308 188.794 34.1042H176.536Z" fill="black"/>
<path d="M204.549 47.1933H209.957V43.5396H205.591C203.908 43.5396 202.947 42.8169 202.947 40.9298V28.7642H209.797V25.1105H202.947V19.0879H198.621V25.1105H194.294V28.7642H198.621V41.2912C198.621 45.2259 200.663 47.1933 204.549 47.1933Z" fill="black"/>
<path d="M213.737 47.1933H218.063V34.6262C218.063 30.6914 219.585 28.7642 222.95 28.7642H225.794V25.1105H223.631C220.427 25.1105 219.145 26.5157 218.063 28.7642H217.983V25.1105H213.737V47.1933Z" fill="black"/>
<path d="M229.486 47.1933H233.812V25.1105H229.486V47.1933ZM229.446 21.2962H233.852V17.0001H229.446V21.2962Z" fill="black"/>
<path d="M248.758 47.8357C254.847 47.8357 258.412 43.8206 259.013 39.2033H254.527C254.206 41.4919 252.323 44.2623 248.758 44.2623C244.993 44.2623 242.269 41.1707 242.269 36.1519C242.269 31.4141 244.632 28.0415 248.758 28.0415C252.404 28.0415 254.326 30.571 254.527 33.5421H259.013C258.532 28.4831 255.047 24.4681 248.758 24.4681C241.828 24.4681 237.702 29.0452 237.702 36.1519C237.702 43.2585 242.149 47.8357 248.758 47.8357Z" fill="black"/>
<path d="M270.827 47.8357C276.635 47.8357 280 44.7843 280 40.5283C280 36.8746 277.556 33.9837 272.429 33.9837H269.825C267.662 33.9837 266.34 33.1406 266.34 31.2937C266.34 29.2861 267.983 28.0415 270.626 28.0415C273.511 28.0415 275.033 29.5672 275.153 32.2573H279.599C279.399 27.5998 276.315 24.4681 270.586 24.4681C265.058 24.4681 261.814 27.4392 261.814 31.4944C261.814 35.1883 264.457 37.6776 269.024 37.6776H271.427C274.272 37.6776 275.433 38.842 275.433 40.6487C275.433 42.857 273.711 44.2623 270.827 44.2623C267.983 44.2623 266.02 42.9373 265.9 39.8859H261.413C261.613 44.7441 264.978 47.8357 270.827 47.8357Z" fill="black"/>
<path d="M31.9999 47.3575H36.7199L39.1999 40.3312H50.4L52.84 47.3575H57.64L47.08 19.2521H42.5199L31.9999 47.3575ZM40.5199 36.557L42.1199 31.9799C43.1199 29.089 43.9599 26.4792 44.7599 24.0702H44.7999C45.6 26.4792 46.44 29.089 47.44 31.8996L49.08 36.557H40.5199Z" fill="black"/>
<path d="M66.4607 47.3575H71.8607V43.7038H67.5007C65.8207 43.7038 64.8607 42.9811 64.8607 41.094V28.9284H71.7007V25.2747H64.8607V19.2521H60.5407V25.2747H56.2206V28.9284H60.5407V41.4554C60.5407 45.3901 62.5807 47.3575 66.4607 47.3575Z" fill="black"/>
<path d="M74.675 47.3575H78.9951V15.9999H74.675V47.3575Z" fill="black"/>
<path d="M96.9707 43.0213H97.0507V44.0652C97.0507 46.1129 98.3707 47.3575 100.651 47.3575H103.531V43.7038H102.611C101.571 43.7038 101.171 43.3023 101.171 42.2584V32.2208C101.171 27.8444 98.6507 24.6323 92.2506 24.6323C85.9706 24.6323 82.8906 27.6838 82.5706 32.4215H87.0106C87.2106 29.7314 89.2506 28.2057 92.2906 28.2057C94.8506 28.2057 96.8507 29.2898 96.8507 31.4981C96.8507 33.1041 95.8107 34.0275 93.6106 34.0275H90.0906C85.7306 34.0275 81.7306 35.9548 81.7306 40.9736C81.7306 45.5909 85.0506 47.9999 89.2906 47.9999C92.7306 47.9999 95.5707 46.3939 96.9707 43.0213ZM86.2906 40.8933C86.2906 39.0062 87.4906 37.4403 90.5306 37.4002L92.2506 37.36C94.7307 37.3199 96.0507 36.5972 96.7707 35.0715H96.8507V37.36C96.8507 42.2183 93.7306 44.3864 90.4106 44.3864C87.4906 44.3864 86.2906 42.7804 86.2906 40.8933Z" fill="black"/>
<path d="M114.84 47.9999C120.64 47.9999 124 44.9485 124 40.6925C124 37.0388 121.56 34.148 116.44 34.148H113.84C111.68 34.148 110.36 33.3048 110.36 31.4579C110.36 29.4504 112 28.2057 114.64 28.2057C117.52 28.2057 119.04 29.7314 119.16 32.4215H123.6C123.4 27.7641 120.32 24.6323 114.6 24.6323C109.08 24.6323 105.84 27.6035 105.84 31.6587C105.84 35.3525 108.48 37.8418 113.04 37.8418H115.44C118.28 37.8418 119.44 39.0062 119.44 40.813C119.44 43.0213 117.72 44.4265 114.84 44.4265C112 44.4265 110.04 43.1016 109.92 40.0501H105.44C105.64 44.9083 109 47.9999 114.84 47.9999Z" fill="black"/>
<path fill-rule="evenodd" clip-rule="evenodd" d="M35.5315 5.31372C35.4597 5.53431 35.2751 5.68308 35.0547 5.64717C31.5168 5.31372 24.9538 5.90367 24.9538 5.90367C24.6205 5.90367 24.4 5.60613 24.4769 5.31372C24.9179 3.76448 25.364 2.51278 25.9536 0.850675C25.9895 0.665997 26.1741 0.553138 26.3587 0.517228C28.9377 0.111963 32.6243 -0.293303 36.4596 0.296641C36.7569 0.33255 36.9364 0.630087 36.8287 0.886584C36.3519 2.25115 35.8699 4.02098 35.5366 5.31372H35.5315ZM6.24922 12.9727C6.16718 13.0753 6.08514 13.1779 6.0031 13.2805C5.8903 13.4293 6.07489 13.614 6.25947 13.537L10.4639 11.5466C10.869 11.3619 11.2022 11.0695 11.4227 10.6591C11.7919 9.97684 12.1508 9.26378 12.52 8.54046C12.884 7.82227 13.2532 7.09381 13.6377 6.38075C13.7505 6.23198 13.3403 6.0114 13.1968 6.12426C9.70505 8.62767 8.03866 10.7309 6.25434 12.9727H6.24922ZM13.489 11.6184C12.9712 11.8031 12.5661 12.1725 12.3456 12.6906C10.5049 16.8971 9.87425 20.1033 9.87425 20.1033C9.76145 20.4009 10.0229 20.6574 10.3152 20.5804L18.4985 18.0001C18.6471 17.9642 18.7548 17.8872 18.7958 17.7436L21.4108 9.44333C21.5236 9.18683 21.2621 8.88929 20.9698 8.96624L13.4839 11.6236L13.489 11.6184ZM22.9131 12.4495C22.5696 13.6653 22.2158 14.8965 21.8928 16.1174C21.78 16.5586 22.1491 17.0049 22.6311 16.9638C26.9073 16.4867 30.558 16.5226 31.886 16.5586C32.1833 16.5586 32.4756 16.3739 32.5474 16.0815C32.773 15.2863 33.014 14.445 33.2652 13.5883C33.7113 12.0493 34.1728 10.4539 34.5778 8.96111C34.6906 8.55585 34.3932 8.15058 33.9523 8.11467L33.178 8.00181C30.4862 7.81714 27.7943 7.9659 25.1025 8.15058L24.5846 8.18649C24.2872 8.18649 24.0309 8.37117 23.9591 8.66358C23.6361 9.89476 23.2771 11.1619 22.9131 12.4443V12.4495ZM46.9963 3.80039C47.1911 4.55449 47.3808 5.48301 47.5756 6.41153C47.7141 7.07329 47.8525 7.74019 47.991 8.34039C48.0627 8.70975 47.6936 9.04319 47.3654 8.89442C43.8276 7.49395 41.2075 6.57056 38.1516 5.79594C37.8952 5.72412 37.7465 5.46249 37.8183 5.24191C38.5771 2.38966 38.613 2.26654 38.7105 1.90744C38.7515 1.75867 38.8028 1.574 38.9207 1.14821C38.9925 0.891714 39.254 0.778855 39.5103 0.850675C39.6334 0.881454 39.7769 0.917364 39.941 0.963533C41.2434 1.29185 43.766 1.93309 46.8117 3.50798C46.8835 3.5798 46.9604 3.69266 46.9963 3.80552V3.80039ZM12.5456 23.1095C11.2484 23.4737 9.96654 23.8379 8.73085 24.1611C8.43347 24.233 8.21299 24.4587 8.21299 24.7152L8.1771 25.2333C7.99251 27.9265 7.84382 30.5838 8.02841 33.277L8.0643 34.0517C8.10019 34.4928 8.50525 34.7904 8.91031 34.6775C11.2689 34.0517 13.889 33.3129 16.0989 32.6871C16.4321 32.6153 16.6167 32.3177 16.6167 32.0253C16.5808 30.6967 16.5449 27.0801 17.0577 22.8427C17.1294 22.3657 16.6885 21.9963 16.2117 22.104C14.9965 22.4272 13.7659 22.776 12.5456 23.1198V23.1095ZM5.66983 35.1546C5.70572 35.3752 5.55702 35.5599 5.33655 35.6317C4.00856 35.9651 2.23963 36.4063 0.875755 36.9244C0.619388 37.0373 0.322001 36.8526 0.28611 36.5551C-0.303535 32.7538 0.137417 29.0654 0.542477 26.5568C0.578369 26.3721 0.691171 26.1875 0.875755 26.1515C2.53702 25.5616 3.78809 25.1563 5.37244 24.7152C5.66983 24.6433 5.96208 24.8639 5.96208 25.1923C5.92619 25.1204 5.33655 31.6457 5.6647 35.1495L5.66983 35.1546ZM6.28511 47.5537C5.41346 47.3844 4.54694 47.2151 3.82398 47.0304C3.71118 46.9945 3.6035 46.8816 3.56761 46.8457C1.9525 43.8139 1.31158 41.2849 0.983429 39.9921C0.942411 39.8382 0.906519 39.6997 0.875755 39.5817C0.803972 39.3252 0.911646 39.0636 1.17314 38.9918C1.54744 38.8841 1.72689 38.8328 1.86533 38.7917C2.24988 38.6789 2.26527 38.6737 5.26477 37.8837C5.52113 37.8119 5.78263 37.9555 5.85441 38.2172C6.59275 41.2438 7.51567 43.8242 8.95133 47.3639C9.10002 47.6973 8.76674 48.0667 8.39758 47.9897C7.74127 47.8409 7.01319 47.6973 6.28511 47.5537ZM22.1132 6.27302C22.4619 5.35989 22.7695 4.47241 23.0874 3.56441C23.3079 2.93343 23.5335 2.29219 23.7745 1.6253C23.8463 1.3688 23.6258 1.14821 23.3694 1.22003C22.1543 1.58939 19.2778 2.58459 16.2168 4.20566C16.0322 4.31852 15.8476 4.46215 15.7399 4.68274C15.6528 4.84177 15.5759 4.99567 15.499 5.13931C14.9503 6.18068 14.5812 6.87323 13.6736 8.81747C13.5608 9.07397 13.8223 9.3356 14.0787 9.25865L14.2428 9.19709C16.6218 8.29422 19.0727 7.3657 21.5595 6.79115C21.8569 6.67829 22.0363 6.53465 22.1132 6.27302ZM1.39362 23.9405C3.05488 23.3865 4.49054 22.9094 6.07489 22.3195C6.33125 22.2477 6.51584 22.0219 6.55173 21.7654C7.17727 19.2569 7.95149 16.7843 8.87442 14.3886C8.9462 14.1321 8.68983 13.8705 8.43347 13.9833C7.62847 14.3527 6.81322 14.7733 6.02874 15.1786C5.48524 15.4607 4.952 15.7326 4.45464 15.9737C4.23417 16.0456 4.08548 16.2302 3.9778 16.4149C2.35756 19.4775 1.36285 22.3144 0.993684 23.5353C0.921901 23.7918 1.14238 24.0124 1.39874 23.9405H1.39362Z" fill="#7516DA"/>
</svg>
