<?xml version="1.0" encoding="UTF-8"?>
<svg id="Ebene_1" xmlns="http://www.w3.org/2000/svg" xmlns:xlink="http://www.w3.org/1999/xlink" version="1.1" viewBox="0 0 250 79">
  <!-- Generator: Adobe Illustrator 30.0.0, SVG Export Plug-In . SVG Version: 2.1.1 Build 123)  -->
  <defs>
    <style>
      .st0 {
        fill: none;
      }

      .st1 {
        fill: #0782bc;
      }

      .st2 {
        clip-path: url(#clippath-1);
      }

      .st3 {
        fill: #fff;
      }

      .st4 {
        fill: #002065;
      }

      .st5 {
        clip-path: url(#clippath);
      }
    </style>
    <clipPath id="clippath">
      <rect class="st0" x="2.1" y="1" width="245.8" height="77.4"/>
    </clipPath>
    <clipPath id="clippath-1">
      <rect class="st0" x="2.1" y="1" width="245.8" height="77.4"/>
    </clipPath>
  </defs>
  <g class="st5">
    <path class="st4" d="M246.6,74.6c.7,0,1.3-.6,1.3-1.4s-.5-1.3-1.3-1.3-1.3.6-1.3,1.4.5,1.4,1.3,1.4M243.9,72.9h-.6c-.8,0-1-.2-1-1.6v-4.8h1.7v-1.6h-1.7v-2.8h-1.6l-.5,2.8h-1.1v1.6h1.1v5.5c0,2,.9,2.6,2.1,2.6s1.2,0,1.6-.2v-1.5ZM237.9,74.4v-9.6h-2.1v6.7c-.7,1-1.2,1.4-1.8,1.4-.9,0-1.1-.8-1.1-2.2v-5.8h-2.1v6.3c0,2,.8,3.5,2.7,3.5s1.9-.5,2.6-1.5l.2,1.3h1.6ZM226.8,72c-.5.6-.9,1.1-1.6,1.1s-1.1-.6-1.1-1.4.6-1.6,1.6-1.6h1.1v1.8ZM228.9,74.4v-6.6c0-1.9-1-3.2-3.3-3.2s-2,.2-2.9.7l.4,1.5c.7-.4,1.6-.6,2.3-.6,1.2,0,1.5.6,1.5,1.8v.7h-.9c-2.3,0-3.8.9-3.8,3.1s1.1,2.8,2.6,2.8,1.9-.6,2.4-1.3v1h1.7ZM215.7,67.8c.8-1.1,1.2-1.4,1.7-1.4,1.1,0,1.4,1.5,1.4,3.1s-.6,3.4-1.8,3.4-.9,0-1.2-.3v-4.9ZM213.6,74c1,.4,2.1.6,3.2.6,2.9,0,4.2-2.3,4.2-5.3s-.9-4.7-2.9-4.7-1.7.4-2.3,1.3v-5.5h-2.1v13.5ZM202.9,68.6c0-1.3.5-2.5,1.6-2.5s1.4.9,1.4,2.5h-3ZM207.5,72.6c-.8.3-1.6.4-2.6.4-1.5,0-2-1.1-2-2.9h5c0-.4,0-.8,0-1,0-2.8-.9-4.4-3.4-4.4s-3.8,1.9-3.8,5.1,1.3,5,3.9,5,2.2-.2,3.1-.5l-.2-1.6ZM199.3,74.4v-6.3c0-2-.8-3.5-2.6-3.5s-1.8.5-2.3,1.3v-5.5h-2.1v14h2.1v-6.7c.7-1,1.1-1.4,1.8-1.4.9,0,1.2.8,1.2,2.2v5.8h2.1ZM185.5,63.1c.7,0,1.1-.5,1.1-1.1s-.4-1.1-1.1-1.1-1.1.5-1.1,1.1.4,1.1,1.1,1.1M188.6,63.1c.7,0,1.1-.5,1.1-1.1s-.4-1.1-1.1-1.1-1.1.5-1.1,1.1.4,1.1,1.1,1.1M188.2,72c-.5.6-.9,1.1-1.6,1.1s-1.1-.6-1.1-1.4.6-1.6,1.6-1.6h1.1v1.8ZM190.2,74.4v-6.6c0-1.9-1-3.2-3.3-3.2s-2,.2-2.9.7l.4,1.5c.7-.4,1.6-.6,2.3-.6,1.2,0,1.5.6,1.5,1.8v.7h-.9c-2.3,0-3.8.9-3.8,3.1s1.1,2.8,2.6,2.8,1.9-.6,2.4-1.3v1h1.7ZM181.8,74.4v-13h-1.9v9.8h0l-3.8-9.8h-3.1v13h1.9v-10h0l3.9,10h3ZM166.1,74.4v-7.9h1.6v-1.6h-1.6v-1c0-1.1,0-2,1.1-2h.7v-1.5c-.3,0-.7-.1-1.2-.1-2,0-2.6,1.5-2.6,3.7v.9h-1.1v1.6h1.1v7.9h2.1ZM161.6,74.4v-9.6h-2.1v6.7c-.7,1-1.2,1.4-1.8,1.4-.9,0-1.1-.8-1.1-2.2v-5.8h-2.1v6.3c0,2,.8,3.5,2.7,3.5s1.9-.5,2.6-1.5l.2,1.3h1.6ZM150.6,72c-.5.6-.9,1.1-1.6,1.1s-1.1-.6-1.1-1.4.6-1.6,1.6-1.6h1.1v1.8ZM152.6,74.4v-6.6c0-1.9-1-3.2-3.3-3.2s-2,.2-2.9.7l.4,1.5c.7-.4,1.6-.6,2.3-.6,1.2,0,1.5.6,1.5,1.8v.7h-.9c-2.3,0-3.8.9-3.8,3.1s1.1,2.8,2.6,2.8,1.9-.6,2.4-1.3v1h1.7ZM138.2,71.4c-.8,1.1-1.2,1.4-1.7,1.4-1.1,0-1.4-1.4-1.4-3.1s.6-3.3,1.8-3.3.9,0,1.2.3v4.7ZM138.2,74.3c0,2-.5,2.5-2,2.5s-1.5,0-2.2,0v1.5c.7.1,1.6.2,2.3.2,2.6,0,3.9-1.2,3.9-4.3v-8.9c-.9-.3-2.2-.6-3.2-.6-2.9,0-4.2,2.3-4.2,5.3s.9,4.6,2.9,4.6,1.7-.4,2.3-1.3v1ZM132.2,72.9h-.5c-.4,0-.6-.3-.6-1v-11.5h-2.1v12c0,1.6.8,2.1,1.9,2.1s1,0,1.3-.1v-1.5ZM123.6,73c-1.2,0-1.7-1.2-1.7-3.4s.5-3.2,1.7-3.2,1.8,1.2,1.8,3.4-.5,3.2-1.7,3.2M123.5,74.7c2.6,0,3.9-1.9,3.9-5.1s-1.3-4.9-3.8-4.9-3.9,1.9-3.9,5.2,1.3,4.9,3.8,4.9M117.5,74.4v-7.9h1.6v-1.6h-1.6v-1c0-1.1,0-2,1.1-2h.7v-1.5c-.3,0-.7-.1-1.2-.1-2,0-2.6,1.5-2.6,3.7v.9h-1.1v1.6h1.1v7.9h2.1ZM111.3,74.4v-6.2c.8-1.2,1.1-1.6,1.5-1.6s.4,0,.7.2l.2-2c-.3,0-.6-.1-.8-.1-.8,0-1.2.5-2,1.8l-.2-1.6h-1.6v9.6h2.1ZM107.4,74.4v-1.7h-4.1v-4.2h3.4v-1.7h-3.4v-3.7h4v-1.7h-6.2v13h6.2ZM95.9,72.9h-.5c-.4,0-.6-.3-.6-1v-11.5h-2.1v12c0,1.6.8,2.1,1.9,2.1s1,0,1.3-.1v-1.5ZM90.7,74.4v-9.6h-3.2v1.6h1.1v7.9h2.1ZM89.6,63.3c.8,0,1.3-.6,1.3-1.3s-.5-1.3-1.3-1.3-1.3.6-1.3,1.3.5,1.3,1.3,1.3M81.6,68.6c0-1.3.5-2.5,1.6-2.5s1.4.9,1.4,2.5h-3ZM86.1,72.6c-.8.3-1.6.4-2.6.4-1.5,0-2-1.1-2-2.9h5c0-.4,0-.8,0-1,0-2.8-.9-4.4-3.4-4.4s-3.8,1.9-3.8,5.1,1.3,5,3.9,5,2.2-.2,3.1-.5l-.2-1.6ZM76.2,74.4c1.1-4.5,1.8-8.8,2.4-13h-2.1c-.3,2.8-.8,6-1.4,9.2,0,.4-.2,1-.3,1.5h0l-.3-1.8-1.7-9h-2.5l-1.6,9-.3,1.8h0c0-.4-.2-.9-.2-1.3-.6-3-1.1-6.4-1.4-9.4h-2.3c.6,4.2,1.4,8.6,2.4,13h2.9l1.5-8.7.2-1.4h0l.2,1.4,1.6,8.7h2.9Z"/>
    <path class="st3" d="M68.4,31.9v-8.5s0,0,0,0h2.2c2.6,0,4,1.5,4,4.4s-1.3,4.3-3.6,4.3h-2.7s0,0,0,0M68.4,20.1v-7.6s0,0,0,0h1.9c2.1,0,3.3,1.4,3.3,3.9s-1,3.9-3,3.9h-2.2s0,0,0,0M64.3,9.2v26h6.5c4,0,8.3-2,8.3-7.8s-1.6-5.6-4.2-6.2c0,0,0,0,0,0h0s0,0,0,0c1.9-.8,3-2.8,3-5.4,0-4.2-2.5-6.4-7.4-6.4h-6.2Z"/>
    <path class="st3" d="M85.4,29.8c0-2.1,1.2-3.3,3.4-3.3h2.1s0,0,0,0v3.7c-.9,1.3-1.9,2.4-3.3,2.4s-2.3-1.1-2.3-2.9M82.7,16.9c0,.1.6,2.7.7,2.9,1.5-.7,3.1-1.1,4.5-1.1,2.6,0,3.2,1.4,3.2,3.7v1.4s0,0,0,0h-1.9c-3.5,0-7.6,1.1-7.6,6.1s2,5.6,5.2,5.6,3.9-1.4,4.8-2.5c0,0,0,0,0,0,0,0,0,0,0,0,0,0,.2,1.8.3,2h3.1v-13.2c0-4.2-2.2-6.3-6.6-6.3s-4,.5-5.7,1.3"/>
    <path class="st3" d="M108,16.1c-.6,4.8-1.6,10-2.8,14.6,0,0,0,0-.1,0s-.1,0-.1,0c-1.5-5.5-2.5-10.1-3.3-14.6h-4.2c1.3,6.7,3.2,13.9,5.3,19.2-1.3,3.6-2,4.6-3.2,4.6h-1.7c0,.2-.1,2.8-.1,2.9.5.2,1.3.4,2.1.4,2.6,0,4.7-1.3,7.3-8,1.7-4.2,3.3-10.5,4.9-19.1h-4Z"/>
    <path class="st3" d="M117.8,23.7s0,0,0,0c0-1.9.6-5.1,3.3-5.1s1.3.2,1.7.7c.8.8,1.2,2.3,1.1,4.4,0,0,0,0,0,0h-6s0,0,0,0M113.7,25.8c0,6.6,2.5,9.9,7.7,9.9s4.1-.3,6.1-1c0-.1-.4-2.9-.4-3-1.7.5-3.2.9-5.1.9-2.8,0-4.1-1.8-4.1-6s0,0,0,0h10c0-.2,0-2,0-2,0-5.9-2.2-8.8-6.7-8.8s-7.6,3.7-7.6,10.1"/>
    <path class="st3" d="M135.1,19.3s0,0,0,0c0,0,0,0,0,0,0,0-.3-3-.4-3.1h-3.1v19h4v-12.4c1.6-2.6,2.3-3.4,3.2-3.4s.9.1,1.4.3c0-.2.4-3.6.5-3.8-.6-.2-1.1-.3-1.6-.3-1.6,0-2.5,1.1-3.9,3.6"/>
    <path class="st3" d="M147,18.6s0,0,0,0c0,0,0,0,0,0,0,0-.3-2.3-.3-2.4h-3.1v19h4v-13.3c1.4-2.2,2.4-2.9,3.6-2.9,2.1,0,2.4,2.4,2.4,4.5v11.7h4v-12.5c0-4.5-1.9-7-5.3-7s-3.7.9-5.2,3"/>
    <path class="st3" d="M30.2,9.2c.2.3,8.6,12.9,8.6,12.9,0,0,0,0,0,0s0,0,0,0c0,0-8.4,12.7-8.6,12.9h8.3c0,0,8.6-12.9,8.7-13,0,0-8.6-12.9-8.7-13h-8.3Z"/>
    <path class="st3" d="M2.2,22.2c0,0,13.8,20.8,14,21,.1-.2,13.9-20.9,14-21,0,0-13.8-20.8-14-21-.1.2-13.9,20.9-14,21"/>
  </g>
  <rect class="st3" x="165.8" y="9.3" width="4.2" height="25.8"/>
  <g class="st2">
    <path class="st3" d="M177.8,18.6s0,0,0,0c0,0,0,0,0,0,0,0-.3-2.3-.3-2.4h-3.1v19h4v-13.3c1.4-2.1,2.4-2.9,3.6-2.9,2.1,0,2.4,2.4,2.4,4.5v11.7h4v-12.5c0-4.5-1.9-7-5.3-7s-3.7.9-5.2,3"/>
    <path class="st3" d="M201.4,16.2c-.8,5.7-1.8,10.4-2.9,14.9,0,0,0,0-.1,0s0,0-.1,0c-1.4-5.5-2.4-10.2-3.2-14.9h-4.2c1.2,6.5,2.9,12.9,4.9,19h4.8c1.9-5.8,3.5-12,4.9-19h-4Z"/>
    <path class="st3" d="M211.2,23.7s0,0,0,0c0-1.9.6-5.1,3.4-5.1s1.3.2,1.7.7c.8.8,1.2,2.3,1.1,4.4,0,0,0,0,0,0h-6s0,0,0,0M207,25.8c0,6.6,2.5,9.9,7.7,9.9s4.1-.3,6.1-1c0-.1-.4-2.9-.4-3-1.7.5-3.2.9-5.1.9-2.8,0-4.1-1.8-4.1-6s0,0,0,0h10c0-.2,0-2,0-2,0-5.9-2.2-8.7-6.7-8.7s-7.6,3.7-7.6,10.1"/>
    <path class="st3" d="M224.1,21.2c0,2.4,1,4,3.9,5.8,2,1.3,2.7,2.1,2.7,3.4s-.9,2.2-2.5,2.2-2.3-.3-3.5-.8c0,.2-.5,3.1-.5,3.3,1.3.4,2.9.7,4.4.7,3.9,0,6.3-2.2,6.3-5.7s-1.1-4.1-4.3-6c-2-1.3-2.4-2.1-2.4-3.2s.7-2,2.3-2,2,.3,3,.6c0-.2.4-3,.5-3.1-1.1-.4-2.5-.6-3.8-.6-3.7,0-6,2.1-6,5.5"/>
    <path class="st3" d="M239.6,10.6c0,.1-1,5.5-1,5.5,0,0,0,0,0,0h-2v3.1h2s0,0,0,0v11.2c0,3.5,1.3,5.1,4.2,5.1s2.4-.2,3.2-.4v-2.8h-1.2c-1.6,0-2.2-.5-2.2-3.3v-9.7s0,0,0,0h3.3v-3.1h-3.3s0,0,0,0v-5.4h-3.1Z"/>
    <path class="st1" d="M70.7,23.4h-2.2v8.5h2.7c2.2,0,3.5-1.5,3.5-4.2s-1.2-4.3-3.9-4.3M70.3,12.5h-1.9v7.6h2.2c2.1,0,2.9-1.6,2.9-3.8s-1-3.8-3.2-3.8M70.8,35.3h-6.6V9.1h6.3c4.8,0,7.5,2.2,7.5,6.5s-1.1,4.7-3,5.5c2.5.5,4.2,2.9,4.2,6.3,0,5.5-3.9,7.9-8.4,7.9"/>
    <path class="st1" d="M90.9,26.6h-2.1c-2.2,0-3.3,1.2-3.3,3.2s.7,2.8,2.2,2.8,2.2-1,3.2-2.3v-3.7ZM91.8,35.3l-.3-2.1c-1,1.4-2.7,2.5-4.9,2.5s-5.3-2-5.3-5.7,3-6.2,7.7-6.2h1.9v-1.4c0-2.5-.7-3.6-3.1-3.6s-3.1.4-4.6,1.1l-.7-3c1.8-.8,3.9-1.3,5.8-1.3,4.7,0,6.7,2.5,6.7,6.4v13.3h-3.2Z"/>
    <path class="st1" d="M107.1,35.3c-2.5,6.4-4.6,8.1-7.4,8.1s-1.6-.2-2.2-.4l.2-3.1h1.8c1.2,0,1.9-.9,3.1-4.5-2-5.3-4-12.6-5.3-19.4h4.4c.9,5.2,2.1,10,3.3,14.7h0c1.1-4.5,2.1-9.7,2.8-14.7h4.2c-1.6,8.6-3.2,14.9-4.9,19.2"/>
    <path class="st1" d="M121.1,18.6c-2.3,0-3.1,2.5-3.3,5h6c0-3.1-.9-5-2.8-5M128,26.5h-10.1c0,3.7,1,5.9,4,5.9s3.5-.4,5.2-.9l.4,3.2c-1.8.6-3.9,1-6.2,1-5.2,0-7.8-3.3-7.8-10s2.7-10.2,7.7-10.2,6.7,3.3,6.7,8.8,0,1.4,0,2.1"/>
    <path class="st1" d="M140.2,19.8c-.6-.2-1.1-.3-1.5-.3-.9,0-1.6.9-3.1,3.3v12.5h-4.2v-19.2h3.2l.4,3.2c1.5-2.6,2.4-3.7,4-3.7s1.1.1,1.7.3l-.5,3.9Z"/>
    <path class="st1" d="M153.4,35.3v-11.8c0-2.8-.6-4.5-2.3-4.5s-2.2.8-3.5,2.8v13.4h-4.2v-19.2h3.2l.3,2.5c1.4-1.9,3-3,5.2-3,3.8,0,5.4,3.1,5.4,7.1v12.6h-4.2Z"/>
  </g>
  <polygon class="st4" points="30.1 35.3 38.5 35.3 47.3 22.2 38.5 9.1 30.1 9.1 38.8 22.2 30.1 35.3"/>
  <polygon class="st1" points="16.2 1 2.1 22.2 16.2 43.3 30.3 22.2 16.2 1"/>
  <rect class="st1" x="165.7" y="9.2" width="4.4" height="26"/>
  <g>
    <path class="st1" d="M184.2,35.3v-11.8c0-2.8-.6-4.5-2.3-4.5s-2.2.8-3.5,2.8v13.4h-4.2v-19.2h3.2l.3,2.5c1.4-1.9,3-3,5.2-3,3.8,0,5.4,3.1,5.4,7.1v12.6h-4.2Z"/>
    <path class="st1" d="M200.6,35.3h-4.9c-2.1-6.4-3.7-12.8-4.9-19.2h4.4c.9,5.1,2,10,3.2,14.9h0c1.3-5,2.2-10,2.9-14.9h4.2c-1.2,6.4-2.8,12.8-4.9,19.2"/>
    <path class="st1" d="M214.5,18.6c-2.3,0-3.2,2.5-3.3,5h6c0-3.1-.9-5-2.8-5M221.4,26.5h-10.1c0,3.7,1,5.9,4,5.9s3.5-.4,5.2-.9l.4,3.2c-1.8.6-3.9,1-6.2,1-5.2,0-7.8-3.3-7.8-10s2.7-10.2,7.7-10.2,6.7,3.3,6.7,8.8,0,1.4,0,2.1"/>
    <path class="st1" d="M228.5,35.7c-1.7,0-3.2-.3-4.5-.7l.6-3.4c1.2.5,2.5.9,3.6.9s2.4-.8,2.4-2.1-.6-2-2.6-3.3c-2.7-1.7-3.9-3.2-3.9-5.8s2.2-5.6,6.1-5.6,2.8.2,3.9.6l-.5,3.3c-.9-.4-2.1-.7-3-.7-1.5,0-2.2.9-2.2,1.9s.4,1.9,2.3,3.1c3.2,1.9,4.3,3.5,4.3,6.1s-2.3,5.8-6.4,5.8"/>
    <path class="st1" d="M242.9,35.6c-2.6,0-4.3-1.1-4.3-5.2v-11.2h-2.1v-3.3h2.1l1-5.5h3.2v5.5h3.4v3.3h-3.4v9.7c0,2.7.5,3.2,2.1,3.2h1.3v3c-.8.3-2.1.4-3.3.4"/>
  </g>
</svg>