<svg xmlns="http://www.w3.org/2000/svg" width="311" height="35" viewBox="0 0 311 35"><g><g><path fill="#002d46" d="M20.693 33.703V20H7.915v13.703H-.001V.926h7.916v12.407h12.778V.926h7.916v32.777zm36.795 0l-2.547-6.435H42.256l-2.407 6.435h-8.61L44.987.926h7.685l13.61 32.777zM48.69 9.675l-4.166 11.25h8.24zm41.031 24.028L76.528 12.268h-.139l.185 21.435H68.89V.926h9.027l13.148 21.389h.138L91.02.926h7.684v32.777zm32.6-24.258c-.678-.864-1.566-1.551-2.66-2.061-1.097-.509-2.154-.763-3.172-.763-.526 0-1.058.046-1.597.138-.541.093-1.027.27-1.459.533a3.61 3.61 0 0 0-1.088 1.018c-.294.417-.44.949-.44 1.597 0 .556.116 1.019.348 1.389.232.37.57.694 1.018.972a9.02 9.02 0 0 0 1.597.764c.617.232 1.312.472 2.083.717 1.111.37 2.27.78 3.472 1.228a12.998 12.998 0 0 1 3.288 1.782 9.358 9.358 0 0 1 2.453 2.755c.648 1.095.972 2.46.972 4.096 0 1.884-.346 3.512-1.042 4.885-.694 1.373-1.628 2.508-2.8 3.403-1.173.895-2.515 1.558-4.028 1.99a16.963 16.963 0 0 1-4.676.648c-2.346 0-4.614-.41-6.805-1.227-2.192-.817-4.012-1.982-5.463-3.494l5.185-5.279c.803.989 1.86 1.814 3.171 2.477 1.312.665 2.616.995 3.912.995.586 0 1.158-.06 1.713-.184a4.265 4.265 0 0 0 1.459-.602c.416-.278.748-.649.995-1.111.246-.464.371-1.019.371-1.667 0-.617-.156-1.142-.464-1.574-.309-.432-.748-.826-1.319-1.18-.572-.355-1.281-.68-2.13-.973-.849-.293-1.813-.609-2.892-.949a27.6 27.6 0 0 1-3.08-1.203 10.305 10.305 0 0 1-2.685-1.783 8.242 8.242 0 0 1-1.897-2.639c-.48-1.033-.718-2.291-.718-3.773 0-1.82.37-3.379 1.11-4.675a9.658 9.658 0 0 1 2.918-3.195c1.203-.833 2.56-1.443 4.074-1.828 1.51-.386 3.039-.58 4.582-.58 1.853 0 3.743.34 5.671 1.019 1.929.68 3.62 1.683 5.07 3.01zm31.5 24.258l-2.546-6.435H138.59l-2.407 6.435h-8.61L141.32.926h7.686l13.61 32.777zm-8.797-24.028l-4.166 11.25h8.24zm21.92 24.028h-1.018V.926h1.019zm33.749 0l-23.518-31.48h-.138v31.48h-1.019V.926h1.435l23.564 31.434h.14V.926h1.018v32.777zm20.758 0h-1.573L207.564.926h1.112l11.944 31.85h.092l12.13-31.85h1.11zm17.888 0V.926h19.12v.925H240.36V16.25h17.036v.925H240.36v15.602H259.2v.926zm43.675-11.412c.51.973.763 2.153.763 3.542 0 1.389-.27 2.631-.809 3.726a8.535 8.535 0 0 1-2.153 2.778c-.896.756-1.952 1.327-3.171 1.713-1.22.386-2.493.58-3.82.58-2.037 0-3.897-.365-5.578-1.09-1.682-.724-3.078-1.704-4.19-2.939l.787-.694a11.343 11.343 0 0 0 4.097 2.847c1.558.632 3.171.949 4.838.949 1.204 0 2.345-.177 3.426-.532a9.128 9.128 0 0 0 2.87-1.529 7.107 7.107 0 0 0 1.968-2.453c.478-.972.717-2.09.717-3.356 0-1.265-.262-2.33-.787-3.195a7.776 7.776 0 0 0-2.037-2.222 12.25 12.25 0 0 0-2.847-1.55 50.279 50.279 0 0 0-3.218-1.135 42.264 42.264 0 0 1-3.726-1.365c-1.127-.479-2.1-1.066-2.917-1.76a7.163 7.163 0 0 1-1.897-2.5c-.448-.972-.672-2.153-.672-3.541 0-1.358.27-2.57.81-3.634a7.912 7.912 0 0 1 2.2-2.686c.925-.724 1.997-1.28 3.217-1.666A12.752 12.752 0 0 1 274.75 0c1.667 0 3.248.317 4.745.949 1.497.633 2.724 1.536 3.681 2.709l-.787.694c-.864-1.08-1.968-1.921-3.31-2.523-1.343-.602-2.801-.903-4.375-.903-1.11 0-2.199.155-3.263.463-1.065.309-2.031.78-2.894 1.412a7.202 7.202 0 0 0-2.083 2.384c-.526.957-.788 2.083-.788 3.38 0 1.266.232 2.338.695 3.217a7.05 7.05 0 0 0 1.852 2.245c.77.618 1.643 1.127 2.616 1.529a45.43 45.43 0 0 0 2.985 1.11c1.389.463 2.686.934 3.89 1.413 1.203.478 2.26 1.057 3.17 1.735.91.68 1.62 1.505 2.13 2.477zm16.828-20.44v31.852h-1.019V1.85h-11.157V.926H311v.925z"/></g></g></svg>