<svg width="389" height="357" viewBox="0 0 389 357" fill="none" xmlns="http://www.w3.org/2000/svg">
<ellipse opacity="0.208656" cx="186.576" cy="178.5" rx="178.652" ry="178.5" fill="#E3E2E0"/>
<path fill-rule="evenodd" clip-rule="evenodd" d="M319.987 81.8555L308.983 92.8431V108.383L319.987 119.372H335.551L346.554 108.383V92.8431L335.551 81.8555H319.987ZM318 104.654V96.5725L323.723 90.8594H331.816L337.537 96.5725V104.654L331.816 110.368H323.723L318 104.654Z" fill="#E3E2E0"/>
<path fill-rule="evenodd" clip-rule="evenodd" d="M319.987 157.508L308.983 168.496V184.036L319.987 195.025H335.551L346.554 184.036V168.496L335.551 157.508H319.987ZM318 180.307V172.225L323.723 166.512H331.816L337.537 172.225V180.307L331.816 186.021H323.723L318 180.307Z" fill="#E3E2E0"/>
<path fill-rule="evenodd" clip-rule="evenodd" d="M332.594 233.161L321.59 244.149V259.689L332.594 270.677H348.157L359.161 259.689V244.149L348.157 233.161H332.594ZM330.607 255.959V247.878L336.33 242.165H344.422L350.144 247.878V255.959L344.422 261.674H336.33L330.607 255.959Z" fill="#E3E2E0"/>
<path fill-rule="evenodd" clip-rule="evenodd" d="M63.0328 258.089C52.5896 258.089 44.123 266.544 44.123 276.972C44.123 287.4 52.5896 295.854 63.0328 295.854C73.476 295.854 81.9426 287.4 81.9426 276.972C81.9426 266.544 73.476 258.089 63.0328 258.089ZM63.0328 267.374C68.3325 267.374 72.6448 271.68 72.6448 276.972C72.6448 282.264 68.3325 286.57 63.0328 286.57C57.7331 286.57 53.4208 282.264 53.4208 276.972C53.4208 271.68 57.7331 267.374 63.0328 267.374Z" fill="#E3E2E0"/>
<path fill-rule="evenodd" clip-rule="evenodd" d="M18.9098 184.359C8.46653 184.359 0 192.813 0 203.241C0 213.669 8.46653 222.123 18.9098 222.123C29.353 222.123 37.8195 213.669 37.8195 203.241C37.8195 192.813 29.353 184.359 18.9098 184.359ZM18.9098 193.643C24.2095 193.643 28.5218 197.949 28.5218 203.241C28.5218 208.533 24.2095 212.839 18.9098 212.839C13.61 212.839 9.29775 208.533 9.29775 203.241C9.29775 197.949 13.61 193.643 18.9098 193.643Z" fill="#E3E2E0"/>
<path fill-rule="evenodd" clip-rule="evenodd" d="M37.8199 81.8555C27.3767 81.8555 18.9102 90.3097 18.9102 100.738C18.9102 111.166 27.3767 119.62 37.8199 119.62C48.2632 119.62 56.7297 111.166 56.7297 100.738C56.7297 90.3097 48.2632 81.8555 37.8199 81.8555ZM37.8199 91.1397C43.1196 91.1397 47.4319 95.4457 47.4319 100.738C47.4319 106.03 43.1196 110.336 37.8199 110.336C32.5202 110.336 28.2079 106.03 28.2079 100.738C28.2079 95.4457 32.5202 91.1397 37.8199 91.1397Z" fill="#E3E2E0"/>
<path fill-rule="evenodd" clip-rule="evenodd" d="M242.225 167.724L246.727 165.476V169.972L242.225 167.724Z" fill="#D3D2D2"/>
<path fill-rule="evenodd" clip-rule="evenodd" d="M242.225 176.716L246.727 174.468V178.964L242.225 176.716Z" fill="#D3D2D2"/>
<path fill-rule="evenodd" clip-rule="evenodd" d="M242.225 185.708L246.727 183.46V187.956L242.225 185.708Z" fill="#D3D2D2"/>
<path d="M246.276 176.716H305.707" stroke="#D3D2D2" stroke-width="1.25" stroke-linecap="round"/>
<path d="M245.376 167.725H246.204C254.488 167.725 261.204 161.009 261.204 152.725V115.738C261.204 107.454 267.919 100.738 276.204 100.738L305.257 100.738" stroke="#D3D2D2" stroke-width="1.25" stroke-linecap="round" stroke-linejoin="bevel"/>
<path d="M245.376 185.708H246.204C254.488 185.708 261.204 192.423 261.204 200.708V236.346C261.204 244.63 267.919 251.346 276.204 251.346L315.572 251.346" stroke="#D3D2D2" stroke-width="1.25" stroke-linecap="round" stroke-linejoin="bevel"/>
<ellipse cx="291.749" cy="100.738" rx="1.80092" ry="1.7983" fill="#D3D2D2"/>
<ellipse cx="261.134" cy="219.426" rx="1.8009" ry="1.7983" fill="#D3D2D2"/>
<ellipse cx="284.546" cy="100.738" rx="1.80093" ry="1.7983" fill="#D3D2D2"/>
<ellipse cx="275.541" cy="176.716" rx="1.80093" ry="1.79831" fill="#D3D2D2"/>
<ellipse cx="261.134" cy="212.232" rx="1.8009" ry="1.7983" fill="#D3D2D2"/>
<ellipse cx="268.338" cy="176.716" rx="1.8009" ry="1.79831" fill="#D3D2D2"/>
<ellipse cx="261.134" cy="205.039" rx="1.8009" ry="1.79831" fill="#D3D2D2"/>
<path d="M121.112 176.716H89.9612C82.1399 176.716 75.7995 183.056 75.7995 190.877V190.877C75.7995 198.699 69.4591 205.039 61.6379 205.039H44.1226" stroke="#D3D2D2" stroke-width="1.25" stroke-linecap="round"/>
<path d="M122.013 167.724H121.185C112.901 167.724 106.185 161.009 106.185 152.724V115.738C106.185 107.454 99.4694 100.738 91.1851 100.738L62.1319 100.738" stroke="#D3D2D2" stroke-width="1.25" stroke-linecap="round" stroke-linejoin="bevel"/>
<path d="M122.013 185.708L114.738 185.811C106.538 185.927 99.9514 192.608 99.9514 200.809V207.024C99.9514 215.347 93.1752 222.079 84.8524 222.024L78.1313 221.979C69.8085 221.924 63.0323 228.656 63.0323 236.979V249.098" stroke="#D3D2D2" stroke-width="1.25" stroke-linecap="round" stroke-linejoin="bevel"/>
<ellipse rx="1.80092" ry="1.7983" transform="matrix(-1 0 0 1 82.8426 100.738)" fill="#D3D2D2"/>
<ellipse rx="1.80091" ry="1.79831" transform="matrix(-1 0 0 1 91.8475 176.716)" fill="#D3D2D2"/>
<ellipse rx="1.80092" ry="1.79831" transform="matrix(-1 0 0 1 99.952 203.241)" fill="#D3D2D2"/>
<path fill-rule="evenodd" clip-rule="evenodd" d="M60.3311 100.737L64.8334 98.4896V102.985L60.3311 100.737Z" fill="#D3D2D2"/>
<path fill-rule="evenodd" clip-rule="evenodd" d="M43.2227 205.039L47.725 202.791V207.287L43.2227 205.039Z" fill="#D3D2D2"/>
<path fill-rule="evenodd" clip-rule="evenodd" d="M63.033 253.593L60.7819 249.097H65.2842L63.033 253.593Z" fill="#D3D2D2"/>
<rect x="129.392" y="122.942" width="106.806" height="106.648" rx="29.375" fill="#F0EFED" stroke="#979797" stroke-width="1.25"/>
<path fill-rule="evenodd" clip-rule="evenodd" d="M199.553 166.872C198.718 164.364 197.542 162.277 196.026 160.612C194.51 158.945 192.671 157.692 190.51 156.849C188.349 156.008 185.959 155.586 183.344 155.586H168.387V181.657H177.031V163.34H183.344C185.922 163.34 187.95 164.068 189.429 165.523C190.908 166.978 191.647 169.314 191.647 172.53V178.733C191.647 181.95 190.908 184.286 189.429 185.741C187.95 187.197 185.922 187.924 183.344 187.924H178.267H177.031H168.387V195.678H183.344C185.959 195.678 188.349 195.257 190.51 194.414C192.671 193.573 194.51 192.318 196.026 190.651C197.542 188.987 198.718 186.899 199.553 184.391C200.386 181.884 200.803 178.964 200.803 175.632C200.803 172.3 200.386 169.381 199.553 166.872Z" fill="#E67F3F"/>
<path d="M130.843 167.724C130.843 168.62 130.116 169.347 129.217 169.347C128.318 169.347 127.591 168.62 127.591 167.724C127.591 166.829 128.318 166.102 129.217 166.102C130.116 166.102 130.843 166.829 130.843 167.724Z" fill="#F0EFED" stroke="#979797" stroke-width="1.25"/>
<path d="M130.843 176.716C130.843 177.612 130.116 178.339 129.217 178.339C128.318 178.339 127.591 177.612 127.591 176.716C127.591 175.821 128.318 175.093 129.217 175.093C130.116 175.093 130.843 175.821 130.843 176.716Z" fill="#F0EFED" stroke="#979797" stroke-width="1.25"/>
<path d="M237.998 176.716C237.998 177.612 237.271 178.339 236.372 178.339C235.473 178.339 234.746 177.612 234.746 176.716C234.746 175.821 235.473 175.093 236.372 175.093C237.271 175.093 237.998 175.821 237.998 176.716Z" fill="#F0EFED" stroke="#979797" stroke-width="1.25"/>
<path d="M237.998 167.724C237.998 168.62 237.271 169.347 236.372 169.347C235.473 169.347 234.746 168.62 234.746 167.724C234.746 166.829 235.473 166.102 236.372 166.102C237.271 166.102 237.998 166.829 237.998 167.724Z" fill="#F0EFED" stroke="#979797" stroke-width="1.25"/>
<path d="M237.998 185.707C237.998 186.603 237.271 187.33 236.372 187.33C235.473 187.33 234.746 186.603 234.746 185.707C234.746 184.812 235.473 184.084 236.372 184.084C237.271 184.084 237.998 184.812 237.998 185.707Z" fill="#F0EFED" stroke="#979797" stroke-width="1.25"/>
<path d="M184.87 229.766C184.87 230.661 184.143 231.389 183.244 231.389C182.345 231.389 181.618 230.661 181.618 229.766C181.618 228.871 182.345 228.143 183.244 228.143C184.143 228.143 184.87 228.871 184.87 229.766Z" fill="#F0EFED" stroke="#979797" stroke-width="1.25"/>
<path d="M184.87 122.767C184.87 123.662 184.143 124.39 183.244 124.39C182.345 124.39 181.618 123.662 181.618 122.767C181.618 121.871 182.345 121.144 183.244 121.144C184.143 121.144 184.87 121.871 184.87 122.767Z" fill="#F0EFED" stroke="#979797" stroke-width="1.25"/>
<path d="M130.843 185.707C130.843 186.603 130.116 187.33 129.217 187.33C128.318 187.33 127.591 186.603 127.591 185.707C127.591 184.812 128.318 184.084 129.217 184.084C130.116 184.084 130.843 184.812 130.843 185.707Z" fill="#F0EFED" stroke="#979797" stroke-width="1.25"/>
<path fill-rule="evenodd" clip-rule="evenodd" d="M199.903 66.1205C199.903 66.9482 199.82 67.7566 199.661 68.5377C202.485 70.0553 204.405 73.0342 204.405 76.4607C204.405 81.4266 200.373 85.4522 195.4 85.4522H170.187C165.214 85.4522 161.183 81.4266 161.183 76.4607C161.183 72.3932 163.887 68.9566 167.599 67.8462C167.525 67.432 167.486 67.0056 167.486 66.57C167.486 62.5973 170.711 59.3768 174.69 59.3768C175.619 59.3768 176.507 59.5525 177.322 59.8723C179.448 56.343 183.321 53.9819 187.746 53.9819C194.46 53.9819 199.903 59.4165 199.903 66.1205Z" fill="#E3E2E0"/>
<path d="M373.968 201.443C373.968 207.056 369.41 211.607 363.787 211.607C358.164 211.607 353.606 207.056 353.606 201.443C353.606 195.83 358.164 191.278 363.787 191.278C369.41 191.278 373.968 195.83 373.968 201.443Z" stroke="#979797" stroke-width="1.25"/>
<path d="M363.787 190.653V201.406L370.437 209.742" stroke="#979797" stroke-width="1.25" stroke-linejoin="round"/>
<path d="M378.194 183.74C372.575 183.74 368.02 179.186 368.02 173.569C368.02 167.951 372.575 163.397 378.194 163.397C383.813 163.397 388.368 167.951 388.368 173.569C388.368 179.186 383.813 183.74 378.194 183.74Z" stroke="#979797" stroke-width="1.25"/>
<path d="M388.993 173.569H378.231L369.887 180.213" stroke="#979797" stroke-width="1.25" stroke-linejoin="round"/>
<rect x="9.62988" y="140.925" width="2.35185" height="2.34659" rx="0.625" stroke="#979797" stroke-width="1.25"/>
<rect x="9.62988" y="146.32" width="2.35185" height="2.3466" rx="0.625" stroke="#979797" stroke-width="1.25"/>
<path d="M14.8574 142.099H36.4685" stroke="#979797" stroke-width="1.25" stroke-linecap="round"/>
<path d="M14.8574 147.494H38.2695" stroke="#979797" stroke-width="1.25" stroke-linecap="round"/>
<rect x="9.62988" y="151.715" width="2.35185" height="2.3466" rx="0.625" stroke="#979797" stroke-width="1.25"/>
<path d="M14.8574 152.889H32.8667" stroke="#979797" stroke-width="1.25" stroke-linecap="round"/>
<path d="M284.271 298.354C284.271 297.318 285.11 296.479 286.146 296.479H331.571C332.607 296.479 333.446 297.318 333.446 298.354V347.303C333.446 348.338 332.607 349.178 331.571 349.178H286.146C285.11 349.178 284.271 348.338 284.271 347.303V298.354Z" stroke="#979797" stroke-width="1.25"/>
<path d="M283.646 302.319L334.071 302.496" stroke="#979797" stroke-width="1.25"/>
<rect x="287.872" y="307.269" width="26.6644" height="3.24582" stroke="#979797" stroke-width="1.25"/>
<rect x="287.872" y="315.361" width="26.6644" height="3.24576" stroke="#979797" stroke-width="1.25"/>
<rect x="287.872" y="323.453" width="26.6644" height="3.24576" stroke="#979797" stroke-width="1.25"/>
<ellipse cx="287.247" cy="299.45" rx="0.900467" ry="0.899155" fill="#979797"/>
<ellipse cx="289.948" cy="299.45" rx="0.900467" ry="0.899155" fill="#979797"/>
<ellipse cx="292.65" cy="299.45" rx="0.900452" ry="0.899155" fill="#979797"/>
<path fill-rule="evenodd" clip-rule="evenodd" d="M249.879 267.081L229.618 302.147H270.139L249.879 267.081ZM250.779 283.265L257.533 294.954H244.026L250.779 283.265Z" fill="#E3E2E0"/>
<path fill-rule="evenodd" clip-rule="evenodd" d="M183.244 263.484L162.533 284.165L183.244 304.845L203.954 284.165L183.244 263.484ZM183.695 275.173L192.248 283.715L183.695 292.257L175.14 283.715L183.695 275.173Z" fill="#E3E2E0"/>
<path fill-rule="evenodd" clip-rule="evenodd" d="M183.244 260.787L185.495 256.291H180.993L183.244 260.787Z" fill="#D3D2D2"/>
<path d="M183.244 235.878V258.089" stroke="#D3D2D2" stroke-width="1.25" stroke-linecap="round"/>
<path fill-rule="evenodd" clip-rule="evenodd" d="M183.244 116.922L185.495 112.427H180.993L183.244 116.922Z" fill="#D3D2D2"/>
<path fill-rule="evenodd" clip-rule="evenodd" d="M183.244 89.0488L185.495 93.5446H180.993L183.244 89.0488Z" fill="#D3D2D2"/>
<path d="M183.244 92.0146V114.225" stroke="#D3D2D2" stroke-width="1.25" stroke-linecap="round" stroke-dasharray="0 5"/>
<path fill-rule="evenodd" clip-rule="evenodd" d="M232.627 284.299L228.127 282.049V286.548L232.627 284.299Z" fill="#D3D2D2"/>
<path d="M207.698 284.299H229.928" stroke="#D3D2D2" stroke-width="1.25" stroke-linecap="round" stroke-dasharray="0 5"/>
</svg>
