<?xml version="1.0" encoding="UTF-8"?>
<svg width="149.5" height="40" fill="none" version="1.1" viewBox="0 0 149.5 40" xmlns="http://www.w3.org/2000/svg">
 <g transform="translate(-.84552 -.31592)" clip-path="url(#clip0_26_2879)">
  <path d="m110.85 10.412h-4.817v4.8168h4.817z" fill="#a0003b"/>
  <g fill="#373d41">
   <path d="m9.5231 11.514c-0.59236 0.7795-1.5069 1.2939-2.6656 1.2939-1.351 0-2.4006-0.5404-2.4006-1.7771 0-2.2396 2.5045-2.3175 4.2037-2.3175h1.6472c0 1.1328-0.1611 1.9694-0.7846 2.8059m-2.0473-11.192c-1.59 0-4.0166 0.50922-5.0662 0.96648v2.5617c0.99766-0.32216 3.019-0.8106 4.635-0.8106 2.2084 0 3.2632 0.83659 3.2632 3.3983h-2.0784c-1.59 0-3.4502 0.1351-4.9052 0.83658-1.4549 0.70148-2.4786 1.8083-2.4786 3.9646 0 2.7748 2.5097 4.3388 5.0974 4.3388 1.7251 0 3.6113-0.9145 4.4998-2.5045h0.052l-0.026 2.1564h3.2892v-8.7659c0-4.3128-1.8343-6.1419-6.2822-6.1419z"/>
   <path d="m38.741 4.1196c-0.4001-2.2447-1.9174-3.7932-4.5259-3.7932-1.881 0-3.4243 0.59756-4.557 2.2967v0.01558c-0.7223-1.4601-2.0317-2.3123-4.0478-2.3123-1.7823 0-3.2632 0.60275-4.3752 2.1148-0.0519 0.06755-0.1039 0.1299-0.1559 0.20265h-0.0519v-1.9693h-3.5126v14.554h3.6788v-7.524c0-1.6784 0.5352-4.3856 3.019-4.3856 2.1928 0 2.2188 2.1928 2.2188 3.8036v8.1112h3.5697v-7.5292c0-1.6784 0.5352-4.3856 3.019-4.3856 2.1616 0 2.2136 2.1304 2.2136 3.7308v8.1788h3.6736v-9.1868c0-0.6859-0.0831-1.4497-0.1714-1.9226z"/>
   <path d="m71.399 8.5363c0.0883-0.61834 0.1143-1.2055 0.1143-1.7043 0-3.6113-2.0993-6.5212-6.2562-6.5212s-6.6719 2.915-6.9732 6.9732c0 0.05716-0.0052 0.15589-0.0104 0.2702-0.0104 0.17148-0.0208 0.33775-0.0208 0.50922 0 0.30138 0.0156 0.58717 0.0364 0.86776 0 0.14549 0.0052 0.23903 0.0052 0.24942 0.3585 4.3544 2.889 6.3393 7.1759 6.3393 1.6523 0 3.6632-0.3481 5.1234-0.8625v-2.9203c-1.3095 0.4209-3.1853 0.7535-4.5934 0.7535-4.4479 0-4.1778-3.9543-4.1778-3.9543h9.561zm-6.2406-5.4612c1.5484 0 2.941 1.086 2.8839 2.9046h-6.1159c0.2026-1.7615 1.7095-2.9046 3.2268-2.9046z"/>
   <path d="m98.46 11.514c-0.5923 0.7795-1.4809 1.2939-2.6396 1.2939-1.377 0-2.4266-0.5404-2.4266-1.7771 0-2.2396 2.5357-2.3175 4.2297-2.3175h1.6419c0 1.1328-0.187 1.9694-0.8054 2.8059m-2.0213-11.192c-1.616 0-4.0426 0.50922-5.0662 0.97168v2.5565c0.9976-0.32216 2.993-0.8106 4.609-0.8106 2.2395 0 3.2891 0.83659 3.2891 3.3983h-2.1044c-1.59 0-3.4503 0.1351-4.9052 0.83658-1.4289 0.70148-2.4785 1.8031-2.4785 3.9594 0 2.7748 2.5045 4.3388 5.0922 4.3388 1.7251 0 3.6113-0.9145 4.4999-2.5045h0.0571v2.1564h3.2888v-8.7607c0-4.3128-1.834-6.1419-6.2818-6.1419z"/>
   <path d="m52.334 0.58103c-0.4884-0.15588-1.034-0.25461-1.59-0.25461-1.7823 0-3.2632 0.60275-4.3804 2.1148-0.0519 0.06755-0.1039 0.1299-0.1558 0.20265h-0.052v-1.7771-0.22344h-3.4918v21.663h3.7568v-7.1448c0.9301 0.0468 1.1743 0.0884 1.881 0.0884 5.0507 0 7.6695-3.019 7.6695-8.0956 0-3.5542-1.2522-5.8665-3.6373-6.5783zm-4.0374 11.52c-0.7898 0-1.9589-0.1455-1.9589-0.1455v-3.7412c0-0.36373 0.0311-0.71707 0.0831-1.0652 0.3014-1.7147 1.1951-3.5178 3.4191-3.5178 2.2239 0 2.5928 2.0265 2.5928 3.7776 0 3.1956-2.1564 4.6921-4.1413 4.6921z"/>
   <path d="m81.833 0.37824c-0.0572 0-0.1091 0.005196-0.1663 0.005196h-0.1247c-5.0507 0-7.6903 3.2008-7.6903 8.2775 0 1.351 0.1871 2.5253 0.5456 3.497 0.7846 2.2084 2.4474 3.3671 4.8844 3.3671 2.7539 0 4.1101-2.094 4.344-2.3175 0 0-0.026 0.6704-0.026 1.2575v0.821c0 2.6708-1.9797 4.0374-4.3752 4.0374-1.299 0-2.8267-0.1818-4.1829-0.4884v3.2476c1.1899 0.2182 2.7228 0.3793 4.1621 0.3793 6.0536 0 7.9086-3.8971 7.9086-7.3058v-14.341c-1.5848-0.265-3.2164-0.44167-5.2689-0.44167zm1.564 7.1031c0 0.36373-0.0311 0.71707-0.0831 1.0652-0.3014 1.7147-1.1951 3.5178-3.4191 3.5178-2.2239 0-2.5929-2.0265-2.5929-3.7776 0-3.1956 2.1565-4.6921 4.1414-4.6921 0.7898 0 1.9589 0.1455 1.9589 0.1455v3.7412z"/>
   <path d="m4.8102 28.058v8.7087h-1.0808v-8.7087h-2.8839v-0.9145h6.8589v0.9145z"/>
   <path d="m11.581 36.767c0-0.5404 0-1.086 0.0727-1.4965h-0.026c-0.3429 0.8989-1.2522 1.6264-2.4681 1.6264-1.1276 0-1.9382-0.7275-1.9382-1.8811 0-1.4549 1.5277-2.411 4.318-2.411v-0.3585c0-1.2419-0.4001-1.8394-1.5952-1.8394-0.6703 0-1.5277 0.2286-2.1252 0.53l-0.22863-0.8678c0.6859-0.2858 1.5848-0.5144 2.5098-0.5144 1.8966 0 2.5097 0.9717 2.5097 2.4786v2.6084c0 0.6963 0 1.4965 0.026 2.1253zm-0.0416-3.3775c-2.5253 0-3.2476 0.6962-3.2476 1.4653 0 0.6703 0.45727 1.1691 1.1691 1.1691 1.2419 0 2.0837-1.2419 2.0837-2.4682v-0.1714z"/>
   <path d="m14.859 36.767v-10.408h1.0704v10.408z"/>
   <path d="m22.02 36.767c0-0.5404 0-1.086 0.0728-1.4965h-0.026c-0.3429 0.8989-1.2575 1.6264-2.4682 1.6264-1.1275 0-1.9381-0.7275-1.9381-1.8811 0-1.4549 1.5276-2.411 4.318-2.411v-0.3585c0-1.2419-0.4001-1.8394-1.5952-1.8394-0.6703 0-1.5277 0.2286-2.1253 0.53l-0.2286-0.8678c0.6859-0.2858 1.5848-0.5144 2.5097-0.5144 1.8966 0 2.5098 0.9717 2.5098 2.4786v2.6084c0 0.6963 0 1.4965 0.026 2.1253zm-0.0415-3.3775c-2.5254 0-3.2476 0.6962-3.2476 1.4653 0 0.6703 0.4572 1.1691 1.1691 1.1691 1.2419 0 2.0837-1.2419 2.0837-2.4682v-0.1714z"/>
   <path d="m29.861 36.767v-4.5778c0-1.112-0.3014-1.7563-1.3251-1.7563-1.2678 0-2.1667 1.2523-2.1667 2.9358v3.3931h-1.0705v-7.0875h1.0549c0 0.4728-0.0416 1.1535-0.1144 1.5848l0.026 0.0156c0.4001-1.0392 1.2991-1.7251 2.5358-1.7251 1.6263 0 2.1252 1.0132 2.1252 2.2811v4.9311h-1.0704z"/>
   <path d="m37.359 36.767-1.9538-2.8527-1.9537 2.8527h-1.325l2.6812-3.5489-2.5357-3.5334h1.325l1.8966 2.7955 1.9381-2.7955h1.2263l-2.5357 3.4918 2.6501 3.5905z"/>
   <path d="m42.664 36.767v-9.6232h1.0964v9.6232z"/>
   <path d="m50.92 36.767v-4.5778c0-1.112-0.3013-1.7563-1.325-1.7563-1.2678 0-2.1668 1.2523-2.1668 2.9358v3.3931h-1.0704v-7.0875h1.0548c0 0.4728-0.0415 1.1535-0.1143 1.5848l0.026 0.0156c0.4001-1.0392 1.299-1.7251 2.5357-1.7251 1.6264 0 2.1253 1.0132 2.1253 2.2811v4.9311h-1.0705z"/>
   <path d="m57.094 36.767h-1.1951l-2.6241-7.0876h1.1951l1.6524 4.6922c0.1559 0.4832 0.2858 0.8677 0.4001 1.3094h0.0156c0.1143-0.4105 0.2442-0.8262 0.3845-1.2679l1.694-4.7337h1.1535l-2.6812 7.0876z"/>
   <path d="m66.187 33.135h-4.7337c-0.0571 1.9798 0.7587 2.8631 2.3539 2.8631 0.6859 0 1.3978-0.1403 2.0109-0.4105l0.1871 0.8678c-0.6963 0.2702-1.5277 0.4417-2.4111 0.4417-2.1096 0-3.2476-1.1536-3.2476-3.6374 0-2.1096 1.1536-3.7048 3.1229-3.7048 1.9694 0 2.7488 1.325 2.7488 2.8631 0 0.1455 0 0.4416-0.026 0.7118zm-2.7955-2.7539c-0.9977 0-1.7251 0.7274-1.8966 1.9693h3.6061c0.0312-1.2263-0.6287-1.9693-1.7095-1.9693z"/>
   <path d="m69.31 36.897c-0.5404 0-1.1431-0.0572-1.5848-0.1871l0.1299-0.9821c0.4572 0.1715 1.0548 0.2702 1.5952 0.2702 0.9821 0 1.6991-0.4572 1.6991-1.1951 0-1.7407-3.4658-0.6391-3.4658-3.1645 0-1.1847 0.9249-2.0836 2.7384-2.0836 0.4417 0 0.9821 0.0727 1.3977 0.1559l-0.0987 0.8989c-0.4261-0.1299-0.9301-0.213-1.4133-0.213-1.0237 0-1.5277 0.426-1.5277 1.1275 0 1.7096 3.4658 0.6963 3.4658 3.1385 0 1.2523-1.0964 2.2396-2.9358 2.2396z"/>
   <path d="m76.429 36.882c-1.4238 0-1.8395-0.6288-1.8395-2.0941v-4.2608h-1.538v-0.8418h1.538v-2.3539l1.0704-0.3014v2.6501h2.0837v0.8418h-2.0837v3.8191c0 1.2679 0.2287 1.5953 1.0704 1.5953 0.3586 0 0.6859-0.0416 0.9561-0.1144l0.1299 0.899c-0.4001 0.0831-0.9405 0.1559-1.3821 0.1559z"/>
   <path d="m88.515 36.767v-4.5622c0-1.0704-0.2546-1.7667-1.2835-1.7667-1.0808 0-2.1252 1.1276-2.1252 2.967v3.3619h-1.0548v-4.5778c0-0.9717-0.1975-1.7563-1.2835-1.7563-1.1691 0-2.1252 1.2263-2.1252 2.967v3.3619h-1.0704v-7.0875h1.0548c0 0.4728-0.026 1.1431-0.1143 1.5848l0.026 0.0156c0.4001-1.0392 1.325-1.7251 2.4941-1.7251 1.6108 0 1.9538 1.1535 1.9798 1.6991 0.2546-0.6703 1.0236-1.6991 2.4681-1.6991 1.325 0 2.0941 0.7118 2.0941 2.3122v4.9052h-1.0704z"/>
   <path d="m97.359 33.135h-4.7337c-0.0572 1.9798 0.7534 2.8631 2.3538 2.8631 0.6859 0 1.3978-0.1403 2.0109-0.4105l0.1871 0.8678c-0.6963 0.2702-1.5277 0.4417-2.411 0.4417-2.1097 0-3.2528-1.1536-3.2528-3.6374 0-2.1096 1.1535-3.7048 3.1229-3.7048 1.9693 0 2.7487 1.325 2.7487 2.8631 0 0.1455 0 0.4416-0.0259 0.7118zm-2.7956-2.7539c-0.9976 0-1.7251 0.7274-1.8966 1.9693h3.6062c0.0259-1.2263-0.6288-1.9693-1.7096-1.9693z"/>
   <path d="m103.93 36.767v-4.5778c0-1.112-0.301-1.7563-1.325-1.7563-1.268 0-2.167 1.2523-2.167 2.9358v3.3931h-1.0702v-7.0875h1.0552c0 0.4728-0.042 1.1535-0.115 1.5848l0.026 0.0156c0.4-1.0392 1.299-1.7251 2.536-1.7251 1.626 0 2.125 1.0132 2.125 2.2811v4.9311h-1.07z"/>
   <path d="m109.52 36.882c-1.424 0-1.84-0.6288-1.84-2.0941v-4.2608h-1.538v-0.8418h1.538v-2.3539l1.071-0.3014v2.6501h2.084v0.8418h-2.084v3.8191c0 1.2679 0.228 1.5953 1.07 1.5953 0.359 0 0.686-0.0416 0.956-0.1144l0.13 0.899c-0.4 0.0831-0.94 0.1559-1.382 0.1559z"/>
   <path d="m119.3 36.897c-2.967 0-4.749-1.7667-4.749-4.7337s1.709-5.1442 5.102-5.1442c0.915 0 1.798 0.1559 2.64 0.4105l-0.244 0.9977c-0.801-0.3118-1.668-0.4832-2.526-0.4832-2.723 0-3.819 1.9381-3.819 4.0478 0 2.5357 1.424 3.9646 3.762 3.9646 0.696 0 1.299-0.0987 1.866-0.2858v-3.7464h1.096v4.4323c-0.972 0.3586-2.125 0.5404-3.139 0.5404z"/>
   <path d="m127.98 30.625c-1.569-0.2702-2.307 0.925-2.307 3.3048v2.8371h-1.071v-7.0876h1.055c0 0.4729-0.057 1.1692-0.171 1.7823l0.026 0.0156c0.285-1.0392 1.023-2.0785 2.509-1.9122l-0.041 1.0548z"/>
   <path d="m131.53 36.897c-1.897 0-3.123-1.1536-3.123-3.6374 0-2.0213 1.252-3.7048 3.378-3.7048 1.725 0 3.138 0.9561 3.138 3.549 0 2.1096-1.299 3.7932-3.393 3.7932zm0.156-6.4589c-1.112 0-2.167 0.8418-2.167 2.7384s0.769 2.8059 2.167 2.8059c1.112 0 2.125-0.8573 2.125-2.8059 0-1.7095-0.712-2.7384-2.125-2.7384z"/>
   <path d="m141.06 36.767c0-0.4729 0.041-1.1535 0.114-1.5848l-0.026-0.0156c-0.4 1.0392-1.299 1.7251-2.536 1.7251-1.626 0-2.125-1.0132-2.125-2.2811v-4.9312h1.07v4.5779c0 1.1119 0.302 1.7511 1.325 1.7511 1.268 0 2.167-1.2523 2.167-2.9359v-3.3931h1.071v7.0876h-1.055z"/>
   <path d="m146.73 36.855c-0.483 0-0.842-0.0156-1.309-0.0987v3.5645h-1.071v-10.636h1.055c0 0.4261-0.026 1.1276-0.114 1.5381l0.026 0.0155c0.4-1.0288 1.299-1.6835 2.421-1.6835 1.668 0 2.609 1.1535 2.609 3.3515 0 2.5357-1.382 3.9491-3.622 3.9491zm0.8-6.4173c-1.423 0-2.109 1.6524-2.109 2.9099v2.4785c0.41 0.1299 0.852 0.1871 1.382 0.1871 1.47 0 2.421-0.8833 2.421-3.0242 0-1.5952-0.53-2.5513-1.699-2.5513z"/>
  </g>
 </g>
 <defs>
  <clipPath id="clip0_26_2879">
   <rect transform="translate(.84552 .31592)" width="149.51" height="40" fill="#fff"/>
  </clipPath>
 </defs>
</svg>
