<svg width="135" height="25" viewBox="0 0 135 25" fill="none" xmlns="http://www.w3.org/2000/svg">
<path fill-rule="evenodd" clip-rule="evenodd" d="M4.41106 0.530029V1.33936L7.06669 1.89578V17.2731L4.41106 17.8042V18.6389H11.1892V17.8042L8.53361 17.2731V4.29849L15.16 18.6389H15.5141L22.5199 3.61561V17.2731L19.8643 17.8042V18.6389H27.9576V17.8042L25.302 17.2731V1.89578L27.9576 1.33936V0.530029H22.267L16.0705 14.0611L9.87406 0.530029H4.41106ZM30.4109 0.530029V1.33936L33.0665 1.89578V17.2731L30.4109 17.8042V18.6389H45.4341L46.4964 13.9346L45.7123 13.7323L44.0431 17.2478H35.8486V9.83736H41.7921L42.3233 12.4677H43.1579V5.81599H42.3233L41.7921 8.47161H35.8486V1.8452H43.6384L44.4983 4.77903H45.3077L45.1812 0.530029H30.4109ZM48.1909 0.530029L47.761 5.03195L48.5956 5.1837L49.6326 1.94636H53.7298V17.1719L50.796 17.8042V18.6389H59.4457V17.8042L56.5119 17.1719V1.94636H60.6091L61.6461 5.1837L62.4807 5.03195L62.0508 0.530029H48.1909ZM65.1869 0.530029L64.7823 5.1837L65.5916 5.31015L66.6791 1.89578H73.9378L63.9729 18.3354V18.6389H77.2763L78.0857 13.884L77.2763 13.7323L75.9106 17.2478H67.8931L77.7063 0.858821V0.530029H65.1869ZM80.0078 0.530029V1.33936L82.6635 1.89578V17.2731L80.0078 17.8042V18.6389H93.1342L94.1712 13.9346L93.4124 13.7323L91.7432 17.2478H85.4455V1.89578L88.6323 1.33936V0.530029H80.0078ZM95.3093 0.530029V1.33936L97.9649 1.89578V17.2731L95.3093 17.8042V18.6389H109.549L110.585 13.9346L109.801 13.7323L108.132 17.2478H100.747V9.83736H106.691L107.247 12.4677H108.056V5.81599H107.247L106.691 8.47161H100.747V1.8452H108.562L109.397 4.77903H110.231L110.08 0.530029H95.3093ZM113.089 0.530029V1.33936L115.745 1.89578V17.2731L113.089 17.8042V18.6389H121.183V17.8042L118.527 17.2731V10.2673H119.868L126.393 18.6389H130.971V17.8042L128.593 17.0961L122.65 9.98911C124.782 9.66133 127.632 8.56468 127.632 5.31015C127.632 1.45469 124.51 0.530029 120.955 0.530029H113.089ZM118.527 1.8452H121.082C123.542 1.8452 124.901 2.6869 124.901 5.28486C124.901 8.62134 121.263 9.02803 118.527 9.02803V1.8452ZM0.0103149 22.4579V24.1019H134.79V22.4579H0.0103149Z" fill="#231F20"/>
</svg>
