<?xml version="1.0" encoding="UTF-8"?>
<svg width="113.44" height="52.772" fill="none" version="1.1" viewBox="0 0 113.44 52.772" xmlns="http://www.w3.org/2000/svg">
 <g fill="#ff384a">
  <path d="m33.968 10.379h-0.57c-0.501-1.6065-0.9328-2.0383-2.0901-2.0383h-3.0229v4.5083h1.7274c0.76 0 1.1227-0.4663 1.1746-1.5546h0.57v3.852h-0.57c-0.0519-1.0882-0.4146-1.5546-1.1746-1.5546h-1.7274v3.6965c0 0.8982 0.5701 1.1746 2.1074 1.2782v0.5701h-5.6465v-0.5701c1.1228-0.1209 1.5201-0.4145 1.5201-1.2437v-7.8574c0-0.95-0.3973-1.2264-1.5201-1.2955v-0.57h9.0321z"/>
  <path d="m38.839 18.081c0.6564 0 1.33-0.3282 2.0728-1.2437v-4.351c0-0.6218-0.2073-0.9673-0.9673-1.0537l-0.2073-0.0518v-0.5009l2.6601-0.7082h0.4146v6.7865c0 0.7255 0.2245 1.0709 0.9154 1.0709h0.3282v0.5701l-2.7292 0.7773h-0.4145v-1.9001c-0.8982 1.3646-1.8137 1.9001-2.8674 1.9001-1.5546 0-2.6255-1.0192-2.6255-2.902v-3.9901c0-0.6218-0.2073-0.9673-0.9674-1.0537l-0.2072-0.0518v-0.5009l2.6601-0.7082h0.4318v6.1474c0 1.1765 0.5527 1.7638 1.5028 1.7638zm-1.6583-11.347c0.6737 0 1.1574 0.5009 1.1574 1.1228 0 0.6563-0.4837 1.14-1.1574 1.14-0.6736 0-1.1573-0.4837-1.1573-1.14 0-0.6219 0.4837-1.1228 1.1573-1.1228zm3.3511 0c0.6564 0 1.14 0.5009 1.14 1.1228 0 0.6563-0.4836 1.14-1.14 1.14-0.691 0-1.1746-0.4837-1.1746-1.14 0-0.6219 0.4836-1.1228 1.1746-1.1228z"/>
  <path d="m45.988 17.459v-4.9728c0-0.6218-0.2073-0.9673-0.95-1.0537l-0.2073-0.0518v-0.5009l2.6601-0.7082h0.4146v2.6083c0.57-1.7965 1.5546-2.5738 2.6082-2.6429 0.3282-0.0172 0.7428 0.0173 0.9501 0.1037l-0.2591 2.0382c-0.3282-0.2936-0.8637-0.4663-1.3128-0.4491-0.8637 0.0518-1.5892 0.6564-1.9864 1.6065v4.0227c0 0.691 0.38 0.9328 1.6064 1.1055v0.57h-4.6811v-0.57c0.9155-0.19 1.1573-0.4145 1.1573-1.1055z"/>
  <path d="m51.894 17.77 1.4509-1.1918c0.4664 1.2609 1.3819 2.09 2.3837 2.09 0.9155 0 1.6756-0.57 1.6756-1.4164-0.0173-0.7255-0.501-1.1746-1.1746-1.4164l-1.7274-0.6046c-1.2091-0.4318-2.2282-1.0536-2.2282-2.4528 0-1.6064 1.2609-2.6083 3.2128-2.6083 1.8483 0 2.9365 0.7428 3.3338 1.3474l-1.3992 1.0709c-0.38-1.0364-1.14-1.7101-2.09-1.7101-0.9501 0-1.5374 0.4837-1.5374 1.2264 0 0.7255 0.6046 1.0537 1.3128 1.3301l1.7446 0.6046c1.1919 0.4145 2.0728 1.1746 2.0728 2.5392 0 1.5373-1.2782 2.7982-3.3683 2.7982-1.5028 0-2.9883-0.6218-3.6619-1.6064z"/>
  <path d="m59.408 10.414h1.5374v-1.71l1.5023-0.7773h0.415v2.4873h2.263v0.7428h-2.265v5.5601c0 1.1055 0.536 1.5892 1.278 1.5892 0.449 0 0.778-0.1728 1.089-0.4146l0.207 0.38c-0.467 0.4146-1.244 1.1055-2.228 1.1055-1.434 0-2.2632-0.8637-2.2632-2.6083v-5.6119h-1.5374v-0.7428z"/>
  <path d="m70.184 18.565v0.57h-4.249v-0.57c0.743-0.1555 1.157-0.3282 1.157-1.0537v-8.3238c0-0.6046-0.207-0.9501-0.95-1.0537l-0.207-0.0346v-0.5009l2.66-0.7082h0.415v10.621c0 0.7255 0.431 0.8982 1.174 1.0537z"/>
  <path d="m75.105 18.565v0.57h-4.249v-0.57c0.743-0.1554 1.157-0.3282 1.157-1.0536v-5.0247c0-0.6218-0.207-0.9673-0.95-1.0537l-0.207-0.0518v-0.5009l2.66-0.7082h0.415v7.3393c0 0.7254 0.431 0.8982 1.174 1.0536zm-2.107-12.038c0.725 0 1.261 0.5355 1.261 1.2437 0 0.7255-0.536 1.2437-1.261 1.2437-0.76 0-1.296-0.5182-1.296-1.2437 0-0.7082 0.536-1.2437 1.296-1.2437z"/>
  <path d="m75.848 14.851c0-2.4873 1.554-4.6791 4.215-4.6791 1.779 0 2.919 0.9846 3.178 2.0555l-1.71 0.7773c-0.208-1.2264-0.778-2.0555-1.693-2.0555-1.33 0-2.142 1.3991-2.142 3.2301 0 2.3146 1.036 3.8001 2.954 3.8001 1.002 0 1.969-0.7082 2.47-1.7273l0.449 0.19c-0.639 1.9346-2.021 2.9365-3.593 2.9365-2.729-0.0019-4.128-2.0056-4.128-4.5276z"/>
  <path d="m88.162 18.565v0.57h-4.249v-0.57c0.742-0.1555 1.157-0.3282 1.157-1.0537v-8.3929c0-0.5873-0.225-0.8637-0.881-0.9846l-0.276-0.0346v-0.5009l2.66-0.7082h0.414v5.1801c0.898-1.3473 1.814-1.9001 2.85-1.9001 1.572 0 2.643 1.0364 2.643 2.9192v4.422c0 0.7255 0.432 0.8982 1.175 1.0537v0.57h-4.163v-0.57c0.673-0.1382 1.071-0.3282 1.071-1.0537v-4.2665c0-1.1746-0.553-1.7792-1.503-1.7792-0.656 0-1.33 0.3455-2.073 1.2437v4.8001c0 0.7274 0.432 0.9001 1.175 1.0556z"/>
  <path d="m34.987 31.911 0.5182 0.2073c-0.7082 2.1246-2.3319 3.9556-4.8711 3.9556-3.2992 0-5.6983-2.4183-5.7501-5.7674-0.0518-3.5583 2.1592-6.251 5.7328-6.251 2.3665 0 4.042 1.2264 4.4048 2.5046l-2.021 0.9328c-0.3455-1.5719-1.2264-2.6256-2.6083-2.6256-2.0728 0-3.3683 1.7446-3.351 4.6101 0.0172 2.9365 1.7791 5.0419 4.2319 5.0419 1.7101 0 3.0747-1.0364 3.7138-2.6083z"/>
  <path d="m43.363 30.219v3.3683c0 0.7773 0.1728 1.14 1.071 1.14h0.19v0.57l-2.7637 0.7773h-0.4146v-1.8137c-0.57 1.261-1.5373 1.8137-2.7465 1.8137-1.4509 0-2.4182-1.0018-2.4182-2.3319 0-1.7791 1.6755-2.4528 4.0938-3.0055l1.0709-0.2246v-0.3973c0-1.5546-0.7082-2.5046-1.8655-2.5046-0.9328 0-1.4683 0.6218-1.4683 1.4337 0 0.3109 0.0864 0.6046 0.2591 0.95l-1.71 0.5873c-0.2073-0.3627-0.3109-0.6909-0.3109-1.0537 0-1.4509 1.6064-2.6601 3.6619-2.6601 2.1592 2e-3 3.351 1.3147 3.351 3.3511zm-3.7809 4.6983c0.7773 0 1.451-0.4491 1.8655-1.2782v-2.4355l-0.8809 0.2072c-1.6755 0.4319-2.2801 1.0192-2.2801 2.0901 0 0.8119 0.5009 1.4164 1.2955 1.4164z"/>
  <path d="m45.038 34.468 1.451-1.1918c0.4663 1.2609 1.3818 2.09 2.3837 2.09 0.9155 0 1.6755-0.57 1.6755-1.4164-0.0173-0.7255-0.5009-1.1746-1.1746-1.4164l-1.7273-0.6046c-1.2092-0.4318-2.2283-1.0536-2.2283-2.4528 0-1.6064 1.261-2.6083 3.2129-2.6083 1.8482 0 2.9364 0.7428 3.3337 1.3474l-1.3991 1.0709c-0.38-1.0364-1.1401-1.7101-2.0901-1.7101s-1.5373 0.4837-1.5373 1.2265c0 0.7254 0.6045 1.0536 1.3128 1.33l1.7446 0.6046c1.1918 0.4145 2.0728 1.1746 2.0728 2.5392 0 1.5373-1.2783 2.7982-3.3683 2.7982-1.5028 0-2.9883-0.6218-3.662-1.6064z"/>
  <path d="m52.205 27.111h1.5373v-1.7101l1.5028-0.7773h0.4145v2.4874h2.2629v0.7427h-2.2629v5.5601c0 1.1055 0.5355 1.5892 1.2783 1.5892 0.4491 0 0.7773-0.1728 1.0882-0.4146l0.2073 0.38c-0.4664 0.4146-1.2437 1.1055-2.2283 1.1055-1.4337 0-2.2628-0.8637-2.2628-2.6083v-5.6119h-1.5373z"/>
  <path d="m66.073 31.117h-5.871c0.1037 2.1592 1.2092 3.4892 2.85 3.4892 1.123 0 2.038-0.6391 2.539-1.4509l0.449 0.19c-0.466 1.4855-1.779 2.7292-3.696 2.7292-2.5565 0-3.9902-2.0728-3.9902-4.3702 0-3.0055 1.7446-4.8346 4.2492-4.8346 2.365 0 3.47 1.8828 3.47 4.2473zm-1.969-0.76c-0.086-1.6064-0.587-2.7119-1.797-2.7119-1.2605 0-1.9341 1.0537-2.0896 2.7119z"/>
  <path d="m71.201 35.262v0.57h-4.249v-0.57c0.742-0.1555 1.157-0.3282 1.157-1.0537v-8.3238c0-0.6046-0.207-0.9501-0.95-1.0537l-0.207-0.0345v-0.501l2.66-0.7082h0.414v10.621c2e-3 0.7255 0.432 0.8982 1.175 1.0537z"/>
  <path d="m76.125 35.262v0.57h-4.25v-0.57c0.743-0.1555 1.158-0.3282 1.158-1.0537v-8.3238c0-0.6046-0.208-0.9501-0.95-1.0537l-0.208-0.0345v-0.501l2.66-0.7082h0.415v10.621c0 0.7255 0.432 0.8982 1.175 1.0537z"/>
  <path d="m79.439 24.089c0 1.71-1.054 2.8846-2.643 3.0573v-0.5009c0.795-0.1727 1.572-0.8636 1.589-1.7619-0.915 0.2246-1.589-0.38-1.589-1.14 0-0.7082 0.536-1.261 1.227-1.261 0.846 0 1.416 0.6564 1.416 1.6065z"/>
  <path d="m79.404 34.468 1.451-1.1918c0.466 1.2609 1.382 2.09 2.383 2.09 0.916 0 1.676-0.57 1.676-1.4164-0.017-0.7255-0.501-1.1746-1.175-1.4164l-1.727-0.6046c-1.209-0.4318-2.228-1.0536-2.228-2.4528 0-1.6064 1.261-2.6083 3.213-2.6083 1.848 0 2.936 0.7428 3.333 1.3474l-1.399 1.0709c-0.38-1.0364-1.14-1.7101-2.09-1.7101s-1.537 0.4837-1.537 1.2265c0 0.7254 0.604 1.0536 1.313 1.33l1.744 0.6046c1.192 0.4145 2.073 1.1746 2.073 2.5392 0 1.5373-1.278 2.7982-3.368 2.7982-1.503 0-2.989-0.6218-3.662-1.6064z"/>
  <path d="m87.382 31.549c0-2.4874 1.555-4.6792 4.215-4.6792 1.779 0 2.919 0.9846 3.178 2.0555l-1.71 0.7773c-0.207-1.2264-0.777-2.0555-1.693-2.0555-1.33 0-2.142 1.3991-2.142 3.2301 0 2.3146 1.037 3.8002 2.954 3.8002 1.002 0 1.969-0.7083 2.47-1.7274l0.449 0.19c-0.639 1.9346-2.021 2.9365-3.592 2.9365-2.73-0.0019-4.129-2.0056-4.129-4.5275z"/>
  <path d="m99.697 35.262v0.57h-4.247v-0.57c0.742-0.1555 1.157-0.3282 1.157-1.0537v-8.3929c0-0.5873-0.225-0.8637-0.881-0.9846l-0.276-0.0345v-0.501l2.66-0.7082h0.414v5.1801c0.898-1.3473 1.814-1.9001 2.85-1.9001 1.572 0 2.643 1.0364 2.643 2.9192v4.422c0 0.7255 0.432 0.8982 1.175 1.0537v0.57h-4.163v-0.57c0.674-0.1382 1.071-0.3282 1.071-1.0537v-4.2665c0-1.1746-0.553-1.7792-1.503-1.7792-0.656 0-1.33 0.3455-2.073 1.2437v4.8001c-2e-3 0.7274 0.43 0.9001 1.173 1.0556z"/>
  <path d="m113.44 31.117h-5.871c0.104 2.1592 1.209 3.4892 2.85 3.4892 1.123 0 2.039-0.6391 2.54-1.4509l0.449 0.19c-0.467 1.4855-1.779 2.7292-3.697 2.7292-2.556 0-3.99-2.0728-3.99-4.3702 0-3.0055 1.745-4.8346 4.249-4.8346 2.365 0 3.47 1.8828 3.47 4.2473zm-1.969-0.76c-0.086-1.6064-0.587-2.7119-1.796-2.7119-1.261 0-1.935 1.0537-2.09 2.7119z"/>
  <path d="m34.072 43.774c0 1.5201-1.2264 2.4528-2.6601 2.6256 2.1765 0.2418 3.4201 1.1918 3.4201 2.971 0 1.8482-1.5027 3.161-4.3701 3.161h-5.7156v-0.57c1.1401-0.1209 1.6237-0.4146 1.6237-1.2437v-7.8574c0-0.9501-0.5009-1.2265-1.6237-1.2955v-0.5701h5.0937c2.712-0.0019 4.232 0.8445 4.232 2.7791zm-4.5064 2.401c1.5891 0 2.3492-0.8118 2.3492-2.401 0-1.1227-0.8119-2.0382-2.5392-2.0382h-0.9846v4.4373h1.1746zm0.2936 5.6119h0.4146c1.5373 0 2.3837-0.8118 2.3837-2.4182 0-1.3473-0.8637-2.4528-2.7464-2.4528h-1.5201v3.9383c0 0.7255 0.4664 0.9327 1.4682 0.9327z"/>
  <path d="m43.035 46.916v3.3683c0 0.7773 0.1728 1.14 1.071 1.14h0.19v0.5701l-2.7638 0.7773h-0.4145v-1.8137c-0.57 1.2609-1.5374 1.8137-2.7465 1.8137-1.451 0-2.4183-1.0019-2.4183-2.3319 0-1.7792 1.6756-2.4529 4.0938-3.0056l1.071-0.2246v-0.3973c0-1.5546-0.7082-2.5046-1.8655-2.5046-0.9328 0-1.4683 0.6218-1.4683 1.4337 0 0.3109 0.0864 0.6046 0.2591 0.95l-1.71 0.5873c-0.2073-0.3627-0.311-0.6909-0.311-1.0536 0-1.451 1.6065-2.6601 3.662-2.6601 2.1592 0.0019 3.351 1.3147 3.351 3.351zm-3.7809 4.6983c0.7773 0 1.4509-0.4491 1.8655-1.2782v-2.4355l-0.8809 0.2072c-1.6756 0.4319-2.2801 1.0192-2.2801 2.0901 0 0.8119 0.5009 1.4164 1.2955 1.4164z"/>
  <path d="m49.322 51.96v0.5701h-4.2493v-0.5701c0.7428-0.1554 1.1573-0.3282 1.1573-1.0536v-5.0247c0-0.6218-0.2072-0.9673-0.95-1.0536l-0.2073-0.0519v-0.5009l2.6601-0.7082h0.4146v1.9001c0.8982-1.3473 1.8137-1.9001 2.8501-1.9001 1.5719 0 2.6428 1.0364 2.6428 2.9192v4.422c0 0.7255 0.4318 0.8982 1.1746 1.0537v0.57h-4.1629v-0.57c0.6737-0.1382 1.071-0.3282 1.071-1.0537v-4.2665c0-1.1746-0.5528-1.7792-1.5028-1.7792-0.6564 0-1.3301 0.3455-2.0728 1.2437v4.8001c0 0.7254 0.4318 0.8982 1.1746 1.0536z"/>
  <path d="m59.889 51.96v0.57h-4.2838v-0.57c0.76-0.1555 1.1746-0.3627 1.1746-1.0537v-8.3238c0-0.5009-0.1037-0.9673-0.9673-1.0537l-0.2073-0.0345v-0.501l2.6774-0.7082h0.4145v7.5293l2.9019-2.401c0.7943-0.6391 0.6223-1.0191-0.3972-1.0191v-0.5873h3.5065v0.5873c-0.76 0.0345-1.14 0.2418-2.004 1.0018l-1.7271 1.451 2.8851 4.2646c0.362 0.5355 0.656 0.7946 1.451 0.8464v0.57h-2.902l-2.9023-4.4546-0.8119 0.6737v2.1591c0.0019 0.6737 0.3647 0.881 1.1919 1.0537z"/>
  <path d="m8.5797 3.6139c0.4261 0 0.7735 0.3474 0.7735 0.7735s-0.3474 0.7735-0.7735 0.7735-0.7735-0.3474-0.7735-0.7735 0.3474-0.7735 0.7735-0.7735zm-1.6851 0.7735c0 0.9289 0.7562 1.6851 1.6851 1.6851s1.6851-0.7562 1.6851-1.6851c0-0.7715-0.5201-1.4222-1.2283-1.6218l-0.0019-0.8349h1.1419v-0.9116h-1.1419l-0.0019-1.0191-0.9117 0.0019 0.0019 1.0191h-1.1419v0.9117h1.1419l0.0019 0.8348c-0.7082 0.1958-1.2302 0.8484-1.2302 1.6199z"/>
  <path d="m16.18 24.762c-1.1573-0.2169-3.9191-0.666-7.1454-0.7063v-7.5581c2.8789 0.0749 5.6676 0.8234 6.489 1.0614 0.0806 0.332 0.2188 0.8982 0.2629 1.1304 0.2304 1.1727 0.3762 2.3934 0.4338 3.6294 0.0384 0.8521 0.0269 1.6659-0.0403 2.4432zm-0.6506 3.2243c0.0172-0.8176 0.0057-1.5776-0.025-2.4182 0.2227 0.0384 0.4146 0.0729 0.57 0.1017-0.117 0.8138-0.2994 1.5834-0.545 2.3165zm-1.0192 2.2437c-0.0019 0.0038-0.0038 0.0057-0.0057 0.0096-0.3397 0.5796-0.7274 1.1458-1.1554 1.6947 0.0998-2.2494 0.1036-4.4853 0.0134-6.6714 0.4453 0.0538 0.8579 0.1094 1.2264 0.1632 0.0614 1.6409 0.0614 2.8692-0.0825 4.8058zm-2.1323 2.8386c-0.3723 0.3992-0.7677 0.7849-1.1822 1.1573v-9.1683c0.4337 0.0287 0.8521 0.0652 1.2513 0.1036 0.1113 2.5833 0.0902 5.2396-0.0691 7.9074zm-2.0939 1.9231c-0.3032 0.2379-0.6141 0.4702-0.9347 0.6928-0.1036 0.071-0.2072 0.144-0.3147 0.2169v-10.934c0.4241 0.0058 0.8425 0.0192 1.2494 0.0365zm-2.1611-10.936c-0.4222 0.0058-0.8425 0.0192-1.2532 0.0403v-7.4947c0.4126-0.0403 0.8329-0.073 1.2532-0.0921zm0 11.851c-0.1094-0.0729-0.2168-0.1477-0.3224-0.2207-2.1688-1.5123-3.9518-3.3951-5.1551-5.4468-0.8004-1.3627-1.3205-2.8693-1.5681-4.5545 1.0729-0.1976 3.9652-0.6717 7.0456-0.7158zm-7.1914-13.59c0.0575-1.236 0.2034-2.4566 0.4337-3.6293 0.0441-0.2226 0.1727-0.7581 0.2533-1.094-0.1228 2.6678-0.117 4.7214 0.0173 7.0687-0.261 0.0422-0.4836 0.0825-0.664 0.1151-0.0672-0.783-0.0807-1.6006-0.0403-2.4605zm1.6121-4.9824c0.3551-0.0844 0.7793-0.1765 1.2552-0.2706-0.117 2.6121-0.117 5.0112 0.0019 7.2932-0.4548 0.0538-0.8771 0.1113-1.259 0.1651-0.1343-2.3646-0.1324-4.4374 0.0019-7.1877zm2.1746-0.4414c0.3934-0.0672 0.8099-0.1305 1.2398-0.1881v7.4448c-0.4299 0.0307-0.8502 0.0672-1.2494 0.1075-0.119-2.2993-0.1152-4.7194 0.0096-7.3642zm11.577-0.0096-0.1881-0.094c-0.025-0.0116-3.7675-1.2092-7.5312-1.2092h-0.0115c-3.6466 0.0922-7.3911 1.1439-7.5197 1.2092l-0.1881 0.094-0.0499 0.2035c-0.0115 0.0441-0.2649 1.069-0.334 1.426-0.2379 1.2168-0.3896 2.4816-0.4491 3.7617-0.1554 3.2992 0.4472 6.0553 1.8387 8.4237 1.2705 2.163 3.1457 4.1456 5.42 5.7328 0.3339 0.2322 0.6928 0.4779 1.0805 0.6852l0.215 0.1151 0.215-0.1151c0.3876-0.2073 0.7465-0.453 1.0805-0.6852 2.2762-1.5872 4.1494-3.5698 5.42-5.7328 1.3915-2.3703 1.9922-5.1264 1.8387-8.4237-0.0595-1.2801-0.2112-2.5468-0.4492-3.7617-0.0691-0.357-0.3243-1.3819-0.3339-1.426z"/>
  <path d="m1.7282 7.4986c0.2169-0.2706 0.5413-0.476 0.9347-0.6007-0.2955 1.474-0.2821 2.8923 0.0403 4.2339-0.2648 0.071-0.4606 0.1305-0.5815 0.1689-0.3186-0.7102-0.595-1.3896-0.6737-1.76-0.1842-0.8905-0.0902-1.5776 0.2802-2.0421zm4.2243-0.0134c0.3724 0.1977 0.7773 0.4126 1.2572 0.5662v2.3453c-0.4818 0.0326-0.9386 0.0787-1.3666 0.1324-0.0806-1.0191-0.0844-1.9711-0.0096-3.1073 0.0384 0.0192 0.0787 0.0403 0.119 0.0634zm-2.3261-0.7293h0.0019c0.4299 0 0.8522 0.0825 1.3205 0.2571-0.1056 1.3608-0.1075 2.4548-0.0096 3.6447-0.5048 0.0825-0.9577 0.1708-1.3474 0.2572-0.3147-1.307-0.3013-2.7023 0.0346-4.159zm4.9536 1.5104c0.1171 0 0.2342-0.0057 0.3493-0.0153 0.0365-2e-3 0.0729-0.0077 0.1094-0.0096v3.017l0.4318 0.0212c2.5603 0.1305 4.5314 0.6621 5.1763 0.8559-0.1727 0.3628-0.3416 0.7063-0.4837 0.9865-1.4183-0.3147-3.5256-0.7408-5.5831-0.7408-2.0594 0-4.1648 0.428-5.5831 0.7408-0.1421-0.2802-0.3109-0.6237-0.4837-0.9865 0.6468-0.1938 2.616-0.7235 5.1763-0.8559l0.4318-0.0212v-3.017c0.0365 0.0038 0.071 0.0076 0.1094 0.0096 0.1152 0.0096 0.2322 0.0153 0.3493 0.0153zm2.7465-0.8464c0.0748 1.1362 0.071 2.0882-0.0096 3.1073-0.4299-0.0537-0.8867-0.0998-1.3665-0.1324v-2.3454c0.4798-0.1535 0.8828-0.3685 1.2571-0.5661 0.0403-0.0212 0.0787-0.0423 0.119-0.0634zm0.8848-0.4088c0.4663-0.1746 0.8905-0.2572 1.3204-0.2572h0.0019c0.3378 1.4568 0.3493 2.8521 0.0365 4.1591-0.3896-0.0864-0.8426-0.1766-1.3473-0.2572 0.0959-1.188 0.0921-2.282-0.0115-3.6447zm3.2186 0.4875c0.3723 0.4664 0.4663 1.1535 0.2783 2.0421-0.0787 0.3704-0.3551 1.0498-0.6737 1.76-0.1209-0.0384-0.3167-0.0979-0.5815-0.1689 0.3224-1.3416 0.3358-2.7618 0.0403-4.2339 0.3953 0.1247 0.7197 0.3282 0.9366 0.6007zm-12.919 6.6656c1.3819-0.309 3.7541-0.8713 6.0687-0.8713 2.3127 0 4.6869 0.5642 6.0687 0.8713 0.1632-0.2956 1.712-3.2973 1.9519-4.4354 0.5873-2.7868-1.2264-3.8596-3.0094-3.8846h-0.0595c-0.8157 0-1.5469 0.2322-2.2762 0.5892-0.7697 0.3762-1.4011 0.833-2.3972 0.9078-0.0921 0.0077-0.1842 0.0115-0.2764 0.0115-0.0921 0-0.1842-0.0038-0.2763-0.0115-0.9961-0.0748-1.6257-0.5316-2.3972-0.9078-0.7312-0.357-1.4606-0.5892-2.2762-0.5892h-0.0595c-1.783 0.025-3.5987 1.0959-3.0095 3.8846 0.2361 1.1381 1.785 4.1379 1.9481 4.4354z"/>
 </g>
</svg>
