<?xml version="1.0" encoding="UTF-8"?>
<svg width="110.65" height="40" version="1.1" viewBox="0 0 110.65 40" xmlns="http://www.w3.org/2000/svg">
 <g >
  <path d="m51.338 15.584c0.2652-2.7371 1.9415-4.8227 5.2484-4.8031 3.536 0.0229 4.6263 2.2231 4.8031 4.8031zm13.807 6.8396c-2.2068 1.1099-4.4594 1.9678-7.3242 1.9678-3.6604 0-6.2568-1.6928-6.4827-5.1568h15.696c0-7.144-2.1085-12.353-10.801-12.34-7.0524 0.00983-10.536 4.8784-10.536 10.791 0 6.7054 4.3644 10.595 11.859 10.595 3.1726 0 5.6413-0.7531 7.8022-1.827z" clip-rule="evenodd" fill-rule="evenodd"/>
  <path d="m69.365 27.695h5.9065v-9.9205h0.0884l7.8513 9.9205h7.226l-9.2985-11.282 8.2507-9.161h-6.5645l-7.4584 8.1362-0.095 0.0458v-15.411h-5.9065z"/>
  <path d="m92.87 12.822c1.9841-1.3489 4.4233-2.1478 6.9343-2.1478 3.484 0 5.114 1.11 5.114 4.4037h-3.261c-2.468 0-5.3789 0.1997-7.6282 1.1918-2.2493 0.992-3.8798 2.7764-3.8798 5.8311 0 3.6965 3.9256 6.0702 7.9364 6.0702 2.6876 0 5.6416-1.2703 7.0096-3.5295h0.089c0.042 0.6352 0.042 1.9842 0.265 3.0548h5.199c-0.131-1.588-0.288-3.2283-0.334-4.7769-0.042-1.5094-0.016-2.842-0.016-4.9046v-2.6193c0-6.0309-2.865-8.6109-9.79-8.6109-2.511 0-5.6771 0.61225-7.969 1.565zm2.9238 8.9613c-0.0524-3.1334 3.9225-3.5295 6.5675-3.5295h2.557c0 1.5846-0.265 3.0547-1.234 4.2039-0.926 1.1099-2.338 1.827-4.145 1.827-2.115 0-3.7193-0.943-3.7455-2.5014z" clip-rule="evenodd" fill-rule="evenodd"/>
  <path d="m17.539 5.1894h9.6128c5.065 0.05238 10.494 2.616 10.494 8.6469 0 6.0308-5.3368 8.6043-10.494 8.6043h-3.7259v-12.062h-5.8869v17.317h8.421c9.436 0 17.68-3.1922 17.769-13.849 0.0884-10.988-8.8237-13.827-17.769-13.846h-8.421z"/>
  <path d="m8.7713 15.519h5.8476v12.176h-5.8476z"/>
  <path d="m0 20.659h5.8475v7.0361h-5.8475z"/>
 </g>
 <g clip-rule="evenodd"  fill-rule="evenodd">
  <path d="m35.131 36.568c0.0687-0.74 0.5238-1.2965 1.4176-1.2965 0.8939 0 1.2507 0.5991 1.2966 1.2965zm3.7881 1.8237c-0.5959 0.3012-1.2638 0.5566-2.0365 0.5566-0.992 0-1.6829-0.5042-1.7516-1.3948h4.2399c0-1.9284-0.6417-3.333-2.9205-3.333-1.9055 0-2.8452 1.3194-2.8452 2.9172 0 1.8106 1.1787 2.8616 3.2054 2.8616 0.8578 0 1.5257-0.1506 2.1085-0.4388z"/>
  <path d="m62.781 36.568c0.0721-0.74 0.5239-1.2965 1.4177-1.2965 0.8939 0 1.2507 0.5991 1.2998 1.2965zm3.7882 1.8237c-0.5959 0.3012-1.2638 0.5566-2.0365 0.5566-0.9888 0-1.6796-0.5042-1.7517-1.3948h4.24c0-1.9284-0.6417-3.333-2.9172-3.333-1.9088 0-2.8485 1.3194-2.8485 2.9172 0 1.8106 1.1787 2.8616 3.2054 2.8616 0.8578 0 1.5257-0.1506 2.1085-0.4388z"/>
  <path d="m84.508 37.148c0 1.588 1.1819 2.8518 3.2053 2.8518 2.0398 0 3.2185-1.2638 3.2185-2.8518 0-1.8237-1.3948-2.927-3.2185-2.927-1.8106 0-3.2053 1.1033-3.2053 2.927zm1.6698-0.1735c0-0.8251 0.5009-1.6403 1.5355-1.6403 1.051 0 1.5487 0.7956 1.5487 1.6403 0 0.9233-0.3209 1.9088-1.5487 1.9088-1.2147 0-1.5355-0.9953-1.5355-1.9088z"/>
  <path d="m100.59 37.096c0-0.7399 0.285-1.7614 1.323-1.7614 1.024 0 1.427 0.9887 1.427 1.7614 0 0.7825-0.344 1.7877-1.404 1.7877-1.048 0-1.346-1.0281-1.346-1.7877zm2.809 2.7765h1.552v-8.0445h-1.598v3.1661h-0.023c-0.478-0.5272-1.038-0.7727-1.836-0.7727-1.883 0-2.5739 1.3489-2.5739 2.8746 0 1.5094 0.6909 2.9042 2.5739 2.9042 0.749 0 1.407-0.2129 1.882-0.7498h0.023z"/>
 </g>
 <g >
  <path d="m17.539 39.872h1.6698v-7.4846h-1.6698z"/>
  <path d="m20.676 39.872h1.5977v-2.7044c0-0.7072 0.2489-1.8335 1.4046-1.8335 1.0248 0 1.0379 0.9134 1.0379 1.5879v2.95h1.5945v-3.487c0-1.2441-0.6286-2.1674-2.0823-2.1674-0.8349 0-1.5159 0.2488-2.0169 0.8807h-0.0229v-0.7497h-1.5126z"/>
  <path d="m29.182 39.872h1.8008l2.2624-5.5234h-1.5945l-1.4766 4.0206h-0.0262l-1.5257-4.0206h-1.7157z"/>
  <path d="m44.547 34.424c-0.5009-0.0983-0.9888-0.203-1.7385-0.203-1.254 0-2.4098 0.5238-2.4098 1.7156 0 1.9939 2.7765 1.254 2.7765 2.3377 0 0.537-0.6417 0.6745-1.0477 0.6745-0.5468 0-1.0707-0.1375-1.5716-0.3634l-0.0949 1.1786c0.5827 0.1408 1.2015 0.2358 1.8105 0.2358 1.2966 0 2.5735-0.5141 2.5735-1.8008 0-1.9939-2.7765-1.4373-2.7765-2.3181 0-0.4714 0.5108-0.6089 0.9397-0.6089 0.5861 0 0.9429 0.0851 1.4308 0.2357z"/>
  <path d="m46.718 38.209c0 1.0935 0.6908 1.7909 1.9448 1.7909 0.4747 0 0.8447-0.0426 1.1786-0.1277l-0.0491-1.1361c-0.1669 0.0949-0.4387 0.1473-0.7268 0.1473-0.6057 0-0.7498-0.4387-0.7498-0.9102v-2.5734h1.4177v-1.051h-1.4177v-1.565l-1.5977 0.4616v1.1034h-1.1787v1.051h1.1787z"/>
  <path d="m51.191 39.872h1.5978v-2.6815c0-0.7171 0.1309-1.8564 1.1918-1.8564 0.9167 0 0.9167 0.7301 0.9167 1.2441v3.2938h1.5978v-2.6815c0-0.7171 0.1309-1.8564 1.1917-1.8564 0.9168 0 0.9168 0.7301 0.9168 1.2441v3.2938h1.5977v-3.487c0-1.231-0.4289-2.1641-1.9448-2.1641-0.7497 0-1.5486 0.311-1.9153 0.9756-0.3471-0.6875-0.9561-0.9756-1.8139-0.9756-0.5958 0-1.3227 0.2226-1.8204 0.9003h-0.0262v-0.7726h-1.4897z"/>
  <path d="m68.167 39.872h1.5977v-2.7044c0-0.7073 0.2489-1.8335 1.4046-1.8335 1.0248 0 1.0379 0.9134 1.0379 1.5879v2.95h1.5945v-3.487c0-1.2441-0.6286-2.1641-2.0823-2.1641-0.8349 0-1.5159 0.2455-2.0136 0.8774h-0.0262v-0.7497h-1.5126z"/>
  <path d="m75.841 38.209c0 1.0935 0.6908 1.7909 1.9415 1.7909 0.478 0 0.848-0.0426 1.182-0.1277l-0.0491-1.1361c-0.167 0.0949-0.442 0.1473-0.7269 0.1473-0.609 0-0.7498-0.4387-0.7498-0.9102v-2.5734h1.4177v-1.051h-1.4177v-1.565l-1.5977 0.4616v1.1034h-1.1787v1.051h1.1787z"/>
  <path d="m81.103 39.872h1.5945v-4.4724h1.3947v-1.051h-1.3947v-0.6875c0-0.4289 0.1669-0.8447 0.7039-0.8447 0.3438 0 0.5468 0.1178 0.6908 0.1931l0.131-1.1917c-0.311-0.0655-0.7629-0.1179-1.1689-0.1179-1.2605 0-1.9513 0.7727-1.9513 1.8761v0.7726h-1.182v1.051h1.182z"/>
  <path d="m92.087 39.872h1.5978v-2.7044c0-0.7073 0.2488-1.8335 1.4046-1.8335 1.0248 0 1.0379 0.9134 1.0379 1.5879v2.95h1.5977v-3.487c0-1.2441-0.6319-2.1641-2.0856-2.1641-0.8349 0-1.5126 0.2455-2.0135 0.8774h-0.0262v-0.7497h-1.5127z"/>
  <path d="m110.33 34.424c-0.501-0.0983-0.989-0.203-1.739-0.203-1.251 0-2.406 0.5238-2.406 1.7156 0 1.9939 2.776 1.254 2.776 2.3377 0 0.537-0.645 0.6745-1.051 0.6745-0.547 0-1.071-0.1375-1.571-0.3634l-0.095 1.1786c0.582 0.1408 1.201 0.2358 1.81 0.2358 1.3 0 2.574-0.5141 2.574-1.8008 0-1.9939-2.777-1.4373-2.777-2.3181 0-0.4714 0.514-0.6089 0.943-0.6089 0.583 0 0.94 0.0851 1.428 0.2357z"/>
 </g>
</svg>
