<svg width="52" height="16" viewBox="0 0 52 16" fill="none" xmlns="http://www.w3.org/2000/svg">
<path fill-rule="evenodd" clip-rule="evenodd" d="M1.98767 10.5129C1.98767 8.63708 2.50159 5.97828 4.40009 5.97828C6.12022 5.97828 6.72332 8.3907 6.72332 10.5129C6.72332 12.4114 6.2094 15.0475 4.40009 15.0475C2.34591 15.0475 1.98767 12.4567 1.98767 10.5129ZM6.72332 15.6461H8.46612V0.12561L5.02586 0.662206V1.0416C5.67431 1.10811 6.72332 1.17613 6.72332 2.49419V6.87311H6.67797C6.36508 6.24734 5.51711 5.15298 4.10836 5.15298C1.00517 5.15147 0 7.7876 0 10.5129C0 13.2382 1.00517 15.8743 4.10987 15.8743C5.36142 15.8743 6.47845 14.8238 6.67948 14.2207H6.72483V15.6461H6.72332Z" fill="#1B1B1B"/>
<path d="M10.2059 6.12787V5.51721H23.4304V6.12787H10.2059Z" fill="#1B1B1B"/>
<path fill-rule="evenodd" clip-rule="evenodd" d="M28.6104 15.6461V5.15149L25.1702 5.68808V6.06748C25.8398 6.11283 26.8676 6.17933 26.8676 7.52007V15.6461H28.6104V15.6461Z" fill="#1B1B1B"/>
<path d="M51.5828 14.7527V15.4677C51.0462 15.6687 50.2874 15.8697 48.9255 15.8697C45.4641 15.8697 43.5218 13.9712 43.5218 10.2196C43.5218 6.95921 44.8398 5.1499 48.0549 5.1499C50.0652 5.1499 51.873 6.26693 51.873 8.85619V9.34744H45.3749C45.3749 11.2233 46.2909 15.0414 50.0199 15.0414C50.5338 15.0429 51.1369 14.9764 51.5828 14.7527ZM45.3749 8.61132H49.8853C49.8853 7.42779 49.4833 5.88753 47.7631 5.88753C46.0672 5.88753 45.3749 7.78602 45.3749 8.61132ZM33.0272 15.646V7.51697C33.0272 6.17775 31.9767 6.10973 31.3297 6.06589V5.6865L34.7685 5.1499V8.0974H34.8123C35.1252 7.27059 36.1304 5.1499 38.3402 5.1499C40.7073 5.1499 40.931 6.44529 40.931 8.52214V15.646H39.1897V9.01339C39.1897 7.09223 39.167 6.22158 37.6933 6.22158C36.3752 6.22158 34.7685 8.74434 34.7685 10.8665V15.646H33.0272Z" fill="#1B1B1B"/>
<path d="M18.6766 4.9066V4.39268C18.6766 1.44367 19.4807 0.12561 22.8983 0.12561C23.9926 0.12561 25.356 0.550352 25.356 1.46634C25.356 2.15863 24.8648 2.53802 24.2844 2.53802C22.8771 2.53802 23.5467 0.863241 22.1168 0.863241C20.4194 0.863241 20.4194 2.35966 20.4194 4.03596V4.90812H18.6766V4.9066ZM20.4194 15.6461H18.675L18.6766 6.73859H20.4194V15.6461Z" fill="#1B1B1B"/>
<path d="M26.6136 1.78976C26.6136 1.1655 27.1185 0.660645 27.7428 0.660645C28.367 0.660645 28.8719 1.1655 28.8719 1.78976C28.8719 2.41252 28.367 2.91888 27.7428 2.91888C27.1185 2.91888 26.6136 2.41403 26.6136 1.78976Z" fill="#1B1B1B"/>
</svg>
