<?xml version="1.0" encoding="UTF-8"?>
<svg width="81.002" height="104.32" fill="none" version="1.1" viewBox="0 0 81.002 104.32" xmlns="http://www.w3.org/2000/svg">
 <path id="Shape" d="m36.914 0h-36.914v75.074h16.888v-60.129h20.026c7.7714 0 14.048 2.441 18.831 7.323 4.7824 4.8821 7.1736 12.056 7.1736 21.521v16.738c0 9.4651-2.3912 16.639-7.1736 21.521-4.7824 4.882-11.059 7.323-18.831 7.323h-36.914v14.944h36.914c6.6754 0 12.728-1.096 18.158-3.288 5.43-2.1918 10.063-5.4548 13.899-9.7889 3.8359-4.334 6.8-9.764 8.8923-16.29s3.1384-14.123 3.1384-22.791-1.0461-16.265-3.1384-22.791-5.0564-11.956-8.8923-16.29c-3.8359-4.3341-8.4688-7.5971-13.899-9.789-5.4301-2.1919-11.483-3.2879-18.158-3.2879z" clip-rule="evenodd" fill="#f56a01" fill-rule="evenodd"/>
</svg>
