<?xml version="1.0" encoding="UTF-8"?>
<svg width="166px" height="25px" viewBox="0 0 1364 272" version="1.1" xmlns="http://www.w3.org/2000/svg" xmlns:xlink="http://www.w3.org/1999/xlink">
    <title>Dataland_logo_colored</title>
    <g id="Dataland_logo_colored" stroke="none" stroke-width="1" fill="none" fill-rule="evenodd">
        <path d="M331.47,221 L319.02,179.666 L261.003,179.666 L248.553,221 L210.207,221 L267.477,47.198 L314.289,47.198 L370.812,221 L331.47,221 Z M290.385,81.56 L289.14,81.56 L269.967,147.545 L309.807,147.545 L290.385,81.56 Z" id="Shape" fill="#E67F3F" fill-rule="nonzero"></path>
        <polygon id="Path" fill="#E67F3F" fill-rule="nonzero" points="451.239 80.813 451.239 221 413.391 221 413.391 80.813 366.33 80.813 366.33 47.198 498.3 47.198 498.3 80.813"></polygon>
        <path d="M615.081,221 L602.631,179.666 L544.614,179.666 L532.164,221 L493.818,221 L551.088,47.198 L597.9,47.198 L654.423,221 L615.081,221 Z M573.996,81.56 L572.751,81.56 L553.578,147.545 L593.418,147.545 L573.996,81.56 Z" id="Shape" fill="#E67F3F" fill-rule="nonzero"></path>
        <polygon id="Path" fill="#E67F3F" fill-rule="nonzero" points="678.576 221 678.576 47.198 716.424 47.198 716.424 187.385 782.658 187.385 782.658 221"></polygon>
        <path d="M921.849,221 L909.399,179.666 L851.382,179.666 L838.932,221 L800.586,221 L857.856,47.198 L904.668,47.198 L961.191,221 L921.849,221 Z M880.764,81.56 L879.519,81.56 L860.346,147.545 L900.186,147.545 L880.764,81.56 Z" id="Shape" fill="#E67F3F" fill-rule="nonzero"></path>
        <polygon id="Path" fill="#E67F3F" fill-rule="nonzero" points="1038.381 138.83 1021.698 103.97 1020.951 103.97 1020.951 221 985.344 221 985.344 47.198 1026.678 47.198 1074.237 129.368 1090.92 164.228 1091.667 164.228 1091.667 47.198 1127.274 47.198 1127.274 221 1085.94 221"></polygon>
        <path d="M1165.62,47.198 L1231.107,47.198 C1242.561,47.198 1253.019,49.024 1262.481,52.676 C1271.943,56.328 1279.994,61.7645 1286.634,68.9855 C1293.274,76.2065 1298.42,85.2535 1302.072,96.1265 C1305.724,106.9995 1307.55,119.657 1307.55,134.099 C1307.55,148.541 1305.724,161.1985 1302.072,172.0715 C1298.42,182.9445 1293.274,191.9915 1286.634,199.2125 C1279.994,206.4335 1271.943,211.87 1262.481,215.522 C1253.019,219.174 1242.561,221 1231.107,221 L1165.62,221 L1165.62,47.198 Z M1231.107,187.385 C1242.395,187.385 1251.276,184.231 1257.75,177.923 C1264.224,171.615 1267.461,161.489 1267.461,147.545 L1267.461,120.653 C1267.461,106.709 1264.224,96.583 1257.75,90.275 C1251.276,83.967 1242.395,80.813 1231.107,80.813 L1203.468,80.813 L1203.468,187.385 L1231.107,187.385 Z" id="Shape" fill="#E67F3F" fill-rule="nonzero"></path>
        <path d="M199.869,100.673 C196.12575,89.4125 190.851,80.04275 184.044,72.56375 C177.23775,65.0855 168.9855,59.45525 159.2865,55.673 C149.5875,51.89075 138.86775,50 127.1265,50 L60,50 L60,86 L96,86 L100.4805,86 L124.626,86 C136.317,86 151.23675,88.07975 157.94175,94.613 C164.64675,101.1455 168,111.63275 168,126.074 L168,153.92525 C168,168.3665 164.64675,178.85375 157.94175,185.38625 C151.23675,191.9195 136.317,194 124.626,194 L96,194 L96,122 L60,122 L60,230 L127.1265,230 C138.86775,230 149.5875,228.1085 159.2865,224.32625 C168.9855,220.544 177.23775,214.91375 184.044,207.4355 C190.851,199.9565 196.12575,190.58675 199.869,179.32625 C203.61225,168.06575 204,154.9565 204,140 C204,125.04275 203.61225,111.9335 199.869,100.673" id="Fill-1" fill="#E67F3F"></path>
    </g>
</svg>