<svg width="166" height="25" viewBox="0 0 166 25" fill="none" xmlns="http://www.w3.org/2000/svg">
<path fill-rule="evenodd" clip-rule="evenodd" d="M8.61042 0H0V17.4605H3.93918V3.47586H8.61042C10.4231 3.47586 11.8873 4.04359 13.0028 5.17903C14.1183 6.31448 14.6761 7.9829 14.6761 10.1843V14.0772C14.6761 16.2786 14.1183 17.947 13.0028 19.0825C11.8873 20.2179 10.4231 20.7857 8.61042 20.7857H0V24.2615H8.61042C10.1675 24.2615 11.5793 24.0066 12.8459 23.4968C14.1125 22.987 15.1932 22.2281 16.0879 21.2201C16.9826 20.2121 17.674 18.9492 18.1621 17.4314C18.6501 15.9137 18.8941 14.1468 18.8941 12.1308C18.8941 10.1148 18.6501 8.34786 18.1621 6.83007C17.674 5.31228 16.9826 4.04938 16.0879 3.04138C15.1932 2.03338 14.1125 1.27448 12.8459 0.76469C11.5793 0.254897 10.1675 0 8.61042 0Z" fill="#E67F3F"/>
<path fill-rule="evenodd" clip-rule="evenodd" d="M35.3881 17.6921L37.5843 24.2615H41.6978L33.4011 0H28.451L20.1543 24.2615H24.1632L26.2897 17.6921H35.3881ZM30.7517 3.6149H30.926L34.412 14.3206H27.2309L30.7517 3.6149Z" fill="#E67F3F"/>
<path d="M51.6031 3.47586V24.2615H47.664V3.47586H40.4131V0H58.854V3.47586H51.6031Z" fill="#E67F3F"/>
<path fill-rule="evenodd" clip-rule="evenodd" d="M72.8022 17.6921L74.9984 24.2615H79.1118L70.8152 0H65.865L57.5684 24.2615H61.5773L63.7037 17.6921H72.8022ZM68.1658 3.6149H68.3401L71.8261 14.3206H64.6449L68.1658 3.6149Z" fill="#E67F3F"/>
<path d="M82.2549 24.2615V0H86.1941V20.7857H96.0943V24.2615H82.2549Z" fill="#E67F3F"/>
<path fill-rule="evenodd" clip-rule="evenodd" d="M113.146 17.6921L115.342 24.2615H119.456L111.159 0H106.209L97.9121 24.2615H101.921L104.047 17.6921H113.146ZM108.51 3.6149H108.684L112.17 14.3206H104.989L108.51 3.6149Z" fill="#E67F3F"/>
<path d="M129.151 10.8447L126.467 5.70041H126.363V24.2615H122.598V0H126.99L134.938 13.4168L137.622 18.5611H137.727V0H141.492V24.2615H137.099L129.151 10.8447Z" fill="#E67F3F"/>
<path fill-rule="evenodd" clip-rule="evenodd" d="M155.476 0H146.865V24.2615H155.476C157.033 24.2615 158.445 24.0066 159.711 23.4968C160.978 22.987 162.058 22.2281 162.953 21.2201C163.848 20.2121 164.539 18.9492 165.027 17.4314C165.515 15.9137 165.759 14.1468 165.759 12.1308C165.759 10.1148 165.515 8.34786 165.027 6.83007C164.539 5.31228 163.848 4.04938 162.953 3.04138C162.058 2.03338 160.978 1.27448 159.711 0.76469C158.445 0.254897 157.033 0 155.476 0ZM159.868 19.0825C158.753 20.2179 157.288 20.7857 155.476 20.7857H150.804V3.47586H155.476C157.288 3.47586 158.753 4.04359 159.868 5.17903C160.984 6.31448 161.541 7.9829 161.541 10.1843V14.0772C161.541 16.2786 160.984 17.947 159.868 19.0825Z" fill="#E67F3F"/>
</svg>
