<svg width="103" height="103" viewBox="0 0 103 103" fill="none" xmlns="http://www.w3.org/2000/svg">
<g filter="url(#filter0_i_243_663)">
<path d="M56 0L0 56V103L103 0H56Z" fill="#958D7C"/>
</g>
<path d="M21.7722 64.4738L18.627 61.3286L20.7427 59.2129C22.1909 57.7647 22.1003 55.9772 20.6635 54.5403C19.2267 53.1035 17.4391 53.013 15.9909 54.4611L12.5968 57.8553L20.4938 65.7522L21.7722 64.4738ZM14.9953 57.6969L17.0318 55.6604C17.6767 55.0155 18.4121 54.9816 19.0456 55.6151L19.5887 56.1582C20.2223 56.7918 20.1883 57.5272 19.5434 58.172L17.507 60.2085L14.9953 57.6969ZM25.6749 54.1901L27.2475 52.6175L32.0219 54.2241L33.4475 52.7986L28.4129 51.1807C29.1256 49.8796 28.8767 48.5672 27.7567 47.4472C26.2972 45.9877 24.5096 45.9425 23.0954 47.3567L19.69 50.7621L27.587 58.6591L28.8654 57.3806L25.6749 54.1901ZM24.6001 53.1153L22.0885 50.6037L24.125 48.5672C24.7698 47.9224 25.5052 47.8884 26.1388 48.522L26.6819 49.065C27.3154 49.6986 27.2815 50.434 26.6366 51.0789L24.6001 53.1153ZM40.0578 46.1883L38.9264 45.0569L35.1476 48.8357L32.8396 46.5277L36.2677 43.0996L35.1363 41.9682L31.7082 45.3963L29.5134 43.2014L33.2922 39.4227L32.1608 38.2913L27.1036 43.3485L35.0005 51.2455L40.0578 46.1883ZM44.9443 41.3017L39.6721 30.78L38.3824 32.0697L41.0298 37.2288L43.0097 40.7473L42.9644 40.7926L39.4572 38.8014L34.2981 36.154L32.9744 37.4777L43.4622 42.7838L44.9443 41.3017ZM51.8449 34.4011L50.804 33.3603L49.7179 34.4464L43.9027 28.6312L44.9888 27.545L43.9479 26.5042L40.5085 29.9435L41.5494 30.9844L42.6242 29.9096L48.4394 35.7248L47.3646 36.7996L48.4055 37.8405L51.8449 34.4011ZM58.5088 27.7372L57.3775 26.6058L53.5987 30.3846L51.2907 28.0766L54.7187 24.6485L53.5874 23.5172L50.1593 26.9452L47.9645 24.7504L51.7432 20.9716L50.6119 19.8402L45.5546 24.8974L53.4516 32.7944L58.5088 27.7372ZM62.7602 23.4858L59.7055 18.372L57.9066 15.3739L57.9293 15.3512L60.9161 17.1614L66.0073 20.2388L67.4441 18.8019L61.4931 8.95898L60.2373 10.2148L63.2128 14.8421L65.2492 18.0326L65.2153 18.0665L61.9796 16.0753L57.2504 13.2016L55.8249 14.6272L58.6873 19.3676L60.6785 22.626L60.6446 22.6599L57.4654 20.5895L52.8607 17.5914L51.5596 18.8924L61.3234 24.9226L62.7602 23.4858Z" fill="white"/>
<defs>
<filter id="filter0_i_243_663" x="0" y="0" width="103" height="107" filterUnits="userSpaceOnUse" color-interpolation-filters="sRGB">
<feFlood flood-opacity="0" result="BackgroundImageFix"/>
<feBlend mode="normal" in="SourceGraphic" in2="BackgroundImageFix" result="shape"/>
<feColorMatrix in="SourceAlpha" type="matrix" values="0 0 0 0 0 0 0 0 0 0 0 0 0 0 0 0 0 0 127 0" result="hardAlpha"/>
<feOffset dy="4"/>
<feGaussianBlur stdDeviation="4"/>
<feComposite in2="hardAlpha" operator="arithmetic" k2="-1" k3="1"/>
<feColorMatrix type="matrix" values="0 0 0 0 0 0 0 0 0 0 0 0 0 0 0 0 0 0 0.12 0"/>
<feBlend mode="normal" in2="shape" result="effect1_innerShadow_243_663"/>
</filter>
</defs>
</svg>
