<svg width="68" height="16" viewBox="0 0 68 16" fill="none" xmlns="http://www.w3.org/2000/svg">
<path d="M36.3746 5.43902V11.1355C36.3746 11.6367 36.1825 11.9039 35.8818 12.0459C35.0131 12.4218 33.685 12.497 32.7328 12.497C31.1041 12.497 30.4943 12.1044 30.2772 11.5281C30.1185 11.1355 30.0851 10.5508 30.0851 9.91602V5.43902C30.0851 5.22185 30.1602 5.06315 30.4192 5.06315H31.363C31.5969 5.06315 31.6971 5.20515 31.6971 5.43902V9.6905C31.6971 10.0664 31.7138 10.4422 31.7974 10.626C31.931 10.9601 32.2902 11.1021 33.0001 11.1021C33.6934 11.1021 34.1194 11.0436 34.3783 10.9601C34.4618 10.935 34.5788 10.8766 34.6539 10.7847C34.7291 10.7095 34.7542 10.5508 34.7542 10.3671V5.43902C34.7542 5.22185 34.8544 5.06315 35.105 5.06315H36.0405C36.2576 5.06315 36.3746 5.19679 36.3746 5.43902ZM44.2595 8.62972C44.2595 8.86359 44.2344 9.02229 44.1258 9.08911C44.0506 9.14758 43.9337 9.17264 43.8084 9.17264H39.5987C39.6154 10.8181 40.3504 11.1355 41.6033 11.1355C42.3551 11.1355 42.8228 11.0603 43.2571 10.9517C43.3908 10.9267 43.5328 10.8766 43.6664 10.8766C43.8084 10.8766 43.917 10.9601 43.9588 11.077C44.0339 11.2524 44.1008 11.6116 44.1008 11.7954C44.1008 11.9374 44.0423 12.0376 43.8669 12.1128C43.1987 12.4051 42.2548 12.4886 41.4112 12.4886C38.8386 12.4886 37.9365 11.3193 37.9365 8.7216C37.9365 5.96524 39.0975 4.88775 41.3527 4.88775C44.0506 4.8961 44.2595 6.40792 44.2595 8.62972ZM42.7309 7.67752C42.7309 6.70862 42.4553 6.1657 41.2776 6.1657C40.0581 6.1657 39.6405 6.8172 39.607 7.98657H42.7142C42.7309 7.89469 42.7309 7.77775 42.7309 7.67752ZM49.8557 4.90445C48.7782 4.90445 47.2163 5.10492 46.2975 5.51419C45.9968 5.64784 45.8047 5.90677 45.8047 6.39122V11.9624C45.8047 12.2046 45.9049 12.3383 46.1388 12.3383H47.0659C47.2998 12.3383 47.4167 12.1963 47.4167 11.9624V7.10119C47.4167 6.92579 47.4502 6.78379 47.5003 6.70862C47.5754 6.62509 47.6924 6.56662 47.7759 6.53321C48.0265 6.43298 48.5443 6.29099 49.3128 6.29099C50.0061 6.29099 50.2817 6.42463 50.3903 6.75038C50.4487 6.93414 50.4738 7.26824 50.4738 7.56059V11.9624C50.4738 12.1963 50.574 12.3383 50.8079 12.3383H51.7517C52.0023 12.3383 52.0858 12.1963 52.0858 11.9624V7.21813C52.0858 6.66685 52.0691 6.1657 51.9439 5.80654C51.735 5.23856 51.2255 4.90445 49.8557 4.90445ZM60.8645 5.56431C60.8645 5.25526 60.6974 5.09656 60.4051 5.09656H55.9865V3.55133C55.9865 3.25899 55.8863 3.1337 55.6691 3.1337H54.8004C54.5833 3.1337 54.4831 3.2924 54.4663 3.53462C54.4246 4.57035 54.4079 5.08821 54.4079 5.08821H53.581C53.3304 5.08821 53.2218 5.24691 53.2218 5.44737V6.09888C53.2218 6.33275 53.3638 6.44133 53.5559 6.44133H54.3828V9.38145C54.3828 10.5174 54.4663 11.1689 54.8589 11.645C55.3517 12.2548 56.1035 12.4135 57.5318 12.4135C57.7823 12.4135 57.9076 12.3132 57.941 12.0961C57.9577 11.9123 57.9661 11.5782 57.9661 11.4195C57.9661 11.2023 57.8659 11.0854 57.6487 11.077C56.922 11.0353 56.4459 10.9183 56.2371 10.6427C56.0617 10.4088 55.9865 10.0831 55.9865 9.44828V6.44969H59.2524V11.9624C59.2524 12.2213 59.3693 12.3383 59.5865 12.3383H60.5136C60.7475 12.3383 60.8645 12.2046 60.8645 11.9624C60.8645 11.5698 60.8645 11.1773 60.8645 10.7847C60.8645 9.98284 60.8645 9.17264 60.8645 8.37079C60.8645 7.4353 60.8728 6.4998 60.8645 5.56431ZM67.7303 11.1355C67.6885 11.0019 67.5967 10.935 67.4797 10.935C67.3628 10.935 67.1707 10.9768 67.0621 11.0102C66.6445 11.0937 66.2519 11.1439 65.7006 11.1439C64.289 11.1439 63.9466 10.3253 63.9466 8.68819C63.9466 7.21813 64.2055 6.28263 65.8175 6.28263C66.2686 6.28263 66.6278 6.3244 66.9201 6.38287C67.0537 6.39957 67.2375 6.44133 67.3544 6.44133C67.4881 6.44133 67.5716 6.36616 67.6134 6.22417C67.6718 6.007 67.7554 5.5476 67.7554 5.40561C67.7554 5.26362 67.6802 5.14668 67.5048 5.08821C67.0537 4.95457 66.4273 4.90445 65.7925 4.90445C63.2199 4.90445 62.3095 6.14899 62.3095 8.83018C62.3095 11.645 63.4705 12.5053 65.5169 12.5053C66.2101 12.5053 66.9869 12.4302 67.6217 12.2046C67.7971 12.1462 67.8723 12.0459 67.8723 11.8622C67.8806 11.7035 67.7888 11.3527 67.7303 11.1355ZM28.757 13.2654C28.9073 13.4158 28.8823 13.6496 28.7486 13.7749C28.5983 13.9169 28.4145 14.1007 28.2308 14.2928C28.1222 14.4014 27.88 14.535 27.6628 14.3429L25.8336 12.5805C25.3992 12.7141 24.6141 12.781 24.1213 12.781C21.2313 12.781 19.8197 11.6701 19.8197 7.41024C19.8197 3.07523 21.699 2.16479 24.2132 2.16479C27.0865 2.16479 28.4814 2.93324 28.4897 7.39353C28.4981 9.74062 28.1222 10.8515 27.5041 11.6617C27.4623 11.6951 28.757 13.2654 28.757 13.2654ZM26.744 7.41859C26.744 4.16107 26.0257 3.57639 24.1464 3.57639C22.4675 3.57639 21.532 4.2446 21.532 7.40189C21.532 10.768 22.4257 11.3443 24.1129 11.3443C25.7668 11.3443 26.744 10.8265 26.744 7.41859ZM60.0542 2.1815C59.5531 2.1815 59.2357 2.44043 59.2357 3.06688C59.2357 3.73509 59.5781 3.91884 60.0542 3.91884C60.5972 3.91884 60.8895 3.68497 60.8895 3.05017C60.8895 2.38196 60.5638 2.1815 60.0542 2.1815Z" fill="#1B1B1B"/>
<path d="M12.3191 2.5908C9.76324 0.0516026 5.62034 0.0516026 3.0728 2.5908C3.0728 2.5908 3.0728 2.5908 3.06444 2.59915C0.141028 5.51421 0.141028 10.2251 3.0728 13.1318C3.25655 13.3156 3.44866 13.4826 3.64077 13.6413C3.69089 13.6831 3.74101 13.7081 3.79112 13.7499C3.94147 13.8668 4.09182 13.9838 4.25051 14.084C4.34239 14.1425 4.43427 14.1926 4.52615 14.2427C4.65144 14.3179 4.76838 14.393 4.89367 14.4599C5.03566 14.535 5.17765 14.5935 5.31965 14.652C5.40318 14.6854 5.47835 14.7271 5.56188 14.7606C5.72893 14.8274 5.89598 14.8775 6.06303 14.936C6.12985 14.9527 6.18832 14.9861 6.24679 15.0028C6.44725 15.0613 6.65607 15.1114 6.85653 15.1531C6.88994 15.1615 6.915 15.1698 6.94841 15.1782C7.15722 15.22 7.36604 15.245 7.57486 15.2701C7.59991 15.2701 7.63332 15.2784 7.65838 15.2784C9.81336 15.4872 12.0352 14.7689 13.6806 13.1318L12.3191 11.7787C14.875 9.23948 14.875 5.12999 12.3191 2.5908ZM11.2249 10.6928L8.37671 7.8613L5.43659 10.7847C5.38647 10.7429 5.34471 10.7012 5.29459 10.6594C3.65748 9.03902 3.64913 6.4163 5.25283 4.77083C5.26953 4.75412 5.27789 4.73742 5.29459 4.72071C6.94006 3.0836 9.61289 3.0836 11.2667 4.72071C12.9122 6.35783 12.9122 9.01396 11.2667 10.6511C11.2584 10.6678 11.2417 10.6761 11.2249 10.6928Z" fill="#1B1B1B"/>
<path opacity="0.46" d="M12.3191 2.5908C9.76324 0.0516026 5.62034 0.0516026 3.0728 2.5908C3.0728 2.5908 3.0728 2.5908 3.06444 2.59915L3.0728 2.6075L3.06444 2.59915C0.141028 5.51421 0.141028 10.2251 3.0728 13.1318C3.25655 13.3156 3.44866 13.4826 3.64077 13.6413C3.69089 13.6831 3.74101 13.7081 3.79112 13.7499C3.94147 13.8668 4.09182 13.9838 4.25051 14.084C4.34239 14.1425 4.43427 14.1926 4.52615 14.2427C4.65144 14.3179 4.76838 14.393 4.89367 14.4599C5.03566 14.535 5.17765 14.5935 5.31965 14.652C5.40318 14.6854 5.47835 14.7271 5.56188 14.7606C5.72893 14.8274 5.89598 14.8775 6.06303 14.936C6.12985 14.9527 6.18832 14.9861 6.24679 15.0028C6.44725 15.0613 6.65607 15.1114 6.85653 15.1531C6.88994 15.1615 6.915 15.1698 6.94841 15.1782C7.15722 15.22 7.36604 15.245 7.57486 15.2701C7.59991 15.2701 7.63332 15.2784 7.65838 15.2784C9.81336 15.4872 12.0352 14.7689 13.6806 13.1318L12.3191 11.7787C14.875 9.23948 14.875 5.12999 12.3191 2.5908ZM11.2249 10.6928L8.37671 7.8613L5.43659 10.7847C5.38647 10.7429 5.34471 10.7012 5.29459 10.6594C3.65748 9.03902 3.64913 6.4163 5.25283 4.77083C5.26953 4.75412 5.27789 4.73742 5.29459 4.72071C6.94006 3.0836 9.61289 3.0836 11.2667 4.72071C12.9122 6.35783 12.9122 9.01396 11.2667 10.6511C11.2584 10.6678 11.2417 10.6761 11.2249 10.6928Z" fill="#1B1B1B"/>
<mask id="mask0_494_4346" style="mask-type:alpha" maskUnits="userSpaceOnUse" x="0" y="0" width="15" height="16">
<path d="M12.3191 2.5908C9.76324 0.0516026 5.62034 0.0516026 3.0728 2.5908C3.0728 2.5908 3.0728 2.5908 3.06444 2.59915C0.141028 5.51421 0.141028 10.2251 3.0728 13.1318C3.25655 13.3156 3.44866 13.4826 3.64077 13.6413C3.69089 13.6831 3.74101 13.7081 3.79112 13.7499C3.94147 13.8668 4.09182 13.9838 4.25051 14.084C4.34239 14.1425 4.43427 14.1926 4.52615 14.2427C4.65144 14.3179 4.76838 14.393 4.89367 14.4599C5.03566 14.535 5.17765 14.5935 5.31965 14.652C5.40318 14.6854 5.47835 14.7271 5.56188 14.7606C5.72893 14.8274 5.89598 14.8775 6.06303 14.936C6.12985 14.9527 6.18832 14.9861 6.24679 15.0028C6.44725 15.0613 6.65607 15.1114 6.85653 15.1531C6.88994 15.1615 6.915 15.1698 6.94841 15.1782C7.15722 15.22 7.36604 15.245 7.57486 15.2701C7.59991 15.2701 7.63332 15.2784 7.65838 15.2784C9.81336 15.4872 12.0352 14.7689 13.6806 13.1318L12.3191 11.7787C14.875 9.23948 14.875 5.12999 12.3191 2.5908ZM11.2249 10.6928L8.37671 7.8613L5.43659 10.7847C5.38647 10.7429 5.34471 10.7012 5.29459 10.6594C3.65748 9.03902 3.64913 6.4163 5.25283 4.77083C5.26953 4.75412 5.27789 4.73742 5.29459 4.72071C6.94006 3.0836 9.61289 3.0836 11.2667 4.72071C12.9122 6.35783 12.9122 9.01396 11.2667 10.6511C11.2584 10.6678 11.2417 10.6761 11.2249 10.6928Z" fill="url(#paint0_radial_494_4346)"/>
</mask>
<g mask="url(#mask0_494_4346)">
<path d="M12.3191 2.5908C9.76324 0.0516026 5.62034 0.0516026 3.0728 2.5908C3.0728 2.5908 3.0728 2.5908 3.06444 2.59915C0.141028 5.51421 0.141028 10.2251 3.0728 13.1318C3.25655 13.3156 3.44866 13.4826 3.64077 13.6413C3.69089 13.6831 3.74101 13.7081 3.79112 13.7499C3.94147 13.8668 4.09182 13.9838 4.25051 14.084C4.34239 14.1425 4.43427 14.1926 4.52615 14.2427C4.65144 14.3179 4.76838 14.393 4.89367 14.4599C5.03566 14.535 5.17765 14.5935 5.31965 14.652C5.40318 14.6854 5.47835 14.7271 5.56188 14.7606C5.72893 14.8274 5.89598 14.8775 6.06303 14.936C6.12985 14.9527 6.18832 14.9861 6.24679 15.0028C6.44725 15.0613 6.65607 15.1114 6.85653 15.1531C6.88994 15.1615 6.915 15.1698 6.94841 15.1782C7.15722 15.22 7.36604 15.245 7.57486 15.2701C7.59991 15.2701 7.63332 15.2784 7.65838 15.2784C9.81336 15.4872 12.0352 14.7689 13.6806 13.1318L12.3191 11.7787C14.875 9.23948 14.875 5.12999 12.3191 2.5908ZM11.2249 10.6928L8.37671 7.8613L5.43659 10.7847C5.38647 10.7429 5.34471 10.7012 5.29459 10.6594C3.65748 9.03902 3.64913 6.4163 5.25283 4.77083C5.26953 4.75412 5.27789 4.73742 5.29459 4.72071C6.94006 3.0836 9.61289 3.0836 11.2667 4.72071C12.9122 6.35783 12.9122 9.01396 11.2667 10.6511C11.2584 10.6678 11.2417 10.6761 11.2249 10.6928Z" fill="#1B1B1B"/>
<path opacity="0.85" d="M12.3192 2.5908C9.76332 0.0516026 5.62042 0.0516026 3.07288 2.5908L5.26126 4.76248C5.27797 4.74577 5.28632 4.73742 5.30302 4.72071C6.94849 3.0836 9.62133 3.0836 11.2751 4.72071C12.9206 6.35783 12.9206 9.01396 11.2751 10.6511C11.2584 10.6678 11.2501 10.6761 11.2334 10.6928L12.3276 11.7787C14.8751 9.23948 14.8751 5.12999 12.3192 2.5908Z" fill="#1B1B1B"/>
</g>
<defs>
<radialGradient id="paint0_radial_494_4346" cx="0" cy="0" r="1" gradientUnits="userSpaceOnUse" gradientTransform="translate(5.01497 7.63589) scale(10.3704)">
<stop stop-color="white"/>
<stop offset="0.0021689" stop-color="#FEFEFE"/>
<stop offset="0.1384" stop-color="#B9B9B8"/>
<stop offset="0.261" stop-color="#828281"/>
<stop offset="0.366" stop-color="#5A5A59"/>
<stop offset="0.4491" stop-color="#424241"/>
<stop offset="0.5" stop-color="#393938"/>
</radialGradient>
</defs>
</svg>
