<svg xmlns="http://www.w3.org/2000/svg" width="960" height="540" viewBox="0 0 960 540">
  <!-- PLACEHOLDER: Platform demo video thumbnail. Replace with actual video/screenshot. -->
  <!-- Background -->
  <rect width="960" height="540" fill="#f8fafc"/>

  <!-- Header bar -->
  <rect width="960" height="56" fill="#1e293b"/>
  <text x="24" y="36" style="font-family:Arial,sans-serif;font-size:20px;font-weight:bold;fill:#ff6813;">Dataland</text>
  <text x="120" y="36" style="font-family:Arial,sans-serif;font-size:14px;fill:#94a3b8;">ESG Data Platform</text>

  <!-- Nav items -->
  <text x="600" y="36" style="font-family:Arial,sans-serif;font-size:13px;fill:#cbd5e1;">Frameworks</text>
  <text x="700" y="36" style="font-family:Arial,sans-serif;font-size:13px;fill:#cbd5e1;">Companies</text>
  <text x="800" y="36" style="font-family:Arial,sans-serif;font-size:13px;fill:#cbd5e1;">API</text>
  <rect x="870" y="16" width="70" height="28" rx="4" fill="#ff6813"/>
  <text x="886" y="35" style="font-family:Arial,sans-serif;font-size:12px;fill:#ffffff;">Sign In</text>

  <!-- Search bar -->
  <rect x="40" y="80" width="880" height="44" rx="8" fill="#ffffff" stroke="#e2e8f0" stroke-width="1"/>
  <text x="60" y="107" style="font-family:Arial,sans-serif;font-size:14px;fill:#94a3b8;">Search companies, frameworks, or data points...</text>
  <circle cx="894" cy="102" r="12" fill="none" stroke="#94a3b8" stroke-width="1.5"/>
  <line x1="902" y1="110" x2="910" y2="118" stroke="#94a3b8" stroke-width="1.5"/>

  <!-- Filter chips -->
  <rect x="40" y="140" width="100" height="28" rx="14" fill="#eff6ff" stroke="#bfdbfe" stroke-width="1"/>
  <text x="58" y="158" style="font-family:Arial,sans-serif;font-size:11px;fill:#2563eb;">EU Taxonomy</text>
  <rect x="150" y="140" width="60" height="28" rx="14" fill="#eff6ff" stroke="#bfdbfe" stroke-width="1"/>
  <text x="165" y="158" style="font-family:Arial,sans-serif;font-size:11px;fill:#2563eb;">SFDR</text>
  <rect x="220" y="140" width="60" height="28" rx="14" fill="#f0fdf4" stroke="#bbf7d0" stroke-width="1"/>
  <text x="235" y="158" style="font-family:Arial,sans-serif;font-size:11px;fill:#16a34a;">LkSG</text>
  <rect x="290" y="140" width="60" height="28" rx="14" fill="#faf5ff" stroke="#e9d5ff" stroke-width="1"/>
  <text x="305" y="158" style="font-family:Arial,sans-serif;font-size:11px;fill:#7c3aed;">VSME</text>
  <rect x="360" y="140" width="60" height="28" rx="14" fill="#fff7ed" stroke="#fed7aa" stroke-width="1"/>
  <text x="376" y="158" style="font-family:Arial,sans-serif;font-size:11px;fill:#ea580c;">PCAF</text>

  <!-- Results count -->
  <text x="40" y="200" style="font-family:Arial,sans-serif;font-size:13px;fill:#64748b;">Showing 1,247 companies with ESG data</text>

  <!-- Table header -->
  <rect x="40" y="216" width="880" height="36" fill="#f1f5f9"/>
  <text x="60" y="239" style="font-family:Arial,sans-serif;font-size:12px;font-weight:bold;fill:#475569;">Company</text>
  <text x="300" y="239" style="font-family:Arial,sans-serif;font-size:12px;font-weight:bold;fill:#475569;">Sector</text>
  <text x="480" y="239" style="font-family:Arial,sans-serif;font-size:12px;font-weight:bold;fill:#475569;">Framework</text>
  <text x="640" y="239" style="font-family:Arial,sans-serif;font-size:12px;font-weight:bold;fill:#475569;">Status</text>
  <text x="780" y="239" style="font-family:Arial,sans-serif;font-size:12px;font-weight:bold;fill:#475569;">Last Updated</text>

  <!-- Table rows -->
  <!-- Row 1 -->
  <rect x="40" y="252" width="880" height="40" fill="#ffffff"/>
  <line x1="40" y1="292" x2="920" y2="292" stroke="#f1f5f9" stroke-width="1"/>
  <text x="60" y="277" style="font-family:Arial,sans-serif;font-size:13px;fill:#1e293b;">Deutsche Musterbank AG</text>
  <text x="300" y="277" style="font-family:Arial,sans-serif;font-size:13px;fill:#64748b;">Financial Services</text>
  <rect x="480" y="264" width="80" height="22" rx="4" fill="#eff6ff"/>
  <text x="492" y="280" style="font-family:Arial,sans-serif;font-size:11px;fill:#2563eb;">EU Taxonomy</text>
  <circle cx="650" cy="274" r="5" fill="#22c55e"/>
  <text x="662" y="278" style="font-family:Arial,sans-serif;font-size:12px;fill:#16a34a;">Complete</text>
  <text x="780" y="277" style="font-family:Arial,sans-serif;font-size:13px;fill:#64748b;">2026-02-15</text>

  <!-- Row 2 -->
  <rect x="40" y="292" width="880" height="40" fill="#fafbfc"/>
  <line x1="40" y1="332" x2="920" y2="332" stroke="#f1f5f9" stroke-width="1"/>
  <text x="60" y="317" style="font-family:Arial,sans-serif;font-size:13px;fill:#1e293b;">Greentech Solutions GmbH</text>
  <text x="300" y="317" style="font-family:Arial,sans-serif;font-size:13px;fill:#64748b;">Technology</text>
  <rect x="480" y="304" width="48" height="22" rx="4" fill="#eff6ff"/>
  <text x="492" y="320" style="font-family:Arial,sans-serif;font-size:11px;fill:#2563eb;">SFDR</text>
  <circle cx="650" cy="314" r="5" fill="#22c55e"/>
  <text x="662" y="318" style="font-family:Arial,sans-serif;font-size:12px;fill:#16a34a;">Complete</text>
  <text x="780" y="317" style="font-family:Arial,sans-serif;font-size:13px;fill:#64748b;">2026-01-28</text>

  <!-- Row 3 -->
  <rect x="40" y="332" width="880" height="40" fill="#ffffff"/>
  <line x1="40" y1="372" x2="920" y2="372" stroke="#f1f5f9" stroke-width="1"/>
  <text x="60" y="357" style="font-family:Arial,sans-serif;font-size:13px;fill:#1e293b;">Alpine Manufacturing SE</text>
  <text x="300" y="357" style="font-family:Arial,sans-serif;font-size:13px;fill:#64748b;">Manufacturing</text>
  <rect x="480" y="344" width="44" height="22" rx="4" fill="#f0fdf4"/>
  <text x="490" y="360" style="font-family:Arial,sans-serif;font-size:11px;fill:#16a34a;">LkSG</text>
  <circle cx="650" cy="354" r="5" fill="#f59e0b"/>
  <text x="662" y="358" style="font-family:Arial,sans-serif;font-size:12px;fill:#d97706;">Pending</text>
  <text x="780" y="357" style="font-family:Arial,sans-serif;font-size:13px;fill:#64748b;">2026-02-02</text>

  <!-- Row 4 -->
  <rect x="40" y="372" width="880" height="40" fill="#fafbfc"/>
  <line x1="40" y1="412" x2="920" y2="412" stroke="#f1f5f9" stroke-width="1"/>
  <text x="60" y="397" style="font-family:Arial,sans-serif;font-size:13px;fill:#1e293b;">Nordwind Energie AG</text>
  <text x="300" y="397" style="font-family:Arial,sans-serif;font-size:13px;fill:#64748b;">Energy</text>
  <rect x="480" y="384" width="80" height="22" rx="4" fill="#eff6ff"/>
  <text x="492" y="400" style="font-family:Arial,sans-serif;font-size:11px;fill:#2563eb;">EU Taxonomy</text>
  <circle cx="650" cy="394" r="5" fill="#22c55e"/>
  <text x="662" y="398" style="font-family:Arial,sans-serif;font-size:12px;fill:#16a34a;">Complete</text>
  <text x="780" y="397" style="font-family:Arial,sans-serif;font-size:13px;fill:#64748b;">2026-03-01</text>

  <!-- Row 5 -->
  <rect x="40" y="412" width="880" height="40" fill="#ffffff"/>
  <line x1="40" y1="452" x2="920" y2="452" stroke="#f1f5f9" stroke-width="1"/>
  <text x="60" y="437" style="font-family:Arial,sans-serif;font-size:13px;fill:#1e293b;">Rhein-Main Logistik SE</text>
  <text x="300" y="437" style="font-family:Arial,sans-serif;font-size:13px;fill:#64748b;">Logistics</text>
  <rect x="480" y="424" width="48" height="22" rx="4" fill="#faf5ff"/>
  <text x="490" y="440" style="font-family:Arial,sans-serif;font-size:11px;fill:#7c3aed;">VSME</text>
  <circle cx="650" cy="434" r="5" fill="#22c55e"/>
  <text x="662" y="438" style="font-family:Arial,sans-serif;font-size:12px;fill:#16a34a;">Complete</text>
  <text x="780" y="437" style="font-family:Arial,sans-serif;font-size:13px;fill:#64748b;">2026-02-20</text>

  <!-- Pagination -->
  <text x="380" y="480" style="font-family:Arial,sans-serif;font-size:12px;fill:#94a3b8;">Page 1 of 125</text>
  <rect x="440" y="466" width="28" height="24" rx="4" fill="#ff6813"/>
  <text x="449" y="483" style="font-family:Arial,sans-serif;font-size:12px;fill:#ffffff;">1</text>
  <rect x="474" y="466" width="28" height="24" rx="4" fill="#f1f5f9"/>
  <text x="483" y="483" style="font-family:Arial,sans-serif;font-size:12px;fill:#64748b;">2</text>
  <rect x="508" y="466" width="28" height="24" rx="4" fill="#f1f5f9"/>
  <text x="517" y="483" style="font-family:Arial,sans-serif;font-size:12px;fill:#64748b;">3</text>

  <!-- Play button overlay -->
  <circle cx="480" cy="270" r="40" fill="rgba(0,0,0,0.5)"/>
  <polygon points="468,250 468,290 500,270" fill="#ffffff"/>

  <!-- PLACEHOLDER watermark -->
  <text x="480" y="525" text-anchor="middle" style="font-family:Arial,sans-serif;font-size:11px;fill:#cbd5e1;">PLACEHOLDER -- Replace with actual platform demo video</text>
</svg>