<svg width="93" height="93" xmlns="http://www.w3.org/2000/svg" xmlns:xlink="http://www.w3.org/1999/xlink" xml:space="preserve" overflow="hidden"><g transform="translate(-62 -483)"><path d="M146.983 491.017 146.983 567.983 73.2241 567.983 73.2241 542.328 86.0517 542.328 86.0517 529.5 98.8793 529.5 98.8793 516.672 111.707 516.672 111.707 503.845 124.534 503.845 124.534 491.017 146.983 491.017ZM143.776 494.224 127.741 494.224 127.741 507.052 114.914 507.052 114.914 519.879 102.086 519.879 102.086 532.707 89.2586 532.707 89.2586 545.534 76.431 545.534 76.431 564.776 143.776 564.776 143.776 494.224ZM130.948 497.431C134.155 497.431 137.362 497.431 140.569 497.431L140.569 561.569C137.362 561.569 134.155 561.569 130.948 561.569L130.948 497.431ZM79.6379 548.741C82.8448 548.741 86.0517 548.741 89.2586 548.741L89.2586 561.569C86.0517 561.569 82.8448 561.569 79.6379 561.569L79.6379 548.741ZM92.4655 535.914C95.6724 535.914 98.8793 535.914 102.086 535.914L102.086 561.569 92.4655 561.569 92.4655 535.914ZM105.293 523.086C108.5 523.086 111.707 523.086 114.914 523.086L114.914 561.569C111.707 561.569 108.5 561.569 105.293 561.569L105.293 523.086ZM118.121 510.259C121.328 510.259 124.534 510.259 127.741 510.259L127.741 561.569C124.534 561.569 121.328 561.569 118.121 561.569L118.121 510.259Z" fill="#003C50"/></g></svg>