<svg width="93" height="93" xmlns="http://www.w3.org/2000/svg" xmlns:xlink="http://www.w3.org/1999/xlink" xml:space="preserve" overflow="hidden"><g transform="translate(-731 -287)"><path d="M799.948 319.069 799.948 363.966 755.052 363.966 755.052 319.069 799.948 319.069ZM796.95 322.067 758.05 322.067 758.05 360.967 796.95 360.967 796.95 322.067ZM760.824 348.043 760.824 355.596 767.847 340.555 773.78 353.912 780.45 347.242 787.538 357.856 794.176 339.834 794.176 330.566 786.704 350.833 782.038 343.842 780.963 342.207 779.568 343.586 774.806 348.364 767.911 332.859 760.824 348.043ZM807.917 309.496C808.944 310.507 809.569 311.918 809.569 313.457L809.569 375.19 745.431 375.19 745.431 291.81 787.922 291.81C789.462 291.81 790.873 292.436 791.883 293.462 791.883 293.51 806.362 307.925 807.917 309.496ZM793.534 299.635 793.534 307.845 801.744 307.845 793.534 299.635ZM787.922 295.017 748.638 295.017 748.638 371.983 806.362 371.983 806.362 313.457C806.362 312.126 805.288 311.052 803.957 311.052L790.328 311.052 790.328 297.422C790.328 296.108 789.237 295.017 787.922 295.017Z" fill="#003C50"/></g></svg>