<svg width="93" height="93" xmlns="http://www.w3.org/2000/svg" xmlns:xlink="http://www.w3.org/1999/xlink" xml:space="preserve" overflow="hidden"><g transform="translate(-87 -285)"><path d="M144.965 314.84 129.892 331.436C129.379 331.997 129.01 332.622 128.818 333.28 128.417 334.643 128.658 336.246 129.459 337.417 130.261 338.571 131.768 339.453 133.179 339.549 134.574 339.662 136.098 339.084 137.076 338.058 137.541 337.545 137.909 336.92 138.134 336.214L144.965 314.84ZM127.519 329.287 152.501 301.804 141.181 337.176C140.796 338.363 140.202 339.405 139.401 340.239 137.781 341.971 135.296 342.933 132.939 342.756 130.566 342.564 128.161 341.185 126.814 339.213 125.483 337.272 125.066 334.627 125.755 332.366 126.092 331.243 126.685 330.201 127.519 329.287ZM133.5 289.81C156.526 289.81 175.19 308.474 175.19 331.5 175.19 354.526 156.526 373.19 133.5 373.19 110.474 373.19 91.8103 354.526 91.8103 331.5 91.8103 308.474 110.474 289.81 133.5 289.81ZM133.5 293.017C112.238 293.017 95.0172 310.238 95.0172 331.5 95.0172 352.762 112.238 369.983 133.5 369.983 154.762 369.983 171.983 352.762 171.983 331.5 171.983 310.238 154.762 293.017 133.5 293.017ZM110.779 350.565C106.306 345.226 103.836 338.459 103.836 331.5 103.836 315.113 117.113 301.836 133.5 301.836 137.861 301.836 142.014 302.782 145.75 304.466L143.457 306.983C140.395 305.733 137.028 305.043 133.5 305.043 118.893 305.043 107.043 316.893 107.043 331.5 107.043 337.737 109.224 343.734 113.232 348.513L110.779 350.565ZM153.383 309.485C159.62 315.129 163.164 323.082 163.164 331.5 163.164 338.459 160.694 345.226 156.221 350.565L153.768 348.513C157.776 343.734 159.957 337.737 159.957 331.5 159.957 324.236 157.039 317.662 152.308 312.884L153.383 309.485Z" fill="#003C50"/></g></svg>