<svg width="93" height="93" xmlns="http://www.w3.org/2000/svg" xmlns:xlink="http://www.w3.org/1999/xlink" xml:space="preserve" overflow="hidden"><g transform="translate(-463 -160)"><path d="M536.406 189.84C536.694 189.552 536.967 189.231 537.224 188.894 537.464 188.557 537.705 188.221 537.929 187.852 538.266 187.275 538.939 186.922 539.581 186.842L544.391 186.216C544.567 186.184 544.712 184.677 544.744 184.453 544.776 184.244 544.936 182.769 544.888 182.689 544.856 182.625 540.767 181.053 540.334 180.877 540.11 180.797 539.901 180.668 539.709 180.524 539.517 180.524 539.052 179.803 538.987 179.53 538.859 179.113 538.731 178.712 538.57 178.327 538.394 177.943 538.218 177.558 538.009 177.205 537.817 176.852 537.753 176.435 537.785 176.034 537.801 175.826 537.961 175.297 537.961 175.249 538.154 174.816 539.853 170.791 539.837 170.711 539.805 170.631 538.635 169.701 538.474 169.589 538.009 169.236 537.544 168.915 537.079 168.611 536.935 168.514 533.568 171.32 533.167 171.625 532.686 172.026 531.948 172.266 531.339 172.122 530.922 172.01 530.505 171.93 530.088 171.882 529.671 171.833 529.254 171.801 528.838 171.801 528.084 171.705 527.587 171.465 527.122 170.855 526.464 170.006 523.947 166.638 524.059 166.991 523.466 167.183 522.937 167.392 522.456 167.584 521.975 167.793 521.462 168.033 520.917 168.306 520.772 168.386 521.51 172.715 521.59 173.196 521.686 173.838 521.542 174.575 521.077 175.056 520.788 175.345 520.516 175.666 520.259 176.002 520.019 176.339 519.778 176.676 519.554 177.045 519.233 177.606 518.527 177.975 517.902 178.055L513.092 178.68C512.915 178.712 512.771 180.219 512.739 180.444 512.707 180.668 512.482 182.176 512.659 182.256L517.164 184.02C517.774 184.26 518.319 184.709 518.495 185.367 518.543 185.527 518.912 186.537 518.912 186.569 519.233 187.323 519.762 187.996 519.698 188.862 519.682 189.119 519.618 189.391 519.522 189.648 519.329 190.097 517.565 194.121 517.694 194.234 518.143 194.634 518.576 194.987 519.008 195.308 519.473 195.661 519.938 195.981 520.403 196.286 520.548 196.382 523.915 193.576 524.316 193.272 524.813 192.871 525.518 192.63 526.144 192.774 526.561 192.887 526.978 192.967 527.378 193.015 527.811 193.063 528.228 193.095 528.645 193.095 529.319 193.111 529.96 193.512 530.361 194.041 530.649 194.41 533.279 197.889 533.359 197.922 533.343 197.986 534.834 197.392 535.027 197.312 535.219 197.232 536.566 196.639 536.614 196.543 536.646 196.494 535.957 192.149 535.893 191.684 535.797 191.059 535.957 190.321 536.406 189.84ZM539.116 191.62 539.789 195.997C539.998 197.424 539.276 198.787 538.009 199.445 537.432 199.733 536.871 200.006 536.262 200.263 535.636 200.519 535.043 200.744 534.466 200.936 533.103 201.417 531.644 200.968 530.762 199.83L528.052 196.27C527.699 196.254 527.33 196.222 526.978 196.19 526.641 196.142 526.32 196.078 525.983 196.013L522.52 198.787C521.398 199.685 519.858 199.749 518.656 198.964 518.078 198.595 517.565 198.226 517.084 197.873 516.555 197.473 516.074 197.072 515.593 196.655 514.503 195.709 514.15 194.218 514.711 192.887L516.411 188.766C516.25 188.445 516.106 188.124 515.962 187.788 515.946 187.804 515.625 186.938 515.609 186.858L511.488 185.238C510.141 184.709 509.308 183.41 509.388 181.983 509.42 181.294 509.484 180.652 509.548 180.059 509.628 179.434 509.741 178.808 509.853 178.167 510.141 176.756 511.264 175.698 512.675 175.521L517.1 174.928C517.293 174.639 517.501 174.351 517.726 174.062 517.918 173.79 518.143 173.533 518.367 173.277L517.694 168.899C517.485 167.472 518.207 166.093 519.49 165.452 520.051 165.163 520.612 164.891 521.221 164.634 521.43 164.554 522.905 163.944 523.017 163.944 524.38 163.479 525.839 163.928 526.721 165.067L529.431 168.627C529.784 168.643 530.152 168.675 530.489 168.707 530.842 168.755 531.163 168.819 531.499 168.883L534.963 166.109C536.085 165.211 537.625 165.147 538.827 165.933 539.404 166.302 539.917 166.67 540.398 167.023 540.928 167.424 541.409 167.825 541.89 168.242 542.98 169.188 543.333 170.679 542.772 172.01L541.072 176.131C541.232 176.451 541.377 176.772 541.521 177.109 541.649 177.413 541.777 177.734 541.874 178.039L545.995 179.658C547.341 180.187 548.175 181.486 548.095 182.913 548.063 183.603 547.999 184.244 547.935 184.837 547.854 185.463 547.742 186.088 547.63 186.729 547.341 188.141 546.219 189.199 544.808 189.375L540.382 189.968C540.19 190.257 539.982 190.546 539.757 190.834 539.565 191.107 539.34 191.363 539.116 191.62ZM528.741 174.431C530.954 174.431 532.958 175.329 534.418 176.772 535.861 178.231 536.759 180.236 536.759 182.448 536.759 184.661 535.861 186.665 534.418 188.124 532.958 189.568 530.954 190.466 528.741 190.466 526.529 190.466 524.524 189.568 523.065 188.124 521.622 186.665 520.724 184.661 520.724 182.448 520.724 180.236 521.622 178.231 523.065 176.772 524.524 175.329 526.529 174.431 528.741 174.431ZM532.141 179.049C531.275 178.183 530.072 177.638 528.741 177.638 527.411 177.638 526.208 178.183 525.342 179.049 524.476 179.915 523.931 181.117 523.931 182.448 523.931 183.779 524.476 184.982 525.342 185.848 526.208 186.713 527.411 187.259 528.741 187.259 530.072 187.259 531.275 186.713 532.141 185.848 533.007 184.982 533.552 183.779 533.552 182.448 533.552 181.117 533.007 179.915 532.141 179.049ZM513.974 199.429C514.278 199.653 514.551 199.878 514.823 200.102 515.08 200.327 515.353 200.567 515.625 200.808L520.884 199.381C522.408 198.964 523.995 199.573 524.861 200.872 525.31 201.545 525.711 202.171 526.064 202.796 526.416 203.421 526.769 204.079 527.106 204.784 527.795 206.227 527.507 207.879 526.368 208.985L522.456 212.769C522.536 213.138 522.6 213.491 522.664 213.844 522.728 214.197 522.777 214.549 522.809 214.918L527.763 217.195C529.19 217.852 530.024 219.344 529.848 220.899 529.848 220.899 529.559 222.951 529.527 223.128 529.383 223.913 529.222 224.651 529.046 225.341 528.661 226.864 527.362 227.954 525.775 228.066L520.339 228.467C520.179 228.772 520.003 229.077 519.826 229.397 519.634 229.718 519.441 230.023 519.249 230.311L521.574 235.234C522.247 236.677 521.927 238.344 520.788 239.435 520.211 239.98 519.65 240.477 519.105 240.926 518.559 241.375 517.966 241.84 517.309 242.305 516.042 243.219 514.326 243.219 513.044 242.305L513.06 242.305 508.634 239.114C508.297 239.242 507.961 239.371 507.624 239.499 507.335 239.595 506.999 239.707 506.63 239.82L505.235 245.079C504.834 246.618 503.519 247.693 501.932 247.789 501.194 247.837 500.457 247.853 499.687 247.853 498.885 247.837 498.148 247.821 497.426 247.757 495.855 247.644 494.54 246.538 494.155 245.015L492.824 239.723C492.503 239.611 492.167 239.499 491.846 239.387 491.493 239.242 491.157 239.114 490.868 238.986L486.41 242.129C485.128 243.043 483.412 243.027 482.161 242.097 481.568 241.664 480.975 241.183 480.381 240.669 479.772 240.172 479.227 239.659 478.698 239.146 477.559 238.04 477.271 236.388 477.96 234.961L480.349 230.039C480.157 229.75 479.981 229.445 479.804 229.157 479.628 228.852 479.467 228.547 479.307 228.243L473.871 227.794C472.3 227.649 471.017 226.543 470.648 225.02 470.456 224.25 470.296 223.513 470.183 222.775 470.055 222.069 469.959 221.316 469.879 220.53 469.734 218.959 470.584 217.5 472.027 216.858L476.998 214.629C477.03 214.309 477.094 213.972 477.158 213.603 477.223 213.251 477.287 212.914 477.367 212.577L473.487 208.729C472.364 207.606 472.092 205.955 472.781 204.528 473.118 203.854 473.487 203.197 473.871 202.523 474.256 201.866 474.657 201.225 475.074 200.615 475.972 199.317 477.559 198.723 479.083 199.156L484.326 200.647C484.566 200.423 484.839 200.198 485.128 199.958 485.4 199.733 485.673 199.509 485.945 199.301L485.448 193.865C485.304 192.293 486.154 190.834 487.597 190.209 488.27 189.904 488.96 189.632 489.713 189.359 490.435 189.103 491.157 188.878 491.862 188.67 492.632 188.461 493.401 188.493 494.091 188.75 494.796 189.006 495.422 189.487 495.855 190.129L498.917 194.651C499.254 194.634 499.607 194.618 499.976 194.634 500.36 194.634 500.713 194.634 501.05 194.651L504.161 190.161C505.074 188.862 506.662 188.301 508.169 188.75 508.939 188.974 509.66 189.199 510.318 189.455 511.023 189.712 511.713 190.001 512.418 190.305 513.845 190.963 514.695 192.438 514.535 194.009L513.974 199.429ZM512.755 202.539C512.418 202.267 512.098 202.01 511.809 201.786 511.055 201.225 510.671 200.343 510.767 199.413L511.36 193.672C511.376 193.464 511.296 193.32 511.103 193.223 510.462 192.951 509.853 192.694 509.211 192.454 508.554 192.213 507.913 192.005 507.287 191.812 507.079 191.764 506.918 191.828 506.79 191.989L503.487 196.751C502.974 197.505 502.092 197.922 501.178 197.873 500.745 197.841 500.328 197.825 499.976 197.825 499.591 197.825 499.19 197.825 498.757 197.857 497.827 197.906 496.977 197.473 496.464 196.703L493.225 191.925C493.097 191.764 492.92 191.7 492.728 191.748 492.022 191.957 491.381 192.149 490.788 192.374 490.194 192.582 489.569 192.839 488.896 193.127 488.703 193.223 488.607 193.368 488.623 193.576L489.152 199.349C489.232 200.279 488.848 201.144 488.094 201.69 487.757 201.946 487.437 202.187 487.164 202.411 486.875 202.652 486.587 202.908 486.282 203.213 485.593 203.838 484.663 204.079 483.765 203.822L478.217 202.235C478.008 202.187 477.848 202.235 477.72 202.411 477.319 203.021 476.95 203.582 476.629 204.143 476.293 204.704 475.972 205.297 475.651 205.939 475.571 206.131 475.603 206.308 475.747 206.452L479.852 210.525C480.51 211.182 480.766 212.096 480.542 213.01 480.446 213.411 480.365 213.796 480.301 214.164 480.237 214.501 480.189 214.886 480.125 215.335 480.013 216.265 479.451 217.035 478.602 217.419L473.326 219.777C473.134 219.857 473.054 220.033 473.07 220.226 473.134 220.899 473.214 221.572 473.342 222.262 473.454 222.935 473.583 223.593 473.743 224.266 473.791 224.459 473.936 224.571 474.144 224.587L479.9 225.068C480.83 225.148 481.632 225.693 482.033 226.527 482.209 226.88 482.402 227.233 482.594 227.569 482.787 227.922 482.995 228.259 483.203 228.579 483.717 229.365 483.781 230.311 483.364 231.145L480.846 236.356C480.75 236.533 480.782 236.725 480.943 236.869 481.456 237.382 481.953 237.831 482.45 238.248 482.915 238.649 483.46 239.066 484.053 239.515 484.214 239.643 484.39 239.643 484.566 239.515L489.281 236.196C490.034 235.651 491.012 235.554 491.846 235.939 492.263 236.116 492.632 236.26 492.952 236.388 493.337 236.533 493.706 236.645 494.075 236.773 494.973 237.03 495.63 237.735 495.855 238.633L497.266 244.245C497.314 244.438 497.442 244.55 497.667 244.566 498.404 244.614 499.078 244.646 499.703 244.662 500.344 244.662 501.018 244.646 501.755 244.598 501.948 244.582 502.092 244.47 502.14 244.261L503.615 238.697C503.856 237.799 504.529 237.094 505.427 236.837L505.427 236.853C505.764 236.757 506.149 236.629 506.566 236.468 506.951 236.34 507.319 236.196 507.688 236.036 508.538 235.667 509.484 235.779 510.238 236.324L514.936 239.707C515.096 239.836 515.272 239.836 515.449 239.707 515.978 239.323 516.507 238.922 517.052 238.457 517.581 238.024 518.094 237.575 518.576 237.11 518.736 236.966 518.768 236.789 518.672 236.613L516.218 231.386C515.818 230.536 515.898 229.59 516.411 228.82 516.651 228.467 516.86 228.131 517.068 227.778 517.261 227.457 517.453 227.104 517.646 226.719 518.062 225.902 518.864 225.357 519.794 225.292L525.551 224.876C525.759 224.859 525.887 224.747 525.935 224.555 526.128 223.817 526.272 223.176 526.384 222.567 526.481 222.053 526.673 221.043 526.673 220.546 526.689 220.338 526.609 220.193 526.416 220.097L521.173 217.676C520.339 217.291 519.762 216.506 519.666 215.576 519.634 215.175 519.57 214.774 519.505 214.373 519.441 213.972 519.361 213.571 519.265 213.17 519.057 212.272 519.329 211.358 519.987 210.717L524.139 206.692C524.284 206.548 524.316 206.356 524.22 206.179 523.931 205.57 523.626 204.977 523.274 204.383 522.921 203.774 522.568 203.197 522.215 202.652 522.087 202.475 521.927 202.427 521.718 202.475L516.154 203.999C515.24 204.239 514.326 203.999 513.653 203.357 513.364 203.085 513.06 202.812 512.755 202.539ZM499.879 206.5C506.085 206.5 511.103 211.519 511.103 217.724 511.103 223.929 506.085 228.948 499.879 228.948 493.674 228.948 488.655 223.929 488.655 217.724 488.655 211.519 493.674 206.5 499.879 206.5ZM499.879 209.707C495.454 209.707 491.862 213.299 491.862 217.724 491.862 222.15 495.454 225.741 499.879 225.741 504.305 225.741 507.897 222.15 507.897 217.724 507.897 213.299 504.305 209.707 499.879 209.707Z" fill="#003C50"/></g></svg>