<svg width="93" height="93" xmlns="http://www.w3.org/2000/svg" xmlns:xlink="http://www.w3.org/1999/xlink" xml:space="preserve" overflow="hidden"><g transform="translate(-377 -477)"><path d="M445.563 541.218 430.106 530.395 427.845 532.656C427.028 533.457 426.675 534.307 426.322 535.157 425.825 536.296 425.344 537.45 424.109 538.685 424.093 538.685 423.292 539.534 423.292 539.534 421.704 541.138 419.475 542.581 415.948 539.069L411.618 534.724 433.121 513.222 458.904 538.989 445.563 541.218ZM446.333 537.851 452.234 536.857 433.121 517.744 416.14 534.724 418.225 536.793C419.7 538.284 420.486 537.819 421.031 537.274 421.063 537.274 421.848 536.424 421.848 536.408 422.65 535.606 423.019 534.756 423.372 533.906 423.853 532.768 424.35 531.613 425.568 530.379L429.721 526.226 446.333 537.851ZM400.394 523.5 408.412 515.483 406.808 513.879C408.091 512.597 409.39 511.298 410.672 510.015L412.276 511.618 417.086 506.808 424.157 513.879 407.466 530.571 400.394 523.5ZM404.916 523.5 407.466 526.049 419.636 513.879 417.086 511.33C413.029 515.387 408.973 519.443 404.916 523.5ZM403.794 531.052 385.675 549.155 393.034 556.515 411.137 538.396 413.414 540.673 393.034 561.037 381.153 549.155 401.517 528.775 403.794 531.052ZM436.793 512.741 441.138 508.412 461.406 528.663 463.426 523.596 451.079 500.426 439.534 488.882 427.364 501.052 430.571 504.259 424.638 510.207 422.362 507.931 426.049 504.259 422.843 501.052 439.534 484.36 453.645 498.47 466.953 523.404 462.56 534.371 441.138 512.933 439.069 515.018 436.793 512.741Z" fill="#003C50"/></g></svg>