<svg width="93" height="93" xmlns="http://www.w3.org/2000/svg" xmlns:xlink="http://www.w3.org/1999/xlink" xml:space="preserve" overflow="hidden"><g transform="translate(-852 -378)"><path d="M866.495 405.259C871.787 405.259 876.116 409.572 876.116 414.879L876.116 419.69C876.116 424.997 871.787 429.31 866.495 429.31 861.188 429.31 856.875 424.997 856.875 419.69L856.875 414.879C856.875 409.572 861.188 405.259 866.495 405.259ZM940.19 395.638 940.19 437.328 898.773 437.328C897.474 436.013 895.999 434.938 894.315 434.121L925.855 434.121C926.576 428.316 931.178 423.714 936.983 422.993L936.983 409.973C931.178 409.251 926.576 404.649 925.855 398.845L887.18 398.845C886.683 402.741 884.422 406.205 881.07 408.225 880.638 407.247 880.092 406.317 879.451 405.451 881.824 404.008 883.476 401.603 883.941 398.845L876.052 398.845 876.052 402.02C875.058 401.282 873.983 400.657 872.845 400.16L872.845 395.638 940.19 395.638ZM936.983 398.845 929.094 398.845C929.767 402.869 932.958 406.06 936.983 406.734L936.983 398.845ZM929.094 434.121 936.983 434.121 936.983 426.232C932.958 426.905 929.767 430.096 929.094 434.121ZM906.517 402.052C914.037 402.052 918.543 409.62 918.543 416.483 918.543 423.346 914.037 430.914 906.517 430.914 898.997 430.914 894.491 423.346 894.491 416.483 894.491 409.62 898.997 402.052 906.517 402.052ZM906.517 405.259C900.825 405.259 897.698 411.432 897.698 416.483 897.698 421.534 900.825 427.707 906.517 427.707 912.209 427.707 915.336 421.534 915.336 416.483 915.336 411.432 912.209 405.259 906.517 405.259ZM887.34 438.931C892.631 438.931 896.961 443.244 896.961 448.552L896.961 453.362C896.961 458.669 892.631 462.983 887.34 462.983 882.033 462.983 877.719 458.669 877.719 453.362L877.719 448.552C877.719 443.244 882.033 438.931 887.34 438.931ZM887.34 442.138C883.812 442.138 880.926 445.024 880.926 448.552L880.926 453.362C880.926 456.89 883.812 459.776 887.34 459.776 890.868 459.776 893.754 456.89 893.754 453.362L893.754 448.552C893.754 445.024 890.868 442.138 887.34 442.138ZM856.939 462.983 890.595 406.862 894.315 406.862 860.675 462.983 856.939 462.983ZM866.495 408.466C862.968 408.466 860.081 411.352 860.081 414.879L860.081 419.69C860.081 423.217 862.968 426.103 866.495 426.103 870.023 426.103 872.909 423.217 872.909 419.69L872.909 414.879C872.909 411.352 870.023 408.466 866.495 408.466Z" fill="#003C50"/></g></svg>