<svg width="93" height="93" xmlns="http://www.w3.org/2000/svg" xmlns:xlink="http://www.w3.org/1999/xlink" xml:space="preserve" overflow="hidden"><g transform="translate(-537 -297)"><path d="M592.351 301.778 593.057 302.5C593.73 303.173 594.211 303.991 594.452 304.873 594.692 305.739 594.708 306.685 594.468 307.615 594.371 307.968 594.371 308.352 594.484 308.705 594.676 309.443 595.285 310.036 596.007 310.228 596.376 310.341 596.745 310.341 597.097 310.244 598.043 310.004 598.973 310.02 599.839 310.261 600.721 310.501 601.539 310.982 602.212 311.656L605.579 315.007 608.931 318.374C609.604 319.047 610.085 319.865 610.326 320.747 610.566 321.613 610.582 322.543 610.342 323.489 610.245 323.842 610.245 324.211 610.358 324.579 610.55 325.301 611.159 325.91 611.881 326.103 612.234 326.215 612.619 326.215 612.971 326.119 613.901 325.878 614.847 325.894 615.713 326.135 616.595 326.375 617.397 326.856 618.086 327.53L618.792 328.235 618.792 328.251 618.808 328.235C619.834 329.277 620.363 330.64 620.379 331.987 620.379 333.35 619.882 334.713 618.856 335.739L605.9 348.711C604.874 349.737 603.511 350.234 602.148 350.218 600.785 350.202 599.422 349.689 598.396 348.647L597.69 347.942C597.001 347.268 596.536 346.45 596.296 345.568 596.039 344.687 596.039 343.757 596.279 342.827 596.68 341.239 595.189 339.78 593.634 340.181 592.704 340.421 591.774 340.421 590.892 340.165 590.459 340.053 590.026 339.876 589.625 339.636L586.242 343.035C584.671 344.606 583.34 345.504 581.993 346.418 580.806 347.236 579.604 348.054 578.225 349.449 577.086 350.571 576.14 351.918 575.178 353.249 574.136 354.708 573.094 356.183 571.811 357.466L551.623 377.637C549.796 379.465 546.813 379.513 544.937 377.734 544.568 377.445 544.183 376.996 543.847 376.659L542.949 375.761C541.073 373.885 541.073 370.839 542.949 368.963L563.12 348.775C564.403 347.493 565.878 346.45 567.337 345.408 568.668 344.446 570.015 343.5 571.137 342.362 572.532 340.983 573.35 339.78 574.168 338.593 575.082 337.247 575.996 335.916 577.551 334.344L580.951 330.961C580.71 330.56 580.534 330.127 580.421 329.694 580.165 328.812 580.165 327.882 580.405 326.952 580.486 326.6 580.486 326.215 580.389 325.846 580.181 325.124 579.588 324.531 578.866 324.323 578.497 324.227 578.112 324.227 577.76 324.307 576.83 324.547 575.9 324.547 575.018 324.291 574.136 324.05 573.334 323.585 572.645 322.896 572.404 322.639 572.083 322.383 571.843 322.094 570.865 321.068 570.384 319.753 570.368 318.438 570.352 317.075 570.849 315.712 571.875 314.686L584.847 301.73C585.873 300.704 587.236 300.207 588.599 300.207 589.946 300.223 591.309 300.752 592.351 301.778ZM589.914 378.776 589.914 373.966C589.914 371.753 590.812 369.748 592.271 368.305 593.714 366.846 595.718 365.948 597.931 365.948L617.172 365.948C619.385 365.948 621.389 366.846 622.833 368.305 624.292 369.748 625.19 371.753 625.19 373.966L625.19 378.776 621.983 378.776 621.983 373.966C621.983 372.635 621.438 371.432 620.572 370.566 619.706 369.7 618.503 369.155 617.172 369.155L597.931 369.155C596.6 369.155 595.398 369.7 594.532 370.566 593.666 371.432 593.121 372.635 593.121 373.966L593.121 378.776 589.914 378.776ZM587.236 337.487 583.099 333.35 579.828 336.621C578.449 338 577.615 339.203 576.798 340.389 575.884 341.736 574.986 343.067 573.414 344.638 572.132 345.921 570.656 346.963 569.197 348.006 567.866 348.968 566.519 349.914 565.397 351.052L545.21 371.224C544.584 371.849 544.584 372.875 545.21 373.501 545.835 374.126 546.557 374.783 547.15 375.441 547.775 376.002 548.769 375.97 549.363 375.377L569.534 355.189C570.672 354.067 571.618 352.72 572.581 351.389 573.623 349.93 574.665 348.455 575.948 347.172 577.519 345.601 578.85 344.703 580.197 343.789 581.383 342.971 582.586 342.153 583.965 340.758L587.236 337.487ZM590.78 304.761 590.074 304.055C589.657 303.622 589.112 303.414 588.567 303.414 588.038 303.398 587.509 303.606 587.108 303.991L574.152 316.963C573.751 317.364 573.559 317.893 573.559 318.422 573.559 318.999 573.799 319.512 574.2 319.929L574.906 320.635C574.825 320.731 575.739 321.18 575.868 321.212 576.22 321.308 576.589 321.308 576.974 321.212 577.872 320.988 578.818 320.988 579.716 321.244 581.544 321.757 582.955 323.168 583.468 324.996 583.724 325.894 583.724 326.84 583.5 327.738 583.404 328.123 583.404 328.492 583.5 328.844 583.596 329.181 583.789 329.502 584.077 329.807L590.78 336.509C591.084 336.798 591.405 336.99 591.742 337.086 592.094 337.182 592.463 337.182 592.848 337.086 593.746 336.862 594.692 336.862 595.59 337.118 597.418 337.631 598.829 339.042 599.342 340.87 599.599 341.768 599.599 342.714 599.374 343.612 599.278 343.997 599.278 344.366 599.374 344.719 599.47 345.055 599.663 345.376 599.951 345.681L600.657 346.386C601.09 346.803 601.635 347.028 602.164 347.028 602.693 347.028 603.222 346.835 603.623 346.434L616.595 333.478C616.996 333.078 617.188 332.548 617.172 332.019 617.172 331.474 616.964 330.929 616.531 330.512L615.826 329.791C615.537 329.502 615.216 329.309 614.863 329.213 614.527 329.117 614.142 329.117 613.773 329.213 612.875 329.454 611.929 329.438 611.031 329.197 609.187 328.684 607.776 327.257 607.263 325.429 607.023 324.531 607.007 323.585 607.247 322.687 607.343 322.318 607.343 321.934 607.247 321.597 607.151 321.26 606.958 320.923 606.654 320.635L603.303 317.284 599.951 313.932C599.663 313.628 599.326 313.435 598.989 313.339 598.653 313.243 598.268 313.243 597.899 313.339 597.001 313.58 596.055 313.564 595.157 313.323 593.329 312.81 591.902 311.383 591.389 309.555 591.148 308.657 591.132 307.711 591.373 306.813 591.469 306.444 591.469 306.059 591.373 305.723 591.277 305.386 591.084 305.049 590.78 304.761Z" fill="#003C50"/></g></svg>