<svg width="93" height="93" xmlns="http://www.w3.org/2000/svg" xmlns:xlink="http://www.w3.org/1999/xlink" xml:space="preserve" overflow="hidden"><g transform="translate(-839 -509)"><path d="M843.81 577.948 843.81 518.621C843.81 515.975 845.975 513.81 848.621 513.81L883.897 513.81C886.542 513.81 888.707 515.975 888.707 518.621L888.707 542.672 885.5 542.672 885.5 518.621C885.5 517.739 884.778 517.017 883.897 517.017L848.621 517.017C847.739 517.017 847.017 517.739 847.017 518.621L847.017 574.741 850.304 574.741C850.401 575.848 850.593 576.922 850.898 577.948L843.81 577.948ZM869.466 520.224 882.293 520.224 882.293 526.638 869.466 526.638 869.466 520.224ZM859.845 558.707 869.466 558.707 869.466 561.914 859.845 561.914 859.845 558.707ZM850.224 555.5 850.224 545.879 869.466 545.879 869.466 549.086 853.431 549.086 853.431 555.5 850.224 555.5ZM850.224 542.672 850.224 533.052 882.293 533.052 882.293 542.672 879.086 542.672 879.086 536.259 853.431 536.259 853.431 542.672 850.224 542.672ZM885.5 593.983 896.724 593.983 896.724 587.569 885.885 587.569 887.488 585.966 885.885 584.362 923.983 584.362C923.983 571.534 923.967 558.691 923.967 545.879L927.19 545.879 927.19 587.569 899.931 587.569 899.931 593.983 911.155 593.983 911.155 597.19 885.5 597.19 885.5 593.983ZM872.672 571.15 872.672 545.879 914.378 545.879 914.378 549.086 875.879 549.086 875.879 574.357 872.672 571.15ZM870.604 573.603 882.951 585.966 870.604 598.328 868.327 596.051 876.825 587.569 867.862 587.569C859.909 587.569 853.431 581.091 853.431 573.138L853.431 561.914 856.638 561.914 856.638 573.138C856.638 579.311 861.689 584.362 867.862 584.362L876.825 584.362 868.327 575.88 870.604 573.603ZM917.569 549.086 917.569 537.862C917.569 531.689 912.518 526.638 906.345 526.638L897.382 526.638 905.88 535.12 903.603 537.397 891.256 525.034 903.603 512.672 905.88 514.949 897.382 523.431 906.345 523.431C914.298 523.431 920.776 529.909 920.776 537.862L920.776 549.086 917.569 549.086Z" fill="#003C50"/></g></svg>