<svg width="93" height="93" xmlns="http://www.w3.org/2000/svg" xmlns:xlink="http://www.w3.org/1999/xlink" xml:space="preserve" overflow="hidden"><g transform="translate(-198 -469)"><path d="M244.5 537.948C243.378 537.948 242.287 537.756 241.277 537.387 241.004 537.291 240.748 537.195 240.491 537.066 238.054 545.436 230.758 550.776 222.052 550.776 211.693 550.776 202.81 541.909 202.81 531.534 202.81 529.771 203.035 527.959 203.548 526.275L211.261 501.245C212.415 497.493 215.766 493.837 219.149 491.929L221.346 485.804C222.629 482.228 226.397 480.224 230.069 480.224 235.104 480.224 238.263 483.463 239.545 488.097 241.004 487.247 242.672 486.798 244.372 486.798 246.152 486.798 247.899 487.311 249.423 488.241L249.519 487.857C250.449 483.415 254.393 480.224 258.931 480.224 262.603 480.224 266.371 482.228 267.654 485.804L269.851 491.929C273.234 493.837 276.585 497.493 277.739 501.245L285.452 526.275C285.965 527.959 286.19 529.771 286.19 531.534 286.19 541.909 277.307 550.776 266.948 550.776 258.242 550.776 250.946 545.436 248.509 537.066 247.258 537.644 245.879 537.948 244.5 537.948ZM244.5 534.741C245.991 534.741 247.402 534.244 248.557 533.298L250.673 531.567 251.138 534.276C252.517 542.229 258.883 547.569 266.948 547.569 275.543 547.569 282.983 540.145 282.983 531.534 282.983 530.059 282.838 528.616 282.389 527.205L274.693 502.175C273.603 498.68 270.46 495.794 267.269 494.19L264.639 486.878C263.822 484.586 261.24 483.431 258.931 483.431 255.884 483.431 253.255 485.564 252.646 488.562L251.074 494.254C249.086 492.058 247.675 490.005 244.372 490.005 241.181 490.005 239.85 491.849 237.83 493.918L236.354 488.562C235.761 485.564 233.116 483.431 230.069 483.431 227.76 483.431 225.178 484.586 224.361 486.878L221.731 494.19C218.524 495.794 215.397 498.648 214.307 502.175L206.611 527.205C206.162 528.616 206.017 530.059 206.017 531.534 206.017 540.145 213.457 547.569 222.052 547.569 230.117 547.569 236.483 542.229 237.862 534.276L238.327 531.567C240.315 533.186 241.742 534.741 244.5 534.741ZM266.948 544.362C259.861 544.362 254.121 538.622 254.121 531.534 254.121 524.447 259.861 518.707 266.948 518.707 274.036 518.707 279.776 524.447 279.776 531.534 279.776 538.622 274.036 544.362 266.948 544.362ZM266.948 541.155C272.256 541.155 276.569 536.842 276.569 531.534 276.569 526.227 272.256 521.914 266.948 521.914 261.641 521.914 257.328 526.227 257.328 531.534 257.328 536.842 261.641 541.155 266.948 541.155ZM222.052 544.362C214.964 544.362 209.224 538.622 209.224 531.534 209.224 524.447 214.964 518.707 222.052 518.707 229.139 518.707 234.879 524.447 234.879 531.534 234.879 538.622 229.139 544.362 222.052 544.362ZM222.052 541.155C227.359 541.155 231.672 536.842 231.672 531.534 231.672 526.227 227.359 521.914 222.052 521.914 216.744 521.914 212.431 526.227 212.431 531.534 212.431 536.842 216.744 541.155 222.052 541.155Z" fill="#003C50"/></g></svg>