<svg width="94" height="94" xmlns="http://www.w3.org/2000/svg" xmlns:xlink="http://www.w3.org/1999/xlink" xml:space="preserve" overflow="hidden"><g transform="translate(-777 -133)"><path d="M842.411 139.726C841.001 138.818 840.11 138.316 838.424 138.04 834.891 137.473 831.066 138.219 828.149 140.326 826.074 141.833 824.551 144.004 824.113 146.695 824.016 147.294 823.968 147.894 823.984 148.526L824.551 157.246C824.567 157.472 824.535 157.683 824.47 157.878 824.178 158.947 824.227 160.147 824.616 161.184 824.972 162.108 825.572 162.886 826.447 163.323 826.885 163.534 827.177 163.923 827.306 164.344 827.728 165.932 828.522 168.023 829.51 169.952 830.288 171.491 831.163 172.885 832.022 173.728 832.347 174.052 832.509 174.473 832.509 174.879 832.509 176.272 832.411 178.169 831.974 179.968 831.488 181.977 830.548 183.841 828.862 184.813 826.982 185.964 825.588 186.418 824 186.904L824 183.501C825.005 183.177 825.977 182.788 827.193 182.026 828.036 181.54 828.522 180.454 828.83 179.206 829.138 177.99 829.235 176.629 829.267 175.511 828.311 174.409 827.403 172.966 826.609 171.427 825.669 169.547 824.859 167.521 824.357 165.835 823.044 164.992 822.136 163.744 821.601 162.334 820.986 160.714 820.888 158.85 821.31 157.197L820.759 148.737C820.71 147.959 820.807 146.954 820.921 146.176 821.52 142.562 823.514 139.693 826.253 137.716 829.834 135.107 834.583 134.151 838.943 134.848 840.709 135.139 841.925 135.626 843.448 136.549 844.712 136.079 846.025 135.933 847.306 136.063 849.348 136.258 851.325 137.117 852.994 138.397 854.631 139.645 856.025 141.314 856.916 143.162 857.759 144.88 858.197 146.76 858.051 148.623L857.483 157.197C857.905 158.866 857.824 160.714 857.208 162.334 856.673 163.744 855.749 164.992 854.437 165.835 853.934 167.504 853.14 169.547 852.184 171.427 851.406 172.966 850.498 174.409 849.542 175.494 849.574 176.645 849.672 178.007 849.963 179.222 850.239 180.454 850.725 181.523 851.568 182.01 853.221 183.047 854.469 183.42 855.944 183.857 856.932 184.165 857.889 184.473 858.861 184.83 860.66 185.494 862.913 186.304 864.404 187.763 865.992 189.303 867.224 191.248 868.05 193.338 868.926 195.542 869.379 197.909 869.379 200.161 869.379 203.468 865.7 205.591 860.644 206.92 854.031 208.638 844.826 209.172 839.397 209.172 835.458 209.172 829.494 208.881 824 208.07L824 204.797C829.413 205.639 835.442 205.931 839.397 205.931 844.664 205.931 853.561 205.412 859.833 203.792 863.48 202.836 866.138 201.62 866.138 200.161 866.138 198.298 865.765 196.337 865.052 194.521 864.388 192.852 863.415 191.296 862.151 190.081 861.146 189.108 859.266 188.411 857.743 187.86 856.835 187.536 855.944 187.244 855.02 186.969 853.334 186.45 851.892 186.029 849.931 184.813 848.181 183.809 847.273 181.961 846.803 179.968 846.398 178.217 846.333 176.353 846.284 174.927 846.284 174.457 846.463 174.036 846.771 173.744 847.646 172.869 848.521 171.491 849.299 169.968 850.271 168.023 851.065 165.916 851.487 164.344 851.617 163.858 851.957 163.485 852.394 163.291 853.253 162.853 853.837 162.075 854.177 161.184 854.582 160.114 854.631 158.882 854.307 157.797 854.258 157.618 854.226 157.44 854.242 157.246L854.826 148.397C854.923 147.084 854.615 145.787 854.015 144.572 853.334 143.194 852.297 141.93 851.033 140.958 849.818 140.034 848.424 139.402 847.014 139.272 846.009 139.175 844.972 139.337 843.999 139.823 843.481 140.082 842.881 140.018 842.411 139.726ZM798.069 171.897C797.178 171.897 796.448 171.167 796.448 170.276 796.448 169.384 797.178 168.655 798.069 168.655L804.552 168.655C805.443 168.655 806.172 169.384 806.172 170.276 806.172 171.167 805.443 171.897 804.552 171.897L798.069 171.897ZM787.599 163.793 815.021 163.793C816.593 163.793 818.02 164.441 819.073 165.479 819.851 165.479 820.759 168.72 820.759 169.53L820.759 216.401C820.759 219.545 818.166 222.138 815.021 222.138L787.599 222.138C784.455 222.138 781.862 219.545 781.862 216.401L781.862 169.53C781.862 166.37 784.439 163.793 787.599 163.793ZM815.021 167.034 787.599 167.034C786.238 167.034 785.103 168.169 785.103 169.53L785.103 216.401C785.103 217.778 786.222 218.897 787.599 218.897L815.021 218.897C816.399 218.897 817.517 217.778 817.517 216.401L817.517 169.53C817.517 168.153 816.399 167.034 815.021 167.034ZM801.31 210.793C803.093 210.793 804.552 212.252 804.552 214.034 804.552 215.817 803.093 217.276 801.31 217.276 799.528 217.276 798.069 215.817 798.069 214.034 798.069 212.252 799.528 210.793 801.31 210.793ZM814.276 173.517 814.276 209.172 788.345 209.172 788.345 173.517 814.276 173.517ZM811.034 176.759 791.586 176.759 791.586 205.931 811.034 205.931 811.034 176.759Z" fill="#003C50"/></g></svg>