<svg width="94" height="94" xmlns="http://www.w3.org/2000/svg" xmlns:xlink="http://www.w3.org/1999/xlink" xml:space="preserve" overflow="hidden"><g transform="translate(-283 -375)"><path d="M368.897 383.103 368.897 460.897 294.345 460.897 294.345 434.966 307.31 434.966 307.31 422 320.276 422 320.276 409.034 333.241 409.034 333.241 396.069 346.207 396.069 346.207 383.103 368.897 383.103ZM365.655 386.345 349.448 386.345 349.448 399.31 336.483 399.31 336.483 412.276 323.517 412.276 323.517 425.241 310.552 425.241 310.552 438.207 297.586 438.207 297.586 457.655 365.655 457.655 365.655 386.345ZM300.828 441.448C304.069 441.448 307.31 441.448 310.552 441.448L310.552 454.414C307.31 454.414 304.069 454.414 300.828 454.414L300.828 441.448ZM313.793 428.483C317.034 428.483 320.276 428.483 323.517 428.483L323.517 454.414 313.793 454.414 313.793 428.483ZM326.759 415.517C330 415.517 333.241 415.517 336.483 415.517L336.483 454.414C333.241 454.414 330 454.414 326.759 454.414L326.759 415.517ZM339.724 402.552C342.966 402.552 346.207 402.552 349.448 402.552L349.448 454.414C346.207 454.414 342.966 454.414 339.724 454.414L339.724 402.552Z" fill="#003C50"/></g></svg>