<svg width="93" height="93" xmlns="http://www.w3.org/2000/svg" xmlns:xlink="http://www.w3.org/1999/xlink" xml:space="preserve" overflow="hidden"><g transform="translate(-604 -139)"><path d="M688.983 199.338 688.983 198.328 663.328 198.328 663.328 199.338C666.454 202.801 671.553 204.741 676.155 204.741 680.757 204.741 685.856 202.801 688.983 199.338ZM692.19 200.508C688.261 205.254 682.312 207.948 676.155 207.948 669.998 207.948 664.049 205.271 660.121 200.508L660.121 195.121 664.995 195.121 674.391 169.61 656.914 164.928 656.914 217.569 664.931 217.569C667.577 217.569 669.741 219.734 669.741 222.379L669.741 227.19 631.259 227.19 631.259 222.379C631.259 219.734 633.423 217.569 636.069 217.569L644.086 217.569 644.086 161.48 626.593 156.798 635.524 182.293 640.879 182.293 640.879 187.681C636.951 192.427 631.002 195.121 624.845 195.121 618.688 195.121 612.739 192.427 608.81 187.681L608.81 182.293 613.685 182.293 623.338 156.093C623.37 156.045 623.386 155.997 623.402 155.948L620.964 155.291C619.89 155.002 619.024 154.313 618.495 153.431 617.645 152.004 617.742 150.24 618.768 148.941 619.088 148.524 619.505 148.188 619.97 147.931L627.41 143.746 647.614 149.15C648.512 148.813 649.49 148.621 650.5 148.621 652.713 148.621 654.717 149.519 656.176 150.962 656.369 151.17 656.561 151.379 656.737 151.603L676.668 156.943 681.11 164.302C682.585 166.772 681.062 169.947 678.143 170.299L686.834 195.121 692.19 195.121 692.19 200.508ZM668.411 195.121 683.435 195.121 676.123 174.196 668.411 195.121ZM674.6 159.701 658.421 155.355C658.485 155.772 658.517 156.205 658.517 156.638 658.517 158.45 657.924 160.101 656.914 161.448L656.914 161.609 677.406 167.092C678.111 167.285 678.769 166.611 678.368 165.954L674.6 159.701ZM644.279 151.571 627.843 147.178 621.526 150.721C621.43 150.769 621.349 150.833 621.285 150.93 621.093 151.17 621.077 151.507 621.237 151.779 621.349 151.972 621.542 152.132 621.798 152.196L642.563 157.76C642.515 157.392 642.483 157.023 642.483 156.638 642.483 154.714 643.156 152.95 644.279 151.571ZM647.293 163.982 647.293 217.569 653.707 217.569 653.707 164.062 653.595 164.03C652.649 164.431 651.606 164.655 650.5 164.655 649.362 164.655 648.271 164.415 647.293 163.982ZM636.069 220.776C635.187 220.776 634.466 221.497 634.466 222.379L634.466 223.983 666.534 223.983 666.534 222.379C666.534 221.497 665.813 220.776 664.931 220.776 655.31 220.776 645.69 220.776 636.069 220.776ZM632.125 182.293 624.813 161.368 617.1 182.293 632.125 182.293ZM637.672 186.51 637.672 185.5 612.017 185.5 612.017 186.51C615.144 189.974 620.243 191.914 624.845 191.914 629.447 191.914 634.546 189.974 637.672 186.51ZM650.5 151.828C647.838 151.828 645.69 153.976 645.69 156.638 645.69 159.3 647.838 161.448 650.5 161.448 653.162 161.448 655.31 159.3 655.31 156.638 655.31 153.976 653.162 151.828 650.5 151.828Z" fill="#003C50"/></g></svg>