<svg width="93" height="93" xmlns="http://www.w3.org/2000/svg" xmlns:xlink="http://www.w3.org/1999/xlink" xml:space="preserve" overflow="hidden"><g transform="translate(-731 -474)"><path d="M751.845 498.052 774.293 498.052 774.293 501.259 751.845 501.259 751.845 498.052ZM787.922 478.81C789.462 478.81 790.873 479.436 791.883 480.462L807.917 496.496C808.944 497.507 809.569 498.918 809.569 500.457L809.569 562.19 745.431 562.19 745.431 478.81 787.922 478.81ZM793.534 486.635 793.534 494.845 801.744 494.845 793.534 486.635ZM787.922 482.017 748.638 482.017 748.638 558.983 806.362 558.983 806.362 500.457C806.362 499.126 805.288 498.052 803.957 498.052L790.328 498.052 790.328 484.422C790.328 483.108 789.237 482.017 787.922 482.017ZM751.845 546.155 774.293 546.155 774.293 549.362 751.845 549.362 751.845 546.155ZM751.845 533.328 796.741 533.328 796.741 536.534 751.845 536.534 751.845 533.328ZM751.845 523.707 803.155 523.707 803.155 526.914 751.845 526.914 751.845 523.707ZM751.845 514.086 803.155 514.086 803.155 517.293 751.845 517.293 751.845 514.086ZM751.845 488.431 771.086 488.431 771.086 491.638 751.845 491.638 751.845 488.431Z" fill="#003C50"/></g></svg>