<svg width="93" height="94" xmlns="http://www.w3.org/2000/svg" xmlns:xlink="http://www.w3.org/1999/xlink" xml:space="preserve" overflow="hidden"><g transform="translate(-343 -265)"><path d="M30.4655 17.6379 30.4655 9.62069C30.4655 8.73879 31.1871 8.01724 32.069 8.01724L60.931 8.01724C61.8129 8.01724 62.5345 8.73879 62.5345 9.62069L62.5345 17.6379 59.3276 17.6379 59.3276 11.2241 33.6724 11.2241 33.6724 17.6379 30.4655 17.6379ZM60.931 46.5 70.5517 46.5C71.4336 46.5 72.1552 47.2215 72.1552 48.1034L72.1552 60.931C72.1552 61.8129 71.4336 62.5345 70.5517 62.5345L60.931 62.5345C60.0491 62.5345 59.3276 61.8129 59.3276 60.931L59.3276 48.1034C59.3276 47.2215 60.0491 46.5 60.931 46.5ZM68.9483 49.7069 62.5345 49.7069 62.5345 59.3276 68.9483 59.3276 68.9483 49.7069ZM22.4483 46.5 32.069 46.5C32.9509 46.5 33.6724 47.2215 33.6724 48.1034L33.6724 60.931C33.6724 61.8129 32.9509 62.5345 32.069 62.5345L22.4483 62.5345C21.5664 62.5345 20.8448 61.8129 20.8448 60.931L20.8448 48.1034C20.8448 47.2215 21.5664 46.5 22.4483 46.5ZM30.4655 49.7069 24.0517 49.7069 24.0517 59.3276 30.4655 59.3276 30.4655 49.7069ZM73.7586 49.7069 76.9655 49.7069C78.2964 49.7069 79.499 49.1617 80.3648 48.2959 81.2307 47.43 81.7759 46.2274 81.7759 44.8965L81.7759 25.6552C81.7759 25.2062 81.5995 24.8053 81.3109 24.5167L81.3109 24.5167C81.0222 24.2281 80.6214 24.0517 80.1724 24.0517L12.8276 24.0517C12.3786 24.0517 11.9778 24.2281 11.6891 24.5167L11.6891 24.5167C11.4005 24.8053 11.2241 25.2062 11.2241 25.6552L11.2241 44.8965C11.2241 46.2274 11.7693 47.43 12.6352 48.2959 13.501 49.1617 14.7036 49.7069 16.0345 49.7069L19.2414 49.7069 19.2414 52.9138 16.0345 52.9138C13.8217 52.9138 11.8174 52.0159 10.3743 50.5567 8.91517 49.1136 8.01724 47.1093 8.01724 44.8965L8.01724 25.6552C8.01724 24.3403 8.56241 23.1378 9.42828 22.2559L9.42828 22.2559C10.3102 21.39 11.5128 20.8448 12.8276 20.8448L80.1724 20.8448C81.4872 20.8448 82.6898 21.39 83.5717 22.2559L83.5717 22.2559C84.4376 23.1378 84.9828 24.3403 84.9828 25.6552L84.9828 44.8965C84.9828 47.1093 84.0848 49.1136 82.6257 50.5567 81.1826 52.0159 79.1783 52.9138 76.9655 52.9138L73.7586 52.9138 73.7586 49.7069ZM57.7241 52.9138 35.2759 52.9138 35.2759 49.7069 57.7241 49.7069 57.7241 52.9138ZM84.9828 52.7374 84.9828 76.9655C84.9828 78.2964 84.4376 79.499 83.5717 80.3648 82.7059 81.2307 81.5033 81.7759 80.1724 81.7759L12.8276 81.7759C11.5128 81.7759 10.3102 81.2307 9.42828 80.3648L9.42828 80.3648 9.42828 80.3648 9.42828 80.3488C8.54638 79.4829 8.01724 78.2803 8.01724 76.9655L8.01724 52.7374 8.09741 52.8336C9.01138 53.7315 10.0536 54.4852 11.2241 55.0303L11.2241 76.9655C11.2241 77.4145 11.4005 77.8153 11.6891 78.104L11.6891 78.104C11.9778 78.3926 12.3786 78.569 12.8276 78.569L80.1724 78.569C80.6053 78.569 81.0062 78.3926 81.3109 78.104 81.5995 77.7993 81.7759 77.3984 81.7759 76.9655L81.7759 55.0303C82.9464 54.4852 83.9886 53.7315 84.9026 52.8336L84.9828 52.7374Z" fill="#003C50" transform="matrix(1 0 0 1.01075 343 265)"/></g></svg>