<svg width="93" height="93" xmlns="http://www.w3.org/2000/svg" xmlns:xlink="http://www.w3.org/1999/xlink" xml:space="preserve" overflow="hidden"><g transform="translate(-207 -256)"><path d="M243.879 262.414C243.879 259.768 246.044 257.603 248.69 257.603L258.31 257.603C260.956 257.603 263.121 259.768 263.121 262.414L272.741 262.414 272.741 280.052 234.259 280.052 234.259 262.414 243.879 262.414ZM237.466 265.621 237.466 276.845 269.534 276.845 269.534 265.621 259.914 265.621 259.914 262.414C259.914 261.532 259.192 260.81 258.31 260.81L248.69 260.81C247.808 260.81 247.086 261.532 247.086 262.414L247.086 265.621 237.466 265.621ZM226.241 267.224 231.052 267.224 231.052 270.431 226.241 270.431C225.359 270.431 224.638 271.153 224.638 272.034L224.638 339.379C224.638 340.261 225.359 340.983 226.241 340.983L280.759 340.983C281.641 340.983 282.362 340.261 282.362 339.379L282.362 313.836 285.569 310.629 285.569 339.379C285.569 342.025 283.404 344.19 280.759 344.19L226.241 344.19C223.596 344.19 221.431 342.025 221.431 339.379L221.431 272.034C221.431 269.389 223.596 267.224 226.241 267.224ZM282.362 278.448 282.362 272.034C282.362 271.153 281.641 270.431 280.759 270.431L275.948 270.431 275.948 267.224 280.759 267.224C283.404 267.224 285.569 269.389 285.569 272.034L285.569 279.122C284.543 278.673 283.452 278.448 282.362 278.448ZM241.811 294.948 250.293 303.446 268.396 285.327 270.673 287.604 250.293 307.968 239.534 297.225 241.811 294.948ZM231.052 273.638C231.052 292.879 231.052 312.121 231.052 331.362L275.948 331.362 275.948 320.25 279.155 317.043 279.155 334.569 227.845 334.569 227.845 273.638 231.052 273.638ZM275.948 281.543C275.948 278.913 275.948 276.268 275.948 273.638L279.155 273.638 279.155 279.122C278.257 279.507 277.423 280.068 276.686 280.789L275.948 281.543ZM288.118 294.483 282.362 288.726 258.07 313.019 254.622 322.222 263.826 318.775 288.118 294.483ZM283.501 285.327 291.518 293.344C292.143 293.97 292.143 294.996 291.518 295.621L265.863 321.276C265.863 321.276 265.333 321.613 265.285 321.629L252.458 326.439C252.105 326.568 251.72 326.584 251.335 326.439 250.518 326.135 250.085 325.221 250.405 324.387L255.168 311.688C255.232 311.431 255.376 311.191 255.568 310.982L281.224 285.327C281.849 284.702 282.875 284.702 283.501 285.327Z" fill="#003C50"/></g></svg>