<svg width="94" height="94" xmlns="http://www.w3.org/2000/svg" xmlns:xlink="http://www.w3.org/1999/xlink" xml:space="preserve" overflow="hidden"><g transform="translate(-492 -556)"><path d="M522.793 606.241 522.793 598.138 522.793 596.517 524.414 596.517 560.069 596.517 561.69 596.517 561.69 598.138 561.69 606.241C561.69 613.405 562.079 618.98 563.456 624.49 564.85 630.017 567.232 635.576 571.203 642.739L572.548 645.138 569.793 645.138 514.69 645.138 511.934 645.138 513.28 642.739C517.25 635.576 519.633 630.017 521.027 624.49 522.404 618.98 522.793 613.405 522.793 606.241ZM526.034 599.759 526.034 606.241C526.034 613.664 525.613 619.434 524.154 625.268 522.874 630.438 520.767 635.592 517.412 641.897L567.07 641.897C563.716 635.592 561.609 630.438 560.328 625.268 558.87 619.434 558.448 613.664 558.448 606.241L558.448 599.759 526.034 599.759ZM559.518 590.683C559.583 591.007 559.631 591.331 559.664 591.655 559.745 592.271 559.777 592.887 559.777 593.503 559.777 593.924 559.761 594.394 559.745 594.897L556.503 594.897C556.52 594.443 556.536 593.989 556.536 593.503 556.536 592.984 556.503 592.498 556.455 592.028 556.39 591.542 556.309 591.056 556.195 590.586L556.001 589.727 556.617 589.094C556.99 588.706 557.33 588.284 557.638 587.83 557.946 587.377 558.205 586.907 558.432 586.404L558.691 585.869 559.226 585.61C560.944 584.832 562.387 583.552 563.391 581.996 564.364 580.456 564.931 578.641 564.931 576.712 564.931 573.99 563.829 571.542 562.062 569.76 559.242 566.956 554.964 566.129 551.317 567.653L550.361 568.058 549.599 567.377C547.282 565.254 544.283 564.103 541.139 564.103 538.627 564.103 536.212 564.833 534.122 566.227L533.182 566.859 532.274 566.194C531.334 565.53 530.281 564.995 529.179 564.638 528.093 564.282 526.942 564.103 525.743 564.103 524.025 564.103 522.372 564.492 520.897 565.206 519.39 565.919 518.061 566.972 516.991 568.301L515.97 569.581 514.706 568.512C514.09 568.009 513.377 567.588 512.615 567.312 511.886 567.053 511.092 566.907 510.249 566.907 508.337 566.907 506.619 567.669 505.371 568.917 504.123 570.181 503.345 571.899 503.345 573.811 503.345 575.4 503.88 576.875 504.787 578.041 505.711 579.224 507.024 580.116 508.531 580.505L509.309 580.699 509.617 581.429C510.281 582.952 511.367 584.249 512.729 585.14 514.041 585.999 515.63 586.518 517.348 586.518 518.871 586.518 519.86 586.177 521.237 585.594 521.642 585.74 522.031 585.902 522.453 586.031 522.89 586.161 523.328 586.258 523.782 586.372L524.122 586.988C524.543 587.782 525.078 588.495 525.694 589.127 526.326 589.775 527.023 590.326 527.801 590.78L528.725 591.315C528.66 591.85 528.579 592.384 528.547 592.919 528.53 593.065 528.53 593.26 528.53 593.503 528.53 593.908 528.579 594.394 528.628 594.897L525.37 594.897C525.321 594.427 525.289 593.94 525.289 593.503 525.289 593.357 525.289 593.195 525.305 593.017 524.608 592.53 523.976 591.996 523.377 591.38 522.728 590.715 522.145 589.97 521.642 589.143L521.513 589.111 521.318 589.046C520.783 589.24 520.232 589.402 519.681 589.516 518.903 589.662 518.109 589.759 517.348 589.759 514.998 589.759 512.793 589.046 510.962 587.83 509.277 586.728 507.899 585.205 506.975 583.406 505.079 582.774 503.442 581.574 502.227 580.019 500.898 578.301 500.103 576.145 500.103 573.811 500.103 571.008 501.238 568.463 503.069 566.632 504.917 564.8 507.445 563.666 510.249 563.666 511.448 563.666 512.631 563.877 513.717 564.282 514.333 564.509 514.933 564.784 515.5 565.125 516.651 563.958 518.012 563.001 519.503 562.288 521.416 561.365 523.539 560.862 525.743 560.862 527.25 560.862 528.741 561.105 530.167 561.559 531.237 561.899 532.274 562.385 533.247 562.969 535.629 561.591 538.384 560.862 541.139 560.862 544.721 560.862 548.222 562.094 551.026 564.33 551.512 564.168 552.03 564.022 552.549 563.925 553.392 563.747 554.267 563.666 555.142 563.666 558.724 563.666 561.998 565.125 564.348 567.491 566.714 569.857 568.172 573.115 568.172 576.712 568.172 579.273 567.427 581.688 566.114 583.73 564.882 585.659 563.164 587.231 561.122 588.3 560.879 588.77 560.604 589.208 560.312 589.646 560.069 590.002 559.81 590.342 559.518 590.683Z" fill="#003C50"/></g></svg>