<svg width="94" height="94" xmlns="http://www.w3.org/2000/svg" xmlns:xlink="http://www.w3.org/1999/xlink" xml:space="preserve" overflow="hidden"><g transform="translate(-133 -133)"><path d="M196.158 205.882C206.158 199.416 211.863 189.821 214.278 179.125 216.952 167.278 215.59 154.085 211.587 142.303 203.451 149.207 193.695 151.427 183.582 153.729 181.491 154.199 179.417 154.669 177.326 155.122 164.101 158.023 151.022 160.892 146.095 174.425 145.382 176.37 144.847 179.352 144.75 182.626 144.653 186.386 145.139 190.68 146.841 194.084 147.294 194.959 147.813 195.769 148.429 196.482L145.982 198.606C145.188 197.682 144.523 196.644 143.956 195.542 141.995 191.653 141.411 186.856 141.525 182.561 141.622 178.914 142.238 175.543 143.048 173.323 148.591 158.104 162.545 155.058 176.629 151.962 178.72 151.508 180.794 151.038 182.869 150.568 193.29 148.202 203.338 145.933 211.166 138.332L212.932 136.598 213.808 138.916C218.637 151.8 220.42 166.581 217.422 179.838 214.845 191.312 208.686 201.652 197.892 208.605 190.972 213.224 180.227 216.077 171.961 215.769 164.879 215.493 157.959 213.176 152.578 207.6 149.596 211.458 147.586 216.255 147.586 222.138L144.345 222.138C144.345 215.25 146.776 209.675 150.325 205.218 153.81 200.826 158.38 197.552 162.74 195.121 166.257 193.176 169.806 191.41 173.226 189.692 185.138 183.744 195.575 178.525 199.562 168.072L202.576 169.239C198.152 180.843 187.18 186.337 174.668 192.577 171.313 194.262 167.829 195.996 164.312 197.957 161.006 199.789 157.57 202.155 154.701 205.137 159.466 210.193 165.689 212.284 172.075 212.543 180.891 212.868 190.016 209.723 196.158 205.882Z" fill="#003C50"/></g></svg>