<svg width="94" height="93" xmlns="http://www.w3.org/2000/svg" xmlns:xlink="http://www.w3.org/1999/xlink" xml:space="preserve" overflow="hidden"><g transform="translate(-568 -473)"><path d="M52.5129 50.0917 57.5478 55.1265 55.2869 57.3874 50.2681 52.3686C45.4417 56.6979 39.06 59.3276 32.069 59.3276 17.0126 59.3276 4.81034 47.1253 4.81034 32.069 4.81034 17.0126 17.0126 4.81034 32.069 4.81034 47.1253 4.81034 59.3276 17.0126 59.3276 32.069 59.3276 38.9798 56.7621 45.2814 52.5129 50.0917ZM32.069 8.01724C18.7924 8.01724 8.01724 18.7924 8.01724 32.069 8.01724 45.3455 18.7924 56.1207 32.069 56.1207 45.3455 56.1207 56.1207 45.3455 56.1207 32.069 56.1207 18.7924 45.3455 8.01724 32.069 8.01724ZM63.8974 52.9298 88.8471 77.8795 77.8795 88.8471 52.9298 63.8974 63.8974 52.9298ZM63.8974 57.4676 57.4676 63.8974 77.8795 84.3253 84.3253 77.8795 63.8974 57.4676Z" fill="#003C50" transform="matrix(1.01075 0 0 1 568 473)"/></g></svg>