<svg width="48" height="49" viewBox="0 0 48 49" fill="none" xmlns="http://www.w3.org/2000/svg">
<path d="M16.5 3.31641H3V16.8164H6V6.31641H16.5V3.31641Z" fill="#FF6813"/>
<path d="M3 31.8164V45.3164H16.5V42.3164H6V31.8164H3Z" fill="#FF6813"/>
<path d="M45 16.8164V3.31641H31.5V6.31641H42V16.8164H45Z" fill="#FF6813"/>
<path d="M31.5 45.3164H45V31.8164H42V42.3164H31.5V45.3164Z" fill="#FF6813"/>
<path d="M38.235 15.5114L24.735 8.01141C24.507 7.87975 24.2483 7.81044 23.985 7.81044C23.7217 7.81044 23.463 7.87975 23.235 8.01141L9.735 15.5114C9.50888 15.6455 9.32196 15.8366 9.19297 16.0656C9.06397 16.2946 8.99742 16.5536 9 16.8164V31.8164C9.00046 32.0822 9.07153 32.3431 9.20595 32.5724C9.34037 32.8017 9.5333 32.9912 9.765 33.1214L23.265 40.6214C23.493 40.7531 23.7517 40.8224 24.015 40.8224C24.2783 40.8224 24.537 40.7531 24.765 40.6214L38.265 33.1214C38.4911 32.9874 38.678 32.7962 38.807 32.5672C38.936 32.3382 39.0026 32.0793 39 31.8164V16.8164C38.9995 16.5506 38.9285 16.2897 38.794 16.0604C38.6596 15.8311 38.4667 15.6416 38.235 15.5114ZM24 11.0264L34.41 16.8164L24 22.6064L13.59 16.8164L24 11.0264ZM12 19.3664L22.5 25.2014V36.7664L12 30.9314V19.3664ZM25.5 36.7664V25.2014L36 19.3664V30.9314L25.5 36.7664Z" fill="#FF6813"/>
</svg>
