<svg width="48" height="49" viewBox="0 0 48 49" fill="none" xmlns="http://www.w3.org/2000/svg">
<path d="M27 34.8159H24V31.8159C23.9987 30.6228 23.5242 29.479 22.6805 28.6354C21.8369 27.7918 20.6931 27.3172 19.5 27.3159H13.5C12.3069 27.3172 11.1631 27.7918 10.3195 28.6354C9.47584 29.479 9.00131 30.6228 9 31.8159V34.8159H6V31.8159C6.00234 29.8275 6.79327 27.9212 8.19929 26.5152C9.6053 25.1092 11.5116 24.3183 13.5 24.3159H19.5C21.4884 24.3183 23.3947 25.1092 24.8007 26.5152C26.2067 27.9212 26.9977 29.8275 27 31.8159V34.8159Z" fill="#FF6813"/>
<path d="M16.5 9.31592C17.39 9.31592 18.26 9.57984 19.0001 10.0743C19.7401 10.5688 20.3169 11.2716 20.6575 12.0938C20.9981 12.9161 21.0872 13.8209 20.9135 14.6938C20.7399 15.5667 20.3113 16.3686 19.682 16.9979C19.0526 17.6272 18.2508 18.0558 17.3779 18.2295C16.505 18.4031 15.6002 18.314 14.7779 17.9734C13.9557 17.6328 13.2529 17.056 12.7584 16.316C12.2639 15.576 12 14.7059 12 13.8159C12 12.6224 12.4741 11.4779 13.318 10.6339C14.1619 9.79002 15.3065 9.31592 16.5 9.31592ZM16.5 6.31592C15.0166 6.31592 13.5666 6.75579 12.3332 7.5799C11.0999 8.40401 10.1386 9.57535 9.5709 10.9458C9.00325 12.3162 8.85472 13.8242 9.14411 15.2791C9.4335 16.734 10.1478 18.0703 11.1967 19.1192C12.2456 20.1681 13.582 20.8824 15.0368 21.1718C16.4917 21.4612 17.9997 21.3127 19.3701 20.745C20.7406 20.1774 21.9119 19.2161 22.736 17.9827C23.5601 16.7493 24 15.2993 24 13.8159C24 11.8268 23.2098 9.91914 21.8033 8.51262C20.3968 7.10609 18.4891 6.31592 16.5 6.31592Z" fill="#FF6813"/>
<path d="M45 39.3161H3V42.3161H45V39.3161Z" fill="#FF6813"/>
<path d="M45 12.3159H42V9.31592H39V6.31592H45V12.3159Z" fill="#FF6813"/>
<path d="M28.5 6.31592H34.5V9.31592H31.5V12.3159H28.5V6.31592Z" fill="#FF6813"/>
<path d="M45 19.8161H42V22.8161H45V19.8161Z" fill="#FF6813"/>
<path d="M42 16.8161H39V19.8161H42V16.8161Z" fill="#FF6813"/>
<path d="M28.5 16.8159H31.5V19.8159H34.5V22.8159H28.5V16.8159Z" fill="#FF6813"/>
</svg>
