<svg width="48" height="49" viewBox="0 0 48 49" fill="none" xmlns="http://www.w3.org/2000/svg">
<path d="M40.5001 33.5293V15.1033C41.5235 14.8409 42.4592 14.3123 43.2123 13.5714C43.9653 12.8304 44.5089 11.9033 44.7878 10.8843C45.0668 9.86536 45.0711 8.7907 44.8004 7.76949C44.5297 6.74828 43.9937 5.81687 43.2466 5.06983C42.4996 4.32279 41.5682 3.78671 40.547 3.51602C39.5257 3.24534 38.4511 3.24968 37.4321 3.52861C36.4131 3.80754 35.4861 4.35112 34.7451 5.10418C34.0041 5.85723 33.4756 6.79294 33.2131 7.81631H14.7871C14.5247 6.79294 13.9962 5.85723 13.2552 5.10418C12.5142 4.35112 11.5872 3.80754 10.5682 3.52861C9.54919 3.24968 8.47454 3.24534 7.45333 3.51602C6.43212 3.78671 5.50071 4.32279 4.75367 5.06983C4.00663 5.81687 3.47055 6.74828 3.19986 7.76949C2.92918 8.7907 2.93352 9.86536 3.21245 10.8843C3.49138 11.9033 4.03496 12.8304 4.78802 13.5714C5.54107 14.3123 6.47678 14.8409 7.50014 15.1033V33.5293C6.47678 33.7917 5.54107 34.3203 4.78802 35.0612C4.03496 35.8022 3.49138 36.7293 3.21245 37.7483C2.93352 38.7673 2.92918 39.8419 3.19986 40.8631C3.47055 41.8843 4.00663 42.8157 4.75367 43.5628C5.50071 44.3098 6.43212 44.8459 7.45333 45.1166C8.47454 45.3873 9.54919 45.3829 10.5682 45.104C11.5872 44.8251 12.5142 44.2815 13.2552 43.5284C13.9962 42.7754 14.5247 41.8397 14.7871 40.8163H33.2131C33.4756 41.8397 34.0041 42.7754 34.7451 43.5284C35.4861 44.2815 36.4131 44.8251 37.4321 45.104C38.4511 45.3829 39.5257 45.3873 40.547 45.1166C41.5682 44.8459 42.4996 44.3098 43.2466 43.5628C43.9937 42.8157 44.5297 41.8843 44.8004 40.8631C45.0711 39.8419 45.0668 38.7673 44.7878 37.7483C44.5089 36.7293 43.9653 35.8022 43.2123 35.0612C42.4592 34.3203 41.5235 33.7917 40.5001 33.5293ZM39.0001 6.31631C39.5935 6.31631 40.1735 6.49225 40.6669 6.8219C41.1602 7.15154 41.5447 7.62008 41.7718 8.16826C41.9988 8.71643 42.0583 9.31963 41.9425 9.90158C41.8267 10.4835 41.541 11.0181 41.1215 11.4376C40.7019 11.8572 40.1674 12.1429 39.5854 12.2587C39.0035 12.3744 38.4003 12.315 37.8521 12.0879C37.3039 11.8609 36.8354 11.4764 36.5057 10.983C36.1761 10.4897 36.0001 9.90965 36.0001 9.31631C36.0011 8.52094 36.3174 7.75841 36.8798 7.19599C37.4422 6.63358 38.2048 6.31722 39.0001 6.31631ZM6.00014 9.31631C6.00014 8.72296 6.17609 8.14294 6.50574 7.6496C6.83538 7.15625 7.30392 6.77173 7.85209 6.54467C8.40027 6.3176 9.00347 6.25819 9.58541 6.37395C10.1674 6.48971 10.7019 6.77543 11.1215 7.19499C11.541 7.61454 11.8267 8.14909 11.9425 8.73104C12.0583 9.31298 11.9988 9.91618 11.7718 10.4644C11.5447 11.0125 11.1602 11.4811 10.6669 11.8107C10.1735 12.1404 9.59349 12.3163 9.00014 12.3163C8.20474 12.3155 7.44214 11.9992 6.8797 11.4367C6.31726 10.8743 6.00094 10.1117 6.00014 9.31631ZM9.00014 42.3163C8.4068 42.3163 7.82678 42.1404 7.33343 41.8107C6.84009 41.4811 6.45557 41.0125 6.2285 40.4644C6.00144 39.9162 5.94203 39.313 6.05779 38.731C6.17354 38.1491 6.45927 37.6145 6.87882 37.195C7.29838 36.7754 7.83293 36.4897 8.41487 36.3739C8.99682 36.2582 9.60002 36.3176 10.1482 36.5447C10.6964 36.7717 11.1649 37.1562 11.4946 37.6496C11.8242 38.1429 12.0001 38.723 12.0001 39.3163C11.9992 40.1117 11.6829 40.8742 11.1205 41.4366C10.558 41.999 9.79551 42.3154 9.00014 42.3163ZM33.2131 37.8163H14.7871C14.5185 36.785 13.9796 35.844 13.226 35.0904C12.4724 34.3369 11.5315 33.798 10.5001 33.5293V15.1033C11.5314 14.8345 12.4723 14.2956 13.2258 13.542C13.9794 12.7884 14.5184 11.8475 14.7871 10.8163H33.2131C33.4818 11.8476 34.0207 12.7886 34.7743 13.5422C35.5279 14.2958 36.4688 14.8347 37.5001 15.1033V33.5293C36.4688 33.7979 35.5278 34.3367 34.7742 35.0903C34.0206 35.8439 33.4817 36.785 33.2131 37.8163ZM39.0001 42.3163C38.4068 42.3163 37.8268 42.1404 37.3334 41.8107C36.8401 41.4811 36.4556 41.0125 36.2285 40.4644C36.0014 39.9162 35.942 39.313 36.0578 38.731C36.1735 38.1491 36.4593 37.6145 36.8788 37.195C37.2984 36.7754 37.8329 36.4897 38.4149 36.3739C38.9968 36.2582 39.6 36.3176 40.1482 36.5447C40.6964 36.7717 41.1649 37.1562 41.4946 37.6496C41.8242 38.1429 42.0001 38.723 42.0001 39.3163C41.9991 40.1116 41.6827 40.8741 41.1203 41.4364C40.5579 41.9988 39.7955 42.3152 39.0001 42.3163Z" fill="#FF6813"/>
</svg>
