<svg width="24" height="25" viewBox="0 0 24 25" fill="none" xmlns="http://www.w3.org/2000/svg">
<rect width="24" height="24" transform="translate(0 0.631836)" fill="white" fill-opacity="0.01" style="mix-blend-mode:multiply"/>
<path d="M19.5 10.3818C20.2954 10.3809 21.0579 10.0646 21.6203 9.50217C22.1828 8.93975 22.4991 8.17721 22.5 7.38184V5.13184H20.25C19.4821 5.13309 18.7443 5.43029 18.1899 5.96164C17.8014 5.25658 17.231 4.66857 16.538 4.25882C15.8451 3.84906 15.055 3.63256 14.25 3.63184H12V5.88184C12.0013 7.07491 12.4758 8.21874 13.3195 9.06237C14.1631 9.906 15.3069 10.3805 16.5 10.3818H17.25V20.1318H8.25V16.3818H9C9.79537 16.3809 10.5579 16.0646 11.1203 15.5022C11.6827 14.9398 11.9991 14.1772 12 13.3818V11.1318H9.75C8.98212 11.1331 8.24427 11.4303 7.6899 11.9616C7.30138 11.2566 6.73097 10.6686 6.03804 10.2588C5.34511 9.84906 4.55501 9.63256 3.75 9.63184H1.5V11.8818C1.50131 13.0749 1.97584 14.2187 2.81947 15.0624C3.6631 15.906 4.80693 16.3805 6 16.3818H6.75V20.1318H1.5V21.6318H22.5V20.1318H18.75V10.3818H19.5ZM18.75 8.13184C18.7504 7.73413 18.9086 7.35283 19.1898 7.07161C19.471 6.7904 19.8523 6.63223 20.25 6.63184H21V7.38184C20.9996 7.77954 20.8414 8.16084 20.5602 8.44206C20.279 8.72328 19.8977 8.88144 19.5 8.88184H18.75V8.13184ZM8.25 14.1318C8.2504 13.7341 8.40856 13.3528 8.68978 13.0716C8.971 12.7904 9.3523 12.6322 9.75 12.6318H10.5V13.3818C10.4996 13.7795 10.3414 14.1608 10.0602 14.4421C9.779 14.7233 9.3977 14.8814 9 14.8818H8.25V14.1318ZM6.75 14.8818H6C5.20462 14.8809 4.44208 14.5646 3.87967 14.0022C3.31725 13.4398 3.00089 12.6772 3 11.8818V11.1318H3.75C4.54538 11.1327 5.30792 11.4491 5.87033 12.0115C6.43275 12.5739 6.74911 13.3365 6.75 14.1318V14.8818ZM17.25 8.88184H16.5C15.7046 8.88094 14.9421 8.56458 14.3797 8.00217C13.8173 7.43975 13.5009 6.67721 13.5 5.88184V5.13184H14.25C15.0454 5.13273 15.8079 5.44909 16.3703 6.0115C16.9327 6.57392 17.2491 7.33646 17.25 8.13184V8.88184Z" fill="#1B1B1B"/>
</svg>
