<svg width="24" height="25" viewBox="0 0 24 25" fill="none" xmlns="http://www.w3.org/2000/svg">
<rect width="24" height="24" transform="translate(0 0.631836)" fill="white" fill-opacity="0.01" style="mix-blend-mode:multiply"/>
<path d="M3 15.6318V17.1318H6.4395L1.5 22.0713L2.5605 23.1318L7.5 18.1923V21.6318H9V15.6318H3Z" fill="#1B1B1B"/>
<path d="M19.5001 16.3818H18.0001V20.1318H19.5001V16.3818Z" fill="#1B1B1B"/>
<path d="M16.5001 12.6318H15.0001V20.1318H16.5001V12.6318Z" fill="#1B1B1B"/>
<path d="M13.5 14.1318H12V20.1318H13.5V14.1318Z" fill="#1B1B1B"/>
<path d="M21 2.13184H3C2.6023 2.13223 2.221 2.2904 1.93978 2.57161C1.65856 2.85283 1.5004 3.23413 1.5 3.63184V12.6318H3V10.3818H21.0007L21.0015 21.6318H12V23.1318H21C21.3977 23.1313 21.7789 22.9731 22.0601 22.6919C22.3413 22.4107 22.4995 22.0295 22.5 21.6318V3.63184C22.4995 3.23415 22.3414 2.85289 22.0602 2.57168C21.7789 2.29047 21.3977 2.13229 21 2.13184ZM9 8.88184H3V3.63184H9V8.88184ZM10.5 8.88184V3.63184H21L21.0005 8.88184H10.5Z" fill="#1B1B1B"/>
</svg>
