<svg width="160" height="161" viewBox="0 0 160 161" fill="none" xmlns="http://www.w3.org/2000/svg">
<path d="M75.0002 157.116H45.0002C44.0052 157.116 43.2002 156.311 43.2002 155.316V125.316C43.2002 124.321 44.0052 123.516 45.0002 123.516H75.0002C75.9952 123.516 76.8002 124.321 76.8002 125.316V155.316C76.8002 156.311 75.9952 157.116 75.0002 157.116ZM46.8002 153.516H73.2002V127.116H46.8002V153.516ZM115 117.116H85.0002C84.0052 117.116 83.2002 116.311 83.2002 115.316V85.3156C83.2002 84.3206 84.0052 83.5156 85.0002 83.5156H115C115.995 83.5156 116.8 84.3206 116.8 85.3156V115.316C116.8 116.311 115.995 117.116 115 117.116ZM86.8002 113.516H113.195V87.1156H86.8002V113.516ZM20.0002 37.1156C10.7352 37.1156 3.2002 29.5806 3.2002 20.3156C3.2002 11.0506 10.7352 3.51562 20.0002 3.51562C29.2652 3.51562 36.8002 11.0506 36.8002 20.3156C36.8002 29.5806 29.2652 37.1156 20.0002 37.1156ZM20.0002 7.11563C12.7202 7.11563 6.8002 13.0356 6.8002 20.3156C6.8002 27.5956 12.7202 33.5156 20.0002 33.5156C27.2802 33.5156 33.2002 27.5956 33.2002 20.3156C33.2002 13.0356 27.2802 7.11563 20.0002 7.11563ZM20.0002 157.116C10.7352 157.116 3.2002 149.576 3.2002 140.316C3.2002 131.056 10.7352 123.516 20.0002 123.516C29.2652 123.516 36.8002 131.051 36.8002 140.316C36.8002 149.581 29.2652 157.116 20.0002 157.116ZM20.0002 127.116C12.7202 127.116 6.8002 133.036 6.8002 140.316C6.8002 147.596 12.7202 153.516 20.0002 153.516C27.2802 153.516 33.2002 147.596 33.2002 140.316C33.2002 133.036 27.2802 127.116 20.0002 127.116ZM100 157.116C90.7352 157.116 83.2002 149.576 83.2002 140.316C83.2002 131.056 90.7352 123.516 100 123.516C109.265 123.516 116.8 131.056 116.8 140.316C116.8 149.576 109.265 157.116 100 157.116ZM100 127.116C92.7202 127.116 86.8002 133.036 86.8002 140.316C86.8002 147.596 92.7202 153.516 100 153.516C107.28 153.516 113.2 147.596 113.2 140.316C113.2 133.036 107.28 127.116 100 127.116ZM140 157.116C130.735 157.116 123.2 149.576 123.2 140.316C123.2 131.056 130.74 123.516 140 123.516C149.26 123.516 156.8 131.056 156.8 140.316C156.8 149.576 149.265 157.116 140 157.116ZM140 127.116C132.72 127.116 126.8 133.036 126.8 140.316C126.8 147.596 132.72 153.516 140 153.516C147.28 153.516 153.2 147.596 153.2 140.316C153.2 133.036 147.28 127.116 140 127.116ZM60.0002 117.116C50.7352 117.116 43.2002 109.576 43.2002 100.316C43.2002 91.0556 50.7352 83.5156 60.0002 83.5156C69.2652 83.5156 76.8002 91.0506 76.8002 100.316C76.8002 109.581 69.2652 117.116 60.0002 117.116ZM60.0002 87.1156C52.7202 87.1156 46.8002 93.0356 46.8002 100.316C46.8002 107.596 52.7252 113.516 60.0002 113.516C67.2752 113.516 73.2002 107.596 73.2002 100.316C73.2002 93.0356 67.2802 87.1156 60.0002 87.1156ZM157.32 117.116H122.68C122.035 117.116 121.445 116.771 121.12 116.211C120.795 115.651 120.8 114.971 121.12 114.416L138.44 84.4106C139.085 83.2956 140.91 83.2956 141.555 84.4106L158.875 114.416C159.195 114.971 159.195 115.656 158.875 116.211C158.555 116.766 157.965 117.116 157.32 117.116ZM125.795 113.516H154.205L140 88.9156L125.795 113.516ZM33.7302 69.0456L21.8002 80.9706V50.3156H18.2002V80.9706L6.2702 69.0456L3.7252 71.5906L20.0002 87.8606L36.2702 71.5906L33.7302 69.0456Z" fill="#FF6813"/>
</svg>
