<svg width="48" height="49" viewBox="0 0 48 49" fill="none" xmlns="http://www.w3.org/2000/svg">
<path d="M19.5 45.3159C15.1239 45.3159 10.9271 43.5775 7.83274 40.4832C4.73839 37.3888 3 33.192 3 28.8159C3 24.4398 4.73839 20.243 7.83274 17.1487C10.9271 14.0543 15.1239 12.3159 19.5 12.3159C19.8978 12.3159 20.2794 12.474 20.5607 12.7553C20.842 13.0366 21 13.4181 21 13.8159V27.3159H34.5C34.8978 27.3159 35.2794 27.474 35.5607 27.7553C35.842 28.0366 36 28.4181 36 28.8159C36 33.192 34.2616 37.3888 31.1673 40.4832C28.0729 43.5775 23.8761 45.3159 19.5 45.3159ZM18 15.4059C15.4728 15.6871 13.0764 16.6763 11.0867 18.2596C9.09705 19.8429 7.59498 21.956 6.75348 24.3555C5.91198 26.755 5.76526 29.3433 6.33021 31.8226C6.89517 34.3018 8.14883 36.5711 9.94685 38.3691C11.7449 40.1671 14.0141 41.4207 16.4933 41.9857C18.9726 42.5507 21.5609 42.4039 23.9605 41.5624C26.36 40.7209 28.473 39.2189 30.0563 37.2292C31.6396 35.2395 32.6288 32.8431 32.91 30.3159H21C20.2044 30.3159 19.4413 29.9998 18.8787 29.4372C18.3161 28.8746 18 28.1116 18 27.3159V15.4059Z" fill="#FF6813"/>
<path d="M42 21.3159H28.5C27.7043 21.3159 26.9413 20.9998 26.3787 20.4372C25.8161 19.8746 25.5 19.1116 25.5 18.3159V4.81592C25.5 4.41809 25.658 4.03656 25.9393 3.75526C26.2206 3.47395 26.6022 3.31592 27 3.31592C31.3761 3.31592 35.5729 5.05431 38.6673 8.14866C41.7616 11.243 43.5 15.4398 43.5 19.8159C43.5 20.2137 43.342 20.5953 43.0607 20.8766C42.7794 21.1579 42.3978 21.3159 42 21.3159ZM28.5 18.3159H40.41C40.0687 15.2747 38.7041 12.4397 36.5402 10.2757C34.3762 8.11177 31.5412 6.74726 28.5 6.40592V18.3159Z" fill="#FF6813"/>
</svg>
