<svg width="24" height="25" viewBox="0 0 24 25" fill="none" xmlns="http://www.w3.org/2000/svg">
<rect width="24" height="24" transform="translate(0 0.631836)" fill="white" fill-opacity="0.01" style="mix-blend-mode:multiply"/>
<path d="M17.0303 7.60167C16.9318 7.50309 16.8078 7.43391 16.6723 7.40189C16.5367 7.36987 16.3948 7.37628 16.2627 7.42039L9.5127 9.67039C9.40231 9.70727 9.302 9.76931 9.2197 9.85161C9.13739 9.93391 9.07535 10.0342 9.03848 10.1446L6.78848 16.8946C6.74438 17.0268 6.73797 17.1686 6.76996 17.3042C6.80195 17.4398 6.87108 17.5638 6.96959 17.6623C7.06811 17.7608 7.19212 17.83 7.32772 17.862C7.46332 17.894 7.60514 17.8875 7.7373 17.8434L14.4873 15.5934C14.5977 15.5565 14.698 15.4945 14.7803 15.4122C14.8626 15.3299 14.9246 15.2295 14.9615 15.1191L17.2115 8.36914C17.2556 8.237 17.2619 8.09521 17.2299 7.95966C17.1979 7.8241 17.1288 7.70014 17.0303 7.60167ZM8.68583 15.9461L10.3429 10.9748L13.6575 14.2893L8.68583 15.9461Z" fill="#1B1B1B"/>
<path d="M12 23.1318C9.9233 23.1318 7.89323 22.516 6.16652 21.3623C4.4398 20.2085 3.09399 18.5686 2.29927 16.65C1.50455 14.7314 1.29661 12.6202 1.70176 10.5834C2.1069 8.54659 3.10693 6.67567 4.57538 5.20722C6.04383 3.73877 7.91476 2.73874 9.95156 2.3336C11.9884 1.92845 14.0996 2.13639 16.0182 2.93111C17.9368 3.72583 19.5767 5.07164 20.7304 6.79835C21.8842 8.52507 22.5 10.5551 22.5 12.6318C22.4969 15.4157 21.3896 18.0845 19.4212 20.053C17.4527 22.0215 14.7838 23.1287 12 23.1318ZM12 3.63184C10.22 3.63184 8.47992 4.15968 6.99987 5.14861C5.51983 6.13755 4.36628 7.54316 3.68509 9.18769C3.0039 10.8322 2.82567 12.6418 3.17294 14.3877C3.5202 16.1335 4.37737 17.7371 5.63604 18.9958C6.89472 20.2545 8.49836 21.1116 10.2442 21.4589C11.99 21.8062 13.7996 21.6279 15.4442 20.9468C17.0887 20.2656 18.4943 19.112 19.4832 17.632C20.4722 16.1519 21 14.4119 21 12.6318C20.9973 10.2457 20.0482 7.95812 18.361 6.27088C16.6737 4.58364 14.3861 3.63456 12 3.63184Z" fill="#1B1B1B"/>
</svg>
