<?xml version="1.0" encoding="UTF-8"?>
<!DOCTYPE svg PUBLIC "-//W3C//DTD SVG 1.1//EN" "http://www.w3.org/Graphics/SVG/1.1/DTD/svg11.dtd">
<svg version="1.1" xmlns="http://www.w3.org/2000/svg" xmlns:xlink="http://www.w3.org/1999/xlink" x="0" y="0" width="126" height="57" viewBox="0, 0, 126, 57">
  <g id="Layer_1">
    <path d="M94.569,22.741 C92.161,23.893 89.752,23.741 89.752,23.741 C80.586,23.897 81.159,15.147 81.159,15.147 C81.317,5.507 89.279,6.085 89.279,6.085 C94.043,5.565 99.443,8.652 99.443,8.652 L99.443,2.468 C96.037,0.636 92.745,0.041 89.903,0.042 C84.621,0.043 80.897,2.105 80.897,2.105 C70.573,7.816 74.98,20.858 74.98,20.858 C78.071,29.977 89.331,29.76 89.331,29.76 C97.24,29.76 100.017,25.675 100.017,25.675 L100.017,13.995 L89.068,13.995 L91.166,19.285 L94.569,19.285 z M56.538,18.619 L54.65,23.599 L66.335,23.599 L68.808,29.41 L76.562,29.41 L63.768,0.392 L60.413,9.032 L64.394,18.619 z M53.814,0.392 L32.911,0.392 L32.911,29.41 L52.243,29.41 L54.414,24.172 L40.088,24.172 L40.088,17.151 L53.241,17.151 L53.241,11.756 L40.088,11.756 L40.088,5.735 L53.814,5.735 z M14.789,11.078 L23.223,0.392 L29.561,0.392 L29.561,29.41 L22.277,29.41 L22.277,11.446 L15.467,20.297 L14.263,20.297 L7.189,11.394 L7.189,29.41 L0.017,29.41 L0.017,0.392 L6.196,0.392 z" fill="#003D3F"/>
    <path d="M7.564,53.427 L4.614,44.259 L3.02,44.259 L0.016,53.427 L1.345,53.427 L2.143,50.836 L5.318,50.836 L6.129,53.427 z M5.039,49.774 L2.461,49.774 C2.621,49.335 3.591,46.053 3.724,45.534 L3.803,45.534 C3.923,46.066 4.88,49.348 5.039,49.774 M20.679,53.427 L19.895,44.272 L18.088,44.272 L16.493,49.959 C16.32,50.571 16.214,51.169 16.174,51.394 L16.148,51.394 C16.121,51.195 16.015,50.637 15.816,49.893 L14.275,44.272 L12.481,44.272 L11.657,53.427 L12.906,53.427 L13.371,47.368 C13.411,46.89 13.451,46.013 13.464,45.694 L13.491,45.694 C13.557,45.986 13.703,46.664 13.903,47.368 L15.577,53.427 L16.68,53.427 L18.5,47.076 C18.646,46.585 18.779,45.973 18.832,45.707 L18.859,45.707 C18.872,45.973 18.886,46.704 18.925,47.195 L19.404,53.427 z M28.15,52.989 C27.884,52.763 27.738,52.285 27.738,51.607 L27.738,46.598 L26.529,46.836 L26.529,51.62 C26.25,52.205 25.612,52.67 25.015,52.67 C24.722,52.67 24.416,52.537 24.243,52.377 C24.005,52.152 23.938,51.886 23.938,51.208 L23.938,46.571 L22.728,46.81 L22.728,51.54 C22.728,52.019 22.768,52.391 22.888,52.657 C23.167,53.268 23.831,53.653 24.682,53.653 C25.506,53.653 26.157,53.348 26.689,52.697 C26.808,53.148 26.981,53.401 27.313,53.653 z M35.098,53.427 L35.098,48.391 C35.098,48.086 35.044,47.793 34.938,47.554 C34.699,46.983 34.074,46.611 33.37,46.611 C32.958,46.611 32.519,46.717 32.134,46.943 C31.882,47.089 31.696,47.235 31.27,47.594 C31.27,47.182 31.204,46.89 31.045,46.571 L29.889,46.89 C30.075,47.368 30.141,47.674 30.141,48.471 L30.141,53.427 L31.35,53.427 L31.35,48.498 C31.802,48.02 32.519,47.647 32.998,47.647 C33.303,47.647 33.543,47.741 33.676,47.913 C33.835,48.126 33.888,48.338 33.888,48.936 L33.888,53.427 z M38.855,53.427 L38.855,46.611 L37.593,46.81 L37.593,53.427 z M39.108,44.724 C39.108,44.219 38.709,43.834 38.231,43.834 C37.752,43.834 37.366,44.233 37.366,44.724 C37.366,45.202 37.739,45.601 38.217,45.601 C38.709,45.601 39.108,45.202 39.108,44.724 M45.732,52.697 L45.134,51.939 C44.736,52.391 44.244,52.63 43.752,52.63 C43.366,52.63 43.035,52.484 42.795,52.231 C42.45,51.86 42.264,51.248 42.264,50.318 C42.264,49.401 42.357,48.737 42.583,48.285 C42.808,47.833 43.247,47.568 43.752,47.568 C44.178,47.568 44.483,47.701 44.922,48.086 L45.559,47.248 C45.055,46.783 44.47,46.544 43.752,46.544 C43.101,46.544 42.516,46.783 42.025,47.222 C41.387,47.793 40.909,48.657 40.909,50.159 C40.909,51.169 41.108,51.939 41.546,52.564 C42.011,53.228 42.729,53.56 43.686,53.56 C44.536,53.56 45.094,53.321 45.732,52.697 M52.411,53.427 L52.411,48.684 C52.411,48.086 52.384,47.913 52.278,47.607 C52.079,47.01 51.388,46.611 50.603,46.611 C50.111,46.611 49.646,46.744 49.155,47.063 C48.889,47.235 48.743,47.342 48.451,47.607 C48.477,47.262 48.49,46.956 48.49,46.717 L48.49,45.229 C48.49,44.578 48.437,44.086 48.345,43.688 L47.109,43.94 C47.202,44.325 47.255,44.763 47.255,45.335 L47.255,53.427 L48.49,53.427 L48.49,48.644 C49.009,48.046 49.686,47.674 50.258,47.674 C50.577,47.674 50.869,47.793 50.989,47.926 C51.122,48.072 51.214,48.391 51.214,48.856 L51.214,53.427 z M63.957,53.427 L62.628,51.315 C62.322,50.836 62.043,50.438 61.857,50.185 C61.578,49.813 61.458,49.667 61.06,49.335 L61.166,49.335 C62.628,49.335 63.504,48.219 63.504,46.823 C63.504,45.933 63.106,45.322 62.694,44.937 C62.255,44.525 61.618,44.272 60.528,44.272 L57.963,44.272 L57.963,53.427 L59.239,53.427 L59.239,49.375 C59.625,49.388 59.824,49.521 60.063,49.787 C60.714,50.517 60.94,50.903 61.644,52.072 C62.016,52.697 62.136,52.909 62.401,53.427 z M62.162,46.836 C62.162,47.368 61.99,47.807 61.711,48.072 C61.392,48.378 60.94,48.511 60.13,48.511 L59.239,48.511 L59.239,45.322 L60.196,45.322 C60.675,45.322 61.046,45.389 61.312,45.495 C61.817,45.694 62.162,46.199 62.162,46.836 M70.431,50.358 L70.431,50.145 C70.417,48.617 70.204,47.873 69.62,47.275 C69.155,46.797 68.557,46.557 67.812,46.557 C66.989,46.557 66.338,46.85 65.807,47.474 C65.235,48.152 65.009,48.896 65.009,50.053 C65.009,52.231 66.138,53.573 67.985,53.573 C68.849,53.573 69.633,53.294 70.284,52.724 L69.82,51.993 C69.34,52.418 68.809,52.63 68.184,52.63 C67.547,52.63 67.002,52.377 66.656,51.847 C66.457,51.527 66.377,51.089 66.377,50.517 L66.377,50.358 z M69.155,49.454 L66.391,49.454 C66.391,48.245 66.856,47.488 67.786,47.488 C68.211,47.488 68.53,47.687 68.743,47.953 C69.009,48.285 69.155,48.817 69.155,49.454 M79.878,52.697 L79.28,51.939 C78.881,52.391 78.39,52.63 77.898,52.63 C77.512,52.63 77.18,52.484 76.941,52.231 C76.596,51.86 76.41,51.248 76.41,50.318 C76.41,49.401 76.503,48.737 76.729,48.285 C76.954,47.833 77.393,47.568 77.898,47.568 C78.323,47.568 78.628,47.701 79.067,48.086 L79.705,47.248 C79.2,46.783 78.615,46.544 77.898,46.544 C77.247,46.544 76.662,46.783 76.171,47.222 C75.533,47.793 75.054,48.657 75.054,50.159 C75.054,51.169 75.254,51.939 75.692,52.564 C76.157,53.228 76.875,53.56 77.831,53.56 C78.682,53.56 79.24,53.321 79.878,52.697 M86.649,50.159 C86.649,48.152 85.692,46.585 83.726,46.585 C81.972,46.585 80.869,47.94 80.869,50.093 C80.869,52.258 81.972,53.613 83.752,53.613 C85.52,53.613 86.649,52.272 86.649,50.159 M85.28,50.212 C85.28,51.952 84.709,52.67 83.779,52.67 C82.742,52.67 82.224,51.993 82.224,49.959 C82.224,48.285 82.663,47.527 83.726,47.527 C84.682,47.527 85.28,48.152 85.28,50.212 M96.666,53.427 L96.666,48.458 C96.666,47.235 96.002,46.585 94.965,46.585 C94.288,46.585 93.597,46.93 92.933,47.634 C92.601,46.916 91.975,46.585 91.351,46.585 C90.727,46.585 90.049,46.93 89.478,47.527 C89.478,47.156 89.384,46.823 89.252,46.598 L88.109,46.877 C88.295,47.342 88.348,47.594 88.348,48.538 L88.348,53.427 L89.557,53.427 L89.557,48.431 C90.129,47.886 90.633,47.66 91.085,47.66 C91.696,47.66 91.909,47.94 91.909,48.684 L91.909,53.427 L93.105,53.427 L93.105,48.538 C93.61,48.032 94.049,47.634 94.66,47.634 C95.218,47.634 95.457,47.9 95.457,48.657 L95.457,53.427 z M104.396,49.986 C104.396,47.701 103.253,46.598 101.897,46.598 C101.193,46.598 100.529,46.903 100.011,47.527 C100.011,46.969 99.984,46.77 99.931,46.571 L98.749,46.77 C98.841,47.195 98.895,47.621 98.895,48.405 L98.895,56.231 L100.09,55.952 L100.09,53.613 C100.09,53.374 100.09,53.082 100.064,52.869 C100.582,53.334 101.18,53.56 101.791,53.56 C103.493,53.56 104.396,52.059 104.396,49.986 M103.081,50.132 C103.081,51.753 102.588,52.577 101.512,52.577 C101.021,52.577 100.502,52.285 100.09,51.847 L100.09,48.458 C100.542,47.926 101.087,47.634 101.685,47.634 C102.734,47.634 103.081,48.551 103.081,50.132 M111.393,52.883 C110.875,52.564 110.848,52.192 110.848,51.275 C110.848,50.305 110.902,49.282 110.902,48.803 C110.902,48.152 110.875,47.926 110.769,47.634 C110.516,46.93 109.812,46.571 108.842,46.571 C107.553,46.571 106.702,47.076 106.051,47.448 L106.609,48.325 C107.154,47.913 107.951,47.568 108.656,47.568 C109.586,47.568 109.692,48.099 109.692,48.883 L109.692,49.321 C109.52,49.308 109.387,49.308 109.228,49.308 C107.074,49.308 105.839,50.132 105.839,51.673 C105.839,52.949 106.662,53.627 107.992,53.627 C109.148,53.627 109.706,52.963 109.878,52.75 C110.038,53.215 110.357,53.547 110.769,53.706 z M109.666,50.159 L109.626,51.86 C109.32,52.391 108.789,52.736 108.23,52.736 C107.553,52.736 107.181,52.312 107.181,51.581 C107.181,51.142 107.274,50.903 107.526,50.611 C107.792,50.305 108.35,50.132 109.267,50.132 C109.374,50.132 109.48,50.145 109.666,50.159 M118.237,53.427 L118.237,48.391 C118.237,48.086 118.184,47.793 118.078,47.554 C117.839,46.983 117.215,46.611 116.51,46.611 C116.098,46.611 115.66,46.717 115.274,46.943 C115.021,47.089 114.835,47.235 114.41,47.594 C114.41,47.182 114.344,46.89 114.184,46.571 L113.029,46.89 C113.214,47.368 113.281,47.674 113.281,48.471 L113.281,53.427 L114.49,53.427 L114.49,48.498 C114.942,48.02 115.66,47.647 116.138,47.647 C116.444,47.647 116.683,47.741 116.816,47.913 C116.975,48.126 117.028,48.338 117.028,48.936 L117.028,53.427 z M125.584,46.77 L124.228,46.77 L123.046,50.703 C122.86,51.302 122.701,51.899 122.594,52.351 L122.514,52.351 C122.422,51.899 122.249,51.195 122.129,50.783 L120.854,46.598 L119.617,46.877 L121.092,51.248 C121.358,52.032 121.558,52.684 121.731,53.467 L122.209,53.401 C122.01,54.079 121.877,54.437 121.664,54.703 C121.332,55.115 120.987,55.341 120.508,55.461 L120.893,56.258 C121.345,56.165 121.81,55.952 122.129,55.686 C122.594,55.301 122.94,54.583 123.259,53.64 z" fill="#000000"/>
  </g>
</svg>
