<svg xmlns="http://www.w3.org/2000/svg" width="156.59" height="58.79" viewBox="0 0 156.59 58.79"><title>Element 6NEU</title><g id="f564e353-8d8d-47d8-80d7-7448bcd23039" data-name="Ebene 2"><g id="aee4c734-60d8-46c8-87d6-e31dec441515" data-name="Bildmarke"><path d="M156.59,57.68a1,1,0,0,0-1-1,1,1,0,0,0,0,2,1,1,0,0,0,1-1m-3.17.91V57.47h-.48c-.59,0-.79-.18-.79-1.21V52.62h1.27V51.39h-1.27V49.31h-1.21l-.36,2.08h-.8v1.23h.8v4.19c0,1.52.66,1.94,1.61,1.94a4.37,4.37,0,0,0,1.23-.16m-4.38,0V57.47h-.48c-.59,0-.78-.18-.78-1.21V52.62H149V51.39h-1.26V49.31h-1.21l-.37,2.08h-.8v1.23h.8v4.19c0,1.52.66,1.94,1.62,1.94a4.25,4.25,0,0,0,1.22-.16m-4.81,0V51.39h-2.4v1.23h.83v6Zm.16-9.4a1,1,0,1,0-1.94,0,1,1,0,1,0,1.94,0m-3.31,2.11a2,2,0,0,0-.63-.11c-.6,0-.94.39-1.5,1.38l-.14-1.2H137.6v7.22h1.57v-4.7c.58-.9.84-1.24,1.17-1.24a1.53,1.53,0,0,1,.56.13Zm-5.16,7.29V53.88c0-1.52-.6-2.67-2-2.67a2.08,2.08,0,0,0-1.78,1V48.06h-1.57V58.61h1.57v-5c.51-.74.86-1,1.33-1,.66,0,.87.62.87,1.67v4.42Zm-6.55-.24-.27-1.22a2.18,2.18,0,0,1-1.1.29c-.94,0-1.37-.83-1.37-2.48,0-1.47.42-2.43,1.35-2.43a2.18,2.18,0,0,1,1,.27l.33-1.21a3,3,0,0,0-1.47-.35c-1.74,0-2.86,1.35-2.86,3.88,0,2.22.87,3.64,2.68,3.64a3.55,3.55,0,0,0,1.69-.39M124,56.62c0-1-.41-1.56-1.62-2.29-.71-.45-.87-.74-.87-1.18a.74.74,0,0,1,.83-.73,3.2,3.2,0,0,1,1.14.25l.18-1.23a4.52,4.52,0,0,0-1.46-.23,2,2,0,0,0-2.28,2.09c0,1,.45,1.55,1.48,2.2.77.49,1,.8,1,1.25s-.32.8-.91.8a3.41,3.41,0,0,1-1.35-.32l-.21,1.29a5.27,5.27,0,0,0,1.7.27A2.12,2.12,0,0,0,124,56.62m-5.13,2V57.47h-.48c-.59,0-.79-.18-.79-1.21V52.62h1.27V51.39h-1.27V49.31H116.4L116,51.39h-.8v1.23h.8v4.19c0,1.52.66,1.94,1.61,1.94a4.37,4.37,0,0,0,1.23-.16m-4.26-7.27a2.1,2.1,0,0,0-.64-.11c-.6,0-.94.39-1.5,1.38l-.14-1.2h-1.21v7.22h1.57v-4.7c.58-.9.85-1.24,1.17-1.24a1.49,1.49,0,0,1,.56.13Zm-6.53,3.76c0,1.46-.38,2.43-1.26,2.43s-1.31-.89-1.31-2.57c0-1.45.38-2.45,1.26-2.45s1.31.9,1.31,2.59m1.65-.14c0-2.34-1-3.73-2.89-3.73s-3,1.45-3,3.9,1,3.68,2.87,3.68,3-1.45,3-3.85M103,50.1V48.79H98.63v9.82h1.64V54.36h2.43V53.07h-2.43v-3Zm-9.39,8.51V53.88c0-1.52-.6-2.67-2-2.67a2.33,2.33,0,0,0-2,1.12l-.12-.94H88.28v7.22h1.57v-5c.51-.74.86-1,1.32-1,.67,0,.88.62.88,1.67v4.42Zm-8.35-4.38H83c0-.95.35-1.88,1.23-1.88.71,0,1.07.72,1,1.88m1.54.3c0-2.08-.7-3.32-2.53-3.32s-2.89,1.46-2.89,3.84,1,3.74,2.91,3.74a7.33,7.33,0,0,0,2.33-.39l-.17-1.21a6.2,6.2,0,0,1-1.94.33c-1.12,0-1.5-.81-1.5-2.2H86.8c0-.27,0-.62,0-.79m-6.06-3.21a2,2,0,0,0-.63-.11c-.61,0-.94.39-1.51,1.38l-.14-1.2h-1.2v7.22h1.57v-4.7c.58-.9.84-1.24,1.17-1.24a1.57,1.57,0,0,1,.56.13Zm-6.49,2.91H72c0-.95.35-1.88,1.23-1.88.71,0,1.06.72,1,1.88m1.54.3c0-2.08-.7-3.32-2.53-3.32s-2.9,1.46-2.9,3.84,1,3.74,2.92,3.74a7.38,7.38,0,0,0,2.33-.39l-.17-1.21a6.2,6.2,0,0,1-1.94.33c-1.13,0-1.51-.81-1.51-2.2h3.79c0-.27,0-.62,0-.79M69,58.61V51.39h-2.4v1.23h.83v6Zm.16-9.4a1,1,0,1,0-1,1,.94.94,0,0,0,1-1m-3.34,9.4V57.33H63.26l2.39-4.71V51.39h-4v1.28H63.9l-2.41,4.71v1.23Zm-5.61,0V53.88c0-1.52-.6-2.67-2-2.67a2.33,2.33,0,0,0-2,1.12l-.12-.94H54.85v7.22h1.57v-5c.51-.74.86-1,1.33-1,.66,0,.87.62.87,1.67v4.42Zm-8.6-1.86c-.36.48-.72.86-1.2.86s-.84-.42-.84-1a1.09,1.09,0,0,1,1.23-1.21h.81Zm1.54,1.86v-5a2.18,2.18,0,0,0-2.5-2.41,5.4,5.4,0,0,0-2.18.49l.27,1.14a4.09,4.09,0,0,1,1.71-.42c.9,0,1.16.44,1.16,1.36v.54h-.71c-1.76,0-2.88.72-2.88,2.33a1.93,1.93,0,0,0,2,2.14,2.24,2.24,0,0,0,1.82-1l.1.78Zm-6.44,0V53.88c0-1.52-.6-2.67-2-2.67a2.33,2.33,0,0,0-2,1.12l-.12-.94H41.35v7.22h1.57v-5c.51-.74.86-1,1.32-1,.67,0,.88.62.88,1.67v4.42Zm-7.06,0V51.39H36v-.71c0-.82,0-1.54.84-1.54h.47V48a3.3,3.3,0,0,0-.9-.11c-1.49,0-2,1.09-2,2.81v.67h-.83v1.23h.83v6H36v-6h2.1v6Zm.14-9.4a1,1,0,0,0-1-1,1,1,0,0,0,0,2,1,1,0,0,0,1-1m-10,2.11a2.05,2.05,0,0,0-.64-.11c-.6,0-.94.39-1.5,1.38l-.14-1.2H26.3v7.22h1.57v-4.7c.58-.9.85-1.24,1.17-1.24a1.49,1.49,0,0,1,.56.13Zm-5.22,7.29V51.39h-2.4v1.23H23v6Zm.15-9.4a.94.94,0,0,0-1-1,1,1,0,1,0,1,1m-3.27-.42H19.8c-.27,2.46-.7,5.2-1.26,8h0l-1.5-8H15.15l-1.45,8h0c-.48-2.45-1-5.4-1.27-8H10.61c.43,3.18,1.05,6.5,1.82,9.82h2.24L16,51.11h0l1.37,7.5h2.21c.79-3.43,1.39-6.61,1.86-9.82" style="fill:#002065"/><polygon points="22.45 27.15 29.17 27.15 36.08 16.78 29.17 6.41 22.45 6.41 29.36 16.78 22.45 27.15" style="fill:#002065"/><polygon points="22.37 16.78 11.19 33.55 0 16.78 11.19 0 22.37 16.78" style="fill:#0782bc"/><path d="M54.75,27.15H49.52V6.41h5c3.78,0,5.92,1.75,5.92,5.17,0,2.2-.89,3.71-2.41,4.37,2,.41,3.36,2.31,3.36,5C61.41,25.25,58.35,27.15,54.75,27.15ZM54.4,9.05H52.91v6h1.75c1.67,0,2.29-1.24,2.29-3S56.18,9.05,54.4,9.05Zm.29,8.65H52.91v6.74H55c1.75,0,2.76-1.16,2.76-3.35S56.86,17.7,54.69,17.7Z" style="fill:#0782bc"/><path d="M71.69,27.15l-.21-1.64a4.77,4.77,0,0,1-3.86,2c-2.47,0-4.22-1.6-4.22-4.51,0-3.42,2.38-4.94,6.09-4.94H71V17c0-2-.53-2.89-2.43-2.89a8.88,8.88,0,0,0-3.63.89l-.56-2.4a11.33,11.33,0,0,1,4.6-1c3.75,0,5.29,2,5.29,5.08V27.15ZM71,20.28H69.28a2.33,2.33,0,0,0-2.61,2.56c0,1.31.59,2.2,1.78,2.2,1,0,1.78-.8,2.52-1.81Z" style="fill:#0782bc"/><path d="M84.08,27.15c-2,5.11-3.68,6.39-5.85,6.39a4.71,4.71,0,0,1-1.73-.3l.12-2.44H78c.92,0,1.48-.71,2.49-3.53A96.76,96.76,0,0,1,76.33,11.9H79.8c.71,4.13,1.64,7.94,2.65,11.65h.06A103.76,103.76,0,0,0,84.7,11.9H88A86.07,86.07,0,0,1,84.08,27.15Z" style="fill:#0782bc"/><path d="M100.93,20.19h-8c0,2.95.81,4.67,3.18,4.67a12.84,12.84,0,0,0,4.1-.71l.36,2.55a14.89,14.89,0,0,1-4.93.83c-4.13,0-6.15-2.61-6.15-7.9,0-5,2.11-8.11,6.12-8.11,3.86,0,5.35,2.61,5.35,7C101,18.89,100.93,19.63,100.93,20.19Zm-5.44-6.27c-1.84,0-2.5,2-2.59,4h4.79C97.75,15.44,97,13.92,95.49,13.92Z" style="fill:#0782bc"/><path d="M110.88,14.88a3.42,3.42,0,0,0-1.19-.27c-.68,0-1.25.71-2.46,2.61v9.93H103.9V11.9h2.55l.3,2.53c1.19-2.08,1.9-2.91,3.18-2.91a4.21,4.21,0,0,1,1.34.24Z" style="fill:#0782bc"/><path d="M121.64,27.15V17.82c0-2.23-.45-3.54-1.85-3.54-1,0-1.72.66-2.79,2.23V27.15h-3.33V11.9h2.56l.27,2a4.89,4.89,0,0,1,4.16-2.38c3,0,4.3,2.43,4.3,5.64v10Z" style="fill:#0782bc"/><path d="M132,27.15V6.66h3.44V24.3h5.49v2.85Z" style="fill:#0782bc"/><path d="M148.65,27.15h-5.16V6.66h5c3.72,0,5.84,1.73,5.84,5.11,0,2.17-.88,3.67-2.38,4.31,1.94.41,3.32,2.29,3.32,4.91C155.23,25.27,152.2,27.15,148.65,27.15ZM148.3,9.27h-1.47v6h1.73c1.65,0,2.26-1.23,2.26-3S150.06,9.27,148.3,9.27Zm.29,8.54h-1.76v6.67h2.09c1.73,0,2.73-1.15,2.73-3.32S150.74,17.81,148.59,17.81Z" style="fill:#0782bc"/></g></g></svg>