<svg width="55" height="16" viewBox="0 0 55 16" fill="none" xmlns="http://www.w3.org/2000/svg">
<path fill-rule="evenodd" clip-rule="evenodd" d="M1 0C0.447715 0 0 0.447715 0 1V15C0 15.5523 0.447715 16 1 16H15C15.5523 16 16 15.5523 16 15V1C16 0.447715 15.5523 0 15 0H1ZM11.581 2H4.5143L3.10476 9.11125L2 14H3.21905L4.30476 9.1068H5.27619L4.4 13.8058H5.61905L6.45714 9.1068H7.44762L7.06667 13.6117H8.28572L8.62857 9.1068H9.33333L9.84762 13.8058H11.0667L10.4762 9.1068H11.8857L12.781 12.0194H14L12.8381 8.29126L11.581 2Z" fill="#8AB4B1"/>
<path d="M19.5 1.31714H24.6037V2.91089H21.5243V6.90308H23.9394V8.49683H21.5243V13.0671H24.6037V14.6609H19.5V1.31714Z" fill="#8AB4B1"/>
<path d="M25.1393 11.9578C25.1393 11.6713 25.1549 11.4057 25.1862 11.1609C25.2226 10.9161 25.2747 10.6557 25.3425 10.3796H26.9134V10.9734C26.9134 11.6921 27.0229 12.2442 27.2417 12.6296C27.4606 13.0098 27.7966 13.2 28.2499 13.2C29.0315 13.2 29.4223 12.8171 29.4223 12.0515C29.4223 11.7546 29.3572 11.4421 29.2269 11.114C29.1019 10.7859 28.8544 10.3848 28.4844 9.91089L26.3742 7.26245C26.0042 6.78328 25.715 6.30412 25.5066 5.82495C25.3034 5.34578 25.2018 4.81193 25.2018 4.22339C25.2018 3.33797 25.4753 2.61401 26.0224 2.05151C26.5748 1.48381 27.3381 1.19995 28.3125 1.19995C29.0993 1.19995 29.7167 1.34318 30.1648 1.62964C30.6129 1.91089 30.9282 2.26766 31.1105 2.69995C31.2981 3.13224 31.3919 3.57495 31.3919 4.02808C31.3919 4.31453 31.3685 4.58016 31.3216 4.82495C31.2799 5.06453 31.2304 5.33016 31.1731 5.62183H29.6099V4.9812C29.6099 4.27808 29.4979 3.73641 29.2738 3.3562C29.0498 2.97599 28.7293 2.78589 28.3125 2.78589C27.9321 2.78589 27.6429 2.89266 27.4449 3.1062C27.2521 3.31453 27.1557 3.59578 27.1557 3.94995C27.1557 4.25203 27.2183 4.52808 27.3433 4.77808C27.4684 5.02287 27.6273 5.27547 27.8201 5.53589L30.1726 8.52026C30.6051 9.07756 30.9334 9.60881 31.1574 10.114C31.3867 10.614 31.5013 11.1713 31.5013 11.7859C31.5013 12.7078 31.2069 13.4395 30.6181 13.9812C30.0293 14.5177 29.2452 14.7859 28.2656 14.7859C27.4632 14.7859 26.8327 14.6505 26.3742 14.3796C25.9208 14.1036 25.6004 13.7494 25.4128 13.3171C25.2304 12.8848 25.1393 12.4317 25.1393 11.9578Z" fill="#8AB4B1"/>
<path d="M32.8888 1.31714H34.9131V7.14526H34.9756L37.2891 1.31714H39.3056L36.7342 7.57495L39.5947 14.6609H37.4298L34.9756 8.30933H34.9131V14.6609H32.8888V1.31714Z" fill="#8AB4B1"/>
<path d="M43.6239 14.7781C43.3947 14.7781 43.1368 14.7546 42.8502 14.7078C42.5688 14.6661 42.2874 14.5723 42.0061 14.4265C41.7247 14.2755 41.4668 14.0489 41.2323 13.7468C40.9978 13.4395 40.8076 13.0281 40.6618 12.5125C40.5211 11.9968 40.4507 11.3458 40.4507 10.5593V1.31714H42.475V11.0359C42.475 11.864 42.5662 12.4317 42.7486 12.739C42.9362 13.0411 43.2279 13.1921 43.6239 13.1921C44.0252 13.1921 44.3169 13.0411 44.4993 12.739C44.6869 12.4317 44.7807 11.864 44.7807 11.0359V1.31714H46.7972V10.5593C46.7972 11.3458 46.7242 11.9968 46.5783 12.5125C46.4376 13.0281 46.2501 13.4395 46.0156 13.7468C45.7811 14.0489 45.5232 14.2755 45.2418 14.4265C44.9604 14.5723 44.6791 14.6661 44.3977 14.7078C44.1163 14.7546 43.8584 14.7781 43.6239 14.7781Z" fill="#8AB4B1"/>
<path d="M50.2245 1.31714H52.5068L55 14.6609H52.9679L52.6005 12.2703H50.1308L49.779 14.6609H47.7391L50.2245 1.31714ZM52.3661 10.7468L51.4125 4.06714H51.3266L50.3652 10.7468H52.3661Z" fill="#8AB4B1"/>
</svg>
