<svg width="740" height="200" viewBox="0 0 740 200" fill="none" xmlns="http://www.w3.org/2000/svg">
<path d="M35.3703 93.4577L0 113.381L45.5145 0L103.493 8.50495C92.5825 44.5437 68.1777 74.9778 35.3703 93.4577Z" fill="black"/>
<path d="M9.17151 126.222L160.551 200L169.553 111.269L151.132 102.689C113.439 84.3806 70.4367 86.6363 35.3703 109.578L9.17151 126.222Z" fill="black"/>
<path d="M109.806 32.8201L117.926 10.6521L179.348 19.5489L170.957 96.886L127.337 76.7842C110.704 69.1189 103.493 50.6548 109.806 32.8201Z" fill="black"/>
<path fill-rule="evenodd" clip-rule="evenodd" d="M345.898 86.8776L323.362 86.9779V107.385L346.289 107.284L408.334 166.732H437.803L364.903 96.8858L437.803 27.04H408.334L345.898 86.8776ZM313.283 166.732V27.04H292.876V166.732H313.283ZM521.449 70.9299L535.083 87.0827L589.094 27.04H562.187L521.449 70.9299ZM526.93 166.732V93.3052L471.221 27.04H444.494L506.523 100.086V166.732H526.93ZM740 27.04H690.386V47.4467H740V27.04ZM659.951 166.732H680.358V27.04H600.308V47.4467H659.951V166.732Z" fill="black"/>
</svg>
