<?xml version="1.0" encoding="UTF-8"?>
<svg xmlns="http://www.w3.org/2000/svg" id="Ebene_1" viewBox="0 0 712.12 137.84">
  <defs>
    <style>.cls-1{fill:#004f9f;}</style>
  </defs>
  <path class="cls-1" d="M15.94,2.28V77.44H54.03v14.43H0V2.28H15.94Z"></path>
  <path class="cls-1" d="M108.44,2.28l38.59,89.59h-18.22l-8.35-20.5h-38.85l-8.1,20.5h-17.84L94.65,2.28h13.79Zm-21.39,55.42h27.84l-13.79-36.44-14.05,36.44Z"></path>
  <path class="cls-1" d="M172.59,2.28V91.87h-15.94V2.28h15.94Z"></path>
  <path class="cls-1" d="M339.86,94.15c-27.58,0-47.07-18.98-47.07-46.69C292.79,21.64,309.49,0,340.75,0c28.34,0,47.07,18.98,47.07,46.94s-20.37,47.2-47.96,47.2Zm.38-14.43c19.36,0,30.88-15.06,30.88-33.28s-12.65-32.01-31-32.01-30.62,14.3-30.62,32.01,11.51,33.28,30.75,33.28Z"></path>
  <path class="cls-1" d="M424.13,2.28l43.4,66.56h.25V2.28h15.94V91.87h-20.25l-44.29-68.71h-.25V91.87h-15.94V2.28h21.13Z"></path>
  <path class="cls-1" d="M583.94,2.28l38.59,89.59h-18.22l-8.35-20.5h-38.85l-8.1,20.5h-17.84L570.15,2.28h13.79Zm-21.39,55.42h27.84l-13.79-36.44-14.05,36.44Z"></path>
  <path class="cls-1" d="M710.35,11.26l-11.77,11.89c-6.07-5.82-15.06-8.73-23.41-8.73-18.35,0-30.75,14.17-30.75,32.01s11.64,33.28,30.88,33.28c6.71,0,14.55-1.14,20.88-4.68v-21.13h-18.35v-14.42h34.29v45.81c-11.89,6.33-24.42,8.86-36.95,8.86-27.84,0-47.45-18.98-47.45-46.69S646.95,0,675.17,0c12.4,0,25.69,2.66,35.18,11.26Z"></path>
  <g>
    <path class="cls-1" d="M41.74,106.64h3.5l-10.76,30.85h-3.06l-8.8-25.25-8.8,25.25h-3.02L0,106.64H3.63l8.75,25.77,8.97-25.77,2.71,.04,8.84,25.77,8.84-25.82Z"></path>
    <path class="cls-1" d="M65.41,127.38h-15.58c.12,2.48,.79,4.35,2.01,5.62s2.96,1.9,5.21,1.9c2.48,0,4.76-.85,6.83-2.54l1.18,2.58c-.93,.87-2.13,1.57-3.59,2.08-1.46,.51-2.95,.77-4.46,.77-3.33,0-5.94-.98-7.86-2.93-1.91-1.95-2.87-4.65-2.87-8.09,0-2.19,.42-4.12,1.27-5.8s2.04-2.98,3.57-3.92c1.53-.93,3.27-1.4,5.23-1.4,2.83,0,5.05,.93,6.65,2.78,1.6,1.85,2.41,4.4,2.41,7.64v1.31Zm-13.5-7.22c-1.12,1.17-1.79,2.81-1.99,4.94h12.38c-.06-2.16-.6-3.81-1.62-4.97-1.02-1.15-2.45-1.73-4.29-1.73s-3.36,.58-4.48,1.75Z"></path>
    <path class="cls-1" d="M85.34,117.73c1.33,1.39,1.99,3.49,1.99,6.32v13.43h-3.46v-3.63c-.56,1.26-1.4,2.23-2.54,2.91-1.14,.69-2.45,1.03-3.94,1.03-1.37,0-2.63-.28-3.78-.83-1.15-.55-2.07-1.33-2.73-2.32-.67-.99-1.01-2.09-1.01-3.28,0-1.6,.41-2.85,1.23-3.74,.82-.89,2.16-1.53,4.03-1.92,1.87-.39,4.46-.59,7.79-.59h.96v-1.44c0-1.78-.36-3.07-1.09-3.87-.73-.8-1.91-1.2-3.54-1.2-2.45,0-4.89,.76-7.31,2.28l-1.18-2.58c1.11-.79,2.44-1.42,4-1.9,1.56-.48,3.07-.72,4.53-.72,2.71,0,4.73,.69,6.06,2.08Zm-3.15,15.49c1.12-1.18,1.68-2.71,1.68-4.57v-1.27h-.79c-2.57,0-4.52,.11-5.86,.33s-2.3,.58-2.87,1.09c-.57,.51-.85,1.26-.85,2.25,0,1.14,.42,2.08,1.25,2.82,.83,.74,1.87,1.12,3.13,1.12,1.75,0,3.19-.59,4.31-1.77Z"></path>
    <path class="cls-1" d="M93.81,137.49v-30.85h3.54v30.85h-3.54Z"></path>
    <path class="cls-1" d="M115.25,134.82l-.17,2.8c-.67,.12-1.4,.17-2.19,.17-2.57,0-4.5-.67-5.8-2.01-1.3-1.34-1.95-3.21-1.95-5.6v-11.2h-4.16v-2.8h4.16v-6.48h3.54v6.48h6.04v2.8h-6.04v10.94c0,3.36,1.55,5.03,4.64,5.03,.64,0,1.28-.04,1.93-.13Z"></path>
    <path class="cls-1" d="M137.22,124.1v13.39h-3.54v-13.17c0-1.98-.39-3.43-1.16-4.33s-2-1.36-3.7-1.36c-1.95,0-3.52,.6-4.68,1.79-1.17,1.2-1.75,2.82-1.75,4.86v12.21h-3.54v-30.85h3.54v12.95c.7-1.28,1.67-2.26,2.91-2.93s2.66-1.01,4.27-1.01c5.1,0,7.66,2.81,7.66,8.44Z"></path>
    <path class="cls-1" d="M143.17,133.03h4.46v4.46h-4.46v-4.46Z"></path>
    <path class="cls-1" d="M186.88,106.64h3.37v30.85h-2.76l-18.6-24.81v24.81h-3.37v-30.85h2.76l18.6,24.81v-24.81Z"></path>
    <path class="cls-1" d="M215.19,127.38h-15.58c.12,2.48,.79,4.35,2.01,5.62s2.96,1.9,5.21,1.9c2.48,0,4.76-.85,6.83-2.54l1.18,2.58c-.93,.87-2.13,1.57-3.59,2.08-1.46,.51-2.95,.77-4.46,.77-3.33,0-5.94-.98-7.86-2.93-1.91-1.95-2.87-4.65-2.87-8.09,0-2.19,.42-4.12,1.27-5.8s2.04-2.98,3.57-3.92c1.53-.93,3.27-1.4,5.23-1.4,2.83,0,5.05,.93,6.65,2.78,1.6,1.85,2.41,4.4,2.41,7.64v1.31Zm-13.5-7.22c-1.12,1.17-1.79,2.81-1.99,4.94h12.38c-.06-2.16-.6-3.81-1.62-4.97-1.02-1.15-2.45-1.73-4.29-1.73s-3.36,.58-4.48,1.75Z"></path>
    <path class="cls-1" d="M230.24,126.51l8.84,10.98h-4.29l-6.65-8.31-6.61,8.31h-4.33l8.84-10.98-8.31-10.33h4.29l6.12,7.74,6.13-7.74h4.33l-8.36,10.33Z"></path>
    <path class="cls-1" d="M254.05,134.82l-.17,2.8c-.67,.12-1.4,.17-2.19,.17-2.57,0-4.5-.67-5.8-2.01-1.3-1.34-1.95-3.21-1.95-5.6v-11.2h-4.16v-2.8h4.16v-6.48h3.54v6.48h6.04v2.8h-6.04v10.94c0,3.36,1.55,5.03,4.64,5.03,.64,0,1.28-.04,1.93-.13Z"></path>
    <path class="cls-1" d="M293.86,121.43v14.26c-1.23,.64-2.82,1.16-4.79,1.55-1.97,.39-3.96,.59-5.97,.59-3.06,0-5.7-.63-7.92-1.88-2.22-1.25-3.92-3.06-5.1-5.43-1.18-2.36-1.77-5.19-1.77-8.49s.58-6.08,1.75-8.44c1.17-2.36,2.85-4.17,5.03-5.43,2.19-1.25,4.77-1.88,7.74-1.88,2.16,0,4.14,.33,5.95,.98,1.81,.66,3.35,1.63,4.64,2.91l-1.36,2.76c-1.49-1.28-2.95-2.2-4.4-2.76s-3.06-.83-4.84-.83c-3.47,0-6.14,1.09-8.01,3.28-1.87,2.19-2.8,5.32-2.8,9.41s.95,7.34,2.85,9.52c1.89,2.17,4.67,3.26,8.31,3.26,2.65,0,5.12-.39,7.39-1.18v-9.41h-7.66v-2.8h10.94Z"></path>
    <path class="cls-1" d="M318.45,127.38h-15.58c.12,2.48,.79,4.35,2.01,5.62s2.96,1.9,5.21,1.9c2.48,0,4.76-.85,6.83-2.54l1.18,2.58c-.93,.87-2.13,1.57-3.59,2.08-1.46,.51-2.95,.77-4.46,.77-3.33,0-5.94-.98-7.86-2.93-1.91-1.95-2.87-4.65-2.87-8.09,0-2.19,.42-4.12,1.27-5.8s2.04-2.98,3.57-3.92c1.53-.93,3.27-1.4,5.23-1.4,2.83,0,5.05,.93,6.65,2.78,1.6,1.85,2.41,4.4,2.41,7.64v1.31Zm-13.5-7.22c-1.12,1.17-1.79,2.81-1.99,4.94h12.38c-.06-2.16-.6-3.81-1.62-4.97-1.02-1.15-2.45-1.73-4.29-1.73s-3.36,.58-4.48,1.75Z"></path>
    <path class="cls-1" d="M342.04,124.1v13.39h-3.54v-13.17c0-1.98-.39-3.43-1.16-4.33s-2-1.36-3.7-1.36c-1.95,0-3.52,.6-4.68,1.79-1.17,1.2-1.75,2.82-1.75,4.86v12.21h-3.54v-21.31h3.5v3.5c.7-1.31,1.68-2.31,2.93-3,1.25-.69,2.68-1.03,4.29-1.03,5.1,0,7.66,2.81,7.66,8.44Z"></path>
    <path class="cls-1" d="M366.37,127.38h-15.58c.12,2.48,.79,4.35,2.01,5.62s2.96,1.9,5.21,1.9c2.48,0,4.76-.85,6.83-2.54l1.18,2.58c-.93,.87-2.13,1.57-3.59,2.08-1.46,.51-2.95,.77-4.46,.77-3.33,0-5.94-.98-7.86-2.93-1.91-1.95-2.87-4.65-2.87-8.09,0-2.19,.42-4.12,1.27-5.8,.85-1.68,2.04-2.98,3.57-3.92,1.53-.93,3.27-1.4,5.23-1.4,2.83,0,5.05,.93,6.65,2.78,1.6,1.85,2.41,4.4,2.41,7.64v1.31Zm-13.5-7.22c-1.12,1.17-1.79,2.81-1.99,4.94h12.38c-.06-2.16-.6-3.81-1.62-4.97-1.02-1.15-2.45-1.73-4.29-1.73s-3.36,.58-4.48,1.75Z"></path>
    <path class="cls-1" d="M383.65,118.72l-2.32,.22c-2.19,.2-3.77,.89-4.75,2.06s-1.47,2.61-1.47,4.33v12.16h-3.54v-21.31h3.46v3.72c1.19-2.48,3.54-3.86,7.04-4.16l1.27-.09,.31,3.06Z"></path>
    <path class="cls-1" d="M401.57,117.73c1.33,1.39,1.99,3.49,1.99,6.32v13.43h-3.46v-3.63c-.56,1.26-1.4,2.23-2.54,2.91-1.14,.69-2.45,1.03-3.94,1.03-1.37,0-2.63-.28-3.78-.83-1.15-.55-2.07-1.33-2.73-2.32-.67-.99-1.01-2.09-1.01-3.28,0-1.6,.41-2.85,1.23-3.74,.82-.89,2.16-1.53,4.03-1.92,1.87-.39,4.46-.59,7.79-.59h.96v-1.44c0-1.78-.36-3.07-1.09-3.87-.73-.8-1.91-1.2-3.54-1.2-2.45,0-4.89,.76-7.31,2.28l-1.18-2.58c1.11-.79,2.44-1.42,4-1.9,1.56-.48,3.07-.72,4.53-.72,2.71,0,4.73,.69,6.06,2.08Zm-3.15,15.49c1.12-1.18,1.68-2.71,1.68-4.57v-1.27h-.79c-2.57,0-4.52,.11-5.86,.33s-2.3,.58-2.87,1.09c-.57,.51-.85,1.26-.85,2.25,0,1.14,.42,2.08,1.25,2.82,.83,.74,1.87,1.12,3.13,1.12,1.75,0,3.19-.59,4.31-1.77Z"></path>
    <path class="cls-1" d="M421.32,134.82l-.17,2.8c-.67,.12-1.4,.17-2.19,.17-2.57,0-4.5-.67-5.8-2.01-1.3-1.34-1.95-3.21-1.95-5.6v-11.2h-4.16v-2.8h4.16v-6.48h3.54v6.48h6.04v2.8h-6.04v10.94c0,3.36,1.55,5.03,4.64,5.03,.64,0,1.28-.04,1.93-.13Z"></path>
    <path class="cls-1" d="M424.56,106.95h4.29v3.98h-4.29v-3.98Zm.35,30.54v-21.31h3.54v21.31h-3.54Z"></path>
    <path class="cls-1" d="M438.59,136.44c-1.53-.9-2.71-2.19-3.54-3.87-.83-1.68-1.25-3.62-1.25-5.84s.42-4.16,1.25-5.84c.83-1.68,2.01-2.97,3.54-3.87,1.53-.9,3.3-1.35,5.32-1.35s3.79,.45,5.34,1.35c1.55,.9,2.73,2.2,3.57,3.87,.83,1.68,1.25,3.62,1.25,5.84s-.41,4.16-1.25,5.84c-.83,1.68-2.02,2.97-3.57,3.87-1.55,.9-3.33,1.36-5.34,1.36s-3.79-.45-5.32-1.36Zm10.15-3.65c1.12-1.39,1.68-3.41,1.68-6.06s-.57-4.6-1.71-6.02c-1.14-1.41-2.74-2.12-4.81-2.12s-3.68,.71-4.81,2.12c-1.14,1.42-1.71,3.42-1.71,6.02s.56,4.64,1.68,6.04c1.12,1.4,2.73,2.1,4.84,2.1s3.71-.69,4.83-2.08Z"></path>
    <path class="cls-1" d="M477.72,124.1v13.39h-3.54v-13.17c0-1.98-.39-3.43-1.16-4.33s-2-1.36-3.7-1.36c-1.95,0-3.52,.6-4.68,1.79-1.17,1.2-1.75,2.82-1.75,4.86v12.21h-3.54v-21.31h3.5v3.5c.7-1.31,1.68-2.31,2.93-3,1.25-.69,2.68-1.03,4.29-1.03,5.1,0,7.66,2.81,7.66,8.44Z"></path>
    <path class="cls-1" d="M483.67,133.03h4.46v4.46h-4.46v-4.46Z"></path>
  </g>
  <path class="cls-1" d="M201.94,13.82c-18.37,18.37-18.37,48.15,0,66.51,18.37,18.37,48.15,18.37,66.51,0,18.37-18.37,18.37-48.15,0-66.51-18.37-18.37-48.15-18.37-66.51,0Zm60.08,48.72l-15.74-15.74-11.36,11.36,15.74,15.74c-11.83,6.82-27.25,5.18-37.35-4.93-12.07-12.07-12.07-31.71,0-43.79,12.07-12.07,31.71-12.07,43.79,0,10.11,10.11,11.75,25.52,4.93,37.35Z"></path>
</svg>
