<?xml version="1.0" encoding="UTF-8"?>
<svg version="1.1" xmlns="http://www.w3.org/2000/svg" width="462" height="109">
<path d="M0 0 C152.46 0 304.92 0 462 0 C462 35.97 462 71.94 462 109 C309.54 109 157.08 109 0 109 C0 73.03 0 37.06 0 0 Z " fill="#FDFDFE" transform="translate(0,0)"/>
<path d="M0 0 C29.04 0 58.08 0 88 0 C88.061875 9.69375 88.12375 19.3875 88.1875 29.375 C88.22846802 33.93707275 88.22846802 33.93707275 88.27026367 38.59130859 C88.27903316 41.0270142 88.286676 43.46272423 88.29296875 45.8984375 C88.3159906 47.76495972 88.3159906 47.76495972 88.33947754 49.66918945 C88.34368917 63.80624705 84.35568747 74.47209524 74.75 84.9375 C68.32359295 91.14805826 60.62129606 95.35943018 52.91943359 99.79589844 C50.77287804 101.07266736 50.77287804 101.07266736 48.26953125 103.3828125 C46 105 46 105 43.47265625 104.9453125 C40.74245967 103.90154066 38.77004903 102.63526543 36.4375 100.875 C32.76113626 98.18045447 29.07568495 95.9077384 25.0625 93.75 C13.21745792 86.88352959 5.93193124 77.56246636 1 65 C0.07809904 61.25443063 -0.12163437 57.77632766 -0.11352539 53.92456055 C-0.11340454 52.70700073 -0.11328369 51.48944092 -0.11315918 50.23498535 C-0.10804321 48.96505737 -0.10292725 47.69512939 -0.09765625 46.38671875 C-0.09664917 45.21226196 -0.09564209 44.03780518 -0.09460449 42.82775879 C-0.08937916 38.44766257 -0.07541789 34.06758029 -0.0625 29.6875 C-0.041875 19.890625 -0.02125 10.09375 0 0 Z " fill="#E30814" transform="translate(374,3)"/>
<path d="M0 0 C3.07772113 2.62677298 5.56958874 5.69963313 8.1328125 8.8203125 C7.35417847 9.25114136 7.35417847 9.25114136 6.55981445 9.69067383 C4.18780863 11.0038099 1.81655539 12.31829929 -0.5546875 13.6328125 C-1.77961914 14.31053711 -1.77961914 14.31053711 -3.02929688 15.00195312 C-3.82529297 15.44345703 -4.62128906 15.88496094 -5.44140625 16.33984375 C-6.600354 16.97913818 -6.600354 16.97913818 -7.78271484 17.63134766 C-9.46186451 18.58911983 -11.09044199 19.63525307 -12.69921875 20.70703125 C-14.8671875 21.8203125 -14.8671875 21.8203125 -16.94140625 21.75 C-19.43005437 20.54858367 -20.83448146 18.99721168 -22.6796875 16.9453125 C-27.72641661 11.76870433 -32.05424311 9.71237815 -39.3046875 9.3828125 C-46.2509419 9.6019673 -50.63121455 11.68597469 -55.6171875 16.4453125 C-62.82288345 26.01233449 -63.86435119 38.02255186 -62.55859375 49.54296875 C-60.82577625 59.46449905 -57.09460288 65.88470221 -48.8671875 71.8203125 C-39.85873174 76.53902742 -28.55100325 75.20371475 -18.8671875 73.8203125 C-18.8671875 66.5603125 -18.8671875 59.3003125 -18.8671875 51.8203125 C-24.8071875 51.8203125 -30.7471875 51.8203125 -36.8671875 51.8203125 C-36.8671875 46.5403125 -36.8671875 41.2603125 -36.8671875 35.8203125 C-21.3571875 35.8203125 -5.8471875 35.8203125 10.1328125 35.8203125 C10.1328125 53.6403125 10.1328125 71.4603125 10.1328125 89.8203125 C-5.78759861 92.58907965 -20.37133604 94.99891616 -36.3046875 95.0078125 C-37.45517578 95.02005859 -38.60566406 95.03230469 -39.79101562 95.04492188 C-55.93355135 95.07235961 -68.74369472 91.64190673 -80.67578125 80.24609375 C-92.63013334 67.01320133 -93.4918688 51.32825296 -93.00341797 34.34472656 C-92.23657145 20.13470319 -86.10864423 9.42372321 -75.8671875 -0.1796875 C-54.18215206 -16.78118185 -21.99704811 -14.40590994 0 0 Z " fill="#0747BE" transform="translate(210.8671875,11.1796875)"/>
<path d="M0 0 C9.9 0 19.8 0 30 0 C30 12.87 30 25.74 30 39 C40.89 39 51.78 39 63 39 C63 26.13 63 13.26 63 0 C72.9 0 82.8 0 93 0 C93 32.67 93 65.34 93 99 C83.1 99 73.2 99 63 99 C63 86.13 63 73.26 63 60 C52.11 60 41.22 60 30 60 C30 72.87 30 85.74 30 99 C20.1 99 10.2 99 0 99 C0 66.33 0 33.66 0 0 Z " fill="#0445BD" transform="translate(246,3)"/>
<path d="M0 0 C10.89 0 21.78 0 33 0 C34.94526827 5.18738206 36.72893405 10.18995134 38.3046875 15.47265625 C38.61347336 16.50101845 38.61347336 16.50101845 38.92849731 17.55015564 C39.5799223 19.72017143 40.22785888 21.89120317 40.875 24.0625 C43.72658405 33.62324574 46.65649236 43.13865777 49.8605957 52.58789062 C51.67686049 58.02695568 53.34295474 63.51045901 55 69 C57.16474464 65.75288304 58.27346836 62.55651733 59.46875 58.88671875 C59.70547424 58.17230118 59.94219849 57.45788361 60.18609619 56.72181702 C60.96157404 54.37840117 61.730772 52.03297398 62.5 49.6875 C63.03371941 48.07113701 63.56790324 46.4549273 64.10253906 44.83886719 C65.19725429 41.52846903 66.28982205 38.21737376 67.38085938 34.90576172 C69.81796078 27.51408345 72.28540282 20.13254338 74.75 12.75 C76.85375 6.43875 76.85375 6.43875 79 0 C89.23 0 99.46 0 110 0 C106.62503718 11.24987605 106.62503718 11.24987605 105.22924805 15.03027344 C104.91381042 15.88917679 104.5983728 16.74808014 104.27337646 17.63301086 C103.93952942 18.53271103 103.60568237 19.43241119 103.26171875 20.359375 C102.90394348 21.33106125 102.54616821 22.3027475 102.17755127 23.30387878 C101.01705088 26.4536454 99.85234796 29.60183892 98.6875 32.75 C97.88262699 34.93162356 97.07802346 37.11334656 96.27368164 39.29516602 C94.64288712 43.71765861 93.01050247 48.13955942 91.37695312 52.56103516 C89.15631392 58.57348445 86.94393821 64.58894172 84.734375 70.60546875 C83.77284637 73.22216052 82.81120461 75.83881069 81.84951782 78.45544434 C81.24327599 80.10533091 80.63729705 81.75531411 80.03158569 83.40539551 C79.1979577 85.67562514 78.36285588 87.94530699 77.52734375 90.21484375 C77.28340881 90.88017624 77.03947388 91.54550873 76.78814697 92.23100281 C75.93748599 94.53844282 75.10078399 96.79843201 74 99 C61.13 99 48.26 99 35 99 C27.09103568 78.12552041 19.50887648 57.14522093 12.25390625 36.03515625 C12.03124588 35.38748795 11.80858551 34.73981964 11.57917786 34.07252502 C10.52695117 31.00923144 9.47865221 27.9446696 8.43579102 24.87817383 C6.09766036 18.03800919 3.60107954 11.28695901 0.93115234 4.56884766 C-0 2 -0 2 0 0 Z " fill="#0646BE" transform="translate(0,3)"/>
<path d="M0 0 C4.43032653 5.12985177 5.15472748 9.26857039 6.30078125 15.81640625 C7.07629922 18.90373895 7.07629922 18.90373895 9.66796875 20.078125 C11.00794922 20.41070312 11.00794922 20.41070312 12.375 20.75 C13.2 20.97042969 14.025 21.19085938 14.875 21.41796875 C15.7 21.58941406 16.525 21.76085937 17.375 21.9375 C18.2 22.11667969 19.025 22.29585937 19.875 22.48046875 C22.63600153 22.77813923 24.68694707 22.39928815 27.375 21.75 C29.70677975 21.40596692 32.03987041 21.07050798 34.375 20.75 C36.5123984 23.07421471 37.36071644 24.23203296 37.44921875 27.44140625 C37.32160156 28.38886719 37.19398438 29.33632813 37.0625 30.3125 C36.94261719 31.26253906 36.82273437 32.21257813 36.69921875 33.19140625 C36.59222656 34.03574219 36.48523438 34.88007812 36.375 35.75 C36.375 36.74 36.375 37.73 36.375 38.75 C33.50775314 38.17655063 32.5135485 37.8885485 30.375 35.75 C30.3984375 33.3671875 30.3984375 33.3671875 30.75 30.625 C30.86085938 29.71492188 30.97171875 28.80484375 31.0859375 27.8671875 C31.18132812 27.16851562 31.27671875 26.46984375 31.375 25.75 C29.395 25.75 27.415 25.75 25.375 25.75 C26.035 26.74 26.695 27.73 27.375 28.75 C27.61328125 30.8359375 27.61328125 30.8359375 27.6875 33.125 C28.09425204 37.85253316 29.73644693 39.65722989 33.375 42.75 C34.43202173 45.92106519 34.34992531 46.67629749 33.5 49.75 C33.31695312 50.430625 33.13390625 51.11125 32.9453125 51.8125 C32.45763119 53.46928035 31.92114597 55.1115621 31.375 56.75 C30.385 56.75 29.395 56.75 28.375 56.75 C28.6225 56.0075 28.6225 56.0075 28.875 55.25 C29.58188818 51.71555911 29.43505155 48.35309299 29.375 44.75 C28.385 44.42 27.395 44.09 26.375 43.75 C26.32601562 44.44867188 26.27703125 45.14734375 26.2265625 45.8671875 C26.15179688 46.77726562 26.07703125 47.68734375 26 48.625 C25.93039062 49.52992187 25.86078125 50.43484375 25.7890625 51.3671875 C25.375 53.75 25.375 53.75 23.375 55.75 C22.385 55.75 21.395 55.75 20.375 55.75 C20.705 54.76 21.035 53.77 21.375 52.75 C21.92093448 48.07056163 21.98061467 44.86049629 19.3125 40.875 C15.19836041 36.5240754 9.66672679 36.57770626 4.03125 36.13671875 C0.50636799 35.76389469 -2.30295119 34.9348185 -5.625 33.75 C-8.99232795 32.98538869 -12.17014611 32.50157405 -15.625 32.75 C-18.64730702 34.85501871 -18.64730702 34.85501871 -20.625 37.75 C-21.625 38.75 -22.625 39.75 -23.625 40.75 C-23.38904051 34.73303301 -23.38904051 34.73303301 -21.3984375 32.171875 C-18.90984289 29.95128289 -17.08050619 28.79951154 -13.75 28.4375 C-13.04875 28.540625 -12.3475 28.64375 -11.625 28.75 C-11.625 28.09 -11.625 27.43 -11.625 26.75 C-13.935 26.09 -16.245 25.43 -18.625 24.75 C-19.945 27.39 -21.265 30.03 -22.625 32.75 C-23.285 32.75 -23.945 32.75 -24.625 32.75 C-24.08160208 28.18545749 -22.83036179 24.7771824 -20.625 20.75 C-17.15558454 21.20822468 -13.95104951 21.64131683 -10.625 22.75 C-10.5425 22.04875 -10.46 21.3475 -10.375 20.625 C-9.45470135 17.09718852 -7.66687538 14.74900446 -5.625 11.75 C-4.85560319 9.52397385 -4.85560319 9.52397385 -4.625 7.75 C-5.3675 8.08 -6.11 8.41 -6.875 8.75 C-9.625 9.75 -9.625 9.75 -13.625 9.75 C-13.955 8.43 -14.285 7.11 -14.625 5.75 C-13.38303878 4.59545838 -12.13107155 3.45167438 -10.875 2.3125 C-10.17890625 1.67441406 -9.4828125 1.03632813 -8.765625 0.37890625 C-5.08514035 -2.42175452 -3.63736668 -3.11774287 0 0 Z " fill="#FEF7F7" transform="translate(410.625,20.25)"/>
<path d="M0 0 C2.27844255 2.26784514 2.98472138 3.44594905 3.07421875 6.69140625 C2.88279297 8.11259766 2.88279297 8.11259766 2.6875 9.5625 C2.56761719 10.51253906 2.44773437 11.46257813 2.32421875 12.44140625 C2.21722656 13.28574219 2.11023438 14.13007812 2 15 C2 15.99 2 16.98 2 18 C-0.86724686 17.42655063 -1.8614515 17.1385485 -4 15 C-3.9765625 12.6171875 -3.9765625 12.6171875 -3.625 9.875 C-3.45871094 8.50988281 -3.45871094 8.50988281 -3.2890625 7.1171875 C-3.14597656 6.06917969 -3.14597656 6.06917969 -3 5 C-4.98 5 -6.96 5 -9 5 C-6.92323662 0.40145252 -5.12408141 -0.62488798 0 0 Z " fill="#FCE9EA" transform="translate(445,41)"/>
<path d="M0 0 C4.75 1.875 4.75 1.875 7 3 C7 3.66 7 4.32 7 5 C5.3603125 5.4021875 5.3603125 5.4021875 3.6875 5.8125 C0.38307337 6.87663739 -0.94960422 7.34654664 -3 10 C-3.33 9.34 -3.66 8.68 -4 8 C-1.48571429 1.48571429 -1.48571429 1.48571429 0 0 Z " fill="#E4141A" transform="translate(392,44)"/>
<path d="M0 0 C1.32 0 2.64 0 4 0 C4 0.99 4 1.98 4 3 C2.66666667 4.33333333 1.33333333 5.66666667 0 7 C-1.25436187 9.63222962 -1.25436187 9.63222962 -2 12 C-2.66 12 -3.32 12 -4 12 C-3.45660208 7.43545749 -2.20536179 4.0271824 0 0 Z " fill="#FBE0E1" transform="translate(390,41)"/>
<path d="M0 0 C2 1 2 1 3 3 C0.33333333 5.66666667 -2.33333333 8.33333333 -5 11 C-4.50769231 4.6 -4.50769231 4.6 -1.9375 1.5625 C-0.9784375 0.7890625 -0.9784375 0.7890625 0 0 Z " fill="#FBE4E5" transform="translate(392,50)"/>
<path d="M0 0 C3 4 3 4 2.6875 6.75 C2.460625 7.4925 2.23375 8.235 2 9 C0.68 9.33 -0.64 9.66 -2 10 C-1.34 6.7 -0.68 3.4 0 0 Z " fill="#F8CED0" transform="translate(433,66)"/>
<path d="M0 0 C0.99 0.99 1.98 1.98 3 3 C2.71263151 5.87368492 1.91403285 8.25790144 1 11 C0.01 11 -0.98 11 -2 11 C-1.34 7.37 -0.68 3.74 0 0 Z " fill="#F8CDCF" transform="translate(441,66)"/>
<path d="M0 0 C1.98 0 3.96 0 6 0 C6 1.65 6 3.3 6 5 C5.01 5 4.02 5 3 5 C3 4.34 3 3.68 3 3 C2.01 2.67 1.02 2.34 0 2 C0 1.34 0 0.68 0 0 Z " fill="#E4121A" transform="translate(436,46)"/>
</svg>
