<?xml version="1.0" encoding="UTF-8"?><svg id="Layer_1" xmlns="http://www.w3.org/2000/svg" viewBox="0 0 1024 367.39"><defs><style>.cls-1{fill:lime;}.cls-2{fill:#3d6277;}</style></defs><polygon class="cls-1" points="867.37 194.41 818.49 222.66 867.37 250.88 867.37 194.41"/><polygon class="cls-1" points="965.08 250.86 916.21 279.08 965.09 307.28 1013.96 279.09 965.08 250.86"/><polygon class="cls-2" points="916.21 279.08 916.21 142.75 823.63 89.43 823.63 145.85 867.37 171.09 867.37 250.88 818.49 222.66 818.49 279.08 965.09 363.7 965.09 307.28 916.21 279.08"/><polygon class="cls-1" points="965.09 114.66 942.28 101.49 916.21 116.53 867.37 88.33 867.37 64.15 823.63 89.4 916.21 142.75 965.09 114.66"/><polygon class="cls-2" points="867.37 31.88 867.37 88.33 916.21 116.53 916.21 60.11 867.37 31.88"/><polygon class="cls-1" points="964.84 31.77 916.2 3.69 867.37 31.88 916.18 60.07 916.18 60.16 965.09 31.92 964.84 31.77"/><g><path class="cls-2" d="m23.02,57.39c0-1.54.66-2.2,2.21-2.2h36.56c1.55,0,2.21.66,2.21,2.2v92.22h27.06c1.54,0,2.2.67,2.2,2.21v11.91c0,1.55-.66,2.21-2.2,2.21H19.71c-1.55,0-2.21-.66-2.21-2.21v-11.91c0-1.54.66-2.21,2.21-2.21h27.08v-78.54h-21.56c-1.55,0-2.21-.67-2.21-2.21v-11.47ZM42.38,15.91c0-1.54.66-2.2,2.21-2.2h18.98c1.54,0,2.2.66,2.2,2.2v18.98c0,1.55-.66,2.21-2.2,2.21h-18.98c-1.55,0-2.21-.66-2.21-2.21V15.91Z"/><path class="cls-2" d="m112.24,57.39c0-1.54.66-2.2,2.2-2.2h12.8c1.54,0,2.2.66,2.2,2.2v12.13c4.63-8.82,16.77-16.54,28.91-16.54,15.22,0,22.94,5.96,27.8,17.87,6.18-10.37,17.87-17.87,30.89-17.87,20.52,0,29.79,10.81,29.79,33.98v76.78c0,1.55-.67,2.21-2.21,2.21h-12.79c-1.55,0-2.21-.66-2.21-2.21v-73.69c0-14.12-6.62-20.74-17.87-20.74-13.9,0-23.61,14.78-23.61,38.39v56.04c0,1.55-.66,2.21-2.21,2.21h-12.79c-1.54,0-2.21-.66-2.21-2.21v-73.69c0-14.12-6.62-20.74-17.87-20.74-13.9,0-23.61,14.78-23.61,38.39v56.04c0,1.55-.66,2.21-2.2,2.21h-12.8c-1.54,0-2.2-.66-2.2-2.21V57.39Z"/><path class="cls-2" d="m273.1,57.39c0-1.54.66-2.2,2.2-2.2h12.8c1.54,0,2.2.66,2.2,2.2v10.37c6.84-8.82,19.2-14.78,34.2-14.78,28.69,0,47.44,22.28,47.44,57.59s-18.75,57.59-47.44,57.59c-13.9,0-26.7-6.4-34.2-14.79v54.06c0,1.54-.66,2.21-2.2,2.21h-12.8c-1.54,0-2.2-.67-2.2-2.21V57.39Zm47.88,94.43c20.96,0,32.87-18.09,32.87-41.26s-11.92-41.26-32.87-41.26-32.44,18.09-32.44,41.26,11.47,41.26,32.44,41.26Z"/><path class="cls-2" d="m395.33,88.06c-.89,0-1.55-.44-1.55-1.33,0-.44,0-1.32.22-2.21,4.19-16.32,18.75-31.55,43.24-31.55s43.9,15.45,43.9,37.95v53.84c0,10.15.88,13.68,3.75,18.97.88,1.55,0,2.21-1.54,2.21h-17.21c-1.54,0-2.2-.66-2.2-2.21v-11.47c-7.06,9.7-18.09,15.88-33.76,15.88-20.74,0-40.38-11.04-40.38-35.08s20.3-36.85,45.23-36.85c9.93,0,20.74,1.99,28.91,4.63v-5.51c0-16.99-9.05-26.03-26.7-26.03-12.58,0-20.52,6.17-24.71,16.77-.66,1.76-1.76,1.99-3.08,1.99h-14.12Zm39.93,24.49c-15.22,0-27.36,6.83-27.36,20.52,0,11.25,8.61,18.75,24.05,18.75,16.54,0,31.99-12.36,31.99-34.64-9.05-3.09-17.87-4.63-28.69-4.63Z"/><path class="cls-2" d="m520.88,110.57c0,24.05,14.12,41.26,35.08,41.26,14.78,0,25.59-8.83,29.57-22.07.44-1.76,1.54-1.98,3.08-1.98h13.46c.88,0,1.54.44,1.54,1.32,0,.44,0,1.33-.22,2.21-5.74,22.73-21.41,36.85-47.44,36.85-33.1,0-53.18-24.71-53.18-57.59s20.08-57.59,53.18-57.59c26.03,0,41.7,14.12,47.44,36.85.22.88.22,1.76.22,2.21,0,.88-.66,1.32-1.54,1.32h-13.46c-1.54,0-2.65-.22-3.08-1.99-3.97-13.24-14.79-22.06-29.57-22.06-20.96,0-35.08,17.2-35.08,41.26Z"/><path class="cls-2" d="m634.51,55.19v-31.78c0-1.54.67-2.2,2.21-2.2h12.79c1.55,0,2.21.66,2.21,2.2v31.78h42.14c1.55,0,2.21.66,2.21,2.2v11.92c0,1.54-.66,2.2-2.21,2.2h-42.14v51.63c0,19.42,8.16,28.69,21.62,28.69,14.34,0,19.64-7.95,21.62-22.73.22-1.76,1.33-1.99,2.43-1.99h12.79c1.33,0,1.99,0,1.99,1.99,0,20.52-13.02,39.06-38.83,39.06s-38.83-15-38.83-44.79v-51.85h-19.86c-1.54,0-2.2-.66-2.2-2.2v-11.92c0-1.54.66-2.2,2.2-2.2h19.86Z"/></g><g><path class="cls-2" d="m156.11,305.59c0,24.05,14.12,41.26,35.08,41.26,14.78,0,25.59-8.83,29.56-22.07.44-1.76,1.55-1.98,3.09-1.98h13.46c.88,0,1.54.44,1.54,1.32,0,.44,0,1.33-.22,2.21-5.74,22.73-21.41,36.85-47.44,36.85-33.1,0-53.18-24.71-53.18-57.59s20.08-57.59,53.18-57.59c26.03,0,41.7,14.12,47.44,36.85.22.88.22,1.76.22,2.21,0,.88-.66,1.32-1.54,1.32h-13.46c-1.54,0-2.65-.22-3.09-1.99-3.97-13.24-14.78-22.06-29.56-22.06-20.96,0-35.08,17.2-35.08,41.26Z"/><path class="cls-2" d="m345.87,358.76c0,1.55-.66,2.21-2.21,2.21h-12.79c-1.54,0-2.21-.66-2.21-2.21v-13.24c-6.83,9.27-20.07,17.66-34.86,17.66-23.39,0-33.53-13.68-33.53-35.96v-74.8c0-1.54.66-2.2,2.21-2.2h12.79c1.54,0,2.21.66,2.21,2.2v70.82c0,15,7.28,23.61,21.18,23.61,15.45,0,30.01-14.78,30.01-38.39v-56.04c0-1.54.67-2.2,2.21-2.2h12.79c1.55,0,2.21.66,2.21,2.2v106.34Z"/><path class="cls-2" d="m371.03,208.73c0-1.55.66-2.21,2.2-2.21h12.8c1.54,0,2.2.66,2.2,2.21v54.05c7.5-8.38,20.3-14.78,34.2-14.78,28.69,0,47.44,22.28,47.44,57.59s-18.75,57.59-47.44,57.59c-15,0-27.36-5.96-34.2-14.79v10.37c0,1.55-.66,2.21-2.2,2.21h-12.8c-1.54,0-2.2-.66-2.2-2.21v-150.03Zm47.88,138.11c20.96,0,32.87-18.09,32.87-41.26s-11.92-41.26-32.87-41.26-32.44,18.09-32.44,41.26,11.47,41.26,32.44,41.26Z"/><path class="cls-2" d="m505.85,310.88c1.76,20.74,12.79,35.96,34.19,35.96,15.89,0,24.93-6.4,30.23-20.3.67-1.77,1.55-1.99,3.09-1.99h14.34c1.1,0,1.54.66,1.54,1.54,0,.44,0,.88-.44,2.21-7.95,23.16-24.27,34.86-48.77,34.86-34.42,0-52.73-25.16-52.73-57.59s20.96-57.59,52.73-57.59c33.54,0,50.97,26.91,50.97,57.59v3.09c0,1.54-.66,2.2-2.2,2.2h-82.96Zm.88-16.32h65.75c-3.53-18.09-16.54-30.23-32.44-30.23s-29.78,11.47-33.31,30.23Z"/><path class="cls-2" d="m707.51,358.76c0,1.55-.66,2.21-2.2,2.21h-12.8c-1.54,0-2.2-.66-2.2-2.21v-10.37c-6.84,8.83-19.2,14.79-34.2,14.79-28.69,0-47.44-22.29-47.44-57.59s18.75-57.59,47.44-57.59c13.9,0,26.7,6.4,34.2,14.78v-54.05c0-1.55.66-2.21,2.2-2.21h12.8c1.54,0,2.2.66,2.2,2.21v150.03Zm-47.88-94.43c-20.96,0-32.87,18.09-32.87,41.26s11.92,41.26,32.87,41.26,32.44-18.09,32.44-41.26-11.47-41.26-32.44-41.26Z"/></g></svg>