<svg width="1248" height="183" viewBox="0 0 1248 183" fill="none" xmlns="http://www.w3.org/2000/svg">
<path d="M271.47 173.802L259.02 132.468H201.003L188.553 173.802H150.207L207.477 0H254.289L310.812 173.802H271.47ZM230.385 34.362H229.14L209.967 100.347H249.807L230.385 34.362Z" fill="#FF6813"/>
<path d="M391.239 33.615V173.802H353.391V33.615H306.33V0H438.3V33.615H391.239Z" fill="#FF6813"/>
<path d="M555.081 173.802L542.631 132.468H484.614L472.164 173.802H433.818L491.088 0H537.9L594.423 173.802H555.081ZM513.996 34.362H512.751L493.578 100.347H533.418L513.996 34.362Z" fill="#FF6813"/>
<path d="M618.576 173.802V0H656.424V140.187H722.658V173.802H618.576Z" fill="#FF6813"/>
<path d="M861.849 173.802L849.399 132.468H791.382L778.932 173.802H740.586L797.856 0H844.668L901.191 173.802H861.849ZM820.764 34.362H819.519L800.346 100.347H840.186L820.764 34.362Z" fill="#FF6813"/>
<path d="M978.381 91.632L961.698 56.772H960.951V173.802H925.344V0H966.678L1014.24 82.17L1030.92 117.03H1031.67V0H1067.27V173.802H1025.94L978.381 91.632Z" fill="#FF6813"/>
<path d="M1105.62 0H1171.11C1182.56 0 1193.02 1.826 1202.48 5.478C1211.94 9.13 1219.99 14.5665 1226.63 21.7875C1233.27 29.0085 1238.42 38.0555 1242.07 48.9285C1245.72 59.8015 1247.55 72.459 1247.55 86.901C1247.55 101.343 1245.72 114.001 1242.07 124.874C1238.42 135.747 1233.27 144.793 1226.63 152.014C1219.99 159.235 1211.94 164.672 1202.48 168.324C1193.02 171.976 1182.56 173.802 1171.11 173.802H1105.62V0ZM1171.11 140.187C1182.4 140.187 1191.28 137.033 1197.75 130.725C1204.22 124.417 1207.46 114.291 1207.46 100.347V73.455C1207.46 59.511 1204.22 49.385 1197.75 43.077C1191.28 36.769 1182.4 33.615 1171.11 33.615H1143.47V140.187H1171.11Z" fill="#FF6813"/>
<g clip-path="url(#clip0_108_2)">
<path fill-rule="evenodd" clip-rule="evenodd" d="M136.973 49.4272C133.361 38.4916 128.279 29.3883 121.713 22.1249C115.146 14.8614 107.191 9.39357 97.8391 5.71401C88.4871 2.04181 78.1481 0.202026 66.8292 0.202026H2.09656V35.1726H36.8137H41.135H64.4162C75.6912 35.1726 90.0738 37.1964 96.5449 43.5399C103.009 49.8835 106.248 60.0759 106.248 74.1024V101.155C106.248 115.181 103.016 125.373 96.5449 131.717C90.0811 138.061 75.6912 140.084 64.4162 140.084H36.8137V70.1432H2.09656V175.055H66.8292C78.1481 175.055 88.4871 173.215 97.8391 169.543C107.191 165.871 115.146 160.403 121.713 153.132C128.279 145.869 133.361 136.765 136.973 125.83C140.585 114.894 140.958 102.155 140.958 87.6284C140.958 73.1015 140.585 60.3629 136.973 49.4272Z" fill="#FF6813"/>
<path d="M36.8137 140.114H2.09656V175.055H36.8137V140.114Z" fill="#E75706"/>
<path d="M36.8283 140.151L71.231 139.878L71.2163 175.018C59.9559 175.239 36.8356 175.092 36.8356 175.092V140.151H36.8283Z" fill="#CD510B"/>
<path d="M36.4992 0.202026H2.09656V35.1432H36.4992V0.202026Z" fill="#E75706"/>
<path d="M2.09656 70.1432H36.8137V105.143H2.09656V70.1432Z" fill="#CD510B"/>
</g>
<defs>
<clipPath id="clip0_108_2">
<rect width="139" height="175" fill="white" transform="translate(2.02344 0.202026)"/>
</clipPath>
</defs>
</svg>
