<svg xmlns="http://www.w3.org/2000/svg" xmlns:xlink="http://www.w3.org/1999/xlink" width="140" height="80" viewBox="0 0 140 80"><defs><style>.a{clip-path:url(#b);}.b{fill:#024589;}</style><clipPath id="b"><rect width="140" height="80"/></clipPath></defs><g id="a" class="a"><g transform="translate(-12.03 -9.609)"><path class="b" d="M48.49,79.39V19.61H47.37V79.39Z"/><path class="b" d="M107.11,19.61V79.39h1.12V19.61Z"/><path class="b" d="M24.11,31.08l-1.73,6.59-1.73-6.54-.01-.05H18.03l2.88,9.16.02.05h2.82l2.95-9.12.02-.09Z"/><path class="b" d="M54.66,40.48a4.615,4.615,0,0,0,3.24-1.05,2.79,2.79,0,0,0,.78-2.06c0-1.71-1.43-2.33-2.68-2.69-.28-.08-.56-.15-.83-.21-.93-.22-1.74-.42-1.74-.91a.565.565,0,0,1,.16-.41,1.368,1.368,0,0,1,.9-.28,1.651,1.651,0,0,1,1.16.38.815.815,0,0,1,.22.63v.08h2.51v-.08a2.687,2.687,0,0,0-1.18-2.29,4.413,4.413,0,0,0-2.53-.71c-1.87,0-3.77.87-3.77,2.83,0,1.69,1.37,2.31,2.71,2.69.24.07.47.13.7.18.99.25,1.85.47,1.85,1.06,0,.62-.71.85-1.37.85-1.09,0-1.59-.41-1.63-1.33v-.07H50.65v.08c.01,2.07,1.51,3.31,4.01,3.31h0Z"/><path class="b" d="M63.02,40.29V31.08H60.51v9.21Z"/><path class="b" d="M69.67,40.48c2.55,0,4.29-1.48,4.42-3.77v-.08H71.46v.07a1.66,1.66,0,0,1-1.85,1.6,1.93,1.93,0,0,1-1.42-.54,3.373,3.373,0,0,1,0-4.14,1.93,1.93,0,0,1,1.42-.54c1.05,0,1.72.48,1.84,1.33v.07h2.63V34.4c-.07-2.19-2.3-3.5-4.42-3.5a4.652,4.652,0,0,0-4.82,4.79,4.637,4.637,0,0,0,4.82,4.79h0Z"/><path class="b" d="M78.61,40.29V36.56h3.61v3.73h2.57V31.08H82.22v3.3H78.61v-3.3H76.03v9.21Z"/><path class="b" d="M94.73,40.29V38.1H89.75V36.53h4.43V34.55H89.75V33.13H94.6V31.08H87.23v9.21Z"/><path class="b" d="M99.37,40.29v-3.3h1.71c1.04,0,1.19.88,1.25,1.78,0,.07.14,1.52.14,1.52h2.42s-.18-1.96-.19-2.12c-.11-1.19-.52-1.94-1.21-2.19a2.437,2.437,0,0,0,1.32-2.27,2.407,2.407,0,0,0-.67-1.74,3.606,3.606,0,0,0-2.57-.89H96.88v9.21h2.51Zm0-5.28V33.13h1.8a1.273,1.273,0,0,1,.89.3.814.814,0,0,1,.23.6.893.893,0,0,1-1.01.99h-1.9Z"/><path class="b" d="M104.69,51.97c-.11-1.19-.52-1.94-1.21-2.19a2.437,2.437,0,0,0,1.32-2.27,2.408,2.408,0,0,0-.67-1.74,3.606,3.606,0,0,0-2.57-.89H96.87v9.21h2.51v-3.3h1.71c1.04,0,1.19.88,1.25,1.78,0,.07.14,1.52.14,1.52h2.42s-.18-1.96-.19-2.12h0Zm-2.41-4.14a.893.893,0,0,1-1.01.99h-1.9V46.94h1.8a1.273,1.273,0,0,1,.89.3.814.814,0,0,1,.23.6h0Z"/><path class="b" d="M55.69,44.9l-2.63,3.32V44.9H50.79v9.2h2.27V51.27l.78-.91,2.02,3.74h2.85l-3.32-5.55L58.8,44.9Z"/><path class="b" d="M73.92,54.1h2.25V44.9H73.94l-1.81,3.55L70.28,44.9h-2.2v9.2h2.24V49.17l1.79,2.84h.03l1.78-2.78V54.1Z"/><path class="b" d="M83.85,44.9l-1.82,3.55L80.19,44.9h-2.2v9.2h2.24V49.17l1.79,2.84h.03l1.77-2.78V54.1h2.26V44.9Z"/><path class="b" d="M90.39,51.92V50.35h4.43V48.37H90.39V46.94h4.85V44.9H87.87v9.2h7.5V51.92Z"/><path class="b" d="M57.3,62.86a2.083,2.083,0,0,0,1.08-1.81,2.112,2.112,0,0,0-.59-1.56,3.74,3.74,0,0,0-2.76-.79H50.72v9.21h4.43a3.945,3.945,0,0,0,2.88-.9,2.7,2.7,0,0,0,.72-1.99,2.236,2.236,0,0,0-1.45-2.16h0Zm-2.32-.59H53.23V60.69h1.75a.955.955,0,0,1,.68.23.774.774,0,0,1,.2.57.8.8,0,0,1-.88.78h0Zm1.25,2.66c0,.63-.39.94-1.19.94H53.23V63.95h1.81a1.3,1.3,0,0,1,.95.3.934.934,0,0,1,.24.69h0Z"/><path class="b" d="M73.43,58.7l-1.75,3.58L69.93,58.7H67.07l3.35,5.78v3.43h2.52V64.48l3.35-5.78Z"/><path class="b" d="M79.65,65.72V64.16h4.44V62.18H79.65V60.75h4.86V58.7H77.14v9.21h7.49V65.72Z"/><path class="b" d="M102.51,58.7h-.08v5.4l-3.02-5.36-.02-.04H96.84v9.21h2.38V62.45l3.02,5.42.02.04h2.55V58.7h-2.3Z"/><path class="b" d="M94.53,65.78c-.1-1.19-.52-1.94-1.22-2.19a2.437,2.437,0,0,0,1.32-2.27,2.408,2.408,0,0,0-.67-1.74,3.606,3.606,0,0,0-2.57-.89H86.7V67.9h2.51V64.6h1.71c1.04,0,1.19.88,1.25,1.78,0,.07.14,1.52.14,1.52h2.42s-.18-1.96-.19-2.12h0Zm-2.41-4.14a.893.893,0,0,1-1.01.99h-1.9V60.75h1.8a1.23,1.23,0,0,1,.88.3.814.814,0,0,1,.23.6h0Z"/><path class="b" d="M118.46,36.48c0,2.67-1.23,4-4.01,4s-4.01-1.33-4.01-4v-5.4h2.4v5.55c0,1.19.43,1.79,1.61,1.79s1.61-.61,1.61-1.79V31.08h2.4v5.4Z"/><path class="b" d="M137.95,40.29h-1.43l-.13-1.15a3.559,3.559,0,0,1-2.7,1.34,4.526,4.526,0,0,1-4.59-4.8,4.526,4.526,0,0,1,4.59-4.8c1.91,0,3.96,1.01,4.17,3.33h-2.4c-.09-.79-.84-1.26-1.82-1.26-1.55,0-2.14,1.35-2.14,2.73s.59,2.73,2.14,2.73c1.19,0,1.97-.55,2.12-1.39h-1.68V35.4h3.87v4.89Z"/><path class="b" d="M64.06,44.9H61.74l-3.05,9.21h2.39l.49-1.62H64.4l.53,1.62H67.5L64.06,44.9Zm-.12,5.68H61.95l.86-3.03h.21s.82,2.65.93,3.03h0Z"/><path class="b" d="M64.71,58.7H62.39l-3.05,9.21h2.39l.49-1.62h2.83l.53,1.62h2.57L64.71,58.7h0Zm-.12,5.68H62.6l.86-3.03h.21s.82,2.65.93,3.03h0Z"/><path class="b" d="M39.68,40.29v-3.3h1.71c1.04,0,1.19.88,1.25,1.78,0,.07.14,1.52.14,1.52H45.2s-.18-1.96-.19-2.12c-.11-1.19-.52-1.94-1.21-2.19a2.437,2.437,0,0,0,1.32-2.27,2.407,2.407,0,0,0-.67-1.74,3.606,3.606,0,0,0-2.57-.89H37.19v9.21H39.7Zm0-5.28V33.13h1.8a1.273,1.273,0,0,1,.89.3.814.814,0,0,1,.23.6.893.893,0,0,1-1.01.99h-1.9Z"/><path class="b" d="M35.46,40.29V38.1H30.48V36.53h4.44V34.55H30.48V33.13h4.86V31.08H27.97v9.21Z"/><path class="b" d="M142.95,40.48a4.615,4.615,0,0,0,3.24-1.05,2.79,2.79,0,0,0,.78-2.06c0-1.71-1.43-2.33-2.68-2.69-.28-.08-.56-.15-.83-.21-.93-.22-1.74-.42-1.74-.91a.565.565,0,0,1,.16-.41,1.368,1.368,0,0,1,.9-.28,1.651,1.651,0,0,1,1.16.38.871.871,0,0,1,.29.63v.08h2.44v-.08a2.687,2.687,0,0,0-1.18-2.29,4.413,4.413,0,0,0-2.53-.71c-1.87,0-3.77.87-3.77,2.83,0,1.69,1.37,2.31,2.71,2.69.24.07.47.13.7.18.99.25,1.85.47,1.85,1.06,0,.62-.71.85-1.37.85-1.09,0-1.59-.41-1.63-1.33v-.07h-2.51v.08c.01,2.07,1.51,3.31,4.01,3.31h0Z"/><path class="b" d="M120.04,31.08h2.46l3.2,5.67h.02V31.08h2.26v9.21h-2.47l-3.19-5.74h-.03v5.74h-2.25Z"/></g></g></svg>