<?xml version="1.0" encoding="utf-8"?>
<!-- Generator: Adobe Illustrator 23.0.0, SVG Export Plug-In . SVG Version: 6.00 Build 0)  -->
<svg version="1.1" id="Ebene_1" xmlns="http://www.w3.org/2000/svg" xmlns:xlink="http://www.w3.org/1999/xlink" x="0px" y="0px"
	 viewBox="0 0 343.18 104.19" style="enable-background:new 0 0 343.18 104.19;" xml:space="preserve">
<style type="text/css">
	.st0{fill-rule:evenodd;clip-rule:evenodd;fill:#003C4F;}
	.st1{fill:#003C4F;}
</style>
<g>
	<path class="st0" d="M13.15,68.72c0-12.41,3.4-30,15.96-30c11.38,0,15.37,15.96,15.37,30c0,12.56-3.4,30-15.37,30
		C15.52,98.72,13.15,81.58,13.15,68.72L13.15,68.72z M44.48,102.68h11.53L56.01,0L33.25,3.55v2.51c4.29,0.44,11.23,0.89,11.23,9.61
		v28.97h-0.3c-2.07-4.14-7.68-11.38-17-11.38C6.65,33.25,0,50.69,0,68.72c0,18.03,6.65,35.47,27.19,35.47
		c8.28,0,15.67-6.95,17-10.94h0.3V102.68L44.48,102.68z"/>
	<polygon class="st1" points="67.52,39.71 67.52,35.67 155.01,35.67 155.01,39.71 67.52,39.71 	"/>
	<path class="st0" d="M189.28,102.68l0-69.43l-22.76,3.55v2.51c4.43,0.3,11.23,0.74,11.23,9.61l0,53.76H189.28L189.28,102.68z"/>
	<path class="st1" d="M341.26,96.77v4.73c-3.55,1.33-8.57,2.66-17.58,2.66c-22.9,0-35.75-12.56-35.75-37.38
		c0-21.57,8.72-33.54,29.99-33.54c13.3,0,25.26,7.39,25.26,24.52v3.25h-42.99c0,12.41,6.06,37.67,30.73,37.67
		C334.32,98.69,338.31,98.25,341.26,96.77L341.26,96.77z M300.19,56.14h29.84c0-7.83-2.66-18.02-14.04-18.02
		C304.77,38.12,300.19,50.68,300.19,56.14L300.19,56.14z M218.5,102.68V48.9c0-8.86-6.95-9.31-11.23-9.6v-2.51l22.75-3.55v19.5h0.29
		c2.07-5.47,8.72-19.5,23.34-19.5c15.66,0,17.14,8.57,17.14,22.31v47.13h-11.52V58.8c0-12.71-0.15-18.47-9.9-18.47
		c-8.72,0-19.35,16.69-19.35,30.73v31.62H218.5L218.5,102.68z"/>
	<path class="st1" d="M123.56,31.63v-3.4C123.56,8.72,128.88,0,151.49,0c7.24,0,16.26,2.81,16.26,8.87c0,4.58-3.25,7.09-7.09,7.09
		c-9.31,0-4.88-11.08-14.34-11.08c-11.23,0-11.23,9.9-11.23,20.99v5.77H123.56L123.56,31.63z M135.09,102.68h-11.54l0.01-58.93
		h11.53L135.09,102.68L135.09,102.68z"/>
	<path class="st1" d="M176.07,11.01c0-4.13,3.34-7.47,7.47-7.47c4.13,0,7.47,3.34,7.47,7.47c0,4.12-3.34,7.47-7.47,7.47
		C179.41,18.48,176.07,15.14,176.07,11.01L176.07,11.01z"/>
</g>
</svg>
