<?xml version="1.0" encoding="utf-8"?>
<!-- Generator: Adobe Illustrator 25.2.1, SVG Export Plug-In . SVG Version: 6.00 Build 0)  -->
<svg version="1.1" id="Ebene_1" xmlns="http://www.w3.org/2000/svg" xmlns:xlink="http://www.w3.org/1999/xlink" x="0px" y="0px"
	 viewBox="0 0 852 550" style="enable-background:new 0 0 852 550;" xml:space="preserve">
<style type="text/css">
	.st0{fill:#6EA882;}
</style>
<g>
	<path class="st0" d="M658.5,288.4v-34h-34v-56.1h-34v184.3h34v-94.1h34V288.4z M545.9,289.6l16.9-22.1
		c-13.1-10.9-29.8-16.3-49.9-16.3c-11.9,0-23.1,2.7-33.4,8.2c-10.4,5.4-18.7,13.3-25,23.5s-9.4,22-9.4,35.6
		c0,13.7,2.9,25.7,8.8,35.9c5.8,10.2,14.2,18,25,23.5c10.8,5.4,23.3,8.2,37.4,8.2c8.3,0,16.5-1.4,24.7-4.1c8.2-2.7,15.1-6.4,20.7-11
		l-16.9-21.2c-6.9,5.7-15.3,8.5-25.4,8.5c-11.7,0-21.3-3.8-28.9-11.4c-7.6-7.6-11.4-17-11.4-28.3s3.6-20.7,10.7-28.3
		c7.2-7.6,15.9-11.4,26.2-11.4c5.8,0,11.3,1.1,16.5,3.2C537.5,284,542,286.6,545.9,289.6L545.9,289.6z M385.5,382.5h33.9V254.4
		h-33.9v17.4c-10.3-15.3-25.6-23.1-46.3-23.1c-11.7,0-22.4,2.9-32.2,8.6c-9.8,5.8-17.6,13.9-23.5,24.5s-8.8,22.9-8.8,36.8
		c0,14.3,2.8,26.5,8.5,36.6c5.6,10.1,13.3,17.7,23,22.9c9.7,5.1,20.7,7.7,33,7.7c10.5,0,19.7-2.3,27.5-6.8c7.9-4.5,14.2-9.5,18.8-15
		V382.5L385.5,382.5z M385.5,330.8c-2.6,8.7-7.1,15.4-13.5,20.1c-6.4,4.7-14.2,7.1-23.5,7.1c-7.1,0-13.6-1.8-19.7-5.4
		c-6.1-3.6-10.9-8.6-14.5-14.8c-3.6-6.3-5.4-13.2-5.4-20.9c0-11.7,3.7-21.3,11.2-28.9c7.5-7.6,16.5-11.3,27.2-11.3
		c9.1,0,17.1,2.4,24.1,7.3c7,4.8,11.7,11.2,14.1,19.1L385.5,330.8L385.5,330.8z M263.8,196.7l14-24.1c-4.2-2.8-9.3-5-15.1-6.5
		c-5.9-1.5-11.3-2.3-16.4-2.3c-17,0-30,5.1-39.1,15.1c-9.1,10.1-13.6,24.1-13.6,42.1v33.3h34l-0.1-32.4c0-20.7,9.5-30.3,22.4-30.3
		C255.5,191.7,259.5,193.2,263.8,196.7L263.8,196.7z M261.5,254.4h-34v34h34V254.4L261.5,254.4z M227.5,382.5v-94.1h-34v94.1H227.5
		L227.5,382.5z"/>
</g>
</svg>
