<?xml version="1.0" encoding="utf-8"?>
<!-- Generator: Adobe Illustrator 24.0.1, SVG Export Plug-In . SVG Version: 6.00 Build 0)  -->
<svg version="1.1" id="Ebene_1" xmlns="http://www.w3.org/2000/svg" xmlns:xlink="http://www.w3.org/1999/xlink" x="0px" y="0px"
	 viewBox="0 0 756.9 311.8" style="enable-background:new 0 0 756.9 311.8;" xml:space="preserve">
<style type="text/css">
	.st0{fill:#1D1D1B;}
	.st1{clip-path:url(#SVGID_2_);}
	.st2{fill:none;}
</style>
<g id="Logo_EuroDaT">
	<path class="st0" d="M5.1,225.8h19.1v2.5H5.1V225.8z M13.3,226.9H16v26h-2.7V226.9z"/>
	<path class="st0" d="M26.8,225.8h2.7v27.1h-2.7V225.8z M39.7,241.2c0.1-1.5-0.4-2.9-1.4-4c-1-1-2.4-1.5-3.8-1.4
		c-1.3-0.1-2.7,0.3-3.7,1.2c-0.9,1-1.4,2.3-1.3,3.6l-0.4-3.7c0.6-1.2,1.5-2.2,2.7-2.8c1.3-0.5,2.6-0.8,4-0.8c1.8-0.1,3.6,0.6,4.8,2
		c1.3,1.7,1.9,3.8,1.8,5.9v11.7h-2.7V241.2z"/>
	<path class="st0" d="M51.5,252.2c-1.2-0.7-2.3-1.7-2.9-3c-0.7-1.5-1.1-3.1-1-4.7v-2.2c-0.1-1.7,0.3-3.4,1-4.9
		c0.6-1.3,1.5-2.4,2.7-3.1c1.4-0.7,2.9-1.1,4.4-1c1.5-0.1,2.9,0.3,4.2,1c1.2,0.7,2.1,1.8,2.6,3.1c0.6,1.5,1,3.2,0.9,4.8v2.2h-14V242
		h11.5v-0.2c0.1-1.6-0.4-3.2-1.3-4.5c-2.3-2.1-5.8-2-8,0.1c-1.1,1.3-1.6,3-1.5,4.7v2.5c-0.1,1.7,0.5,3.3,1.6,4.5
		c1.2,1.1,2.8,1.7,4.4,1.6c0.9,0,1.8-0.2,2.6-0.6c0.9-0.3,1.7-0.9,2.4-1.6l1.8,1.8c-0.9,0.9-2,1.6-3.2,2.1c-1.1,0.5-2.4,0.8-3.6,0.8
		C54.5,253.3,52.9,252.9,51.5,252.2z"/>
	<path class="st0" d="M79.3,225.8h2.6v27.1h-2.6V225.8z M81.1,225.8h15.6v2.5H81.1V225.8z M81.1,238.2h13.5v2.5H81.1V238.2z
		 M81.1,250.4h15.6v2.5H81.1V250.4z"/>
	<path class="st0" d="M104.4,245.3c-0.1,1.5,0.4,2.9,1.3,4c1,1,2.4,1.5,3.8,1.4c1.4,0.1,2.7-0.4,3.7-1.3c0.9-1,1.4-2.3,1.3-3.6
		l0.2,4c-0.5,1-1.3,1.9-2.3,2.4c-1.2,0.7-2.6,1.1-4,1c-1.9,0.1-3.7-0.7-5-2.1c-1.2-1.7-1.8-3.7-1.7-5.8v-11.7h2.7V245.3z
		 M114.5,233.6h2.7v19.3h-2.7V233.6z"/>
	<path class="st0" d="M122.9,233.6h2.7v19.3h-2.7V233.6z M132.8,236.1c-0.7-0.2-1.4-0.3-2.1-0.3c-1.4-0.1-2.7,0.4-3.7,1.3
		c-1,0.9-1.5,2.3-1.4,3.6l-0.4-3.8c0.7-1.1,1.7-2,2.8-2.7c1.2-0.6,2.5-0.9,3.8-0.9c0.8,0,1.6,0.1,2.4,0.4c0.7,0.2,1.4,0.6,1.9,1.1
		l-1.8,2.2C133.9,236.6,133.4,236.3,132.8,236.1L132.8,236.1z"/>
	<path class="st0" d="M142,252.2c-1.2-0.7-2.2-1.7-2.8-2.9c-0.6-1.4-0.9-3-0.9-4.5v-3.2c0-1.5,0.3-3.1,0.9-4.5
		c0.7-1.2,1.6-2.2,2.8-2.9c2.7-1.2,5.9-1.2,8.6,0c1.2,0.7,2.1,1.7,2.7,2.9c0.7,1.4,1,2.9,1,4.5v3.2c0,1.6-0.3,3.1-1,4.5
		c-0.6,1.2-1.5,2.2-2.7,2.9C147.9,253.6,144.7,253.6,142,252.2z M150.2,249.1c1-1.2,1.5-2.7,1.4-4.3v-3.2c0.1-1.6-0.4-3.1-1.4-4.3
		c-1-1-2.4-1.6-3.9-1.5c-1.5-0.1-2.9,0.5-3.9,1.5c-1,1.2-1.5,2.7-1.4,4.3v3.2c-0.1,1.6,0.4,3.1,1.4,4.3c1,1.1,2.4,1.7,3.9,1.6
		C147.8,250.8,149.2,250.3,150.2,249.1z"/>
	<path class="st0" d="M159.7,233.6h2.6v27.2h-2.6V233.6z M164.4,252.4c-1.1-0.5-1.9-1.4-2.3-2.5l0.2-4.1c0,0.9,0.2,1.7,0.6,2.5
		c1,1.5,2.6,2.5,4.4,2.6c1.4,0.1,2.8-0.5,3.7-1.5c0.9-1.1,1.4-2.5,1.3-4v-4.2c0.1-1.5-0.4-3-1.3-4.2c-1-1-2.3-1.5-3.7-1.4
		c-0.9,0-1.8,0.2-2.6,0.7c-1.5,0.9-2.4,2.5-2.4,4.2l-0.3-3.7c0.6-1.1,1.5-2.1,2.6-2.7c1.2-0.6,2.6-0.9,3.9-0.8
		c1.2,0,2.4,0.3,3.5,0.9c1,0.6,1.8,1.6,2.3,2.7c0.5,1.4,0.8,2.8,0.7,4.3v4.2c0.1,1.4-0.2,2.9-0.8,4.2c-0.4,1.1-1.3,2.1-2.3,2.7
		c-1.1,0.6-2.3,0.9-3.6,0.9C167,253.3,165.6,253,164.4,252.4L164.4,252.4z"/>
	<path class="st0" d="M183.8,252.2c-1.3-0.7-2.3-1.7-2.9-3c-0.7-1.5-1.1-3.1-1-4.7v-2.2c0-1.7,0.3-3.3,0.9-4.9
		c0.6-1.3,1.6-2.3,2.8-3.1c1.4-0.7,2.9-1.1,4.4-1c1.5,0,2.9,0.3,4.2,1c1.2,0.7,2.1,1.8,2.6,3.1c0.6,1.5,1,3.2,0.9,4.8v2.2h-14V242
		h11.5v-0.2c0.1-1.6-0.4-3.2-1.4-4.5c-1-1-2.4-1.6-3.8-1.5c-1.6-0.1-3.1,0.5-4.2,1.6c-1,1.4-1.5,3-1.4,4.7v2.5
		c-0.1,1.6,0.4,3.2,1.5,4.5c1.2,1.1,2.8,1.7,4.5,1.6c0.9,0,1.8-0.2,2.6-0.6c0.9-0.3,1.7-0.9,2.4-1.6l1.8,1.8c-0.9,0.9-2,1.6-3.2,2.1
		c-1.1,0.5-2.4,0.8-3.6,0.8C186.8,253.3,185.2,252.9,183.8,252.2z"/>
	<path class="st0" d="M201.8,251.6c-1.2-1.1-1.9-2.7-1.8-4.4c-0.1-1.6,0.5-3.1,1.7-4.2c1.4-1.1,3.1-1.6,4.8-1.5h6.4l0.3,2.5h-6.7
		c-1-0.1-2.1,0.2-2.9,0.8c-0.6,0.6-1,1.5-1,2.4c0,1,0.4,2,1.3,2.5c1.1,0.7,2.3,1,3.6,0.9c1.3,0.1,2.6-0.1,3.9-0.5
		c0.9-0.3,1.4-0.8,1.4-1.4l0.4,2.6c-0.4,0.4-0.9,0.7-1.5,1l-2.1,0.7l-2.5,0.2C205.2,253.4,203.3,252.8,201.8,251.6z M212.8,240.6
		c0-1.3-0.4-2.6-1.3-3.6c-0.9-0.9-2.3-1.4-3.6-1.3c-0.9,0-1.8,0.1-2.7,0.4c-0.8,0.3-1.6,0.8-2.3,1.3l-2-1.3c0.8-0.9,1.8-1.6,2.9-2.1
		c1.3-0.5,2.6-0.7,4-0.7c1.4,0,2.8,0.2,4.1,0.8c1.1,0.5,2.1,1.4,2.7,2.5c0.5,1.2,0.8,2.6,0.8,3.9v12.4h-2.6V240.6z"/>
	<path class="st0" d="M221.2,233.6h2.7v19.3h-2.7V233.6z M234.1,241.2c0.1-1.5-0.4-2.9-1.4-4c-1-1-2.4-1.5-3.8-1.4
		c-1.3-0.1-2.7,0.3-3.7,1.2c-0.9,1-1.4,2.3-1.3,3.6l-0.4-3.7c0.6-1.2,1.5-2.2,2.7-2.8c1.3-0.5,2.6-0.8,4-0.8c1.8-0.1,3.6,0.6,4.9,2
		c1.2,1.7,1.8,3.8,1.7,5.9v11.7h-2.7L234.1,241.2z"/>
	<path class="st0" d="M253.2,225.8h2.7v27.1h-2.7V225.8z M255.8,250.4h6.1c2.5,0,4.4-0.6,5.6-1.8s1.9-2.9,1.9-5.3v-7.9
		c0-2.4-0.6-4.2-1.9-5.3s-3.1-1.8-5.6-1.8h-6.1v-2.5h6c2-0.1,3.9,0.3,5.7,1.1c1.5,0.7,2.7,1.8,3.5,3.2c0.8,1.7,1.2,3.5,1.1,5.4v7.7
		c0.1,1.9-0.3,3.7-1.2,5.4c-0.7,1.4-1.9,2.5-3.4,3.2c-1.8,0.8-3.7,1.2-5.7,1.1h-6V250.4z"/>
	<path class="st0" d="M278.8,251.6c-1.3-1.1-2-2.7-1.9-4.4c-0.1-1.6,0.5-3.1,1.7-4.2c1.4-1.1,3.1-1.6,4.9-1.5h6.4l0.3,2.5h-6.7
		c-1-0.1-2.1,0.2-2.9,0.8c-0.7,0.6-1,1.5-1,2.4c0,1,0.4,2,1.3,2.5c1.1,0.7,2.3,1,3.6,0.9c1.3,0.1,2.6-0.1,3.8-0.5
		c1-0.3,1.4-0.8,1.4-1.4l0.4,2.6c-0.4,0.4-0.9,0.7-1.5,1l-2,0.7l-2.5,0.2C282.2,253.4,280.3,252.8,278.8,251.6z M289.7,240.6
		c0.1-1.3-0.4-2.6-1.2-3.6c-1-0.9-2.3-1.4-3.6-1.3c-0.9,0-1.8,0.1-2.7,0.4c-0.9,0.3-1.7,0.7-2.4,1.3l-1.9-1.3
		c0.8-0.9,1.8-1.7,2.9-2.1c1.3-0.5,2.6-0.7,4-0.7c1.4,0,2.8,0.2,4.1,0.8c1.1,0.6,2,1.4,2.6,2.5c0.6,1.2,0.9,2.5,0.9,3.9v12.4h-2.7
		L289.7,240.6z"/>
	<path class="st0" d="M296.7,233.6h8.7v2.3h-8.7V233.6z M299.8,251.7c-0.8-1.1-1.2-2.4-1.1-3.8v-20h2.7v20c0,0.7,0.1,1.3,0.5,1.9
		c0.4,0.5,1.1,0.7,1.7,0.7h1.8v2.5h-2.2C301.9,253.2,300.7,252.7,299.8,251.7L299.8,251.7z"/>
	<path class="st0" d="M311.6,251.6c-1.3-1.1-2-2.7-1.9-4.4c-0.1-1.6,0.5-3.1,1.7-4.2c1.4-1.1,3.1-1.6,4.8-1.5h6.5l0.2,2.5h-6.6
		c-1-0.1-2.1,0.2-2.9,0.8c-0.7,0.6-1,1.5-1,2.4c-0.1,1,0.4,1.9,1.2,2.5c1.1,0.6,2.3,1,3.6,0.9c1.3,0.1,2.6-0.1,3.9-0.5
		c0.9-0.3,1.4-0.8,1.4-1.4l0.4,2.6c-0.4,0.4-0.9,0.7-1.5,1l-2.1,0.7l-2.5,0.2C314.9,253.4,313.1,252.8,311.6,251.6z M322.5,240.6
		c0.1-1.3-0.4-2.6-1.3-3.6c-0.9-0.9-2.2-1.4-3.5-1.3c-0.9,0-1.8,0.1-2.7,0.4c-0.9,0.3-1.7,0.7-2.4,1.3l-1.9-1.3
		c0.8-0.9,1.8-1.7,2.9-2.1c1.3-0.5,2.6-0.7,4-0.7c1.4,0,2.8,0.3,4.1,0.8c1.1,0.6,2,1.4,2.6,2.5c0.6,1.2,0.9,2.5,0.9,3.9v12.4h-2.7
		V240.6z"/>
	<path class="st0" d="M337.9,225.8H357v2.5h-19.1V225.8z M346.1,226.9h2.7v26h-2.7V226.9z"/>
	<path class="st0" d="M358.1,233.6h2.7v19.3h-2.7V233.6z M368,236.1c-0.7-0.2-1.4-0.3-2.1-0.3c-1.4-0.1-2.8,0.4-3.8,1.3
		c-0.9,0.9-1.4,2.3-1.3,3.6l-0.4-3.8c0.7-1.1,1.7-2,2.8-2.7c1.2-0.6,2.5-0.9,3.8-0.9c0.8,0,1.6,0.1,2.4,0.4c0.7,0.2,1.3,0.6,1.8,1.1
		l-1.7,2.2C369.1,236.6,368.6,236.3,368,236.1z"/>
	<path class="st0" d="M377.1,245.3c-0.1,1.5,0.4,2.9,1.3,4c1,1,2.4,1.5,3.8,1.4c1.4,0.1,2.7-0.4,3.7-1.3c0.9-1,1.4-2.3,1.3-3.6
		l0.3,4c-0.5,1-1.4,1.9-2.4,2.4c-1.2,0.7-2.6,1.1-4,1c-1.9,0.1-3.7-0.7-4.9-2.1c-1.3-1.7-1.9-3.7-1.8-5.8v-11.7h2.7V245.3z
		 M387.2,233.6h2.7v19.3h-2.7V233.6z"/>
	<path class="st0" d="M399.3,252.9c-1-0.2-1.9-0.5-2.8-0.9c-0.8-0.4-1.6-0.9-2.3-1.5l1.6-1.8c1,0.7,2.1,1.2,3.3,1.6
		c1,0.4,2.1,0.6,3.2,0.6c1.5,0.1,3-0.2,4.3-1c0.9-0.5,1.5-1.5,1.5-2.6c0.1-0.7-0.2-1.4-0.7-1.9c-0.5-0.5-1.2-0.8-1.9-0.9
		c-1-0.2-2.1-0.4-3.1-0.4h-1.1l-3.2-0.5c-0.8-0.3-1.5-0.8-2.1-1.4c-0.6-0.9-1-1.9-0.9-3c0-1.1,0.3-2.2,0.9-3.1c0.6-1,1.6-1.7,2.7-2
		c1.3-0.5,2.8-0.8,4.2-0.7l2.5,0.2l2.4,0.7c0.8,0.3,1.5,0.7,2.2,1.2l-1.6,1.8c-0.9-0.5-1.9-0.9-2.9-1.2c-0.9-0.3-1.9-0.4-2.8-0.4
		c-1.3-0.1-2.6,0.2-3.7,0.9c-0.9,0.5-1.4,1.5-1.4,2.6c0,0.6,0.3,1.2,0.7,1.7c0.6,0.4,1.2,0.7,1.9,0.7c1,0.2,2,0.3,3,0.3h0.6
		c1.2,0,2.3,0.2,3.4,0.5c1,0.2,1.8,0.7,2.4,1.5c0.7,1,1.1,2.2,1,3.4c0,1.1-0.3,2.3-1,3.2c-0.7,0.9-1.7,1.6-2.8,2
		C404.4,253.3,401.8,253.5,399.3,252.9L399.3,252.9z"/>
	<path class="st0" d="M414,233.6h8.7v2.3H414V233.6z M417,251.7c-0.8-1.1-1.2-2.4-1.1-3.8v-20h2.7v20c0,0.7,0.2,1.4,0.6,1.9
		c0.4,0.5,1,0.7,1.6,0.7h1.9v2.5h-2.2C419.2,253.2,417.9,252.7,417,251.7z"/>
	<path class="st0" d="M431.2,252.2c-1.2-0.7-2.2-1.7-2.9-3c-0.7-1.5-1-3.1-1-4.7v-2.2c0-1.7,0.3-3.4,1-4.9c0.6-1.3,1.6-2.4,2.8-3.1
		c1.4-0.7,2.9-1.1,4.4-1c1.4-0.1,2.9,0.3,4.1,1c1.2,0.7,2.1,1.8,2.6,3.1c0.6,1.5,1,3.2,0.9,4.8v2.2h-13.9V242h11.5v-0.2
		c0.1-1.6-0.4-3.2-1.4-4.5c-1-1-2.4-1.6-3.8-1.5c-1.6-0.1-3.1,0.5-4.2,1.6c-1.1,1.3-1.6,3-1.5,4.7v2.5c-0.1,1.6,0.5,3.3,1.6,4.5
		c1.2,1.1,2.8,1.7,4.4,1.6c0.9,0,1.9-0.2,2.7-0.6c0.9-0.3,1.7-0.9,2.3-1.6l1.8,1.8c-0.9,0.9-2,1.6-3.2,2.1c-1.1,0.5-2.4,0.8-3.6,0.8
		C434.2,253.3,432.6,252.9,431.2,252.2z"/>
	<path class="st0" d="M451.7,252.2c-1.2-0.7-2.3-1.7-2.9-3c-0.7-1.5-1.1-3.1-1-4.7v-2.2c-0.1-1.7,0.3-3.4,1-4.9
		c0.6-1.3,1.6-2.4,2.8-3.1c1.3-0.7,2.9-1.1,4.4-1c1.4-0.1,2.9,0.3,4.1,1c1.2,0.7,2.1,1.8,2.6,3.1c0.6,1.5,1,3.2,0.9,4.8v2.2h-14V242
		h11.5v-0.2c0.1-1.6-0.4-3.2-1.3-4.5c-1-1-2.4-1.6-3.8-1.5c-1.6-0.1-3.1,0.5-4.2,1.6c-1.1,1.3-1.6,3-1.5,4.7v2.5
		c-0.1,1.7,0.5,3.3,1.6,4.5c1.2,1.1,2.8,1.7,4.4,1.6c0.9,0,1.8-0.2,2.6-0.6c0.9-0.3,1.7-0.9,2.4-1.6l1.8,1.8c-0.9,0.9-2,1.6-3.2,2.1
		c-1.1,0.5-2.4,0.8-3.6,0.8C454.7,253.3,453.1,252.9,451.7,252.2z"/>
	<path class="st0" d="M5,100.9h12.5v89.2H5V100.9z M11.1,100.9h51.2v11.9H11.1V100.9z M11.1,139.9h44.5v11.9H11.1V139.9z
		 M11.1,178.2h51.2v11.9H11.1V178.2z"/>
	<path class="st0" d="M91.4,165.2c0,4.4,1.2,7.9,3.4,10.3c2.5,2.5,6,3.9,9.6,3.7c4.1,0,7.3-1.1,9.6-3.3c2.2-2.2,3.3-5.2,3.3-9.3
		l0.9,13.4c-1.4,3.2-3.6,5.9-6.4,7.9c-3.2,2.2-7,3.3-10.9,3.2c-7,0-12.4-2.3-16.3-6.8s-5.7-10.9-5.7-19.1v-38.8h12.5L91.4,165.2z
		 M117.3,126.4h12.5v63.7h-12.5L117.3,126.4z"/>
	<path class="st0" d="M148.8,126.4h12.5v63.7h-12.5V126.4z M179.7,138.5c-1.8-0.7-3.8-1.1-5.8-1.1c-4,0-7.1,1.1-9.3,3.3
		c-2.2,2.2-3.3,5.2-3.3,9.1l-1.3-12.2c1.7-3.6,4.4-6.7,7.7-8.9c3-2.1,6.6-3.2,10.3-3.2c2.7-0.1,5.3,0.4,7.8,1.3
		c2.3,0.8,4.4,2,6.2,3.7l-8.1,11C182.7,140.2,181.3,139.2,179.7,138.5L179.7,138.5z"/>
	<path class="st0" d="M211.5,187.8c-3.9-2.1-7.1-5.4-9-9.5c-2.1-4.1-3.1-9.1-3.1-15V153c0-5.8,1-10.8,3.1-14.9c1.9-4,5.1-7.3,9-9.4
		c9-4.3,19.3-4.3,28.3,0c3.9,2.1,7,5.4,9,9.4c2.1,4.1,3.1,9.1,3.1,14.9v10.5c0,5.8-1,10.8-3.1,14.9c-2,4-5.1,7.3-9,9.4
		C230.9,192.2,220.4,192.2,211.5,187.8L211.5,187.8z M235.8,175.1c2.4-2.8,3.6-6.6,3.6-11.6V153c0-5-1.2-8.8-3.6-11.5
		s-5.8-4.1-10.2-4.1s-7.7,1.4-10.1,4.1s-3.6,6.5-3.6,11.5v10.5c0,5,1.2,8.8,3.6,11.6s5.8,4.1,10.1,4.1S233.4,177.8,235.8,175.1z"/>
	<path class="st0" d="M270.9,100.9h12.6v89.2h-12.6V100.9z M279.4,178.2h20.2c6.6,0,11.7-1.7,15.3-5.1c3.6-3.4,5.4-8.2,5.4-14.4
		v-26.3c0-6.2-1.8-11-5.4-14.5s-8.7-5.1-15.3-5.1h-20.2v-11.9h19.8c6.3-0.2,12.6,1.1,18.4,3.8c4.9,2.3,9,6.1,11.6,10.9
		c2.8,5.3,4.1,11.3,4,17.3v25.3c0.1,6-1.2,12-4,17.3c-2.7,4.8-6.8,8.6-11.7,10.9c-5,2.5-11.2,3.7-18.3,3.7h-19.8V178.2z"/>
	<path class="st0" d="M355,186.2c-3.9-3.3-5.9-8.2-5.9-14.8s1.8-11.1,5.4-14.2s8.9-4.7,16.1-4.7h18.1l0.9,10h-18.9
		c-3.3,0-5.8,0.8-7.4,2.2s-2.4,3.7-2.4,6.7s1.1,5.6,3.2,7.1s5.4,2.4,9.8,2.4s8.4-0.5,10.7-1.6s3.6-2.6,3.6-4.7l1.2,8.9
		c-1.1,1.7-2.4,3.1-4,4.3c-1.7,1.1-3.7,2-5.7,2.4c-2.3,0.6-4.7,0.9-7.1,0.9C364.7,191.1,358.8,189.4,355,186.2z M388.2,149.8
		c0-4.2-1.2-7.4-3.4-9.8s-5.4-3.4-9.5-3.4c-2.5,0-5,0.4-7.4,1.1c-2.3,0.7-4.5,1.8-6.5,3.3l-9.1-6.3c2.6-3,5.8-5.3,9.5-6.8
		c4.2-1.7,8.7-2.5,13.2-2.4c4.7-0.1,9.3,0.9,13.5,2.8c3.6,1.7,6.7,4.6,8.6,8.1c2.1,3.9,3.1,8.3,3,12.8v40.9h-11.9V149.8z"/>
	<rect x="428.4" y="108.2" class="st0" width="12.5" height="4.6"/>
	<polygon class="st0" points="440.9,108.2 440.9,112.8 466.1,112.8 466.1,100.9 403.1,100.9 403.1,112.8 428.4,112.8 428.4,108.2 	
		"/>
	<rect x="428.4" y="112.8" class="st0" width="12.5" height="77.3"/>
	<g>
		<defs>
			<rect id="SVGID_1_" x="455.7" y="-1.3" width="308.5" height="314.3"/>
		</defs>
		<clipPath id="SVGID_2_">
			<use xlink:href="#SVGID_1_"  style="overflow:visible;"/>
		</clipPath>
		<g class="st1">
			<path class="st0" d="M604.6,2.4c-68.5-0.3-128.8,45.2-147.5,111.1h56.7v-38l82.9,76.8l-82.9,77.9v-39.5h-58.1
				C471.8,258.3,532.3,309,604.6,309c84.7-2.2,151.6-72.6,149.4-157.3C751.9,70.1,686.3,4.4,604.6,2.3V2.4z M608.5,252.7h-8.3V45.4
				h8.3V252.7z M698.2,205.4v-27.2h-82.1c0,0,0-27.4,0.1-53.4h82V98.4l52.9,53.2L698.2,205.4z"/>
		</g>
	</g>
	<path class="st2" d="M456.3,2.4v111.1h57.5v-38l82.9,76.8l-82.9,77.9v-39.5h-57.5v119.6h301.1V2.4H456.3z M608.5,252.7h-8.3V45.4
		h8.3V252.7z M701.2,205.4v-27.2h-86.1c0,0,0-27.4,0.1-53.4h86V98.4l55.9,53.2L701.2,205.4z"/>
	<rect x="600.2" y="45.4" class="st2" width="8.3" height="207.3"/>
	<polygon class="st2" points="513.8,230.2 596.7,152.4 513.8,75.6 513.8,113.6 456.3,113.5 456.3,190.8 513.8,190.7 	"/>
	<path class="st2" d="M701.2,98.4v26.3h-86c-0.1,26-0.1,53.4-0.1,53.4h86.1v27.2"/>
	<path class="st0" d="M513.8,113.6v-38l2,1.8v-4.5l-23.5,26.9l-89.1,11.7v2.2h48.6v-0.2L513.8,113.6z"/>
	<path class="st0" d="M515.8,77.4l-2-1.8v38h-62.1v0.2h64.1V77.4z"/>
</g>
</svg>
