<?xml version="1.0" encoding="utf-8"?>
<!-- Generator: Adobe Illustrator 19.2.1, SVG Export Plug-In . SVG Version: 6.00 Build 0)  -->
<svg version="1.1" id="layer" xmlns="http://www.w3.org/2000/svg" xmlns:xlink="http://www.w3.org/1999/xlink" x="0px" y="0px"
	 viewBox="0 0 652 652" style="enable-background:new 0 0 652 652;" xml:space="preserve">
<style type="text/css">
	.st0{fill:#003D3F;}
</style>
<g id="Layer_1">
	<path class="st0" d="M478.6,299.3c-11.5,5.5-23,4.8-23,4.8c-43.8,0.7-41.1-41.1-41.1-41.1c0.8-46.1,38.8-43.3,38.8-43.3
		c22.8-2.5,48.6,12.3,48.6,12.3v-29.5c-16.3-8.8-32-11.6-45.6-11.6c-25.2,0-43,9.9-43,9.9C363.9,228,385,290.3,385,290.3
		c14.8,43.6,68.6,42.5,68.6,42.5c37.8,0,51.1-19.5,51.1-19.5v-55.8h-52.3l10,25.3h16.3V299.3z M296.9,279.6l-9,23.8h55.8l11.8,27.8
		h37.1l-61.1-138.7l-16,41.3l19,45.8H296.9z M283.9,192.5H184v138.7h92.4l10.4-25h-68.5v-33.5h62.8v-25.8h-62.8V218h65.6V192.5z
		 M97.4,243.6l40.3-51.1H168v138.7h-34.8v-85.8l-32.5,42.3h-5.8l-33.8-42.5v86.1H26.8V192.5h29.5L97.4,243.6z"/>
	<path d="M62.9,445.9l-14.1-43.8h-7.6l-14.4,43.8h6.4l3.8-12.4h15.2l3.9,12.4H62.9z M50.8,428.5H38.5c0.8-2.1,5.4-17.8,6-20.3h0.4
		C45.5,410.8,50,426.4,50.8,428.5 M125.5,445.9l-3.7-43.7h-8.6l-7.6,27.2c-0.8,2.9-1.3,5.8-1.5,6.9h-0.1c-0.1-1-0.6-3.6-1.6-7.2
		l-7.4-26.9h-8.6l-3.9,43.7h6l2.2-29c0.2-2.3,0.4-6.5,0.4-8h0.1c0.3,1.4,1,4.6,2,8l8,29h5.3l8.7-30.3c0.7-2.3,1.3-5.3,1.6-6.5h0.1
		c0.1,1.3,0.1,4.8,0.3,7.1l2.3,29.8H125.5z M161.2,443.8c-1.3-1.1-2-3.4-2-6.6v-23.9l-5.8,1.1v22.9c-1.3,2.8-4.4,5-7.2,5
		c-1.4,0-2.9-0.6-3.7-1.4c-1.1-1.1-1.5-2.3-1.5-5.6v-22.2l-5.8,1.1v22.6c0,2.3,0.2,4.1,0.8,5.3c1.3,2.9,4.5,4.8,8.6,4.8
		c3.9,0,7-1.5,9.6-4.6c0.6,2.2,1.4,3.4,3,4.6L161.2,443.8z M194.4,445.9v-24.1c0-1.5-0.3-2.9-0.8-4c-1.1-2.7-4.1-4.5-7.5-4.5
		c-2,0-4.1,0.5-5.9,1.6c-1.2,0.7-2.1,1.4-4.1,3.1c0-2-0.3-3.4-1.1-4.9l-5.5,1.5c0.9,2.3,1.2,3.7,1.2,7.6v23.7h5.8v-23.6
		c2.2-2.3,5.6-4.1,7.9-4.1c1.5,0,2.6,0.4,3.2,1.3c0.8,1,1,2,1,4.9v21.5H194.4z M212.4,445.9v-32.6l-6,1v31.6H212.4z M213.6,404.3
		c0-2.4-1.9-4.3-4.2-4.3c-2.3,0-4.1,1.9-4.1,4.3c0,2.3,1.8,4.2,4.1,4.2C211.7,408.5,213.6,406.6,213.6,404.3 M245.2,442.4l-2.9-3.6
		c-1.9,2.2-4.3,3.3-6.6,3.3c-1.8,0-3.4-0.7-4.6-1.9c-1.6-1.8-2.5-4.7-2.5-9.1c0-4.4,0.4-7.6,1.5-9.7c1.1-2.2,3.2-3.4,5.6-3.4
		c2,0,3.5,0.6,5.6,2.5l3-4c-2.4-2.2-5.2-3.4-8.6-3.4c-3.1,0-5.9,1.1-8.3,3.2c-3,2.7-5.3,6.9-5.3,14c0,4.8,1,8.5,3,11.5
		c2.2,3.2,5.7,4.8,10.2,4.8C239.5,446.6,242.2,445.4,245.2,442.4 M277.2,445.9v-22.7c0-2.9-0.1-3.7-0.6-5.1c-1-2.9-4.3-4.8-8-4.8
		c-2.4,0-4.6,0.6-6.9,2.2c-1.3,0.8-2,1.3-3.4,2.6c0.1-1.6,0.2-3.1,0.2-4.3v-7.1c0-3.1-0.3-5.5-0.7-7.4l-5.9,1.2
		c0.4,1.8,0.7,3.9,0.7,6.7v38.7h5.9v-22.9c2.5-2.9,5.7-4.6,8.4-4.6c1.5,0,2.9,0.6,3.5,1.2c0.6,0.7,1.1,2.2,1.1,4.4v21.8H277.2z
		 M332.3,445.9l-6.4-10.1c-1.5-2.3-2.8-4.2-3.7-5.4c-1.3-1.8-1.9-2.5-3.8-4.1h0.5c7,0,11.2-5.3,11.2-12c0-4.3-1.9-7.2-3.9-9
		c-2.1-2-5.1-3.2-10.3-3.2h-12.3v43.7h6.1v-19.4c1.8,0.1,2.8,0.7,3.9,2c3.1,3.5,4.2,5.3,7.6,10.9c1.8,3,2.4,4,3.6,6.5H332.3z
		 M323.8,414.4c0,2.5-0.8,4.6-2.2,5.9c-1.5,1.5-3.7,2.1-7.6,2.1h-4.3v-15.2h4.6c2.3,0,4.1,0.3,5.3,0.8
		C322.1,409,323.8,411.4,323.8,414.4 M363.3,431.3v-1c-0.1-7.3-1.1-10.9-3.9-13.7c-2.2-2.3-5.1-3.4-8.6-3.4c-3.9,0-7,1.4-9.6,4.4
		c-2.7,3.2-3.8,6.8-3.8,12.3c0,10.4,5.4,16.8,14.2,16.8c4.1,0,7.9-1.3,11-4.1l-2.2-3.5c-2.3,2-4.8,3-7.8,3c-3,0-5.6-1.2-7.3-3.7
		c-1-1.5-1.3-3.6-1.3-6.4v-0.8H363.3z M357.2,426.9H344c0-5.8,2.2-9.4,6.7-9.4c2,0,3.6,1,4.6,2.2
		C356.5,421.4,357.2,423.9,357.2,426.9 M408.4,442.4l-2.9-3.6c-1.9,2.2-4.3,3.3-6.6,3.3c-1.8,0-3.4-0.7-4.6-1.9
		c-1.6-1.8-2.5-4.7-2.5-9.1c0-4.4,0.4-7.6,1.5-9.7c1.1-2.2,3.2-3.4,5.6-3.4c2,0,3.5,0.6,5.6,2.5l3-4c-2.4-2.2-5.2-3.4-8.6-3.4
		c-3.1,0-5.9,1.1-8.3,3.2c-3,2.7-5.3,6.9-5.3,14c0,4.8,1,8.5,3,11.5c2.2,3.2,5.7,4.8,10.2,4.8C402.7,446.6,405.4,445.4,408.4,442.4
		 M440.8,430.3c0-9.6-4.6-17.1-14-17.1c-8.4,0-13.7,6.5-13.7,16.8c0,10.3,5.3,16.8,13.8,16.8C435.4,446.8,440.8,440.4,440.8,430.3
		 M434.2,430.6c0,8.3-2.7,11.7-7.2,11.7c-5,0-7.4-3.2-7.4-13c0-8,2.1-11.6,7.2-11.6C431.4,417.7,434.2,420.7,434.2,430.6
		 M488.6,445.9v-23.7c0-5.8-3.2-8.9-8.1-8.9c-3.2,0-6.5,1.6-9.7,5c-1.6-3.4-4.6-5-7.6-5s-6.2,1.6-8.9,4.5c0-1.8-0.4-3.4-1.1-4.4
		l-5.5,1.3c0.9,2.2,1.1,3.4,1.1,7.9v23.4h5.8v-23.9c2.7-2.6,5.1-3.7,7.3-3.7c2.9,0,3.9,1.3,3.9,4.9v22.7h5.7v-23.4
		c2.4-2.4,4.5-4.3,7.4-4.3c2.7,0,3.8,1.3,3.8,4.9v22.8H488.6z M525.6,429.5c0-10.9-5.5-16.2-11.9-16.2c-3.4,0-6.5,1.5-9,4.4
		c0-2.7-0.1-3.6-0.4-4.6l-5.6,1c0.4,2,0.7,4.1,0.7,7.8v37.4l5.7-1.3v-11.2c0-1.1,0-2.5-0.1-3.6c2.5,2.2,5.3,3.3,8.3,3.3
		C521.2,446.6,525.6,439.4,525.6,429.5 M519.3,430.2c0,7.7-2.4,11.7-7.5,11.7c-2.3,0-4.8-1.4-6.8-3.5v-16.2c2.2-2.5,4.8-3.9,7.6-3.9
		C517.6,418.3,519.3,422.6,519.3,430.2 M559,443.3c-2.5-1.5-2.6-3.3-2.6-7.7c0-4.6,0.3-9.5,0.3-11.8c0-3.1-0.1-4.2-0.6-5.6
		c-1.2-3.4-4.6-5.1-9.2-5.1c-6.2,0-10.2,2.4-13.3,4.2l2.7,4.2c2.6-2,6.4-3.6,9.8-3.6c4.4,0,5,2.5,5,6.3v2.1
		c-0.8-0.1-1.5-0.1-2.2-0.1c-10.3,0-16.2,3.9-16.2,11.3c0,6.1,3.9,9.3,10.3,9.3c5.5,0,8.2-3.2,9-4.2c0.8,2.2,2.3,3.8,4.3,4.6
		L559,443.3z M550.7,430.3l-0.2,8.1c-1.5,2.5-4,4.2-6.7,4.2c-3.2,0-5-2-5-5.5c0-2.1,0.4-3.2,1.6-4.6c1.3-1.5,3.9-2.3,8.3-2.3
		C549.3,430.2,549.9,430.2,550.7,430.3 M591.7,445.9v-24.1c0-1.5-0.3-2.9-0.8-4c-1.1-2.7-4.1-4.5-7.5-4.5c-2,0-4.1,0.5-5.9,1.6
		c-1.2,0.7-2.1,1.4-4.1,3.1c0-2-0.3-3.4-1.1-4.9l-5.5,1.5c0.9,2.3,1.2,3.7,1.2,7.6v23.7h5.8v-23.6c2.2-2.3,5.6-4.1,7.9-4.1
		c1.5,0,2.6,0.4,3.2,1.3c0.8,1,1,2,1,4.9v21.5H591.7z M626.8,414.1h-6.5l-5.6,18.8c-0.9,2.9-1.6,5.7-2.2,7.9h-0.4
		c-0.4-2.2-1.3-5.5-1.8-7.5l-6.1-20l-5.9,1.3l7,20.9c1.3,3.7,2.2,6.9,3.1,10.6l2.3-0.3c-1,3.2-1.6,5-2.6,6.2c-1.6,2-3.2,3-5.5,3.6
		l1.8,3.8c2.2-0.4,4.4-1.5,5.9-2.7c2.2-1.8,3.9-5.3,5.4-9.8L626.8,414.1z"/>
</g>
</svg>
