<?xml version="1.0" encoding="UTF-8"?>
<svg xmlns="http://www.w3.org/2000/svg" viewBox="0 0 340.16 107.72">
  <title>VÖB-Service_Logo</title>
  <g id="VÖB-SERVICE_LOGO">
    <rect x="5.67" y="17.05" width="28.35" height="73.7" fill="#1992d6"></rect>
    <rect x="34.01" y="28.39" width="28.35" height="73.7" fill="#235198"></rect>
    <rect x="62.36" y="5.71" width="28.35" height="73.7" fill="#1992d6"></rect>
    <path d="M121.94,58.76A88.37,88.37,0,0,0,119.35,70q-.21-1.4-1-5c-.57-2.38-1.11-4.47-1.64-6.26l-9.48-30.37H96.39l17.1,51h11.65l17.14-51H131.49Z" fill="#235198"></path>
    <path d="M232,56.73q-2.13-3-6.91-4v-.35a8.43,8.43,0,0,0,5.63-3.52,12.47,12.47,0,0,0,2.12-7.51q0-6.73-4.84-9.83t-15.57-3.08H196.7v51h18.85q8.55,0,13.54-3.91t5-10.89A13.33,13.33,0,0,0,232,56.73ZM207.38,37.25H213q4.59,0,6.71,1.28a4.52,4.52,0,0,1,2.12,4.2,5.11,5.11,0,0,1-2,4.51c-1.3.9-3.39,1.36-6.29,1.36h-6.21Zm13.48,31.53q-2.1,1.71-6.51,1.71h-7V57.19H214q9,0,9,6.35A6.34,6.34,0,0,1,220.86,68.78Z" fill="#235198"></path>
    <path d="M166.35,27.58q-11.62,0-17.84,6.72t-6.23,19.46q0,12.75,6.21,19.55t17.79,6.81q11.58,0,17.79-6.81t6.2-19.48q0-12.7-6.15-19.48T166.35,27.58Zm-.07,43.47q-6.37,0-9.59-4.33t-3.2-12.89q0-8.55,3.24-12.89t9.62-4.35q12.72,0,12.72,17.24T166.28,71.05Z" fill="#235198"></path>
    <path d="M159.31,23.22a4.86,4.86,0,0,0,3.55-1.28,4.45,4.45,0,0,0,1.31-3.36,4.65,4.65,0,0,0-1.29-3.43,4.82,4.82,0,0,0-3.57-1.29,4.92,4.92,0,0,0-3.5,1.22,4.6,4.6,0,0,0-1.29,3.5A4.5,4.5,0,0,0,155.81,22,4.92,4.92,0,0,0,159.31,23.22Z" fill="#235198"></path>
    <path d="M173.28,23.22A5,5,0,0,0,176.83,22a4.44,4.44,0,0,0,1.34-3.38,4.52,4.52,0,0,0-1.33-3.46,5,5,0,0,0-3.56-1.26A5.31,5.31,0,0,0,169.81,15a4.34,4.34,0,0,0-1.39,3.58,4.23,4.23,0,0,0,1.39,3.5A5.31,5.31,0,0,0,173.28,23.22Z" fill="#235198"></path>
    <path d="M331.7,29.39v49H243.14v-49H331.7m1-1H242.14v51H332.7v-51Z" fill="#1992d6"></path>
    <path d="M258.73,66.19a4.3,4.3,0,0,1-1.64,3.57,7.13,7.13,0,0,1-4.54,1.3,10.83,10.83,0,0,1-4.74-.9V67.52a12.77,12.77,0,0,0,2.48.87,10.53,10.53,0,0,0,2.45.31,3.89,3.89,0,0,0,2.44-.63,2.06,2.06,0,0,0,.79-1.69,2.09,2.09,0,0,0-.73-1.62,10.65,10.65,0,0,0-3-1.58A7.81,7.81,0,0,1,249,61a4.55,4.55,0,0,1-1-2.91,4.07,4.07,0,0,1,1.52-3.36,6.27,6.27,0,0,1,4.07-1.23,12.08,12.08,0,0,1,4.88,1.07l-.89,2.28a10.64,10.64,0,0,0-4.06-1,3.16,3.16,0,0,0-2.06.59,1.94,1.94,0,0,0-.69,1.56,2.29,2.29,0,0,0,.27,1.14,3,3,0,0,0,.93.89,14.89,14.89,0,0,0,2.31,1.11A12.56,12.56,0,0,1,257,62.66a4.27,4.27,0,0,1,1.28,1.53A4.44,4.44,0,0,1,258.73,66.19Z" fill="#1992d6"></path>
    <path d="M267.26,71.06a6.24,6.24,0,0,1-4.71-1.76,6.67,6.67,0,0,1-1.7-4.84,7.34,7.34,0,0,1,1.58-5,5.45,5.45,0,0,1,4.33-1.8,5.27,5.27,0,0,1,4,1.55,5.92,5.92,0,0,1,1.49,4.27V65h-8.6a4.26,4.26,0,0,0,1,2.89,3.56,3.56,0,0,0,2.7,1,9.61,9.61,0,0,0,2.13-.22,10.55,10.55,0,0,0,2.11-.72v2.23a8.09,8.09,0,0,1-2,.68A12.53,12.53,0,0,1,267.26,71.06Zm-.5-11.3a2.79,2.79,0,0,0-2.1.83,4,4,0,0,0-.94,2.42h5.86a3.51,3.51,0,0,0-.77-2.42A2.63,2.63,0,0,0,266.76,59.76Z" fill="#1992d6"></path>
    <path d="M281.82,57.69a7.23,7.23,0,0,1,1.36.11l-.27,2.56a4.78,4.78,0,0,0-1.21-.14A3.49,3.49,0,0,0,279,61.29a3.86,3.86,0,0,0-1,2.79v6.74h-2.74V57.92h2.15l.36,2.27h.14a5.18,5.18,0,0,1,1.67-1.83A4,4,0,0,1,281.82,57.69Z" fill="#1992d6"></path>
    <path d="M288.4,70.82l-4.9-12.9h2.89l2.62,7.5a14.14,14.14,0,0,1,.82,3.06h.09a21.35,21.35,0,0,1,.82-3.06l2.63-7.5h2.91l-4.92,12.9Z" fill="#1992d6"></path>
    <path d="M298,54.5A1.39,1.39,0,0,1,299.51,53a1.51,1.51,0,0,1,1.13.4,1.5,1.5,0,0,1,.4,1.13,1.46,1.46,0,0,1-.4,1.1,1.52,1.52,0,0,1-1.13.41,1.55,1.55,0,0,1-1.15-.41A1.5,1.5,0,0,1,298,54.5Zm2.91,16.32h-2.75V57.92h2.75Z" fill="#1992d6"></path>
    <path d="M309.87,71.06a5.64,5.64,0,0,1-4.45-1.71,7.13,7.13,0,0,1-1.52-4.91,7.16,7.16,0,0,1,1.59-5,5.9,5.9,0,0,1,4.6-1.75,8.74,8.74,0,0,1,3.68.75l-.83,2.21a8.37,8.37,0,0,0-2.87-.68q-3.35,0-3.35,4.45a5.36,5.36,0,0,0,.83,3.26A2.9,2.9,0,0,0,310,68.77a7,7,0,0,0,3.46-.91v2.39a5.2,5.2,0,0,1-1.57.62A9,9,0,0,1,309.87,71.06Z" fill="#1992d6"></path>
    <path d="M322,71.06a6.24,6.24,0,0,1-4.7-1.76,6.63,6.63,0,0,1-1.7-4.84,7.33,7.33,0,0,1,1.57-5,5.46,5.46,0,0,1,4.33-1.8,5.3,5.3,0,0,1,4,1.55A5.92,5.92,0,0,1,327,63.51V65h-8.6a4.26,4.26,0,0,0,1,2.89,3.54,3.54,0,0,0,2.69,1,9.61,9.61,0,0,0,2.13-.22,10.63,10.63,0,0,0,2.12-.72v2.23a8.36,8.36,0,0,1-2,.68A12.64,12.64,0,0,1,322,71.06Zm-.5-11.3a2.75,2.75,0,0,0-2.09.83,3.92,3.92,0,0,0-.94,2.42h5.86a3.61,3.61,0,0,0-.77-2.42A2.65,2.65,0,0,0,321.51,59.76Z" fill="#1992d6"></path>
  </g>
</svg>
