<svg width="48" height="49" viewBox="0 0 48 49" fill="none" xmlns="http://www.w3.org/2000/svg">
<path d="M16.5 3.31592H3V16.8159H6V6.31592H16.5V3.31592Z" fill="#FF6813"/>
<path d="M3 31.8159V45.3159H16.5V42.3159H6V31.8159H3Z" fill="#FF6813"/>
<path d="M45 16.8159V3.31592H31.5V6.31592H42V16.8159H45Z" fill="#FF6813"/>
<path d="M31.5 45.3159H45V31.8159H42V42.3159H31.5V45.3159Z" fill="#FF6813"/>
<path d="M38.235 15.5109L24.735 8.01092C24.507 7.87927 24.2483 7.80996 23.985 7.80996C23.7217 7.80996 23.463 7.87927 23.235 8.01092L9.735 15.5109C9.50888 15.645 9.32196 15.8361 9.19297 16.0651C9.06397 16.2942 8.99742 16.5531 9 16.8159V31.8159C9.00046 32.0817 9.07153 32.3426 9.20595 32.5719C9.34037 32.8012 9.5333 32.9907 9.765 33.1209L23.265 40.6209C23.493 40.7526 23.7517 40.8219 24.015 40.8219C24.2783 40.8219 24.537 40.7526 24.765 40.6209L38.265 33.1209C38.4911 32.9869 38.678 32.7958 38.807 32.5667C38.936 32.3377 39.0026 32.0788 39 31.8159V16.8159C38.9995 16.5501 38.9285 16.2892 38.794 16.0599C38.6596 15.8306 38.4667 15.6412 38.235 15.5109ZM24 11.0259L34.41 16.8159L24 22.6059L13.59 16.8159L24 11.0259ZM12 19.3659L22.5 25.2009V36.7659L12 30.9309V19.3659ZM25.5 36.7659V25.2009L36 19.3659V30.9309L25.5 36.7659Z" fill="#FF6813"/>
</svg>
