<svg xmlns="http://www.w3.org/2000/svg"
	 width="" height="200px"
	 viewBox="0 0 353 494">
	<path id="Selection #1"
		  fill="#e0dfde" stroke="none" stroke-width="1"
		  d="M 110.00,358.00
           C 110.00,358.00 110.00,337.00 110.00,337.00
             109.98,325.06 107.59,328.07 93.00,319.40
             80.24,311.81 68.38,302.62 58.01,292.00
             37.07,270.55 22.94,243.11 16.35,214.00
             14.94,207.77 13.08,197.25 13.00,191.00
             12.82,175.45 12.38,161.36 15.45,146.00
             25.72,94.64 59.17,51.21 107.00,29.31
             170.13,0.40 248.42,15.00 295.91,66.00
             309.70,80.80 320.52,98.25 328.00,117.00
             333.63,131.12 338.98,151.81 339.00,167.00
             339.00,167.00 339.00,189.00 339.00,189.00
             338.95,220.76 322.51,257.70 302.74,282.00
             291.02,296.41 277.75,307.77 262.00,317.58
             258.19,319.95 244.66,326.44 243.02,329.21
             241.80,331.29 242.00,334.62 242.00,337.00
             242.00,337.00 242.00,358.00 242.00,358.00
             242.00,358.00 110.00,358.00 110.00,358.00 Z
           M 221.00,323.00
           C 221.00,323.00 221.00,313.00 221.00,313.00
             221.07,302.90 223.10,305.20 237.00,298.25
             249.75,291.87 263.00,283.19 272.99,273.00
             292.63,252.96 311.96,211.40 312.00,183.00
             312.00,183.00 312.00,173.00 312.00,173.00
             311.98,159.87 307.24,143.20 302.40,131.00
             286.53,91.01 264.06,67.98 224.00,52.00
             213.14,47.67 194.57,42.14 183.00,42.00
             183.00,42.00 171.00,42.00 171.00,42.00
             140.99,42.05 98.53,62.60 78.04,84.00
             58.96,103.92 40.04,145.09 40.00,173.00
             40.00,173.00 40.00,185.00 40.00,185.00
             40.10,192.87 42.69,203.36 44.86,211.00
             51.63,234.89 66.17,262.34 85.00,278.71
             93.99,286.53 106.29,293.98 117.00,299.24
             120.52,300.97 131.27,304.74 132.98,307.39
             134.56,309.85 134.00,319.66 134.00,323.00
             134.00,323.00 221.00,323.00 221.00,323.00 Z
           M 110.00,367.00
           C 110.00,367.00 242.00,367.00 242.00,367.00
             242.00,367.00 242.00,401.00 242.00,401.00
             242.00,401.00 110.00,401.00 110.00,401.00
             110.00,401.00 110.00,367.00 110.00,367.00 Z
           M 110.00,410.00
           C 110.00,410.00 242.00,410.00 242.00,410.00
             242.00,410.00 242.00,445.00 242.00,445.00
             242.00,445.00 220.00,445.00 220.00,445.00
             220.00,445.00 219.49,467.96 219.49,467.96
             218.85,469.99 217.65,471.59 215.81,472.69
             213.24,474.22 209.89,473.99 207.00,474.00
             207.00,474.00 145.00,474.00 145.00,474.00
             135.26,473.98 132.07,472.32 132.00,462.00
             132.00,462.00 132.00,445.00 132.00,445.00
             132.00,445.00 110.00,445.00 110.00,445.00
             110.00,445.00 110.00,410.00 110.00,410.00 Z
           M 691.00,361.00" />
</svg>
