<svg width="48" height="49" viewBox="0 0 48 49" fill="none" xmlns="http://www.w3.org/2000/svg">
<path d="M36 25.8164L38.868 31.3709L45 32.2619L40.5 36.3164L41.6565 42.3164L36 38.9414L30.3435 42.3164L31.5 36.3164L27 32.2619L33.3 31.3709L36 25.8164Z" fill="#FF6813"/>
<path d="M18 24.3164H9V27.3164H18V24.3164Z" fill="#FF6813"/>
<path d="M24 18.3164H9V21.3164H24V18.3164Z" fill="#FF6813"/>
<path d="M24 12.3164H9V15.3164H24V12.3164Z" fill="#FF6813"/>
<path d="M24 39.3164H6V9.31641H42V24.3164H45V9.31641C45 8.52076 44.6839 7.75769 44.1213 7.19509C43.5587 6.63248 42.7957 6.31641 42 6.31641H6C5.20435 6.31641 4.44129 6.63248 3.87868 7.19509C3.31607 7.75769 3 8.52076 3 9.31641V39.3164C3 40.1121 3.31607 40.8751 3.87868 41.4377C4.44129 42.0003 5.20435 42.3164 6 42.3164H24V39.3164Z" fill="#FF6813"/>
</svg>
