<svg width="24" height="25" viewBox="0 0 24 25" fill="none" xmlns="http://www.w3.org/2000/svg">
<rect width="24" height="24" transform="translate(0 0.631836)" fill="white" fill-opacity="0.01" style="mix-blend-mode:multiply"/>
<path d="M3 15.6319V17.1319H6.4395L1.5 22.0714L2.5605 23.1319L7.5 18.1924V21.6319H9V15.6319H3Z" fill="#1B1B1B"/>
<path d="M11.25 21.6319V20.1319C12.9098 20.1298 14.5108 19.5171 15.748 18.4106C16.9852 17.3041 17.772 15.7812 17.9586 14.1319H12C11.6023 14.1315 11.221 13.9733 10.9398 13.6921C10.6586 13.4109 10.5004 13.0296 10.5 12.6319V6.67329C8.85073 6.85988 7.32774 7.64673 6.22125 8.88391C5.11475 10.1211 4.50209 11.7221 4.5 13.3819H3C3.00248 11.1946 3.87247 9.09763 5.41911 7.551C6.96575 6.00436 9.06273 5.13437 11.25 5.13189C11.4489 5.13189 11.6397 5.21091 11.7803 5.35156C11.921 5.49221 12 5.68297 12 5.88189V12.6319H18.75C18.9489 12.6319 19.1397 12.7109 19.2803 12.8516C19.421 12.9922 19.5 13.183 19.5 13.3819C19.4975 15.5692 18.6275 17.6661 17.0809 19.2128C15.5343 20.7594 13.4373 21.6294 11.25 21.6319Z" fill="#1B1B1B"/>
<path d="M21.7543 11.1319H14.9963C14.7995 11.1318 14.6046 11.0929 14.4229 11.0175C14.2411 10.942 14.076 10.8315 13.9371 10.6922C13.7981 10.5528 13.688 10.3875 13.613 10.2055C13.538 10.0236 13.4996 9.82867 13.5 9.63189V2.88189C13.5008 2.78236 13.5213 2.68397 13.5602 2.59237C13.5991 2.50076 13.6557 2.41774 13.7268 2.34806C13.7979 2.27838 13.882 2.22342 13.9743 2.18632C14.0667 2.14923 14.1655 2.13073 14.265 2.13189C16.4471 2.13832 18.538 3.008 20.0809 4.55097C21.6239 6.09394 22.4936 8.18481 22.5 10.3669C22.5016 10.4662 22.4836 10.5648 22.4469 10.6571C22.4103 10.7494 22.3557 10.8335 22.2864 10.9046C22.2171 10.9758 22.1344 11.0324 22.0431 11.0714C21.9517 11.1104 21.8536 11.131 21.7543 11.1319ZM15 9.63189H20.9586C20.7862 8.11099 20.103 6.69355 19.0207 5.61123C17.9383 4.5289 16.5209 3.8457 15 3.67329V9.63189Z" fill="#1B1B1B"/>
</svg>
