<svg width="48" height="49" viewBox="0 0 48 49" fill="none" xmlns="http://www.w3.org/2000/svg">
<g clip-path="url(#clip0_401_1750)">
<path d="M24.0004 33.3164C22.4464 33.314 20.9196 32.9094 19.5685 32.1418C18.2174 31.3743 17.088 30.27 16.2904 28.9364L13.7254 30.4364C14.7933 32.2066 16.3004 33.6708 18.1006 34.6872C19.9008 35.7036 21.933 36.2377 24.0004 36.2377C26.0677 36.2377 28.0999 35.7036 29.9001 34.6872C31.7004 33.6708 33.2075 32.2066 34.2754 30.4364L31.7104 28.9364C30.9127 30.27 29.7833 31.3743 28.4322 32.1418C27.0811 32.9094 25.5543 33.314 24.0004 33.3164Z" fill="#FF6813"/>
<path d="M45.0004 6.31641H39.0004V0.316406H36.0004V6.31641H30.0004V9.31641H36.0004V15.3164H39.0004V9.31641H45.0004V6.31641Z" fill="#FF6813"/>
<path d="M17.2504 16.8164C16.5087 16.8164 15.7837 17.0363 15.167 17.4484C14.5503 17.8605 14.0696 18.4461 13.7858 19.1313C13.502 19.8166 13.4277 20.5706 13.5724 21.298C13.7171 22.0254 14.0743 22.6936 14.5987 23.2181C15.1232 23.7425 15.7913 24.0997 16.5188 24.2444C17.2462 24.389 18.0002 24.3148 18.6854 24.031C19.3706 23.7471 19.9563 23.2665 20.3684 22.6498C20.7804 22.0331 21.0004 21.3081 21.0004 20.5664C21.0044 20.0728 20.9101 19.5834 20.723 19.1266C20.536 18.6699 20.2599 18.2549 19.9109 17.9058C19.5619 17.5568 19.1469 17.2808 18.6901 17.0937C18.2334 16.9067 17.7439 16.8124 17.2504 16.8164Z" fill="#FF6813"/>
<path d="M30.7504 16.8164C30.0087 16.8164 29.2837 17.0363 28.667 17.4484C28.0503 17.8605 27.5696 18.4461 27.2858 19.1313C27.002 19.8166 26.9277 20.5706 27.0724 21.298C27.2171 22.0254 27.5743 22.6936 28.0987 23.2181C28.6232 23.7425 29.2913 24.0997 30.0188 24.2444C30.7462 24.389 31.5002 24.3148 32.1854 24.031C32.8706 23.7471 33.4563 23.2665 33.8684 22.6498C34.2804 22.0331 34.5004 21.3081 34.5004 20.5664C34.5044 20.0728 34.4101 19.5834 34.223 19.1266C34.036 18.6699 33.7599 18.2549 33.4109 17.9058C33.0619 17.5568 32.6469 17.2808 32.1901 17.0937C31.7334 16.9067 31.2439 16.8124 30.7504 16.8164Z" fill="#FF6813"/>
<path d="M41.4154 19.8164C41.7943 21.2867 41.9908 22.7981 42.0004 24.3164C42.0004 27.8765 40.9447 31.3566 38.9668 34.3167C36.9889 37.2768 34.1777 39.5839 30.8887 40.9462C27.5996 42.3086 23.9804 42.6651 20.4887 41.9705C16.9971 41.276 13.7898 39.5617 11.2724 37.0443C8.75509 34.527 7.04076 31.3197 6.34622 27.828C5.65169 24.3364 6.00815 20.7172 7.37053 17.4281C8.7329 14.139 11.04 11.3278 14.0001 9.34995C16.9602 7.37209 20.4403 6.31641 24.0004 6.31641V3.31641C19.6533 3.31492 15.413 4.66248 11.8643 7.17318C8.3156 9.68388 5.63353 13.234 4.18809 17.3337C2.74264 21.4333 2.60508 25.8806 3.79437 30.0617C4.98367 34.2429 7.4412 37.952 10.8279 40.6772C14.2146 43.4024 18.3636 45.0095 22.7024 45.2767C27.0412 45.5439 31.356 44.458 35.0515 42.1689C38.747 39.8798 41.6411 36.5003 43.3344 32.4966C45.0277 28.493 45.4369 24.0625 44.5054 19.8164H41.4154Z" fill="#FF6813"/>
</g>
<defs>
<clipPath id="clip0_401_1750">
<rect width="48" height="48" fill="white" transform="translate(0 0.316406)"/>
</clipPath>
</defs>
</svg>
