<?xml version="1.0" encoding="UTF-8"?>
<svg width="113" height="113" version="1.1" viewBox="0 0 113 113" xmlns="http://www.w3.org/2000/svg">
 <rect transform="translate(.33301 .31592)" width="112" height="112" fill="none" style="mix-blend-mode:multiply"/>
 <path d="m56.333 110.08c-5.5195 0-10.01-4.491-10.01-10.01 0-5.5198 4.4905-10.01 10.01-10.01s10.01 4.4905 10.01 10.01c0 5.519-4.4905 10.01-10.01 10.01zm0-17.5c-4.13 0-7.49 3.36-7.49 7.4903 0 4.13 3.36 7.49 7.49 7.49s7.49-3.36 7.49-7.49c0-4.1303-3.36-7.4903-7.49-7.4903zm15.953 5.8695-0.896-2.359c11.392-4.326 20.388-13.335 24.682-24.71l2.359 0.889c-4.55 12.054-14.08 21.595-26.145 26.18zm-31.906 0c-12.068-4.5885-21.598-14.13-26.142-26.176l2.359-0.889c4.291 11.372 13.282 20.377 24.678 24.71l-0.896 2.3555zm15.953-16.37c-14.203 0-25.76-11.56-25.76-25.764s11.557-25.756 25.76-25.756c14.206 0 25.76 11.557 25.76 25.76s-11.554 25.76-25.76 25.76zm-5.068-3.0765c1.631 0.364 3.3285 0.553 5.068 0.553 11.26 0 20.671-8.0465 22.792-18.69h-3.1675c-1.169 0-2.254-0.63-2.8315-1.638l-3.9095-6.79c-0.574-1.0045-0.574-2.254 0.0035-3.255l4.648-8.1025c-3.9235-4.5115-9.555-7.497-15.88-7.945l2.5025 4.333c0.7665 1.323 0.5145 2.975-0.5985 4.0145l-6.503 6.0795c-0.252 0.238-0.308 0.6125-0.1365 0.9135l9.4045 16.334c0.763 1.3125 0.518 2.961-0.5915 4.004l-10.801 10.188zm-5.446-1.96c0.8505 0.434 1.7325 0.8155 2.6425 1.1445l11.879-11.207c0.252-0.238 0.308-0.609 0.1365-0.9065l-9.408-16.338c-0.7595-1.3195-0.5145-2.9715 0.602-4.011l6.503-6.0795c0.252-0.2345 0.308-0.6125 0.1365-0.9135l-3.2445-5.6175c-7.903 0.427-14.766 4.8195-18.634 11.221l2.415 4.158c0.133 0.2275 0.378 0.371 0.644 0.371h6.4575c1.1655 0 2.247 0.6265 2.828 1.631l2.653 4.592c0.7595 1.316 0.518 2.9645-0.588 4.011l-3.5595 3.346c-0.252 0.2345-0.308 0.6125-0.133 0.9135l2.3485 4.0705c0.5845 1.0045 0.5845 2.2575 0 3.2655l-3.6785 6.349zm-10.766-30.062c-1.26 2.856-1.96 6.0165-1.96 9.338 0 8.134 4.2 15.306 10.546 19.46l3.675-6.3525c0.133-0.2275 0.133-0.511 0-0.7385l-2.3485-4.074c-0.7595-1.3195-0.518-2.9715 0.5915-4.011l3.556-3.3425c0.252-0.238 0.308-0.6125 0.1365-0.9135l-2.653-4.592c-0.133-0.231-0.378-0.371-0.644-0.371h-6.4575c-1.1585 0-2.24-0.623-2.8245-1.624l-1.617-2.779zm40.481-3.7415-4.1335 7.203c-0.133 0.2275-0.133 0.511 0 0.742l3.9095 6.7935c0.1296 0.231 0.3745 0.3745 0.644 0.3745h3.5315c0.0595-0.6685 0.084-1.3475 0.084-2.0335 0.0035-4.8475-1.4875-9.352-4.0355-13.08zm24.549 23.09c-5.5193 0-10.01-4.4905-10.01-10.01s4.4905-10.01 10.01-10.01c5.52 0 10.01 4.4905 10.01 10.01s-4.49 10.01-10.01 10.01zm0-17.5c-4.1298 0-7.4898 3.36-7.4898 7.49s3.36 7.49 7.4898 7.49c4.13 0 7.49-3.36 7.49-7.49s-3.36-7.49-7.49-7.49zm-87.5 17.5c-5.5195 0-10.01-4.4905-10.01-10.01s4.4905-10.01 10.01-10.01c5.5195 0 10.01 4.4905 10.01 10.01s-4.4905 10.01-10.01 10.01zm0-17.5c-4.13 0-7.49 3.36-7.49 7.49s3.36 7.49 7.49 7.49c4.13 0 7.49-3.36 7.49-7.49s-3.36-7.49-7.49-7.49zm83.489-7.567c-4.319-11.364-13.318-20.36-24.682-24.682l0.896-2.3555c12.033 4.5745 21.564 14.102 26.145 26.142l-2.359 0.896zm-79.478 0-2.3555-0.896c4.578-12.036 14.102-21.564 26.138-26.142l0.896 2.3555c-11.361 4.3225-20.356 13.318-24.678 24.682zm39.739-18.683c-5.5195 0-10.01-4.4905-10.01-10.01 0-5.5195 4.4905-10.01 10.01-10.01s10.01 4.4905 10.01 10.01c0 5.5195-4.4905 10.01-10.01 10.01zm0-17.5c-4.13 0-7.49 3.36-7.49 7.49 0 4.13 3.36 7.49 7.49 7.49s7.49-3.36 7.49-7.49c0-4.13-3.36-7.49-7.49-7.49z" fill="#fff" stroke="#fff"/>
</svg>
