<svg xmlns="http://www.w3.org/2000/svg" width="112" height="112" viewBox="0 0 32 32" fill="none">
  <rect width="112" height="112" fill="none" style="mix-blend-mode:multiply"/>
  <path d="M24.36 30.9996H23.64V23.4996C23.64 19.9476 21.226 16.8956 17.768 16.0756C17.618 16.0396 17.507 15.9126 17.493 15.7596C17.478 15.6056 17.564 15.4596 17.705 15.3966C19.222 14.7216 20.201 13.2156 20.201 11.5606C20.201 9.24463 18.317 7.35963 16.001 7.35963C13.685 7.35963 11.8 9.24363 11.8 11.5606C11.8 13.2156 12.78 14.7226 14.296 15.3966C14.437 15.4596 14.523 15.6056 14.508 15.7596C14.494 15.9126 14.383 16.0406 14.233 16.0756C10.775 16.8956 8.36101 19.9476 8.36101 23.4996V30.9996H7.64001V23.4996C7.64001 19.9076 9.89701 16.7816 13.225 15.6206C11.899 14.7136 11.079 13.1996 11.079 11.5596C11.079 9.59563 12.236 7.89563 13.905 7.10763C14.101 6.61662 14.2 6.09663 14.2 5.56063C14.2 3.24463 12.316 1.35963 10 1.35963C7.68401 1.35963 5.79901 3.24363 5.79901 5.56063C5.79901 7.21663 6.77901 8.72263 8.29501 9.39663C8.43702 9.45963 8.52101 9.60563 8.50701 9.75963C8.49301 9.91263 8.38202 10.0406 8.23202 10.0756C4.77402 10.8956 2.36001 13.9476 2.36001 17.4996V24.9996H1.64001V17.4996C1.64001 13.9076 3.89701 10.7816 7.22501 9.62063C5.89901 8.71363 5.08001 7.19963 5.08001 5.56063C5.08001 2.84763 7.28701 0.640625 10 0.640625C12.713 0.640625 14.92 2.84763 14.92 5.56063C14.92 5.98263 14.868 6.39663 14.763 6.79763C15.554 6.59263 16.446 6.59263 17.236 6.79763C17.132 6.39663 17.079 5.98263 17.079 5.56063C17.079 2.84763 19.287 0.640625 22 0.640625C24.713 0.640625 26.921 2.84763 26.921 5.56063C26.921 7.20062 26.101 8.71463 24.775 9.62162C28.104 10.7826 30.361 13.9086 30.361 17.5006V24.9996H29.64V17.4996C29.64 13.9476 27.226 10.8956 23.768 10.0756C23.618 10.0396 23.507 9.91263 23.493 9.75963C23.478 9.60563 23.564 9.45963 23.705 9.39663C25.221 8.72163 26.2 7.21562 26.2 5.56063C26.2 3.24463 24.316 1.35963 22 1.35963C19.684 1.35963 17.8 3.24363 17.8 5.56063C17.8 6.09663 17.899 6.61663 18.095 7.10863C19.764 7.89763 20.921 9.59663 20.921 11.5606C20.921 13.2006 20.101 14.7146 18.775 15.6216C22.104 16.7826 24.361 19.9086 24.361 23.5006L24.36 30.9996Z" fill="#FF6813" stroke="#FF6813"/>
</svg>