<svg width="160" height="161" viewBox="0 0 160 161" fill="none" xmlns="http://www.w3.org/2000/svg">
<path d="M80.0002 157.116C37.6502 157.116 3.2002 122.666 3.2002 80.3159C3.2002 37.9659 37.6502 3.51587 80.0002 3.51587C97.1052 3.51587 113.23 8.98587 126.725 19.3559C127.695 18.8209 128.815 18.5159 130 18.5159C133.75 18.5159 136.8 21.5659 136.8 25.3159C136.8 26.2759 136.6 27.1909 136.24 28.0209C149.51 42.2759 156.8 60.7909 156.8 80.3159C156.8 122.666 122.35 157.116 80.0002 157.116ZM81.8002 61.8759V153.496C89.2652 153.316 96.4452 152.011 103.2 149.751V46.8759C100.325 46.0859 98.2002 43.4459 98.2002 40.3159C98.2002 36.5659 101.25 33.5159 105 33.5159C108.75 33.5159 111.8 36.5659 111.8 40.3159C111.8 43.4409 109.675 46.0809 106.8 46.8759V148.436C114.69 145.321 121.915 140.866 128.195 135.366V31.8759C125.32 31.0859 123.195 28.4459 123.195 25.3159C123.195 24.0709 123.53 22.9059 124.12 21.9009C111.35 12.2209 96.1302 7.11587 80.0002 7.11587C39.6352 7.11587 6.8002 39.9509 6.8002 80.3159C6.8002 100.466 14.9852 118.741 28.2002 131.986V91.8759C25.3202 91.0859 23.2002 88.4409 23.2002 85.3159C23.2002 81.5659 26.2502 78.5159 30.0002 78.5159C33.7502 78.5159 36.8002 81.5659 36.8002 85.3159C36.8002 88.4409 34.6802 91.0809 31.8002 91.8759V135.366C38.0802 140.871 45.3102 145.321 53.2002 148.436V76.8759C50.3202 76.0859 48.2002 73.4459 48.2002 70.3159C48.2002 66.5659 51.2502 63.5159 55.0002 63.5159C58.7502 63.5159 61.8002 66.5659 61.8002 70.3159C61.8002 73.4409 59.6802 76.0809 56.8002 76.8759V149.751C63.5552 152.011 70.7402 153.316 78.2002 153.496V61.8759C75.3202 61.0859 73.2002 58.4459 73.2002 55.3159C73.2002 51.5659 76.2502 48.5159 80.0002 48.5159C83.7502 48.5159 86.8002 51.5659 86.8002 55.3159C86.8002 58.4409 84.6802 61.0809 81.8002 61.8759ZM131.8 31.8759V131.986C145.02 118.741 153.2 100.466 153.2 80.3159C153.2 61.8759 146.38 44.3809 133.95 30.8459C133.31 31.3059 132.585 31.6609 131.8 31.8759ZM30.0002 82.1159C28.2352 82.1159 26.8002 83.5509 26.8002 85.3159C26.8002 87.0809 28.2352 88.5159 30.0002 88.5159C31.7652 88.5159 33.2002 87.0809 33.2002 85.3159C33.2002 83.5509 31.7652 82.1159 30.0002 82.1159ZM55.0002 67.1159C53.2352 67.1159 51.8002 68.5509 51.8002 70.3159C51.8002 72.0809 53.2352 73.5159 55.0002 73.5159C56.7652 73.5159 58.2002 72.0809 58.2002 70.3159C58.2002 68.5509 56.7652 67.1159 55.0002 67.1159ZM80.0002 52.1159C78.2352 52.1159 76.8002 53.5509 76.8002 55.3159C76.8002 57.0809 78.2352 58.5159 80.0002 58.5159C81.7652 58.5159 83.2002 57.0809 83.2002 55.3159C83.2002 53.5509 81.7652 52.1159 80.0002 52.1159ZM105 37.1159C103.235 37.1159 101.8 38.5509 101.8 40.3159C101.8 42.0809 103.235 43.5159 105 43.5159C106.765 43.5159 108.2 42.0809 108.2 40.3159C108.2 38.5509 106.765 37.1159 105 37.1159ZM130 22.1159C128.235 22.1159 126.8 23.5509 126.8 25.3159C126.8 27.0809 128.235 28.5159 130 28.5159C131.765 28.5159 133.2 27.0809 133.2 25.3159C133.2 23.5509 131.765 22.1159 130 22.1159Z" fill="#FF6813"/>
</svg>
