<svg width="25" height="25" viewBox="0 0 25 25" fill="none" xmlns="http://www.w3.org/2000/svg">
<g id="Search">
<rect width="24" height="24" transform="translate(0.5 0.315918)" fill="white" fill-opacity="0.01" style="mix-blend-mode:multiply"/>
<path id="Vector" d="M22.2502 21.0053L16.5861 15.3412C17.9471 13.7072 18.6258 11.6114 18.481 9.48979C18.3362 7.36816 17.3789 5.38404 15.8085 3.95018C14.238 2.51632 12.1752 1.74313 10.0492 1.79144C7.92316 1.83975 5.89761 2.70585 4.39389 4.20957C2.89018 5.71328 2.02408 7.73883 1.97577 9.86486C1.92746 11.9909 2.70065 14.0537 4.13451 15.6242C5.56836 17.1946 7.55248 18.1518 9.67412 18.2967C11.7958 18.4415 13.8915 17.7628 15.5255 16.4018L21.1896 22.0659L22.2502 21.0053ZM3.50018 10.0659C3.50018 8.73083 3.89606 7.42578 4.63776 6.31575C5.37946 5.20572 6.43366 4.34056 7.66706 3.82966C8.90047 3.31877 10.2577 3.1851 11.567 3.44555C12.8764 3.706 14.0791 4.34888 15.0231 5.29288C15.9672 6.23689 16.61 7.43962 16.8705 8.74899C17.1309 10.0584 16.9973 11.4156 16.4864 12.649C15.9755 13.8824 15.1103 14.9366 14.0003 15.6783C12.8902 16.42 11.5852 16.8159 10.2502 16.8159C8.46058 16.8139 6.74484 16.1021 5.4794 14.8366C4.21396 13.5712 3.50216 11.8555 3.50018 10.0659Z" fill="#1B1B1B"/>
</g>
</svg>
