<svg width="32" height="22" viewBox="0 0 32 22" fill="none" xmlns="http://www.w3.org/2000/svg">
<path d="M25.8 8.38671C24.8933 3.78671 20.8533 0.333374 16 0.333374C12.1467 0.333374 8.8 2.52004 7.13333 5.72004C3.12 6.14671 0 9.54671 0 13.6667C0 18.08 3.58667 21.6667 8 21.6667H25.3333C29.0133 21.6667 32 18.68 32 15C32 11.48 29.2667 8.62671 25.8 8.38671ZM14.28 16.72C13.76 17.24 12.92 17.24 12.4 16.72L9.6 13.9334C9.08 13.4134 9.08 12.5734 9.6 12.0534C10.12 11.5334 10.96 11.5334 11.48 12.0534L13.3333 13.9067L19.3067 7.93337C19.8267 7.41337 20.6667 7.41337 21.1867 7.93337C21.7067 8.45337 21.7067 9.29337 21.1867 9.81337L14.28 16.72Z" fill="#4BB917"/>
</svg>
