

<svg xmlns="http://www.w3.org/2000/svg" width="112" height="112" viewBox="0 0 32 32" fill="none">
  <g clip-path="url(#clip0_1_249)">
    <rect width="112" height="112" fill="none" style="mix-blend-mode:multiply"/>
    <path d="M27.745 31.2546L22.966 26.4756L19.216 29.2876C19.067 29.3976 18.857 29.3786 18.733 29.2406L10.014 19.5526L1.27901 30.2276L0.721008 29.7726L9.72101 18.7726C9.78801 18.6906 9.88701 18.6426 9.99201 18.6396C10.065 18.6376 10.197 18.6817 10.268 18.7586L14.749 23.7376L20.898 16.2216L13.015 6.58665L2.29101 21.2126L1.71001 20.7866L12.64 5.88165V0.999648C12.64 0.800648 12.801 0.639648 13 0.639648H17C17.199 0.639648 17.36 0.800648 17.36 0.999648V3.99965C17.36 4.19865 17.199 4.35965 17 4.35965H13.36V5.87165L21.363 15.6536L23.721 12.7716C23.787 12.6896 23.887 12.6416 23.993 12.6396C24.087 12.6436 24.2 12.6826 24.269 12.7626L31.269 20.7626L30.728 21.2376L24.007 13.5576L15.235 24.2796L19.047 28.5146L22.783 25.7116C22.926 25.6056 23.126 25.6187 23.254 25.7446L28.254 30.7446L27.745 31.2546ZM13.36 3.63965H16.64V1.35965H13.36V3.63965ZM27.689 8.23465H23.088C22.289 8.23465 21.639 7.58165 21.639 6.77865C21.639 5.83865 22.517 5.06265 23.359 5.22465C23.641 4.29565 24.499 3.64065 25.509 3.64065C26.336 3.64065 27.075 4.08065 27.469 4.78365C28.416 4.65965 29.36 5.52965 29.36 6.56565C29.36 7.48565 28.61 8.23465 27.689 8.23465ZM23.089 5.91865C22.679 5.91865 22.36 6.38065 22.36 6.77865C22.36 7.18465 22.686 7.51465 23.089 7.51465H27.69C28.214 7.51465 28.64 7.08865 28.64 6.56465C28.64 6.00165 28.187 5.48865 27.69 5.48865C27.586 5.48865 27.484 5.50565 27.385 5.53965C27.204 5.60365 27.003 5.50865 26.934 5.32965C26.704 4.74065 26.145 4.35965 25.51 4.35965C24.718 4.35965 24.064 4.95165 23.989 5.73665C23.977 5.85865 23.905 5.96565 23.797 6.02165C23.688 6.07865 23.558 6.07465 23.452 6.01565C23.34 5.95165 23.218 5.91865 23.089 5.91865Z" fill="#FF6813" stroke="#FF6813" />
  </g>
 
</svg>