<svg width="160" height="161" viewBox="0 0 160 161" fill="none" xmlns="http://www.w3.org/2000/svg">
<path d="M141.542 160.991L116.512 135.91L96.8705 150.668C96.0901 151.245 94.9902 151.145 94.3407 150.421L48.6736 99.576L2.92261 155.601L0 153.213L47.1389 95.4824C47.4899 95.052 48.0084 94.8001 48.5583 94.7844C48.9407 94.7739 49.6321 95.0048 50.0039 95.4089L73.4739 121.54L105.68 82.0941L64.3918 31.5273L8.22312 108.288L5.18004 106.052L62.4277 27.8272V2.20529C62.4277 1.16089 63.2709 0.315918 64.3132 0.315918H85.2638C86.3061 0.315918 87.1494 1.16089 87.1494 2.20529V17.95C87.1494 18.9944 86.3061 19.8394 85.2638 19.8394H66.1988V27.7748L108.116 79.1131L120.466 63.9877C120.812 63.5573 121.336 63.3054 121.891 63.2949C122.383 63.3159 122.975 63.5206 123.336 63.9404L160 105.926L157.166 108.419L121.964 68.1128L76.0194 124.385L95.9853 146.611L115.553 131.9C116.302 131.344 117.35 131.412 118.02 132.073L144.208 158.314L141.542 160.991ZM66.1988 16.0607H83.3783V4.09466H66.1988V16.0607ZM141.249 40.1764H117.151C112.966 40.1764 109.561 36.7493 109.561 32.5349C109.561 27.6016 114.16 23.5289 118.57 24.3791C120.047 19.5035 124.541 16.0659 129.831 16.0659C134.163 16.0659 138.033 18.3751 140.097 22.0647C145.057 21.4139 150.001 25.9799 150.001 31.417C150.001 36.2454 146.073 40.1764 141.249 40.1764ZM117.156 28.0214C115.009 28.0214 113.338 30.4461 113.338 32.5349C113.338 34.6657 115.045 36.3976 117.156 36.3976H141.254C143.999 36.3976 146.23 34.1619 146.23 31.4118C146.23 28.457 143.858 25.7647 141.254 25.7647C140.71 25.7647 140.175 25.8539 139.657 26.0323C138.709 26.3682 137.656 25.8696 137.295 24.9302C136.09 21.839 133.162 19.8394 129.836 19.8394C125.688 19.8394 122.263 22.9464 121.87 27.0662C121.807 27.7065 121.43 28.2681 120.864 28.562C120.293 28.8611 119.612 28.8401 119.057 28.5305C118.471 28.1946 117.832 28.0214 117.156 28.0214Z" fill="#FF6813"/>
</svg>
