<svg width="1248" height="183" viewBox="0 0 1248 183" fill="none" xmlns="http://www.w3.org/2000/svg">
<path d="M271.47 174L259.02 132.666H201.003L188.553 174H150.207L207.477 0.197998H254.289L310.812 174H271.47ZM230.385 34.56H229.14L209.967 100.545H249.807L230.385 34.56Z" fill="#FF6813"/>
<path d="M391.239 33.813V174H353.391V33.813H306.33V0.197998H438.3V33.813H391.239Z" fill="#FF6813"/>
<path d="M555.081 174L542.631 132.666H484.614L472.164 174H433.818L491.088 0.197998H537.9L594.423 174H555.081ZM513.996 34.56H512.751L493.578 100.545H533.418L513.996 34.56Z" fill="#FF6813"/>
<path d="M618.576 174V0.197998H656.424V140.385H722.658V174H618.576Z" fill="#FF6813"/>
<path d="M861.849 174L849.399 132.666H791.382L778.932 174H740.586L797.856 0.197998H844.668L901.191 174H861.849ZM820.764 34.56H819.519L800.346 100.545H840.186L820.764 34.56Z" fill="#FF6813"/>
<path d="M978.381 91.83L961.698 56.97H960.951V174H925.344V0.197998H966.678L1014.24 82.368L1030.92 117.228H1031.67V0.197998H1067.27V174H1025.94L978.381 91.83Z" fill="#FF6813"/>
<path d="M1105.62 0.197998H1171.11C1182.56 0.197998 1193.02 2.02399 1202.48 5.67599C1211.94 9.328 1219.99 14.7645 1226.63 21.9855C1233.27 29.2065 1238.42 38.2535 1242.07 49.1265C1245.72 59.9995 1247.55 72.657 1247.55 87.099C1247.55 101.541 1245.72 114.199 1242.07 125.072C1238.42 135.945 1233.27 144.992 1226.63 152.212C1219.99 159.433 1211.94 164.87 1202.48 168.522C1193.02 172.174 1182.56 174 1171.11 174H1105.62V0.197998ZM1171.11 140.385C1182.4 140.385 1191.28 137.231 1197.75 130.923C1204.22 124.615 1207.46 114.489 1207.46 100.545V73.653C1207.46 59.709 1204.22 49.583 1197.75 43.275C1191.28 36.967 1182.4 33.813 1171.11 33.813H1143.47V140.385H1171.11Z" fill="#FF6813"/>
<path fill-rule="evenodd" clip-rule="evenodd" d="M139.869 48.9276C136.126 38.055 130.851 29.0079 124.044 21.7866C117.238 14.5659 108.985 9.12957 99.2865 5.4776C89.5875 1.82562 78.8678 0 67.1265 0H0V34.76H36H40.4805H64.626C76.317 34.76 91.2368 36.7681 97.9418 43.0763C104.647 49.3838 108 59.5098 108 73.4537V100.346C108 114.289 104.647 124.415 97.9418 130.723C91.2368 137.031 76.317 139.04 64.626 139.04H36V69.52H0V173.8H67.1265C78.8678 173.8 89.5875 171.974 99.2865 168.322C108.985 164.67 117.238 159.233 124.044 152.013C130.851 144.791 136.126 135.744 139.869 124.872C143.612 113.999 144 101.341 144 86.9C144 72.4579 143.612 59.8002 139.869 48.9276Z" fill="#FF6813"/>
</svg>
